<?xml version="1.0" encoding="UTF-8" standalone="no"?>
<!-- Generator: Adobe Illustrator 18.0.0, SVG Export Plug-In . SVG Version: 6.00 Build 0)  -->

<svg
   version="1.1"
   id="Layer_1"
   x="0px"
   y="0px"
   viewBox="0 0 271.39999 260.60001"
   enable-background="new 0 0 360 360"
   xml:space="preserve"
   sodipodi:docname="cwrubotix.svg"
   width="271.39999"
   height="260.60001"
   inkscape:version="1.2 (dc2aedaf03, 2022-05-15)"
   xmlns:inkscape="http://www.inkscape.org/namespaces/inkscape"
   xmlns:sodipodi="http://sodipodi.sourceforge.net/DTD/sodipodi-0.dtd"
   xmlns="http://www.w3.org/2000/svg"
   xmlns:svg="http://www.w3.org/2000/svg"><defs
   id="defs159" /><sodipodi:namedview
   id="namedview157"
   pagecolor="#505050"
   bordercolor="#ffffff"
   borderopacity="1"
   inkscape:showpageshadow="0"
   inkscape:pageopacity="0"
   inkscape:pagecheckerboard="1"
   inkscape:deskcolor="#505050"
   showgrid="false"
   inkscape:zoom="2.3138889"
   inkscape:cx="104.80192"
   inkscape:cy="123.38535"
   inkscape:window-width="1920"
   inkscape:window-height="991"
   inkscape:window-x="2551"
   inkscape:window-y="581"
   inkscape:window-maximized="1"
   inkscape:current-layer="Layer_1" />
<path
   fill="none"
   stroke="#000000"
   stroke-width="10"
   stroke-miterlimit="10"
   d="M 141.3,230.8"
   id="path2" />
<path
   fill="none"
   stroke="#000000"
   stroke-width="10"
   stroke-miterlimit="10"
   d="M 142,29.6"
   id="path4" />
<g
   id="g22"
   transform="translate(-45.8,-56.5)">
	<path
   d="m 181.1,61.3 v 6.4 1.6 h -1 -13.5 c -0.2,0 -0.3,0 -0.5,0 -0.1,0 -0.3,-0.1 -0.5,-0.2 -0.2,-0.1 -0.4,-0.2 -0.5,-0.3 -0.1,-0.1 -0.3,-0.3 -0.4,-0.5 -0.3,-0.3 -0.5,-0.8 -0.7,-1.5 -0.2,-0.7 -0.3,-1.4 -0.3,-2.3 v -6.4 -1.6 h 1 13.5 c 0.2,0 0.3,0 0.5,0.1 0.1,0 0.3,0.1 0.5,0.2 0.4,0.1 0.7,0.4 1,0.9 0.3,0.4 0.5,0.8 0.7,1.5 0.1,0.5 0.2,1.2 0.2,2.1 z m -14.5,4.8 h 12.6 v -4.8 c 0,-0.6 -0.1,-1 -0.3,-1.3 -0.2,-0.1 -0.4,-0.2 -0.6,-0.3 h -12.6 v 4.8 c 0,0.6 0.1,1.1 0.3,1.2 0.2,0.3 0.4,0.4 0.6,0.4 z"
   id="path6" />
	<path
   d="m 179.2,76.5 c 0.6,0 1.1,0.3 1.3,0.8 0.3,0.6 0.4,1.1 0.5,1.5 l 0.1,0.9 h -1 -14.5 c -0.1,0 -0.1,0 -0.2,0 -0.1,0 -0.3,-0.1 -0.5,-0.1 -0.2,0 -0.4,-0.3 -0.8,-0.8 -0.4,-0.5 -0.5,-1.3 -0.5,-2.3 h 1 z"
   id="path8" />
	<path
   d="m 179.1,87 c 0.6,0 1.1,0.3 1.3,0.8 0.3,0.6 0.4,1.1 0.5,1.5 l 0.1,0.9 h -1 -14.5 c -0.1,0 -0.1,0 -0.2,0 -0.1,0 -0.3,-0.1 -0.5,-0.1 -0.2,0 -0.4,-0.3 -0.8,-0.8 -0.3,-0.5 -0.5,-1.3 -0.5,-2.3 h 1 z"
   id="path10" />
	<path
   d="m 179.1,97.4 c 0.6,0 1.1,0.3 1.3,0.8 0.3,0.6 0.4,1.1 0.5,1.5 l 0.1,0.9 h -1 -14.5 c -0.1,0 -0.1,0 -0.2,0 -0.1,0 -0.3,-0.1 -0.5,-0.1 -0.2,0 -0.4,-0.3 -0.8,-0.8 -0.3,-0.5 -0.5,-1.3 -0.5,-2.3 h 1 z"
   id="path12" />
	<path
   d="m 181,112.6 v 6.4 1.6 h -1 -13.5 c -0.2,0 -0.3,0 -0.5,0 -0.1,0 -0.3,-0.1 -0.5,-0.2 -0.2,-0.1 -0.4,-0.2 -0.5,-0.3 -0.1,-0.1 -0.3,-0.3 -0.4,-0.5 -0.3,-0.3 -0.5,-0.8 -0.7,-1.5 -0.2,-0.7 -0.3,-1.4 -0.3,-2.3 v -6.4 -1.6 h 1 13.5 c 0.2,0 0.3,0 0.5,0.1 0.1,0 0.3,0.1 0.5,0.2 0.4,0.1 0.7,0.4 1,0.9 0.3,0.4 0.5,0.8 0.7,1.5 0.1,0.5 0.2,1.3 0.2,2.1 z m -14.6,4.8 H 179 v -4.8 c 0,-0.6 -0.1,-1 -0.3,-1.3 -0.2,-0.1 -0.4,-0.2 -0.6,-0.3 h -12.6 v 4.8 c 0,0.6 0.1,1.1 0.3,1.2 0.2,0.3 0.4,0.4 0.6,0.4 z"
   id="path14" />
	<path
   d="m 180.9,132.8 v 6.4 1.6 h -1 -13.5 c -0.2,0 -0.3,0 -0.5,0 -0.1,0 -0.3,-0.1 -0.5,-0.2 -0.2,-0.1 -0.4,-0.2 -0.5,-0.3 -0.1,-0.1 -0.3,-0.3 -0.4,-0.5 -0.3,-0.3 -0.5,-0.8 -0.7,-1.5 -0.2,-0.7 -0.3,-1.4 -0.3,-2.3 v -6.4 -1.6 h 1 13.5 c 0.2,0 0.3,0 0.5,0.1 0.1,0 0.3,0.1 0.5,0.2 0.4,0.1 0.7,0.4 1,0.9 0.3,0.4 0.5,0.8 0.7,1.5 0.1,0.4 0.2,1.2 0.2,2.1 z m -14.5,4.8 H 179 v -4.8 c 0,-0.6 -0.1,-1 -0.3,-1.3 -0.2,-0.1 -0.4,-0.2 -0.6,-0.3 h -12.6 v 4.8 c 0,0.6 0.1,1.1 0.3,1.2 0.1,0.2 0.3,0.4 0.6,0.4 z"
   id="path16" />
	<path
   d="m 178.9,148 c 0.6,0 1.1,0.3 1.3,0.8 0.3,0.6 0.4,1.1 0.5,1.5 l 0.1,0.9 h -1 -14.5 c -0.1,0 -0.1,0 -0.2,0 -0.1,0 -0.3,-0.1 -0.5,-0.1 -0.2,0 -0.4,-0.3 -0.8,-0.8 -0.3,-0.5 -0.5,-1.3 -0.5,-2.3 h 1 z"
   id="path18" />
	<path
   d="m 180.8,163.3 v 6.4 1.6 h -1 -13.5 c -0.2,0 -0.3,0 -0.5,0 -0.1,0 -0.3,-0.1 -0.5,-0.2 -0.2,-0.1 -0.4,-0.2 -0.5,-0.3 -0.1,-0.1 -0.3,-0.3 -0.4,-0.5 -0.3,-0.3 -0.5,-0.8 -0.7,-1.5 -0.2,-0.7 -0.3,-1.4 -0.3,-2.3 v -6.4 -1.6 h 1 13.5 c 0.2,0 0.3,0 0.5,0.1 0.1,0 0.3,0.1 0.5,0.2 0.4,0.1 0.7,0.4 1,0.9 0.3,0.4 0.5,0.8 0.7,1.5 0.1,0.4 0.2,1.2 0.2,2.1 z m -14.5,4.8 h 12.6 v -4.8 c 0,-0.6 -0.1,-1 -0.3,-1.3 -0.2,-0.1 -0.4,-0.2 -0.6,-0.3 h -12.6 v 4.8 c 0,0.6 0.1,1.1 0.3,1.2 0.1,0.3 0.3,0.4 0.6,0.4 z"
   id="path20" />
</g>
<g
   id="g40"
   transform="translate(-45.8,-56.5)">
	<path
   d="m 86.1,87.5 4.5,4.6 1.2,1.2 -0.7,0.7 -9.6,9.5 c -0.1,0.1 -0.3,0.2 -0.4,0.3 -0.1,0.1 -0.3,0.1 -0.5,0.2 -0.2,0.1 -0.4,0.1 -0.6,0.1 -0.2,0 -0.4,0 -0.7,-0.1 -0.4,0 -1,-0.2 -1.6,-0.5 -0.6,-0.3 -1.2,-0.8 -1.8,-1.4 l -4.5,-4.6 -1.2,-1.2 0.7,-0.7 9.6,-9.5 c 0.1,-0.1 0.2,-0.2 0.4,-0.3 0.1,-0.1 0.3,-0.1 0.5,-0.2 0.4,-0.1 0.8,-0.2 1.3,-0.1 0.4,0.1 1,0.2 1.6,0.5 0.6,0.4 1.2,0.9 1.8,1.5 z m -6.9,13.7 8.9,-8.9 -3.4,-3.4 c -0.4,-0.4 -0.8,-0.7 -1.2,-0.7 -0.2,0 -0.4,0.1 -0.7,0.3 l -8.8,8.8 3.4,3.4 c 0.5,0.5 0.8,0.7 1.1,0.6 0.3,0.1 0.6,0 0.7,-0.1 z"
   id="path24" />
	<path
   d="m 97.2,101.4 c 0.4,-0.4 1,-0.6 1.5,-0.4 0.5,0.2 1.1,0.5 1.4,0.7 l 0.7,0.5 -0.7,0.7 -10.3,10.2 c -0.1,0.1 -0.1,0.1 -0.1,0.1 -0.1,0.1 -0.3,0.1 -0.4,0.2 -0.1,0.1 -0.5,0.1 -1.1,0 -0.6,-0.1 -1.3,-0.5 -2,-1.3 l 0.7,-0.7 z"
   id="path26" />
	<path
   d="m 106.2,110.5 c 0.4,-0.4 1,-0.6 1.5,-0.4 0.6,0.2 1.1,0.4 1.4,0.7 l 0.7,0.5 -0.7,0.7 -10.3,10.2 c -0.1,0.1 -0.1,0.1 -0.1,0.1 -0.1,0.1 -0.3,0.1 -0.4,0.2 -0.1,0.1 -0.5,0.1 -1.1,0 -0.6,-0.1 -1.3,-0.5 -2,-1.3 l 0.7,-0.7 z"
   id="path28" />
	<path
   d="m 120,121.6 4.5,4.6 1.2,1.2 -0.7,0.6 -9.6,9.5 c -0.1,0.1 -0.3,0.2 -0.4,0.3 -0.1,0.1 -0.3,0.1 -0.5,0.2 -0.2,0.1 -0.4,0.1 -0.6,0.1 -0.2,0 -0.4,0 -0.7,-0.1 -0.4,0 -1,-0.2 -1.6,-0.5 -0.6,-0.3 -1.2,-0.8 -1.8,-1.4 l -4.5,-4.6 -1.2,-1.2 0.7,-0.7 9.6,-9.5 c 0.1,-0.1 0.2,-0.2 0.4,-0.3 0.1,-0.1 0.3,-0.1 0.5,-0.2 0.4,-0.1 0.8,-0.2 1.3,-0.1 0.4,0.1 1,0.2 1.6,0.5 0.6,0.5 1.2,1 1.8,1.6 z m -6.8,13.7 8.9,-8.9 -3.4,-3.4 c -0.4,-0.4 -0.8,-0.7 -1.2,-0.7 -0.2,0 -0.4,0.1 -0.7,0.3 l -8.9,8.9 3.4,3.4 c 0.5,0.5 0.8,0.7 1.1,0.6 0.4,0 0.6,0 0.8,-0.2 z"
   id="path30" />
	<path
   d="m 131.1,135.5 c 0.4,-0.4 1,-0.6 1.5,-0.4 0.6,0.2 1.1,0.5 1.4,0.7 l 0.7,0.5 -0.7,0.7 -10.3,10.2 c -0.1,0.1 -0.1,0.1 -0.1,0.1 -0.1,0.1 -0.3,0.1 -0.4,0.2 -0.1,0.1 -0.5,0.1 -1.1,0 -0.6,-0.1 -1.3,-0.5 -2,-1.3 l 0.7,-0.7 z"
   id="path32" />
	<path
   d="m 140.2,144.6 c 0.4,-0.4 1,-0.6 1.5,-0.4 0.6,0.2 1.1,0.4 1.4,0.7 l 0.7,0.5 -0.7,0.7 -10.3,10.2 c -0.1,0.1 -0.1,0.1 -0.1,0.1 -0.1,0.1 -0.3,0.1 -0.4,0.2 -0.1,0.1 -0.5,0.1 -1.1,0 -0.6,-0.1 -1.3,-0.5 -2,-1.3 l 0.7,-0.7 z"
   id="path34" />
	<path
   d="m 149.2,153.7 c 0.4,-0.4 1,-0.6 1.5,-0.4 0.6,0.2 1.1,0.4 1.4,0.7 l 0.7,0.5 -0.7,0.7 -10.3,10.2 c -0.1,0.1 -0.1,0.1 -0.1,0.1 -0.1,0.1 -0.3,0.1 -0.4,0.2 -0.1,0.1 -0.5,0.1 -1.1,0 -0.6,-0.1 -1.3,-0.5 -2,-1.3 l 0.7,-0.7 z"
   id="path36" />
	<path
   d="m 158.3,162.8 c 0.4,-0.4 1,-0.6 1.5,-0.4 0.6,0.2 1.1,0.5 1.4,0.7 l 0.7,0.5 -0.7,0.7 -10.3,10.2 c -0.1,0.1 -0.1,0.1 -0.1,0.1 -0.1,0.1 -0.3,0.1 -0.4,0.2 -0.1,0.1 -0.5,0.1 -1.1,0 -0.6,-0.1 -1.3,-0.5 -2,-1.3 l 0.7,-0.7 z"
   id="path38" />
</g>
<g
   id="g58"
   transform="translate(-45.8,-56.5)">
	<path
   d="m 50.8,176.9 6.4,0.1 h 1.6 v 1 l -0.1,13.8 c 0,0.2 0,0.3 -0.1,0.5 0,0.1 -0.1,0.3 -0.2,0.5 -0.1,0.2 -0.2,0.4 -0.3,0.5 -0.1,0.1 -0.3,0.3 -0.5,0.4 -0.3,0.3 -0.8,0.5 -1.5,0.7 -0.7,0.2 -1.4,0.3 -2.3,0.3 l -6.4,-0.1 h -1.6 v -1 l 0.1,-13.8 c 0,-0.2 0,-0.3 0.1,-0.5 0,-0.1 0.1,-0.3 0.2,-0.5 0.1,-0.4 0.4,-0.7 0.9,-1 0.4,-0.3 0.8,-0.5 1.5,-0.7 0.6,-0.1 1.3,-0.2 2.2,-0.2 z m 4.7,14.8 0.1,-12.8 h -4.8 c -0.6,0 -1,0.1 -1.3,0.3 -0.1,0.2 -0.2,0.4 -0.3,0.7 L 49,192.6 h 4.8 c 0.6,0 1.1,-0.1 1.3,-0.3 0.3,-0.2 0.4,-0.4 0.4,-0.6 z"
   id="path42" />
	<path
   d="m 64.6,179 c 0,-0.6 0.3,-1.1 0.9,-1.4 0.6,-0.3 1.1,-0.4 1.5,-0.5 l 0.9,-0.1 v 1 l -0.1,14.8 c 0,0.1 0,0.1 0,0.2 0,0.1 -0.1,0.3 -0.1,0.5 0,0.2 -0.3,0.4 -0.8,0.8 -0.5,0.3 -1.3,0.5 -2.3,0.5 v -1 z"
   id="path44" />
	<path
   d="m 73.6,179 c 0,-0.6 0.3,-1.1 0.9,-1.4 0.6,-0.3 1.1,-0.4 1.5,-0.5 l 0.9,-0.1 v 1 l -0.1,14.8 c 0,0.1 0,0.1 0,0.2 0,0.1 -0.1,0.3 -0.1,0.5 0,0.2 -0.3,0.4 -0.8,0.8 -0.5,0.3 -1.3,0.5 -2.3,0.5 v -1 z"
   id="path46" />
	<path
   d="m 87.4,177.2 6.4,0.1 h 1.6 v 1 l -0.1,13.8 c 0,0.2 0,0.3 -0.1,0.5 0,0.1 -0.1,0.3 -0.2,0.5 -0.1,0.2 -0.2,0.4 -0.3,0.5 -0.1,0.1 -0.3,0.3 -0.5,0.4 -0.3,0.3 -0.8,0.5 -1.5,0.7 -0.7,0.2 -1.4,0.3 -2.3,0.3 L 84,194.9 h -1.6 v -1 l 0.1,-13.8 c 0,-0.2 0,-0.3 0.1,-0.5 0,-0.1 0.1,-0.3 0.2,-0.5 0.1,-0.4 0.4,-0.7 0.9,-1 0.4,-0.3 0.8,-0.5 1.5,-0.7 0.6,-0.1 1.3,-0.2 2.2,-0.2 z m 4.7,14.8 0.1,-12.8 h -4.8 c -0.6,0 -1,0.1 -1.3,0.3 -0.1,0.2 -0.2,0.4 -0.3,0.7 L 85.6,193 h 4.8 c 0.6,0 1.1,-0.1 1.3,-0.3 0.3,-0.2 0.4,-0.4 0.4,-0.7 z"
   id="path48" />
	<path
   d="m 106.1,177.4 6.4,0.1 h 1.6 v 1 l -0.1,13.8 c 0,0.2 0,0.3 -0.1,0.5 0,0.1 -0.1,0.3 -0.2,0.5 -0.1,0.2 -0.2,0.4 -0.3,0.5 -0.1,0.1 -0.3,0.3 -0.5,0.4 -0.3,0.3 -0.8,0.5 -1.5,0.7 -0.7,0.2 -1.4,0.3 -2.3,0.3 l -6.4,-0.1 h -1.6 v -1 l 0.1,-13.8 c 0,-0.2 0,-0.3 0.1,-0.5 0,-0.1 0.1,-0.3 0.2,-0.5 0.1,-0.4 0.4,-0.7 0.9,-1 0.4,-0.3 0.8,-0.5 1.5,-0.7 0.6,-0.1 1.3,-0.2 2.2,-0.2 z m 4.7,14.8 0.1,-12.8 h -4.8 c -0.6,0 -1,0.1 -1.3,0.3 -0.1,0.2 -0.2,0.4 -0.3,0.7 l -0.1,12.8 h 4.8 c 0.6,0 1.1,-0.1 1.3,-0.3 0.2,-0.2 0.3,-0.4 0.3,-0.7 z"
   id="path50" />
	<path
   d="m 124.8,177.6 6.4,0.1 h 1.6 v 1 l -0.1,13.8 c 0,0.2 0,0.3 -0.1,0.5 0,0.1 -0.1,0.3 -0.2,0.5 -0.1,0.2 -0.2,0.4 -0.3,0.5 -0.1,0.1 -0.3,0.3 -0.5,0.4 -0.3,0.3 -0.8,0.5 -1.5,0.7 -0.7,0.2 -1.4,0.3 -2.3,0.3 l -6.4,-0.1 h -1.6 v -1 l 0.1,-13.8 c 0,-0.2 0,-0.3 0.1,-0.5 0,-0.1 0.1,-0.3 0.2,-0.5 0.1,-0.4 0.4,-0.7 0.9,-1 0.4,-0.3 0.9,-0.5 1.5,-0.7 0.5,-0.1 1.3,-0.2 2.2,-0.2 z m 4.7,14.8 0.1,-12.8 h -4.8 c -0.6,0 -1,0.1 -1.3,0.3 -0.1,0.2 -0.2,0.4 -0.3,0.7 l -0.1,12.8 h 4.8 c 0.6,0 1.1,-0.1 1.3,-0.3 0.1,-0.2 0.3,-0.5 0.3,-0.7 z"
   id="path52" />
	<path
   d="m 138.6,179.7 c 0,-0.6 0.3,-1.1 0.9,-1.4 0.6,-0.3 1.1,-0.4 1.5,-0.5 l 0.9,-0.1 v 1 l -0.1,14.8 c 0,0.1 0,0.1 0,0.2 0,0.1 -0.1,0.3 -0.1,0.5 0,0.2 -0.3,0.4 -0.8,0.8 -0.5,0.3 -1.3,0.5 -2.3,0.5 v -1 z"
   id="path54" />
	<path
   d="m 152.4,177.9 6.4,0.1 h 1.6 v 1 l -0.1,13.8 c 0,0.2 0,0.3 -0.1,0.5 0,0.1 -0.1,0.3 -0.2,0.5 -0.1,0.2 -0.2,0.4 -0.3,0.5 -0.1,0.1 -0.3,0.3 -0.5,0.4 -0.3,0.3 -0.8,0.5 -1.5,0.7 -0.7,0.2 -1.4,0.3 -2.3,0.3 l -6.4,-0.1 h -1.6 v -1 l 0.1,-13.8 c 0,-0.2 0,-0.3 0.1,-0.5 0,-0.1 0.1,-0.3 0.2,-0.5 0.1,-0.4 0.4,-0.7 0.9,-1 0.4,-0.3 0.9,-0.5 1.5,-0.7 0.6,-0.1 1.3,-0.2 2.2,-0.2 z m 4.7,14.8 0.1,-12.8 h -4.8 c -0.6,0 -1,0.1 -1.3,0.3 -0.1,0.2 -0.2,0.4 -0.3,0.7 l -0.1,12.8 h 4.8 c 0.6,0 1.1,-0.1 1.3,-0.3 0.2,-0.3 0.3,-0.5 0.3,-0.7 z"
   id="path56" />
</g>
<path
   fill="none"
   stroke="#000000"
   stroke-width="6"
   stroke-miterlimit="10"
   d="m 166,254.9 c -8.2,1.6 -16.6,2.5 -25.2,2.5"
   id="path60" />
<path
   fill="none"
   stroke="#000000"
   stroke-width="6"
   stroke-miterlimit="10"
   d="M 166,252.9"
   id="path62" />
<path
   fill="none"
   stroke="#000000"
   stroke-width="6"
   stroke-miterlimit="10"
   d="M 210.9,234.2"
   id="path64" />
<path
   fill="none"
   stroke="#000000"
   stroke-width="6"
   stroke-miterlimit="10"
   d="m 245.8,202.5 c -4.5,6.6 -9.7,12.8 -15.4,18.5 -5.7,5.6 -11.9,10.8 -18.6,15.2"
   id="path66" />
<path
   fill="none"
   stroke="#000000"
   stroke-width="6"
   stroke-miterlimit="10"
   d="M 244.8,200.5"
   id="path68" />
<path
   fill="none"
   stroke="#000000"
   stroke-width="6"
   stroke-miterlimit="10"
   d="M 263.8,155.8"
   id="path70" />
<path
   fill="none"
   stroke="#000000"
   stroke-width="6"
   stroke-miterlimit="10"
   d="m 265.9,105.3 c 1.6,8.2 2.5,16.6 2.5,25.2 0,8.6 -0.9,17.1 -2.6,25.2"
   id="path72" />
<path
   fill="none"
   stroke="#000000"
   stroke-width="6"
   stroke-miterlimit="10"
   d="M 263.9,105.3"
   id="path74" />
<path
   fill="none"
   stroke="#000000"
   stroke-width="6"
   stroke-miterlimit="10"
   d="M 245.3,60.5"
   id="path76" />
<path
   fill="none"
   stroke="#000000"
   stroke-width="6"
   stroke-miterlimit="10"
   d="m 212.5,24.6 c 6.6,4.5 12.8,9.7 18.5,15.4 5.6,5.7 10.8,11.9 15.2,18.6"
   id="path78" />
<path
   fill="none"
   stroke="#000000"
   stroke-width="6"
   stroke-miterlimit="10"
   d="M 211.5,26.6"
   id="path80" />
<path
   fill="none"
   stroke="#000000"
   stroke-width="6"
   stroke-miterlimit="10"
   d="M 166.8,7.6"
   id="path82" />
<path
   fill="none"
   stroke="#000000"
   stroke-width="6"
   stroke-miterlimit="10"
   d="m 141.6,3 c 8.6,0 17.1,0.9 25.2,2.6"
   id="path84" />
<path
   fill="none"
   stroke="#000000"
   stroke-width="6"
   stroke-miterlimit="10"
   d="M 161.6,228.8"
   id="path86" />
<path
   fill="none"
   stroke="#000000"
   stroke-width="6"
   stroke-miterlimit="10"
   d="m 197.6,211.8 c -5.4,3.6 -11.1,6.7 -17.1,9.2 -6,2.5 -12.3,4.5 -18.9,5.8"
   id="path88" />
<path
   fill="none"
   stroke="#000000"
   stroke-width="6"
   stroke-miterlimit="10"
   d="m 238.1,150.8 c -1.4,6.5 -3.4,12.9 -5.9,18.9 -2.6,6 -5.7,11.7 -9.3,17.1"
   id="path90" />
<path
   fill="none"
   stroke="#000000"
   stroke-width="6"
   stroke-miterlimit="10"
   d="m 223.2,74.2 c 3.6,5.4 6.7,11.1 9.2,17.1 2.5,6 4.5,12.3 5.8,18.9"
   id="path92" />
<path
   fill="none"
   stroke="#000000"
   stroke-width="6"
   stroke-miterlimit="10"
   d="m 162.2,33.7 c 6.5,1.4 12.9,3.4 18.9,5.9 6,2.6 11.7,5.7 17.1,9.3"
   id="path94" />
<path
   fill="none"
   stroke="#000000"
   stroke-width="6"
   stroke-miterlimit="10"
   d="M 162.2,31.7"
   id="path96" />
<polyline
   fill="none"
   stroke="#000000"
   stroke-width="6"
   stroke-miterlimit="10"
   points="186.9,205 186.9,220.9 186.8,236.9   186.8,252.9 186.7,268.9 186.7,284.9 186.6,300.8 186.6,316.8 "
   id="polyline98"
   transform="translate(-45.8,-56.5)" />
<polyline
   fill="none"
   stroke="#000000"
   stroke-width="6"
   stroke-miterlimit="10"
   points="187.4,56.5 187.4,72.5 187.3,88.4   187.3,104.4 187.2,120.4 187.2,136.4 187.1,152.4 187,168.4 "
   id="polyline100"
   transform="translate(-45.8,-56.5)" />
<path
   fill="none"
   stroke="#000000"
   stroke-width="6"
   stroke-miterlimit="10"
   d="m 138.8,108.9 c 11.7,0 21.2,9.6 21.2,21.3 0,11.7 -9.6,21.2 -21.3,21.2"
   id="path102" />
<line
   fill="none"
   stroke="#000000"
   stroke-width="6"
   stroke-miterlimit="10"
   x1="168.09999"
   y1="2.7999992"
   x2="161.5"
   y2="36.599998"
   id="line104" />
<line
   fill="none"
   stroke="#000000"
   stroke-width="6"
   stroke-miterlimit="10"
   x1="195.59999"
   y1="50.900002"
   x2="214.49998"
   y2="22.300003"
   id="line106" />
<line
   fill="none"
   stroke="#000000"
   stroke-width="6"
   stroke-miterlimit="10"
   x1="249.3"
   y1="57.699997"
   x2="221.3"
   y2="76.899994"
   id="line108" />
<line
   fill="none"
   stroke="#000000"
   stroke-width="6"
   stroke-miterlimit="10"
   x1="235.3"
   y1="111.2"
   x2="268.80002"
   y2="104.39999"
   id="line110" />
<line
   fill="none"
   stroke="#000000"
   stroke-width="6"
   stroke-miterlimit="10"
   x1="268.60001"
   y1="156.8"
   x2="235.2"
   y2="149.8"
   id="line112" />
<line
   fill="none"
   stroke="#000000"
   stroke-width="6"
   stroke-miterlimit="10"
   x1="220.99998"
   y1="184"
   x2="248.99998"
   y2="203.29999"
   id="line114" />
<line
   fill="none"
   stroke="#000000"
   stroke-width="6"
   stroke-miterlimit="10"
   x1="213.8"
   y1="238.5"
   x2="195"
   y2="209.70001"
   id="line116" />
<line
   fill="none"
   stroke="#000000"
   stroke-width="6"
   stroke-miterlimit="10"
   x1="160.5"
   y1="223.70001"
   x2="167"
   y2="257.79999"
   id="line118" />
<g
   id="g136"
   transform="translate(-45.8,-56.5)">
	<path
   d="m 72.9,273.5 4.5,-4.6 1.2,-1.2 0.7,0.7 9.6,9.6 c 0.1,0.1 0.2,0.3 0.3,0.4 0.1,0.1 0.1,0.3 0.2,0.5 0.1,0.2 0.1,0.4 0.1,0.6 0,0.2 0,0.4 -0.1,0.7 0,0.4 -0.2,1 -0.5,1.6 -0.3,0.6 -0.8,1.2 -1.4,1.8 l -4.5,4.6 -1.2,1.2 -0.7,-0.7 -9.6,-9.6 c -0.1,-0.1 -0.2,-0.2 -0.3,-0.4 -0.1,-0.1 -0.1,-0.3 -0.2,-0.5 -0.1,-0.3 -0.2,-0.8 -0.1,-1.3 0.1,-0.4 0.2,-1 0.5,-1.6 0.5,-0.6 0.9,-1.2 1.5,-1.8 z m 13.7,6.8 -8.9,-8.9 -3.4,3.4 c -0.4,0.4 -0.7,0.8 -0.7,1.2 0,0.2 0.1,0.4 0.3,0.7 l 8.9,8.9 3.4,-3.4 c 0.5,-0.5 0.7,-0.8 0.6,-1.1 0.1,-0.4 0,-0.6 -0.2,-0.8 z"
   id="path120" />
	<path
   d="m 86.8,262.3 c -0.4,-0.4 -0.6,-1 -0.4,-1.5 0.2,-0.6 0.4,-1.1 0.7,-1.4 l 0.5,-0.7 0.7,0.7 10.3,10.3 c 0.1,0.1 0.1,0.1 0.1,0.1 0.1,0.1 0.1,0.3 0.2,0.4 0.1,0.1 0.1,0.5 0,1.1 -0.1,0.6 -0.5,1.3 -1.2,2 L 97,272.6 Z"
   id="path122" />
	<path
   d="m 95.8,253.3 c -0.4,-0.4 -0.6,-1 -0.4,-1.5 0.2,-0.6 0.4,-1.1 0.7,-1.4 l 0.5,-0.7 0.7,0.7 10.3,10.3 c 0.1,0.1 0.1,0.1 0.1,0.1 0.1,0.1 0.1,0.3 0.2,0.4 0.1,0.1 0.1,0.5 0,1.1 -0.1,0.6 -0.5,1.3 -1.2,2 l -0.7,-0.7 z"
   id="path124" />
	<path
   d="m 106.9,239.4 4.5,-4.6 1.2,-1.2 0.7,0.7 9.6,9.6 c 0.1,0.1 0.2,0.2 0.3,0.4 0.1,0.1 0.1,0.3 0.2,0.5 0.1,0.2 0.1,0.4 0.1,0.6 0,0.2 0,0.4 -0.1,0.7 0,0.4 -0.2,1 -0.5,1.6 -0.3,0.6 -0.8,1.2 -1.4,1.8 l -4.5,4.5 -1.2,1.2 -0.7,-0.7 -9.6,-9.6 c -0.1,-0.1 -0.2,-0.2 -0.3,-0.4 -0.1,-0.1 -0.1,-0.3 -0.2,-0.5 -0.1,-0.3 -0.2,-0.8 -0.1,-1.3 0.1,-0.4 0.2,-1 0.5,-1.6 0.5,-0.5 0.9,-1.1 1.5,-1.7 z m 13.7,6.8 -8.9,-8.9 -3.4,3.4 c -0.4,0.4 -0.7,0.8 -0.7,1.2 0,0.2 0.1,0.4 0.3,0.7 l 8.9,8.9 3.4,-3.4 c 0.5,-0.5 0.7,-0.8 0.6,-1.1 0.1,-0.4 0,-0.6 -0.2,-0.8 z"
   id="path126" />
	<path
   d="m 120.8,228.2 c -0.4,-0.4 -0.6,-1 -0.4,-1.5 0.2,-0.6 0.4,-1.1 0.7,-1.4 l 0.5,-0.7 0.7,0.7 10.3,10.3 c 0.1,0.1 0.1,0.1 0.1,0.1 0.1,0.1 0.1,0.3 0.2,0.4 0.1,0.1 0.1,0.5 0,1.1 -0.1,0.6 -0.5,1.3 -1.2,2 l -0.7,-0.7 z"
   id="path128" />
	<path
   d="m 129.8,219.2 c -0.4,-0.4 -0.6,-1 -0.4,-1.5 0.2,-0.6 0.4,-1.1 0.7,-1.4 l 0.5,-0.7 0.7,0.7 10.3,10.3 c 0.1,0.1 0.1,0.1 0.1,0.1 0.1,0.1 0.1,0.3 0.2,0.4 0.1,0.1 0.1,0.5 0,1.1 -0.1,0.6 -0.5,1.3 -1.2,2 l -0.7,-0.7 z"
   id="path130" />
	<path
   d="m 138.9,210.1 c -0.4,-0.4 -0.6,-1 -0.4,-1.5 0.2,-0.5 0.4,-1.1 0.7,-1.4 l 0.5,-0.7 0.7,0.7 10.3,10.3 c 0.1,0.1 0.1,0.1 0.1,0.1 0.1,0.1 0.1,0.3 0.2,0.4 0.1,0.1 0.1,0.5 0,1.1 -0.1,0.6 -0.5,1.3 -1.2,2 l -0.7,-0.7 z"
   id="path132" />
	<path
   d="m 147.9,201 c -0.4,-0.4 -0.6,-1 -0.4,-1.5 0.2,-0.6 0.4,-1.1 0.7,-1.4 l 0.5,-0.7 0.7,0.7 10.3,10.3 c 0.1,0.1 0.1,0.1 0.1,0.1 0.1,0.1 0.1,0.3 0.2,0.4 0.1,0.1 0.1,0.5 0,1.1 -0.1,0.6 -0.5,1.3 -1.2,2 l -0.7,-0.7 z"
   id="path134" />
</g>
<g
   id="g154"
   transform="translate(-45.8,-56.5)"
   inkscape:export-filename="cwrubotix.png"
   inkscape:export-xdpi="96"
   inkscape:export-ydpi="96">
	<path
   d="m 162.2,312.3 v -6.4 -1.6 h 1 13.5 c 0.2,0 0.3,0 0.5,0 0.1,0 0.3,0.1 0.5,0.2 0.2,0.1 0.4,0.2 0.5,0.3 0.1,0.1 0.3,0.3 0.4,0.5 0.3,0.3 0.5,0.8 0.7,1.5 0.2,0.7 0.3,1.4 0.3,2.3 v 6.4 1.6 h -1 -13.5 c -0.2,0 -0.3,0 -0.5,-0.1 -0.1,0 -0.3,-0.1 -0.5,-0.2 -0.4,-0.1 -0.7,-0.4 -1,-0.9 -0.3,-0.4 -0.5,-0.8 -0.7,-1.5 -0.1,-0.4 -0.2,-1.2 -0.2,-2.1 z m 14.5,-4.8 h -12.6 v 4.8 c 0,0.6 0.1,1 0.3,1.3 0.2,0.1 0.4,0.2 0.6,0.3 h 12.6 v -4.8 c 0,-0.6 -0.1,-1.1 -0.3,-1.2 -0.2,-0.3 -0.4,-0.4 -0.6,-0.4 z"
   id="path138" />
	<path
   d="m 164.1,297.1 c -0.6,0 -1.1,-0.3 -1.3,-0.8 -0.3,-0.6 -0.4,-1.1 -0.5,-1.5 l -0.1,-0.9 h 1 14.5 c 0.1,0 0.1,0 0.2,0 0.1,0 0.3,0.1 0.5,0.1 0.2,0 0.4,0.3 0.8,0.8 0.3,0.5 0.5,1.3 0.5,2.3 h -1 z"
   id="path140" />
	<path
   d="m 164.1,286.6 c -0.6,0 -1.1,-0.3 -1.3,-0.8 -0.3,-0.6 -0.4,-1.1 -0.5,-1.5 l -0.1,-0.9 h 1 14.5 c 0.1,0 0.1,0 0.2,0 0.1,0 0.3,0.1 0.5,0.1 0.2,0 0.4,0.3 0.8,0.8 0.3,0.5 0.5,1.3 0.5,2.3 h -1 z"
   id="path142" />
	<path
   d="m 164.1,276.2 c -0.6,0 -1.1,-0.3 -1.3,-0.8 -0.3,-0.6 -0.4,-1.1 -0.5,-1.5 l -0.1,-0.9 h 1 14.5 c 0.1,0 0.1,0 0.2,0 0.1,0 0.3,0.1 0.5,0.1 0.2,0 0.4,0.3 0.8,0.8 0.3,0.5 0.5,1.3 0.5,2.3 h -1 z"
   id="path144" />
	<path
   d="m 162.3,261 v -6.4 -1.6 h 1 13.5 c 0.2,0 0.3,0 0.5,0 0.1,0 0.3,0.1 0.5,0.2 0.2,0.1 0.4,0.2 0.5,0.3 0.1,0.1 0.3,0.3 0.4,0.5 0.3,0.3 0.5,0.8 0.7,1.5 0.2,0.7 0.3,1.4 0.3,2.3 v 6.4 1.6 h -1 -13.5 c -0.2,0 -0.3,0 -0.5,-0.1 -0.2,-0.1 -0.3,-0.1 -0.5,-0.2 -0.4,-0.1 -0.7,-0.4 -1,-0.9 -0.3,-0.4 -0.5,-0.8 -0.7,-1.5 -0.1,-0.5 -0.2,-1.3 -0.2,-2.1 z m 14.5,-4.9 h -12.6 v 4.8 c 0,0.6 0.1,1 0.3,1.3 0.2,0.1 0.4,0.2 0.6,0.3 h 12.6 v -4.8 c 0,-0.6 -0.1,-1.1 -0.3,-1.2 -0.2,-0.2 -0.4,-0.4 -0.6,-0.4 z"
   id="path146" />
	<path
   d="m 164.2,245.7 c -0.6,0 -1.1,-0.3 -1.3,-0.8 -0.3,-0.6 -0.4,-1.1 -0.5,-1.5 l -0.1,-0.9 h 1 14.5 c 0.1,0 0.1,0 0.2,0 0.1,0 0.3,0.1 0.5,0.1 0.2,0 0.4,0.3 0.8,0.8 0.3,0.5 0.5,1.3 0.5,2.3 h -1 z"
   id="path148" />
	<path
   d="m 162.3,230.4 v -6.4 -1.6 h 1 13.5 c 0.2,0 0.3,0 0.5,0 0.1,0 0.3,0.1 0.5,0.2 0.2,0.1 0.4,0.2 0.5,0.3 0.1,0.1 0.3,0.3 0.4,0.5 0.3,0.3 0.5,0.8 0.7,1.5 0.2,0.7 0.3,1.4 0.3,2.3 v 6.4 1.6 h -1 -13.5 c -0.2,0 -0.3,0 -0.5,-0.1 -0.1,0 -0.3,-0.1 -0.5,-0.2 -0.4,-0.1 -0.7,-0.4 -1,-0.9 -0.3,-0.4 -0.5,-0.8 -0.7,-1.5 -0.1,-0.4 -0.2,-1.2 -0.2,-2.1 z m 14.5,-4.8 h -12.6 v 4.8 c 0,0.6 0.1,1 0.3,1.3 0.2,0.1 0.4,0.2 0.6,0.3 h 12.6 v -4.8 c 0,-0.6 -0.1,-1.1 -0.3,-1.2 -0.1,-0.3 -0.3,-0.4 -0.6,-0.4 z"
   id="path150" />
	<path
   d="m 162.3,210.3 v -6.4 -1.6 h 1 13.5 c 0.2,0 0.3,0 0.5,0 0.1,0 0.3,0.1 0.5,0.2 0.2,0.1 0.4,0.2 0.5,0.3 0.1,0.1 0.3,0.3 0.4,0.5 0.3,0.3 0.5,0.8 0.7,1.5 0.2,0.7 0.3,1.4 0.3,2.3 v 6.4 1.6 h -1 -13.5 c -0.2,0 -0.3,0 -0.5,-0.1 -0.1,0 -0.3,-0.1 -0.5,-0.2 -0.4,-0.1 -0.7,-0.4 -1,-0.9 -0.3,-0.4 -0.5,-0.8 -0.7,-1.5 0,-0.4 -0.2,-1.2 -0.2,-2.1 z m 14.6,-4.8 h -12.6 v 4.8 c 0,0.6 0.1,1 0.3,1.3 0.2,0.1 0.4,0.2 0.6,0.3 h 12.6 v -4.8 c 0,-0.6 -0.1,-1.1 -0.3,-1.2 -0.2,-0.3 -0.4,-0.4 -0.6,-0.4 z"
   id="path152" />
</g>
</svg>
