%TF.GenerationSoftware,KiCad,Pcbnew,(6.0.8)*%
%TF.CreationDate,2023-12-15T13:23:07-05:00*%
%TF.ProjectId,main_pcb,6d61696e-5f70-4636-922e-6b696361645f,rev?*%
%TF.SameCoordinates,Original*%
%TF.FileFunction,Drillmap*%
%TF.FilePolarity,Positive*%
%FSLAX45Y45*%
G04 Gerber Fmt 4.5, Leading zero omitted, Abs format (unit mm)*
G04 Created by KiCad (PCBNEW (6.0.8)) date 2023-12-15 13:23:07*
%MOMM*%
%LPD*%
G01*
G04 APERTURE LIST*
%ADD10C,0.100000*%
%ADD11C,0.200000*%
%ADD12C,0.320000*%
G04 APERTURE END LIST*
D10*
X8300000Y-14300000D02*
G75*
G03*
X8500000Y-14500000I200000J0D01*
G01*
X13000000Y-15000000D02*
X5000000Y-15000000D01*
X5000000Y-15000000D02*
X5000000Y-5000000D01*
X5000000Y-5000000D02*
X13000000Y-5000000D01*
X13000000Y-5000000D02*
X13000000Y-15000000D01*
X8500000Y-13061420D02*
G75*
G03*
X8300000Y-13261421I0J-200000D01*
G01*
X8500000Y-14500000D02*
X9500000Y-14500000D01*
X9700000Y-14300000D02*
X9700000Y-13261421D01*
X9500000Y-14500000D02*
G75*
G03*
X9700000Y-14300000I0J200000D01*
G01*
X9500000Y-13061421D02*
X8500000Y-13061421D01*
X8300000Y-13261421D02*
X8300000Y-14300000D01*
X9699999Y-13261421D02*
G75*
G03*
X9500000Y-13061421I-199999J1D01*
G01*
D11*
D12*
X5340000Y-5340000D02*
X5660000Y-5660000D01*
X5660000Y-5340000D02*
X5340000Y-5660000D01*
X5340000Y-14340000D02*
X5660000Y-14660000D01*
X5660000Y-14340000D02*
X5340000Y-14660000D01*
X12340000Y-5340000D02*
X12660000Y-5660000D01*
X12660000Y-5340000D02*
X12340000Y-5660000D01*
X12340000Y-14340000D02*
X12660000Y-14660000D01*
X12660000Y-14340000D02*
X12340000Y-14660000D01*
D11*
X5252619Y-15315476D02*
X5252619Y-15115476D01*
X5300238Y-15115476D01*
X5328810Y-15125000D01*
X5347857Y-15144048D01*
X5357381Y-15163095D01*
X5366905Y-15201190D01*
X5366905Y-15229762D01*
X5357381Y-15267857D01*
X5347857Y-15286905D01*
X5328810Y-15305952D01*
X5300238Y-15315476D01*
X5252619Y-15315476D01*
X5452619Y-15315476D02*
X5452619Y-15182143D01*
X5452619Y-15220238D02*
X5462143Y-15201190D01*
X5471667Y-15191667D01*
X5490714Y-15182143D01*
X5509762Y-15182143D01*
X5576429Y-15315476D02*
X5576429Y-15182143D01*
X5576429Y-15115476D02*
X5566905Y-15125000D01*
X5576429Y-15134524D01*
X5585952Y-15125000D01*
X5576429Y-15115476D01*
X5576429Y-15134524D01*
X5700238Y-15315476D02*
X5681190Y-15305952D01*
X5671667Y-15286905D01*
X5671667Y-15115476D01*
X5805000Y-15315476D02*
X5785952Y-15305952D01*
X5776428Y-15286905D01*
X5776428Y-15115476D01*
X6033571Y-15315476D02*
X6033571Y-15115476D01*
X6100238Y-15258333D01*
X6166905Y-15115476D01*
X6166905Y-15315476D01*
X6347857Y-15315476D02*
X6347857Y-15210714D01*
X6338333Y-15191667D01*
X6319286Y-15182143D01*
X6281190Y-15182143D01*
X6262143Y-15191667D01*
X6347857Y-15305952D02*
X6328809Y-15315476D01*
X6281190Y-15315476D01*
X6262143Y-15305952D01*
X6252619Y-15286905D01*
X6252619Y-15267857D01*
X6262143Y-15248809D01*
X6281190Y-15239286D01*
X6328809Y-15239286D01*
X6347857Y-15229762D01*
X6443095Y-15182143D02*
X6443095Y-15382143D01*
X6443095Y-15191667D02*
X6462143Y-15182143D01*
X6500238Y-15182143D01*
X6519286Y-15191667D01*
X6528809Y-15201190D01*
X6538333Y-15220238D01*
X6538333Y-15277381D01*
X6528809Y-15296428D01*
X6519286Y-15305952D01*
X6500238Y-15315476D01*
X6462143Y-15315476D01*
X6443095Y-15305952D01*
X6624048Y-15296428D02*
X6633571Y-15305952D01*
X6624048Y-15315476D01*
X6614524Y-15305952D01*
X6624048Y-15296428D01*
X6624048Y-15315476D01*
X6624048Y-15191667D02*
X6633571Y-15201190D01*
X6624048Y-15210714D01*
X6614524Y-15201190D01*
X6624048Y-15191667D01*
X6624048Y-15210714D01*
X4795000Y-15545000D02*
X4995000Y-15745000D01*
X4995000Y-15545000D02*
X4795000Y-15745000D01*
X5233571Y-15535476D02*
X5357381Y-15535476D01*
X5290714Y-15611667D01*
X5319286Y-15611667D01*
X5338333Y-15621190D01*
X5347857Y-15630714D01*
X5357381Y-15649762D01*
X5357381Y-15697381D01*
X5347857Y-15716428D01*
X5338333Y-15725952D01*
X5319286Y-15735476D01*
X5262143Y-15735476D01*
X5243095Y-15725952D01*
X5233571Y-15716428D01*
X5443095Y-15716428D02*
X5452619Y-15725952D01*
X5443095Y-15735476D01*
X5433571Y-15725952D01*
X5443095Y-15716428D01*
X5443095Y-15735476D01*
X5528810Y-15554524D02*
X5538333Y-15545000D01*
X5557381Y-15535476D01*
X5605000Y-15535476D01*
X5624048Y-15545000D01*
X5633571Y-15554524D01*
X5643095Y-15573571D01*
X5643095Y-15592619D01*
X5633571Y-15621190D01*
X5519286Y-15735476D01*
X5643095Y-15735476D01*
X5766905Y-15535476D02*
X5785952Y-15535476D01*
X5805000Y-15545000D01*
X5814524Y-15554524D01*
X5824048Y-15573571D01*
X5833571Y-15611667D01*
X5833571Y-15659286D01*
X5824048Y-15697381D01*
X5814524Y-15716428D01*
X5805000Y-15725952D01*
X5785952Y-15735476D01*
X5766905Y-15735476D01*
X5747857Y-15725952D01*
X5738333Y-15716428D01*
X5728809Y-15697381D01*
X5719286Y-15659286D01*
X5719286Y-15611667D01*
X5728809Y-15573571D01*
X5738333Y-15554524D01*
X5747857Y-15545000D01*
X5766905Y-15535476D01*
X5957381Y-15535476D02*
X5976428Y-15535476D01*
X5995476Y-15545000D01*
X6005000Y-15554524D01*
X6014524Y-15573571D01*
X6024048Y-15611667D01*
X6024048Y-15659286D01*
X6014524Y-15697381D01*
X6005000Y-15716428D01*
X5995476Y-15725952D01*
X5976428Y-15735476D01*
X5957381Y-15735476D01*
X5938333Y-15725952D01*
X5928809Y-15716428D01*
X5919286Y-15697381D01*
X5909762Y-15659286D01*
X5909762Y-15611667D01*
X5919286Y-15573571D01*
X5928809Y-15554524D01*
X5938333Y-15545000D01*
X5957381Y-15535476D01*
X6109762Y-15735476D02*
X6109762Y-15602143D01*
X6109762Y-15621190D02*
X6119286Y-15611667D01*
X6138333Y-15602143D01*
X6166905Y-15602143D01*
X6185952Y-15611667D01*
X6195476Y-15630714D01*
X6195476Y-15735476D01*
X6195476Y-15630714D02*
X6205000Y-15611667D01*
X6224048Y-15602143D01*
X6252619Y-15602143D01*
X6271667Y-15611667D01*
X6281190Y-15630714D01*
X6281190Y-15735476D01*
X6376428Y-15735476D02*
X6376428Y-15602143D01*
X6376428Y-15621190D02*
X6385952Y-15611667D01*
X6405000Y-15602143D01*
X6433571Y-15602143D01*
X6452619Y-15611667D01*
X6462143Y-15630714D01*
X6462143Y-15735476D01*
X6462143Y-15630714D02*
X6471667Y-15611667D01*
X6490714Y-15602143D01*
X6519286Y-15602143D01*
X6538333Y-15611667D01*
X6547857Y-15630714D01*
X6547857Y-15735476D01*
X6938333Y-15525952D02*
X6766905Y-15783095D01*
X7195476Y-15535476D02*
X7214524Y-15535476D01*
X7233571Y-15545000D01*
X7243095Y-15554524D01*
X7252619Y-15573571D01*
X7262143Y-15611667D01*
X7262143Y-15659286D01*
X7252619Y-15697381D01*
X7243095Y-15716428D01*
X7233571Y-15725952D01*
X7214524Y-15735476D01*
X7195476Y-15735476D01*
X7176428Y-15725952D01*
X7166905Y-15716428D01*
X7157381Y-15697381D01*
X7147857Y-15659286D01*
X7147857Y-15611667D01*
X7157381Y-15573571D01*
X7166905Y-15554524D01*
X7176428Y-15545000D01*
X7195476Y-15535476D01*
X7347857Y-15716428D02*
X7357381Y-15725952D01*
X7347857Y-15735476D01*
X7338333Y-15725952D01*
X7347857Y-15716428D01*
X7347857Y-15735476D01*
X7547857Y-15735476D02*
X7433571Y-15735476D01*
X7490714Y-15735476D02*
X7490714Y-15535476D01*
X7471667Y-15564048D01*
X7452619Y-15583095D01*
X7433571Y-15592619D01*
X7624048Y-15554524D02*
X7633571Y-15545000D01*
X7652619Y-15535476D01*
X7700238Y-15535476D01*
X7719286Y-15545000D01*
X7728809Y-15554524D01*
X7738333Y-15573571D01*
X7738333Y-15592619D01*
X7728809Y-15621190D01*
X7614524Y-15735476D01*
X7738333Y-15735476D01*
X7909762Y-15535476D02*
X7871667Y-15535476D01*
X7852619Y-15545000D01*
X7843095Y-15554524D01*
X7824048Y-15583095D01*
X7814524Y-15621190D01*
X7814524Y-15697381D01*
X7824048Y-15716428D01*
X7833571Y-15725952D01*
X7852619Y-15735476D01*
X7890714Y-15735476D01*
X7909762Y-15725952D01*
X7919286Y-15716428D01*
X7928809Y-15697381D01*
X7928809Y-15649762D01*
X7919286Y-15630714D01*
X7909762Y-15621190D01*
X7890714Y-15611667D01*
X7852619Y-15611667D01*
X7833571Y-15621190D01*
X7824048Y-15630714D01*
X7814524Y-15649762D01*
X8052619Y-15535476D02*
X8071667Y-15535476D01*
X8090714Y-15545000D01*
X8100238Y-15554524D01*
X8109762Y-15573571D01*
X8119286Y-15611667D01*
X8119286Y-15659286D01*
X8109762Y-15697381D01*
X8100238Y-15716428D01*
X8090714Y-15725952D01*
X8071667Y-15735476D01*
X8052619Y-15735476D01*
X8033571Y-15725952D01*
X8024048Y-15716428D01*
X8014524Y-15697381D01*
X8005000Y-15659286D01*
X8005000Y-15611667D01*
X8014524Y-15573571D01*
X8024048Y-15554524D01*
X8033571Y-15545000D01*
X8052619Y-15535476D01*
X8195476Y-15535476D02*
X8195476Y-15573571D01*
X8271667Y-15535476D02*
X8271667Y-15573571D01*
X8566905Y-15811667D02*
X8557381Y-15802143D01*
X8538333Y-15773571D01*
X8528810Y-15754524D01*
X8519286Y-15725952D01*
X8509762Y-15678333D01*
X8509762Y-15640238D01*
X8519286Y-15592619D01*
X8528810Y-15564048D01*
X8538333Y-15545000D01*
X8557381Y-15516428D01*
X8566905Y-15506905D01*
X8728810Y-15602143D02*
X8728810Y-15735476D01*
X8681190Y-15525952D02*
X8633571Y-15668809D01*
X8757381Y-15668809D01*
X8985952Y-15735476D02*
X8985952Y-15535476D01*
X9071667Y-15735476D02*
X9071667Y-15630714D01*
X9062143Y-15611667D01*
X9043095Y-15602143D01*
X9014524Y-15602143D01*
X8995476Y-15611667D01*
X8985952Y-15621190D01*
X9195476Y-15735476D02*
X9176429Y-15725952D01*
X9166905Y-15716428D01*
X9157381Y-15697381D01*
X9157381Y-15640238D01*
X9166905Y-15621190D01*
X9176429Y-15611667D01*
X9195476Y-15602143D01*
X9224048Y-15602143D01*
X9243095Y-15611667D01*
X9252619Y-15621190D01*
X9262143Y-15640238D01*
X9262143Y-15697381D01*
X9252619Y-15716428D01*
X9243095Y-15725952D01*
X9224048Y-15735476D01*
X9195476Y-15735476D01*
X9376429Y-15735476D02*
X9357381Y-15725952D01*
X9347857Y-15706905D01*
X9347857Y-15535476D01*
X9528810Y-15725952D02*
X9509762Y-15735476D01*
X9471667Y-15735476D01*
X9452619Y-15725952D01*
X9443095Y-15706905D01*
X9443095Y-15630714D01*
X9452619Y-15611667D01*
X9471667Y-15602143D01*
X9509762Y-15602143D01*
X9528810Y-15611667D01*
X9538333Y-15630714D01*
X9538333Y-15649762D01*
X9443095Y-15668809D01*
X9614524Y-15725952D02*
X9633571Y-15735476D01*
X9671667Y-15735476D01*
X9690714Y-15725952D01*
X9700238Y-15706905D01*
X9700238Y-15697381D01*
X9690714Y-15678333D01*
X9671667Y-15668809D01*
X9643095Y-15668809D01*
X9624048Y-15659286D01*
X9614524Y-15640238D01*
X9614524Y-15630714D01*
X9624048Y-15611667D01*
X9643095Y-15602143D01*
X9671667Y-15602143D01*
X9690714Y-15611667D01*
X9766905Y-15811667D02*
X9776429Y-15802143D01*
X9795476Y-15773571D01*
X9805000Y-15754524D01*
X9814524Y-15725952D01*
X9824048Y-15678333D01*
X9824048Y-15640238D01*
X9814524Y-15592619D01*
X9805000Y-15564048D01*
X9795476Y-15545000D01*
X9776429Y-15516428D01*
X9766905Y-15506905D01*
X10128810Y-15811667D02*
X10119286Y-15802143D01*
X10100238Y-15773571D01*
X10090714Y-15754524D01*
X10081190Y-15725952D01*
X10071667Y-15678333D01*
X10071667Y-15640238D01*
X10081190Y-15592619D01*
X10090714Y-15564048D01*
X10100238Y-15545000D01*
X10119286Y-15516428D01*
X10128810Y-15506905D01*
X10205000Y-15602143D02*
X10205000Y-15735476D01*
X10205000Y-15621190D02*
X10214524Y-15611667D01*
X10233571Y-15602143D01*
X10262143Y-15602143D01*
X10281190Y-15611667D01*
X10290714Y-15630714D01*
X10290714Y-15735476D01*
X10414524Y-15735476D02*
X10395476Y-15725952D01*
X10385952Y-15716428D01*
X10376429Y-15697381D01*
X10376429Y-15640238D01*
X10385952Y-15621190D01*
X10395476Y-15611667D01*
X10414524Y-15602143D01*
X10443095Y-15602143D01*
X10462143Y-15611667D01*
X10471667Y-15621190D01*
X10481190Y-15640238D01*
X10481190Y-15697381D01*
X10471667Y-15716428D01*
X10462143Y-15725952D01*
X10443095Y-15735476D01*
X10414524Y-15735476D01*
X10538333Y-15602143D02*
X10614524Y-15602143D01*
X10566905Y-15535476D02*
X10566905Y-15706905D01*
X10576429Y-15725952D01*
X10595476Y-15735476D01*
X10614524Y-15735476D01*
X10833571Y-15602143D02*
X10833571Y-15802143D01*
X10833571Y-15611667D02*
X10852619Y-15602143D01*
X10890714Y-15602143D01*
X10909762Y-15611667D01*
X10919286Y-15621190D01*
X10928810Y-15640238D01*
X10928810Y-15697381D01*
X10919286Y-15716428D01*
X10909762Y-15725952D01*
X10890714Y-15735476D01*
X10852619Y-15735476D01*
X10833571Y-15725952D01*
X11043095Y-15735476D02*
X11024048Y-15725952D01*
X11014524Y-15706905D01*
X11014524Y-15535476D01*
X11205000Y-15735476D02*
X11205000Y-15630714D01*
X11195476Y-15611667D01*
X11176429Y-15602143D01*
X11138333Y-15602143D01*
X11119286Y-15611667D01*
X11205000Y-15725952D02*
X11185952Y-15735476D01*
X11138333Y-15735476D01*
X11119286Y-15725952D01*
X11109762Y-15706905D01*
X11109762Y-15687857D01*
X11119286Y-15668809D01*
X11138333Y-15659286D01*
X11185952Y-15659286D01*
X11205000Y-15649762D01*
X11271667Y-15602143D02*
X11347857Y-15602143D01*
X11300238Y-15535476D02*
X11300238Y-15706905D01*
X11309762Y-15725952D01*
X11328809Y-15735476D01*
X11347857Y-15735476D01*
X11490714Y-15725952D02*
X11471667Y-15735476D01*
X11433571Y-15735476D01*
X11414524Y-15725952D01*
X11405000Y-15706905D01*
X11405000Y-15630714D01*
X11414524Y-15611667D01*
X11433571Y-15602143D01*
X11471667Y-15602143D01*
X11490714Y-15611667D01*
X11500238Y-15630714D01*
X11500238Y-15649762D01*
X11405000Y-15668809D01*
X11671667Y-15735476D02*
X11671667Y-15535476D01*
X11671667Y-15725952D02*
X11652619Y-15735476D01*
X11614524Y-15735476D01*
X11595476Y-15725952D01*
X11585952Y-15716428D01*
X11576428Y-15697381D01*
X11576428Y-15640238D01*
X11585952Y-15621190D01*
X11595476Y-15611667D01*
X11614524Y-15602143D01*
X11652619Y-15602143D01*
X11671667Y-15611667D01*
X11747857Y-15811667D02*
X11757381Y-15802143D01*
X11776428Y-15773571D01*
X11785952Y-15754524D01*
X11795476Y-15725952D01*
X11805000Y-15678333D01*
X11805000Y-15640238D01*
X11795476Y-15592619D01*
X11785952Y-15564048D01*
X11776428Y-15545000D01*
X11757381Y-15516428D01*
X11747857Y-15506905D01*
M02*
