%TF.GenerationSoftware,KiCad,Pcbnew,(6.0.8)*%
%TF.CreationDate,2023-12-15T13:23:07-05:00*%
%TF.ProjectId,main_pcb,6d61696e-5f70-4636-922e-6b696361645f,rev?*%
%TF.SameCoordinates,Original*%
%TF.FileFunction,Drillmap*%
%TF.FilePolarity,Positive*%
%FSLAX45Y45*%
G04 Gerber Fmt 4.5, Leading zero omitted, Abs format (unit mm)*
G04 Created by KiCad (PCBNEW (6.0.8)) date 2023-12-15 13:23:07*
%MOMM*%
%LPD*%
G01*
G04 APERTURE LIST*
%ADD10C,0.100000*%
%ADD11C,0.200000*%
%ADD12C,0.040000*%
%ADD13C,0.080000*%
%ADD14C,0.090000*%
%ADD15C,0.095000*%
%ADD16C,0.102000*%
G04 APERTURE END LIST*
D10*
X8300000Y-14300000D02*
G75*
G03*
X8500000Y-14500000I200000J0D01*
G01*
X13000000Y-15000000D02*
X5000000Y-15000000D01*
X5000000Y-15000000D02*
X5000000Y-5000000D01*
X5000000Y-5000000D02*
X13000000Y-5000000D01*
X13000000Y-5000000D02*
X13000000Y-15000000D01*
X8500000Y-13061420D02*
G75*
G03*
X8300000Y-13261421I0J-200000D01*
G01*
X8500000Y-14500000D02*
X9500000Y-14500000D01*
X9700000Y-14300000D02*
X9700000Y-13261421D01*
X9500000Y-14500000D02*
G75*
G03*
X9700000Y-14300000I0J200000D01*
G01*
X9500000Y-13061421D02*
X8500000Y-13061421D01*
X8300000Y-13261421D02*
X8300000Y-14300000D01*
X9699999Y-13261421D02*
G75*
G03*
X9500000Y-13061421I-199999J1D01*
G01*
D11*
D12*
X5105000Y-14855000D02*
X5145000Y-14895000D01*
X5145000Y-14855000D02*
X5105000Y-14895000D01*
X5130000Y-5130000D02*
X5170000Y-5170000D01*
X5170000Y-5130000D02*
X5130000Y-5170000D01*
X5150000Y-12690000D02*
X5190000Y-12730000D01*
X5190000Y-12690000D02*
X5150000Y-12730000D01*
X5150000Y-13450000D02*
X5190000Y-13490000D01*
X5190000Y-13450000D02*
X5150000Y-13490000D01*
X5440000Y-13820000D02*
X5480000Y-13860000D01*
X5480000Y-13820000D02*
X5440000Y-13860000D01*
X5440000Y-14040000D02*
X5480000Y-14080000D01*
X5480000Y-14040000D02*
X5440000Y-14080000D01*
X5450000Y-11010000D02*
X5490000Y-11050000D01*
X5490000Y-11010000D02*
X5450000Y-11050000D01*
X5490000Y-9390000D02*
X5530000Y-9430000D01*
X5530000Y-9390000D02*
X5490000Y-9430000D01*
X5490000Y-10390000D02*
X5530000Y-10430000D01*
X5530000Y-10390000D02*
X5490000Y-10430000D01*
X5560000Y-9620000D02*
X5600000Y-9660000D01*
X5600000Y-9620000D02*
X5560000Y-9660000D01*
X5560000Y-9740000D02*
X5600000Y-9780000D01*
X5600000Y-9740000D02*
X5560000Y-9780000D01*
X5710000Y-6650000D02*
X5750000Y-6690000D01*
X5750000Y-6650000D02*
X5710000Y-6690000D01*
X5710000Y-6800000D02*
X5750000Y-6840000D01*
X5750000Y-6800000D02*
X5710000Y-6840000D01*
X5710000Y-6950000D02*
X5750000Y-6990000D01*
X5750000Y-6950000D02*
X5710000Y-6990000D01*
X5710000Y-9620000D02*
X5750000Y-9660000D01*
X5750000Y-9620000D02*
X5710000Y-9660000D01*
X5710000Y-9740000D02*
X5750000Y-9780000D01*
X5750000Y-9740000D02*
X5710000Y-9780000D01*
X5740000Y-12170000D02*
X5780000Y-12210000D01*
X5780000Y-12170000D02*
X5740000Y-12210000D01*
X5830000Y-6650000D02*
X5870000Y-6690000D01*
X5870000Y-6650000D02*
X5830000Y-6690000D01*
X5830000Y-6800000D02*
X5870000Y-6840000D01*
X5870000Y-6800000D02*
X5830000Y-6840000D01*
X5830000Y-6950000D02*
X5870000Y-6990000D01*
X5870000Y-6950000D02*
X5830000Y-6990000D01*
X5860000Y-9620000D02*
X5900000Y-9660000D01*
X5900000Y-9620000D02*
X5860000Y-9660000D01*
X5860000Y-9740000D02*
X5900000Y-9780000D01*
X5900000Y-9740000D02*
X5860000Y-9780000D01*
X5920000Y-10260000D02*
X5960000Y-10300000D01*
X5960000Y-10260000D02*
X5920000Y-10300000D01*
X5920000Y-10410000D02*
X5960000Y-10450000D01*
X5960000Y-10410000D02*
X5920000Y-10450000D01*
X5920000Y-10560000D02*
X5960000Y-10600000D01*
X5960000Y-10560000D02*
X5920000Y-10600000D01*
X5930000Y-10810000D02*
X5970000Y-10850000D01*
X5970000Y-10810000D02*
X5930000Y-10850000D01*
X6040000Y-10260000D02*
X6080000Y-10300000D01*
X6080000Y-10260000D02*
X6040000Y-10300000D01*
X6040000Y-10410000D02*
X6080000Y-10450000D01*
X6080000Y-10410000D02*
X6040000Y-10450000D01*
X6040000Y-10560000D02*
X6080000Y-10600000D01*
X6080000Y-10560000D02*
X6040000Y-10600000D01*
X6040000Y-12480000D02*
X6080000Y-12520000D01*
X6080000Y-12480000D02*
X6040000Y-12520000D01*
X6060000Y-14710000D02*
X6100000Y-14750000D01*
X6100000Y-14710000D02*
X6060000Y-14750000D01*
X6220000Y-9420000D02*
X6260000Y-9460000D01*
X6260000Y-9420000D02*
X6220000Y-9460000D01*
X6240000Y-11360000D02*
X6280000Y-11400000D01*
X6280000Y-11360000D02*
X6240000Y-11400000D01*
X6330000Y-7930000D02*
X6370000Y-7970000D01*
X6370000Y-7930000D02*
X6330000Y-7970000D01*
X6369200Y-8606250D02*
X6409200Y-8646250D01*
X6409200Y-8606250D02*
X6369200Y-8646250D01*
X6395000Y-8955000D02*
X6435000Y-8995000D01*
X6435000Y-8955000D02*
X6395000Y-8995000D01*
X6480000Y-7930000D02*
X6520000Y-7970000D01*
X6520000Y-7930000D02*
X6480000Y-7970000D01*
X6480000Y-11180000D02*
X6520000Y-11220000D01*
X6520000Y-11180000D02*
X6480000Y-11220000D01*
X6490000Y-10250000D02*
X6530000Y-10290000D01*
X6530000Y-10250000D02*
X6490000Y-10290000D01*
X6520000Y-8330000D02*
X6560000Y-8370000D01*
X6560000Y-8330000D02*
X6520000Y-8370000D01*
X6530000Y-8218100D02*
X6570000Y-8258100D01*
X6570000Y-8218100D02*
X6530000Y-8258100D01*
X6534300Y-8504300D02*
X6574300Y-8544300D01*
X6574300Y-8504300D02*
X6534300Y-8544300D01*
X6600000Y-13795000D02*
X6640000Y-13835000D01*
X6640000Y-13795000D02*
X6600000Y-13835000D01*
X6605000Y-12455000D02*
X6645000Y-12495000D01*
X6645000Y-12455000D02*
X6605000Y-12495000D01*
X6605000Y-12680000D02*
X6645000Y-12720000D01*
X6645000Y-12680000D02*
X6605000Y-12720000D01*
X6610000Y-12170000D02*
X6650000Y-12210000D01*
X6650000Y-12170000D02*
X6610000Y-12210000D01*
X6710000Y-9910000D02*
X6750000Y-9950000D01*
X6750000Y-9910000D02*
X6710000Y-9950000D01*
X6711000Y-9466900D02*
X6751000Y-9506900D01*
X6751000Y-9466900D02*
X6711000Y-9506900D01*
X6717500Y-8965000D02*
X6757500Y-9005000D01*
X6757500Y-8965000D02*
X6717500Y-9005000D01*
X6761800Y-11333800D02*
X6801800Y-11373800D01*
X6801800Y-11333800D02*
X6761800Y-11373800D01*
X6840000Y-5850000D02*
X6880000Y-5890000D01*
X6880000Y-5850000D02*
X6840000Y-5890000D01*
X6865000Y-14090000D02*
X6905000Y-14130000D01*
X6905000Y-14090000D02*
X6865000Y-14130000D01*
X6875000Y-13820000D02*
X6915000Y-13860000D01*
X6915000Y-13820000D02*
X6875000Y-13860000D01*
X6901250Y-8060000D02*
X6941250Y-8100000D01*
X6941250Y-8060000D02*
X6901250Y-8100000D01*
X6901250Y-8964150D02*
X6941250Y-9004150D01*
X6941250Y-8964150D02*
X6901250Y-9004150D01*
X6930000Y-6380000D02*
X6970000Y-6420000D01*
X6970000Y-6380000D02*
X6930000Y-6420000D01*
X7100000Y-11340000D02*
X7140000Y-11380000D01*
X7140000Y-11340000D02*
X7100000Y-11380000D01*
X7140000Y-9990000D02*
X7180000Y-10030000D01*
X7180000Y-9990000D02*
X7140000Y-10030000D01*
X7140000Y-10140000D02*
X7180000Y-10180000D01*
X7180000Y-10140000D02*
X7140000Y-10180000D01*
X7140000Y-10290000D02*
X7180000Y-10330000D01*
X7180000Y-10290000D02*
X7140000Y-10330000D01*
X7155000Y-10930000D02*
X7195000Y-10970000D01*
X7195000Y-10930000D02*
X7155000Y-10970000D01*
X7230000Y-10680000D02*
X7270000Y-10720000D01*
X7270000Y-10680000D02*
X7230000Y-10720000D01*
X7260000Y-9990000D02*
X7300000Y-10030000D01*
X7300000Y-9990000D02*
X7260000Y-10030000D01*
X7260000Y-10140000D02*
X7300000Y-10180000D01*
X7300000Y-10140000D02*
X7260000Y-10180000D01*
X7260000Y-10290000D02*
X7300000Y-10330000D01*
X7300000Y-10290000D02*
X7260000Y-10330000D01*
X7650000Y-10940000D02*
X7690000Y-10980000D01*
X7690000Y-10940000D02*
X7650000Y-10980000D01*
X7660000Y-9590000D02*
X7700000Y-9630000D01*
X7700000Y-9590000D02*
X7660000Y-9630000D01*
X7660000Y-10030000D02*
X7700000Y-10070000D01*
X7700000Y-10030000D02*
X7660000Y-10070000D01*
X7670000Y-9220000D02*
X7710000Y-9260000D01*
X7710000Y-9220000D02*
X7670000Y-9260000D01*
X7700000Y-11200000D02*
X7740000Y-11240000D01*
X7740000Y-11200000D02*
X7700000Y-11240000D01*
X7700000Y-11350000D02*
X7740000Y-11390000D01*
X7740000Y-11350000D02*
X7700000Y-11390000D01*
X7700000Y-11500000D02*
X7740000Y-11540000D01*
X7740000Y-11500000D02*
X7700000Y-11540000D01*
X7820000Y-11200000D02*
X7860000Y-11240000D01*
X7860000Y-11200000D02*
X7820000Y-11240000D01*
X7820000Y-11350000D02*
X7860000Y-11390000D01*
X7860000Y-11350000D02*
X7820000Y-11390000D01*
X7820000Y-11500000D02*
X7860000Y-11540000D01*
X7860000Y-11500000D02*
X7820000Y-11540000D01*
X7900000Y-8105000D02*
X7940000Y-8145000D01*
X7940000Y-8105000D02*
X7900000Y-8145000D01*
X7900000Y-8360000D02*
X7940000Y-8400000D01*
X7940000Y-8360000D02*
X7900000Y-8400000D01*
X7900000Y-8630000D02*
X7940000Y-8670000D01*
X7940000Y-8630000D02*
X7900000Y-8670000D01*
X7900000Y-14670000D02*
X7940000Y-14710000D01*
X7940000Y-14670000D02*
X7900000Y-14710000D01*
X8030000Y-10780000D02*
X8070000Y-10820000D01*
X8070000Y-10780000D02*
X8030000Y-10820000D01*
X8060000Y-9987000D02*
X8100000Y-10027000D01*
X8100000Y-9987000D02*
X8060000Y-10027000D01*
X8060000Y-10137000D02*
X8100000Y-10177000D01*
X8100000Y-10137000D02*
X8060000Y-10177000D01*
X8060000Y-10287000D02*
X8100000Y-10327000D01*
X8100000Y-10287000D02*
X8060000Y-10327000D01*
X8100000Y-14870000D02*
X8140000Y-14910000D01*
X8140000Y-14870000D02*
X8100000Y-14910000D01*
X8180000Y-9987000D02*
X8220000Y-10027000D01*
X8220000Y-9987000D02*
X8180000Y-10027000D01*
X8180000Y-10137000D02*
X8220000Y-10177000D01*
X8220000Y-10137000D02*
X8180000Y-10177000D01*
X8180000Y-10287000D02*
X8220000Y-10327000D01*
X8220000Y-10287000D02*
X8180000Y-10327000D01*
X8230000Y-12455000D02*
X8270000Y-12495000D01*
X8270000Y-12455000D02*
X8230000Y-12495000D01*
X8230000Y-12680000D02*
X8270000Y-12720000D01*
X8270000Y-12680000D02*
X8230000Y-12720000D01*
X8250000Y-14460000D02*
X8290000Y-14500000D01*
X8290000Y-14460000D02*
X8250000Y-14500000D01*
X8270000Y-12110000D02*
X8310000Y-12150000D01*
X8310000Y-12110000D02*
X8270000Y-12150000D01*
X8310000Y-6050000D02*
X8350000Y-6090000D01*
X8350000Y-6050000D02*
X8310000Y-6090000D01*
X8310000Y-6230000D02*
X8350000Y-6270000D01*
X8350000Y-6230000D02*
X8310000Y-6270000D01*
X8310000Y-6400000D02*
X8350000Y-6440000D01*
X8350000Y-6400000D02*
X8310000Y-6440000D01*
X8460000Y-9720000D02*
X8500000Y-9760000D01*
X8500000Y-9720000D02*
X8460000Y-9760000D01*
X8520000Y-10440000D02*
X8560000Y-10480000D01*
X8560000Y-10440000D02*
X8520000Y-10480000D01*
X8555000Y-9205000D02*
X8595000Y-9245000D01*
X8595000Y-9205000D02*
X8555000Y-9245000D01*
X8560000Y-8700000D02*
X8600000Y-8740000D01*
X8600000Y-8700000D02*
X8560000Y-8740000D01*
X8570000Y-8100000D02*
X8610000Y-8140000D01*
X8610000Y-8100000D02*
X8570000Y-8140000D01*
X8629250Y-8850000D02*
X8669250Y-8890000D01*
X8669250Y-8850000D02*
X8629250Y-8890000D01*
X8710000Y-12230000D02*
X8750000Y-12270000D01*
X8750000Y-12230000D02*
X8710000Y-12270000D01*
X8830000Y-12630000D02*
X8870000Y-12670000D01*
X8870000Y-12630000D02*
X8830000Y-12670000D01*
X8880000Y-8670000D02*
X8920000Y-8710000D01*
X8920000Y-8670000D02*
X8880000Y-8710000D01*
X8890000Y-9330000D02*
X8930000Y-9370000D01*
X8930000Y-9330000D02*
X8890000Y-9370000D01*
X9030000Y-5105000D02*
X9070000Y-5145000D01*
X9070000Y-5105000D02*
X9030000Y-5145000D01*
X9040000Y-10230000D02*
X9080000Y-10270000D01*
X9080000Y-10230000D02*
X9040000Y-10270000D01*
X9155000Y-11130000D02*
X9195000Y-11170000D01*
X9195000Y-11130000D02*
X9155000Y-11170000D01*
X9170000Y-9300000D02*
X9210000Y-9340000D01*
X9210000Y-9300000D02*
X9170000Y-9340000D01*
X9180000Y-8750000D02*
X9220000Y-8790000D01*
X9220000Y-8750000D02*
X9180000Y-8790000D01*
X9180000Y-12630000D02*
X9220000Y-12670000D01*
X9220000Y-12630000D02*
X9180000Y-12670000D01*
X9210000Y-7780000D02*
X9250000Y-7820000D01*
X9250000Y-7780000D02*
X9210000Y-7820000D01*
X9230000Y-12230000D02*
X9270000Y-12270000D01*
X9270000Y-12230000D02*
X9230000Y-12270000D01*
X9280000Y-10800000D02*
X9320000Y-10840000D01*
X9320000Y-10800000D02*
X9280000Y-10840000D01*
X9700000Y-7540000D02*
X9740000Y-7580000D01*
X9740000Y-7540000D02*
X9700000Y-7580000D01*
X9780000Y-12205000D02*
X9820000Y-12245000D01*
X9820000Y-12205000D02*
X9780000Y-12245000D01*
X9780000Y-12480000D02*
X9820000Y-12520000D01*
X9820000Y-12480000D02*
X9780000Y-12520000D01*
X9780000Y-12730000D02*
X9820000Y-12770000D01*
X9820000Y-12730000D02*
X9780000Y-12770000D01*
X9780000Y-14305000D02*
X9820000Y-14345000D01*
X9820000Y-14305000D02*
X9780000Y-14345000D01*
X9805000Y-13355000D02*
X9845000Y-13395000D01*
X9845000Y-13355000D02*
X9805000Y-13395000D01*
X9805000Y-13730000D02*
X9845000Y-13770000D01*
X9845000Y-13730000D02*
X9805000Y-13770000D01*
X9905000Y-14755000D02*
X9945000Y-14795000D01*
X9945000Y-14755000D02*
X9905000Y-14795000D01*
X9915000Y-6020000D02*
X9955000Y-6060000D01*
X9955000Y-6020000D02*
X9915000Y-6060000D01*
X10100000Y-9090000D02*
X10140000Y-9130000D01*
X10140000Y-9090000D02*
X10100000Y-9130000D01*
X10100000Y-10770000D02*
X10140000Y-10810000D01*
X10140000Y-10770000D02*
X10100000Y-10810000D01*
X10100000Y-11930000D02*
X10140000Y-11970000D01*
X10140000Y-11930000D02*
X10100000Y-11970000D01*
X10105000Y-13155000D02*
X10145000Y-13195000D01*
X10145000Y-13155000D02*
X10105000Y-13195000D01*
X10105000Y-13555000D02*
X10145000Y-13595000D01*
X10145000Y-13555000D02*
X10105000Y-13595000D01*
X10120000Y-8760000D02*
X10160000Y-8800000D01*
X10160000Y-8760000D02*
X10120000Y-8800000D01*
X10120000Y-9750000D02*
X10160000Y-9790000D01*
X10160000Y-9750000D02*
X10120000Y-9790000D01*
X10430000Y-5500000D02*
X10470000Y-5540000D01*
X10470000Y-5500000D02*
X10430000Y-5540000D01*
X10430000Y-5830000D02*
X10470000Y-5870000D01*
X10470000Y-5830000D02*
X10430000Y-5870000D01*
X10440000Y-6820000D02*
X10480000Y-6860000D01*
X10480000Y-6820000D02*
X10440000Y-6860000D01*
X10470000Y-7940000D02*
X10510000Y-7980000D01*
X10510000Y-7940000D02*
X10470000Y-7980000D01*
X10508300Y-12934000D02*
X10548300Y-12974000D01*
X10548300Y-12934000D02*
X10508300Y-12974000D01*
X10520000Y-14070000D02*
X10560000Y-14110000D01*
X10560000Y-14070000D02*
X10520000Y-14110000D01*
X10530000Y-12660000D02*
X10570000Y-12700000D01*
X10570000Y-12660000D02*
X10530000Y-12700000D01*
X10533700Y-9225600D02*
X10573700Y-9265600D01*
X10573700Y-9225600D02*
X10533700Y-9265600D01*
X10533700Y-10063800D02*
X10573700Y-10103800D01*
X10573700Y-10063800D02*
X10533700Y-10103800D01*
X10580000Y-14710000D02*
X10620000Y-14750000D01*
X10620000Y-14710000D02*
X10580000Y-14750000D01*
X10622600Y-13823000D02*
X10662600Y-13863000D01*
X10662600Y-13823000D02*
X10622600Y-13863000D01*
X10680000Y-9570000D02*
X10720000Y-9610000D01*
X10720000Y-9570000D02*
X10680000Y-9610000D01*
X10680000Y-10370000D02*
X10720000Y-10410000D01*
X10720000Y-10370000D02*
X10680000Y-10410000D01*
X10830000Y-8280000D02*
X10870000Y-8320000D01*
X10870000Y-8280000D02*
X10830000Y-8320000D01*
X10840000Y-12010000D02*
X10880000Y-12050000D01*
X10880000Y-12010000D02*
X10840000Y-12050000D01*
X10927400Y-13162600D02*
X10967400Y-13202600D01*
X10967400Y-13162600D02*
X10927400Y-13202600D01*
X10945000Y-6020000D02*
X10985000Y-6060000D01*
X10985000Y-6020000D02*
X10945000Y-6060000D01*
X11060000Y-12680000D02*
X11100000Y-12720000D01*
X11100000Y-12680000D02*
X11060000Y-12720000D01*
X11060000Y-14720000D02*
X11100000Y-14760000D01*
X11100000Y-14720000D02*
X11060000Y-14760000D01*
X11190000Y-8100000D02*
X11230000Y-8140000D01*
X11230000Y-8100000D02*
X11190000Y-8140000D01*
X11200000Y-5930000D02*
X11240000Y-5970000D01*
X11240000Y-5930000D02*
X11200000Y-5970000D01*
X11270000Y-10770000D02*
X11310000Y-10810000D01*
X11310000Y-10770000D02*
X11270000Y-10810000D01*
X11270000Y-11550000D02*
X11310000Y-11590000D01*
X11310000Y-11550000D02*
X11270000Y-11590000D01*
X11320000Y-14870000D02*
X11360000Y-14910000D01*
X11360000Y-14870000D02*
X11320000Y-14910000D01*
X11360000Y-5930000D02*
X11400000Y-5970000D01*
X11400000Y-5930000D02*
X11360000Y-5970000D01*
X11470000Y-10150000D02*
X11510000Y-10190000D01*
X11510000Y-10150000D02*
X11470000Y-10190000D01*
X11605000Y-14105000D02*
X11645000Y-14145000D01*
X11645000Y-14105000D02*
X11605000Y-14145000D01*
X11640000Y-13270000D02*
X11680000Y-13310000D01*
X11680000Y-13270000D02*
X11640000Y-13310000D01*
X11650000Y-12790000D02*
X11690000Y-12830000D01*
X11690000Y-12790000D02*
X11650000Y-12830000D01*
X11765000Y-8680000D02*
X11805000Y-8720000D01*
X11805000Y-8680000D02*
X11765000Y-8720000D01*
X11780000Y-7435000D02*
X11820000Y-7475000D01*
X11820000Y-7435000D02*
X11780000Y-7475000D01*
X11970000Y-5330000D02*
X12010000Y-5370000D01*
X12010000Y-5330000D02*
X11970000Y-5370000D01*
X11980000Y-6810000D02*
X12020000Y-6850000D01*
X12020000Y-6810000D02*
X11980000Y-6850000D01*
X12050000Y-12820000D02*
X12090000Y-12860000D01*
X12090000Y-12820000D02*
X12050000Y-12860000D01*
X12060000Y-11170000D02*
X12100000Y-11210000D01*
X12100000Y-11170000D02*
X12060000Y-11210000D01*
X12060000Y-11520000D02*
X12100000Y-11560000D01*
X12100000Y-11520000D02*
X12060000Y-11560000D01*
X12060000Y-14070000D02*
X12100000Y-14110000D01*
X12100000Y-14070000D02*
X12060000Y-14110000D01*
X12070000Y-10500000D02*
X12110000Y-10540000D01*
X12110000Y-10500000D02*
X12070000Y-10540000D01*
X12070000Y-12190000D02*
X12110000Y-12230000D01*
X12110000Y-12190000D02*
X12070000Y-12230000D01*
X12280000Y-10760000D02*
X12320000Y-10800000D01*
X12320000Y-10760000D02*
X12280000Y-10800000D01*
X12280000Y-10930000D02*
X12320000Y-10970000D01*
X12320000Y-10930000D02*
X12280000Y-10970000D01*
X12280000Y-13780000D02*
X12320000Y-13820000D01*
X12320000Y-13780000D02*
X12280000Y-13820000D01*
X12280000Y-13950000D02*
X12320000Y-13990000D01*
X12320000Y-13950000D02*
X12280000Y-13990000D01*
X12692700Y-11702100D02*
X12732700Y-11742100D01*
X12732700Y-11702100D02*
X12692700Y-11742100D01*
X12800000Y-12360000D02*
X12840000Y-12400000D01*
X12840000Y-12360000D02*
X12800000Y-12400000D01*
X12855000Y-5105000D02*
X12895000Y-5145000D01*
X12895000Y-5105000D02*
X12855000Y-5145000D01*
X12855000Y-14855000D02*
X12895000Y-14895000D01*
X12895000Y-14855000D02*
X12855000Y-14895000D01*
X12860000Y-8840000D02*
X12900000Y-8880000D01*
X12900000Y-8840000D02*
X12860000Y-8880000D01*
X12860000Y-10620000D02*
X12900000Y-10660000D01*
X12900000Y-10620000D02*
X12860000Y-10660000D01*
D13*
X8540000Y-10040600D02*
G75*
G03*
X8540000Y-10040600I-40000J0D01*
G01*
X8890000Y-10975000D02*
G75*
G03*
X8890000Y-10975000I-40000J0D01*
G01*
X9050000Y-12255000D02*
G75*
G03*
X9050000Y-12255000I-40000J0D01*
G01*
X9210000Y-10980000D02*
G75*
G03*
X9210000Y-10980000I-40000J0D01*
G01*
D14*
X12371000Y-13305000D02*
X12371000Y-13395000D01*
X12326000Y-13350000D02*
X12416000Y-13350000D01*
X12373500Y-11355000D02*
X12373500Y-11445000D01*
X12328500Y-11400000D02*
X12418500Y-11400000D01*
X12373500Y-12005000D02*
X12373500Y-12095000D01*
X12328500Y-12050000D02*
X12418500Y-12050000D01*
X12373500Y-12655000D02*
X12373500Y-12745000D01*
X12328500Y-12700000D02*
X12418500Y-12700000D01*
X12625000Y-13305000D02*
X12625000Y-13395000D01*
X12580000Y-13350000D02*
X12670000Y-13350000D01*
X12627500Y-11355000D02*
X12627500Y-11445000D01*
X12582500Y-11400000D02*
X12672500Y-11400000D01*
X12627500Y-12005000D02*
X12627500Y-12095000D01*
X12582500Y-12050000D02*
X12672500Y-12050000D01*
X12627500Y-12655000D02*
X12627500Y-12745000D01*
X12582500Y-12700000D02*
X12672500Y-12700000D01*
D15*
X7094788Y-13266988D02*
X7094788Y-13199812D01*
X7027612Y-13199812D01*
X7027612Y-13266988D01*
X7094788Y-13266988D01*
X7094788Y-13516988D02*
X7094788Y-13449812D01*
X7027612Y-13449812D01*
X7027612Y-13516988D01*
X7094788Y-13516988D01*
X7094788Y-13766988D02*
X7094788Y-13699812D01*
X7027612Y-13699812D01*
X7027612Y-13766988D01*
X7094788Y-13766988D01*
X7094788Y-14016988D02*
X7094788Y-13949812D01*
X7027612Y-13949812D01*
X7027612Y-14016988D01*
X7094788Y-14016988D01*
X7094788Y-14266988D02*
X7094788Y-14199812D01*
X7027612Y-14199812D01*
X7027612Y-14266988D01*
X7094788Y-14266988D01*
X7094788Y-14516988D02*
X7094788Y-14449812D01*
X7027612Y-14449812D01*
X7027612Y-14516988D01*
X7094788Y-14516988D01*
X7863568Y-13266828D02*
X7863568Y-13199652D01*
X7796392Y-13199652D01*
X7796392Y-13266828D01*
X7863568Y-13266828D01*
X7863568Y-13516828D02*
X7863568Y-13449652D01*
X7796392Y-13449652D01*
X7796392Y-13516828D01*
X7863568Y-13516828D01*
X7863568Y-13766828D02*
X7863568Y-13699652D01*
X7796392Y-13699652D01*
X7796392Y-13766828D01*
X7863568Y-13766828D01*
X7863568Y-14016828D02*
X7863568Y-13949652D01*
X7796392Y-13949652D01*
X7796392Y-14016828D01*
X7863568Y-14016828D01*
X7863568Y-14266828D02*
X7863568Y-14199652D01*
X7796392Y-14199652D01*
X7796392Y-14266828D01*
X7863568Y-14266828D01*
X7863568Y-14516828D02*
X7863568Y-14449652D01*
X7796392Y-14449652D01*
X7796392Y-14516828D01*
X7863568Y-14516828D01*
X9133588Y-5586088D02*
X9133588Y-5518912D01*
X9066412Y-5518912D01*
X9066412Y-5586088D01*
X9133588Y-5586088D01*
X9133588Y-6486088D02*
X9133588Y-6418912D01*
X9066412Y-6418912D01*
X9066412Y-6486088D01*
X9133588Y-6486088D01*
X9133588Y-7386088D02*
X9133588Y-7318912D01*
X9066412Y-7318912D01*
X9066412Y-7386088D01*
X9133588Y-7386088D01*
X9383588Y-5586088D02*
X9383588Y-5518912D01*
X9316412Y-5518912D01*
X9316412Y-5586088D01*
X9383588Y-5586088D01*
X9383588Y-6486088D02*
X9383588Y-6418912D01*
X9316412Y-6418912D01*
X9316412Y-6486088D01*
X9383588Y-6486088D01*
X9383588Y-7386088D02*
X9383588Y-7318912D01*
X9316412Y-7318912D01*
X9316412Y-7386088D01*
X9383588Y-7386088D01*
X9633588Y-5586088D02*
X9633588Y-5518912D01*
X9566412Y-5518912D01*
X9566412Y-5586088D01*
X9633588Y-5586088D01*
X9633588Y-6486088D02*
X9633588Y-6418912D01*
X9566412Y-6418912D01*
X9566412Y-6486088D01*
X9633588Y-6486088D01*
X9633588Y-7386088D02*
X9633588Y-7318912D01*
X9566412Y-7318912D01*
X9566412Y-7386088D01*
X9633588Y-7386088D01*
X9883588Y-5586088D02*
X9883588Y-5518912D01*
X9816412Y-5518912D01*
X9816412Y-5586088D01*
X9883588Y-5586088D01*
X9883588Y-6486088D02*
X9883588Y-6418912D01*
X9816412Y-6418912D01*
X9816412Y-6486088D01*
X9883588Y-6486088D01*
X9883588Y-7386088D02*
X9883588Y-7318912D01*
X9816412Y-7318912D01*
X9816412Y-7386088D01*
X9883588Y-7386088D01*
X10133588Y-5586088D02*
X10133588Y-5518912D01*
X10066412Y-5518912D01*
X10066412Y-5586088D01*
X10133588Y-5586088D01*
X10133588Y-6486088D02*
X10133588Y-6418912D01*
X10066412Y-6418912D01*
X10066412Y-6486088D01*
X10133588Y-6486088D01*
X10133588Y-7386088D02*
X10133588Y-7318912D01*
X10066412Y-7318912D01*
X10066412Y-7386088D01*
X10133588Y-7386088D01*
X10713588Y-11209588D02*
X10713588Y-11142412D01*
X10646412Y-11142412D01*
X10646412Y-11209588D01*
X10713588Y-11209588D01*
X10833588Y-5481088D02*
X10833588Y-5413912D01*
X10766412Y-5413912D01*
X10766412Y-5481088D01*
X10833588Y-5481088D01*
X10833588Y-6381088D02*
X10833588Y-6313912D01*
X10766412Y-6313912D01*
X10766412Y-6381088D01*
X10833588Y-6381088D01*
X10833588Y-7281088D02*
X10833588Y-7213912D01*
X10766412Y-7213912D01*
X10766412Y-7281088D01*
X10833588Y-7281088D01*
X10963588Y-11209588D02*
X10963588Y-11142412D01*
X10896412Y-11142412D01*
X10896412Y-11209588D01*
X10963588Y-11209588D01*
X11083588Y-5481088D02*
X11083588Y-5413912D01*
X11016412Y-5413912D01*
X11016412Y-5481088D01*
X11083588Y-5481088D01*
X11083588Y-6381088D02*
X11083588Y-6313912D01*
X11016412Y-6313912D01*
X11016412Y-6381088D01*
X11083588Y-6381088D01*
X11083588Y-7281088D02*
X11083588Y-7213912D01*
X11016412Y-7213912D01*
X11016412Y-7281088D01*
X11083588Y-7281088D01*
X11213588Y-11209588D02*
X11213588Y-11142412D01*
X11146412Y-11142412D01*
X11146412Y-11209588D01*
X11213588Y-11209588D01*
X11333588Y-5481088D02*
X11333588Y-5413912D01*
X11266412Y-5413912D01*
X11266412Y-5481088D01*
X11333588Y-5481088D01*
X11333588Y-6381088D02*
X11333588Y-6313912D01*
X11266412Y-6313912D01*
X11266412Y-6381088D01*
X11333588Y-6381088D01*
X11333588Y-7281088D02*
X11333588Y-7213912D01*
X11266412Y-7213912D01*
X11266412Y-7281088D01*
X11333588Y-7281088D01*
X11463588Y-11209588D02*
X11463588Y-11142412D01*
X11396412Y-11142412D01*
X11396412Y-11209588D01*
X11463588Y-11209588D01*
X11583588Y-5481088D02*
X11583588Y-5413912D01*
X11516412Y-5413912D01*
X11516412Y-5481088D01*
X11583588Y-5481088D01*
X11583588Y-6381088D02*
X11583588Y-6313912D01*
X11516412Y-6313912D01*
X11516412Y-6381088D01*
X11583588Y-6381088D01*
X11583588Y-7281088D02*
X11583588Y-7213912D01*
X11516412Y-7213912D01*
X11516412Y-7281088D01*
X11583588Y-7281088D01*
X11713588Y-11209588D02*
X11713588Y-11142412D01*
X11646412Y-11142412D01*
X11646412Y-11209588D01*
X11713588Y-11209588D01*
X11833588Y-5481088D02*
X11833588Y-5413912D01*
X11766412Y-5413912D01*
X11766412Y-5481088D01*
X11833588Y-5481088D01*
X11833588Y-6381088D02*
X11833588Y-6313912D01*
X11766412Y-6313912D01*
X11766412Y-6381088D01*
X11833588Y-6381088D01*
X11833588Y-7281088D02*
X11833588Y-7213912D01*
X11766412Y-7213912D01*
X11766412Y-7281088D01*
X11833588Y-7281088D01*
D16*
X5400900Y-11866700D02*
X5451900Y-11815700D01*
X5400900Y-11764700D01*
X5349900Y-11815700D01*
X5400900Y-11866700D01*
X5400900Y-12120700D02*
X5451900Y-12069700D01*
X5400900Y-12018700D01*
X5349900Y-12069700D01*
X5400900Y-12120700D01*
X5400900Y-12374700D02*
X5451900Y-12323700D01*
X5400900Y-12272700D01*
X5349900Y-12323700D01*
X5400900Y-12374700D01*
X5400900Y-12628700D02*
X5451900Y-12577700D01*
X5400900Y-12526700D01*
X5349900Y-12577700D01*
X5400900Y-12628700D01*
X5400900Y-12882700D02*
X5451900Y-12831700D01*
X5400900Y-12780700D01*
X5349900Y-12831700D01*
X5400900Y-12882700D01*
X5400900Y-13136700D02*
X5451900Y-13085700D01*
X5400900Y-13034700D01*
X5349900Y-13085700D01*
X5400900Y-13136700D01*
X5400900Y-13390700D02*
X5451900Y-13339700D01*
X5400900Y-13288700D01*
X5349900Y-13339700D01*
X5400900Y-13390700D01*
X5400900Y-13644700D02*
X5451900Y-13593700D01*
X5400900Y-13542700D01*
X5349900Y-13593700D01*
X5400900Y-13644700D01*
X6416900Y-11866700D02*
X6467900Y-11815700D01*
X6416900Y-11764700D01*
X6365900Y-11815700D01*
X6416900Y-11866700D01*
X6416900Y-12120700D02*
X6467900Y-12069700D01*
X6416900Y-12018700D01*
X6365900Y-12069700D01*
X6416900Y-12120700D01*
X6416900Y-12374700D02*
X6467900Y-12323700D01*
X6416900Y-12272700D01*
X6365900Y-12323700D01*
X6416900Y-12374700D01*
X6416900Y-12628700D02*
X6467900Y-12577700D01*
X6416900Y-12526700D01*
X6365900Y-12577700D01*
X6416900Y-12628700D01*
X6416900Y-12882700D02*
X6467900Y-12831700D01*
X6416900Y-12780700D01*
X6365900Y-12831700D01*
X6416900Y-12882700D01*
X6416900Y-13136700D02*
X6467900Y-13085700D01*
X6416900Y-13034700D01*
X6365900Y-13085700D01*
X6416900Y-13136700D01*
X6416900Y-13390700D02*
X6467900Y-13339700D01*
X6416900Y-13288700D01*
X6365900Y-13339700D01*
X6416900Y-13390700D01*
X6416900Y-13644700D02*
X6467900Y-13593700D01*
X6416900Y-13542700D01*
X6365900Y-13593700D01*
X6416900Y-13644700D01*
D11*
X5252619Y-15315476D02*
X5252619Y-15115476D01*
X5300238Y-15115476D01*
X5328810Y-15125000D01*
X5347857Y-15144048D01*
X5357381Y-15163095D01*
X5366905Y-15201190D01*
X5366905Y-15229762D01*
X5357381Y-15267857D01*
X5347857Y-15286905D01*
X5328810Y-15305952D01*
X5300238Y-15315476D01*
X5252619Y-15315476D01*
X5452619Y-15315476D02*
X5452619Y-15182143D01*
X5452619Y-15220238D02*
X5462143Y-15201190D01*
X5471667Y-15191667D01*
X5490714Y-15182143D01*
X5509762Y-15182143D01*
X5576429Y-15315476D02*
X5576429Y-15182143D01*
X5576429Y-15115476D02*
X5566905Y-15125000D01*
X5576429Y-15134524D01*
X5585952Y-15125000D01*
X5576429Y-15115476D01*
X5576429Y-15134524D01*
X5700238Y-15315476D02*
X5681190Y-15305952D01*
X5671667Y-15286905D01*
X5671667Y-15115476D01*
X5805000Y-15315476D02*
X5785952Y-15305952D01*
X5776428Y-15286905D01*
X5776428Y-15115476D01*
X6033571Y-15315476D02*
X6033571Y-15115476D01*
X6100238Y-15258333D01*
X6166905Y-15115476D01*
X6166905Y-15315476D01*
X6347857Y-15315476D02*
X6347857Y-15210714D01*
X6338333Y-15191667D01*
X6319286Y-15182143D01*
X6281190Y-15182143D01*
X6262143Y-15191667D01*
X6347857Y-15305952D02*
X6328809Y-15315476D01*
X6281190Y-15315476D01*
X6262143Y-15305952D01*
X6252619Y-15286905D01*
X6252619Y-15267857D01*
X6262143Y-15248809D01*
X6281190Y-15239286D01*
X6328809Y-15239286D01*
X6347857Y-15229762D01*
X6443095Y-15182143D02*
X6443095Y-15382143D01*
X6443095Y-15191667D02*
X6462143Y-15182143D01*
X6500238Y-15182143D01*
X6519286Y-15191667D01*
X6528809Y-15201190D01*
X6538333Y-15220238D01*
X6538333Y-15277381D01*
X6528809Y-15296428D01*
X6519286Y-15305952D01*
X6500238Y-15315476D01*
X6462143Y-15315476D01*
X6443095Y-15305952D01*
X6624048Y-15296428D02*
X6633571Y-15305952D01*
X6624048Y-15315476D01*
X6614524Y-15305952D01*
X6624048Y-15296428D01*
X6624048Y-15315476D01*
X6624048Y-15191667D02*
X6633571Y-15201190D01*
X6624048Y-15210714D01*
X6614524Y-15201190D01*
X6624048Y-15191667D01*
X6624048Y-15210714D01*
D12*
X4955000Y-15625000D02*
X4995000Y-15665000D01*
X4995000Y-15625000D02*
X4955000Y-15665000D01*
D11*
X5290714Y-15535476D02*
X5309762Y-15535476D01*
X5328810Y-15545000D01*
X5338333Y-15554524D01*
X5347857Y-15573571D01*
X5357381Y-15611667D01*
X5357381Y-15659286D01*
X5347857Y-15697381D01*
X5338333Y-15716428D01*
X5328810Y-15725952D01*
X5309762Y-15735476D01*
X5290714Y-15735476D01*
X5271667Y-15725952D01*
X5262143Y-15716428D01*
X5252619Y-15697381D01*
X5243095Y-15659286D01*
X5243095Y-15611667D01*
X5252619Y-15573571D01*
X5262143Y-15554524D01*
X5271667Y-15545000D01*
X5290714Y-15535476D01*
X5443095Y-15716428D02*
X5452619Y-15725952D01*
X5443095Y-15735476D01*
X5433571Y-15725952D01*
X5443095Y-15716428D01*
X5443095Y-15735476D01*
X5624048Y-15602143D02*
X5624048Y-15735476D01*
X5576429Y-15525952D02*
X5528810Y-15668809D01*
X5652619Y-15668809D01*
X5766905Y-15535476D02*
X5785952Y-15535476D01*
X5805000Y-15545000D01*
X5814524Y-15554524D01*
X5824048Y-15573571D01*
X5833571Y-15611667D01*
X5833571Y-15659286D01*
X5824048Y-15697381D01*
X5814524Y-15716428D01*
X5805000Y-15725952D01*
X5785952Y-15735476D01*
X5766905Y-15735476D01*
X5747857Y-15725952D01*
X5738333Y-15716428D01*
X5728809Y-15697381D01*
X5719286Y-15659286D01*
X5719286Y-15611667D01*
X5728809Y-15573571D01*
X5738333Y-15554524D01*
X5747857Y-15545000D01*
X5766905Y-15535476D01*
X5957381Y-15535476D02*
X5976428Y-15535476D01*
X5995476Y-15545000D01*
X6005000Y-15554524D01*
X6014524Y-15573571D01*
X6024048Y-15611667D01*
X6024048Y-15659286D01*
X6014524Y-15697381D01*
X6005000Y-15716428D01*
X5995476Y-15725952D01*
X5976428Y-15735476D01*
X5957381Y-15735476D01*
X5938333Y-15725952D01*
X5928809Y-15716428D01*
X5919286Y-15697381D01*
X5909762Y-15659286D01*
X5909762Y-15611667D01*
X5919286Y-15573571D01*
X5928809Y-15554524D01*
X5938333Y-15545000D01*
X5957381Y-15535476D01*
X6109762Y-15735476D02*
X6109762Y-15602143D01*
X6109762Y-15621190D02*
X6119286Y-15611667D01*
X6138333Y-15602143D01*
X6166905Y-15602143D01*
X6185952Y-15611667D01*
X6195476Y-15630714D01*
X6195476Y-15735476D01*
X6195476Y-15630714D02*
X6205000Y-15611667D01*
X6224048Y-15602143D01*
X6252619Y-15602143D01*
X6271667Y-15611667D01*
X6281190Y-15630714D01*
X6281190Y-15735476D01*
X6376428Y-15735476D02*
X6376428Y-15602143D01*
X6376428Y-15621190D02*
X6385952Y-15611667D01*
X6405000Y-15602143D01*
X6433571Y-15602143D01*
X6452619Y-15611667D01*
X6462143Y-15630714D01*
X6462143Y-15735476D01*
X6462143Y-15630714D02*
X6471667Y-15611667D01*
X6490714Y-15602143D01*
X6519286Y-15602143D01*
X6538333Y-15611667D01*
X6547857Y-15630714D01*
X6547857Y-15735476D01*
X6938333Y-15525952D02*
X6766905Y-15783095D01*
X7195476Y-15535476D02*
X7214524Y-15535476D01*
X7233571Y-15545000D01*
X7243095Y-15554524D01*
X7252619Y-15573571D01*
X7262143Y-15611667D01*
X7262143Y-15659286D01*
X7252619Y-15697381D01*
X7243095Y-15716428D01*
X7233571Y-15725952D01*
X7214524Y-15735476D01*
X7195476Y-15735476D01*
X7176428Y-15725952D01*
X7166905Y-15716428D01*
X7157381Y-15697381D01*
X7147857Y-15659286D01*
X7147857Y-15611667D01*
X7157381Y-15573571D01*
X7166905Y-15554524D01*
X7176428Y-15545000D01*
X7195476Y-15535476D01*
X7347857Y-15716428D02*
X7357381Y-15725952D01*
X7347857Y-15735476D01*
X7338333Y-15725952D01*
X7347857Y-15716428D01*
X7347857Y-15735476D01*
X7481190Y-15535476D02*
X7500238Y-15535476D01*
X7519286Y-15545000D01*
X7528809Y-15554524D01*
X7538333Y-15573571D01*
X7547857Y-15611667D01*
X7547857Y-15659286D01*
X7538333Y-15697381D01*
X7528809Y-15716428D01*
X7519286Y-15725952D01*
X7500238Y-15735476D01*
X7481190Y-15735476D01*
X7462143Y-15725952D01*
X7452619Y-15716428D01*
X7443095Y-15697381D01*
X7433571Y-15659286D01*
X7433571Y-15611667D01*
X7443095Y-15573571D01*
X7452619Y-15554524D01*
X7462143Y-15545000D01*
X7481190Y-15535476D01*
X7738333Y-15735476D02*
X7624048Y-15735476D01*
X7681190Y-15735476D02*
X7681190Y-15535476D01*
X7662143Y-15564048D01*
X7643095Y-15583095D01*
X7624048Y-15592619D01*
X7919286Y-15535476D02*
X7824048Y-15535476D01*
X7814524Y-15630714D01*
X7824048Y-15621190D01*
X7843095Y-15611667D01*
X7890714Y-15611667D01*
X7909762Y-15621190D01*
X7919286Y-15630714D01*
X7928809Y-15649762D01*
X7928809Y-15697381D01*
X7919286Y-15716428D01*
X7909762Y-15725952D01*
X7890714Y-15735476D01*
X7843095Y-15735476D01*
X7824048Y-15725952D01*
X7814524Y-15716428D01*
X7995476Y-15535476D02*
X8128809Y-15535476D01*
X8043095Y-15735476D01*
X8195476Y-15535476D02*
X8195476Y-15573571D01*
X8271667Y-15535476D02*
X8271667Y-15573571D01*
X8566905Y-15811667D02*
X8557381Y-15802143D01*
X8538333Y-15773571D01*
X8528810Y-15754524D01*
X8519286Y-15725952D01*
X8509762Y-15678333D01*
X8509762Y-15640238D01*
X8519286Y-15592619D01*
X8528810Y-15564048D01*
X8538333Y-15545000D01*
X8557381Y-15516428D01*
X8566905Y-15506905D01*
X8747857Y-15735476D02*
X8633571Y-15735476D01*
X8690714Y-15735476D02*
X8690714Y-15535476D01*
X8671667Y-15564048D01*
X8652619Y-15583095D01*
X8633571Y-15592619D01*
X8814524Y-15535476D02*
X8947857Y-15535476D01*
X8862143Y-15735476D01*
X9052619Y-15621190D02*
X9033571Y-15611667D01*
X9024048Y-15602143D01*
X9014524Y-15583095D01*
X9014524Y-15573571D01*
X9024048Y-15554524D01*
X9033571Y-15545000D01*
X9052619Y-15535476D01*
X9090714Y-15535476D01*
X9109762Y-15545000D01*
X9119286Y-15554524D01*
X9128810Y-15573571D01*
X9128810Y-15583095D01*
X9119286Y-15602143D01*
X9109762Y-15611667D01*
X9090714Y-15621190D01*
X9052619Y-15621190D01*
X9033571Y-15630714D01*
X9024048Y-15640238D01*
X9014524Y-15659286D01*
X9014524Y-15697381D01*
X9024048Y-15716428D01*
X9033571Y-15725952D01*
X9052619Y-15735476D01*
X9090714Y-15735476D01*
X9109762Y-15725952D01*
X9119286Y-15716428D01*
X9128810Y-15697381D01*
X9128810Y-15659286D01*
X9119286Y-15640238D01*
X9109762Y-15630714D01*
X9090714Y-15621190D01*
X9366905Y-15735476D02*
X9366905Y-15535476D01*
X9452619Y-15735476D02*
X9452619Y-15630714D01*
X9443095Y-15611667D01*
X9424048Y-15602143D01*
X9395476Y-15602143D01*
X9376429Y-15611667D01*
X9366905Y-15621190D01*
X9576429Y-15735476D02*
X9557381Y-15725952D01*
X9547857Y-15716428D01*
X9538333Y-15697381D01*
X9538333Y-15640238D01*
X9547857Y-15621190D01*
X9557381Y-15611667D01*
X9576429Y-15602143D01*
X9605000Y-15602143D01*
X9624048Y-15611667D01*
X9633571Y-15621190D01*
X9643095Y-15640238D01*
X9643095Y-15697381D01*
X9633571Y-15716428D01*
X9624048Y-15725952D01*
X9605000Y-15735476D01*
X9576429Y-15735476D01*
X9757381Y-15735476D02*
X9738333Y-15725952D01*
X9728810Y-15706905D01*
X9728810Y-15535476D01*
X9909762Y-15725952D02*
X9890714Y-15735476D01*
X9852619Y-15735476D01*
X9833571Y-15725952D01*
X9824048Y-15706905D01*
X9824048Y-15630714D01*
X9833571Y-15611667D01*
X9852619Y-15602143D01*
X9890714Y-15602143D01*
X9909762Y-15611667D01*
X9919286Y-15630714D01*
X9919286Y-15649762D01*
X9824048Y-15668809D01*
X9995476Y-15725952D02*
X10014524Y-15735476D01*
X10052619Y-15735476D01*
X10071667Y-15725952D01*
X10081190Y-15706905D01*
X10081190Y-15697381D01*
X10071667Y-15678333D01*
X10052619Y-15668809D01*
X10024048Y-15668809D01*
X10005000Y-15659286D01*
X9995476Y-15640238D01*
X9995476Y-15630714D01*
X10005000Y-15611667D01*
X10024048Y-15602143D01*
X10052619Y-15602143D01*
X10071667Y-15611667D01*
X10147857Y-15811667D02*
X10157381Y-15802143D01*
X10176429Y-15773571D01*
X10185952Y-15754524D01*
X10195476Y-15725952D01*
X10205000Y-15678333D01*
X10205000Y-15640238D01*
X10195476Y-15592619D01*
X10185952Y-15564048D01*
X10176429Y-15545000D01*
X10157381Y-15516428D01*
X10147857Y-15506905D01*
D13*
X4995000Y-15909000D02*
G75*
G03*
X4995000Y-15909000I-40000J0D01*
G01*
D11*
X5290714Y-15799476D02*
X5309762Y-15799476D01*
X5328810Y-15809000D01*
X5338333Y-15818524D01*
X5347857Y-15837571D01*
X5357381Y-15875667D01*
X5357381Y-15923286D01*
X5347857Y-15961381D01*
X5338333Y-15980428D01*
X5328810Y-15989952D01*
X5309762Y-15999476D01*
X5290714Y-15999476D01*
X5271667Y-15989952D01*
X5262143Y-15980428D01*
X5252619Y-15961381D01*
X5243095Y-15923286D01*
X5243095Y-15875667D01*
X5252619Y-15837571D01*
X5262143Y-15818524D01*
X5271667Y-15809000D01*
X5290714Y-15799476D01*
X5443095Y-15980428D02*
X5452619Y-15989952D01*
X5443095Y-15999476D01*
X5433571Y-15989952D01*
X5443095Y-15980428D01*
X5443095Y-15999476D01*
X5566905Y-15885190D02*
X5547857Y-15875667D01*
X5538333Y-15866143D01*
X5528810Y-15847095D01*
X5528810Y-15837571D01*
X5538333Y-15818524D01*
X5547857Y-15809000D01*
X5566905Y-15799476D01*
X5605000Y-15799476D01*
X5624048Y-15809000D01*
X5633571Y-15818524D01*
X5643095Y-15837571D01*
X5643095Y-15847095D01*
X5633571Y-15866143D01*
X5624048Y-15875667D01*
X5605000Y-15885190D01*
X5566905Y-15885190D01*
X5547857Y-15894714D01*
X5538333Y-15904238D01*
X5528810Y-15923286D01*
X5528810Y-15961381D01*
X5538333Y-15980428D01*
X5547857Y-15989952D01*
X5566905Y-15999476D01*
X5605000Y-15999476D01*
X5624048Y-15989952D01*
X5633571Y-15980428D01*
X5643095Y-15961381D01*
X5643095Y-15923286D01*
X5633571Y-15904238D01*
X5624048Y-15894714D01*
X5605000Y-15885190D01*
X5766905Y-15799476D02*
X5785952Y-15799476D01*
X5805000Y-15809000D01*
X5814524Y-15818524D01*
X5824048Y-15837571D01*
X5833571Y-15875667D01*
X5833571Y-15923286D01*
X5824048Y-15961381D01*
X5814524Y-15980428D01*
X5805000Y-15989952D01*
X5785952Y-15999476D01*
X5766905Y-15999476D01*
X5747857Y-15989952D01*
X5738333Y-15980428D01*
X5728809Y-15961381D01*
X5719286Y-15923286D01*
X5719286Y-15875667D01*
X5728809Y-15837571D01*
X5738333Y-15818524D01*
X5747857Y-15809000D01*
X5766905Y-15799476D01*
X5957381Y-15799476D02*
X5976428Y-15799476D01*
X5995476Y-15809000D01*
X6005000Y-15818524D01*
X6014524Y-15837571D01*
X6024048Y-15875667D01*
X6024048Y-15923286D01*
X6014524Y-15961381D01*
X6005000Y-15980428D01*
X5995476Y-15989952D01*
X5976428Y-15999476D01*
X5957381Y-15999476D01*
X5938333Y-15989952D01*
X5928809Y-15980428D01*
X5919286Y-15961381D01*
X5909762Y-15923286D01*
X5909762Y-15875667D01*
X5919286Y-15837571D01*
X5928809Y-15818524D01*
X5938333Y-15809000D01*
X5957381Y-15799476D01*
X6109762Y-15999476D02*
X6109762Y-15866143D01*
X6109762Y-15885190D02*
X6119286Y-15875667D01*
X6138333Y-15866143D01*
X6166905Y-15866143D01*
X6185952Y-15875667D01*
X6195476Y-15894714D01*
X6195476Y-15999476D01*
X6195476Y-15894714D02*
X6205000Y-15875667D01*
X6224048Y-15866143D01*
X6252619Y-15866143D01*
X6271667Y-15875667D01*
X6281190Y-15894714D01*
X6281190Y-15999476D01*
X6376428Y-15999476D02*
X6376428Y-15866143D01*
X6376428Y-15885190D02*
X6385952Y-15875667D01*
X6405000Y-15866143D01*
X6433571Y-15866143D01*
X6452619Y-15875667D01*
X6462143Y-15894714D01*
X6462143Y-15999476D01*
X6462143Y-15894714D02*
X6471667Y-15875667D01*
X6490714Y-15866143D01*
X6519286Y-15866143D01*
X6538333Y-15875667D01*
X6547857Y-15894714D01*
X6547857Y-15999476D01*
X6938333Y-15789952D02*
X6766905Y-16047095D01*
X7195476Y-15799476D02*
X7214524Y-15799476D01*
X7233571Y-15809000D01*
X7243095Y-15818524D01*
X7252619Y-15837571D01*
X7262143Y-15875667D01*
X7262143Y-15923286D01*
X7252619Y-15961381D01*
X7243095Y-15980428D01*
X7233571Y-15989952D01*
X7214524Y-15999476D01*
X7195476Y-15999476D01*
X7176428Y-15989952D01*
X7166905Y-15980428D01*
X7157381Y-15961381D01*
X7147857Y-15923286D01*
X7147857Y-15875667D01*
X7157381Y-15837571D01*
X7166905Y-15818524D01*
X7176428Y-15809000D01*
X7195476Y-15799476D01*
X7347857Y-15980428D02*
X7357381Y-15989952D01*
X7347857Y-15999476D01*
X7338333Y-15989952D01*
X7347857Y-15980428D01*
X7347857Y-15999476D01*
X7481190Y-15799476D02*
X7500238Y-15799476D01*
X7519286Y-15809000D01*
X7528809Y-15818524D01*
X7538333Y-15837571D01*
X7547857Y-15875667D01*
X7547857Y-15923286D01*
X7538333Y-15961381D01*
X7528809Y-15980428D01*
X7519286Y-15989952D01*
X7500238Y-15999476D01*
X7481190Y-15999476D01*
X7462143Y-15989952D01*
X7452619Y-15980428D01*
X7443095Y-15961381D01*
X7433571Y-15923286D01*
X7433571Y-15875667D01*
X7443095Y-15837571D01*
X7452619Y-15818524D01*
X7462143Y-15809000D01*
X7481190Y-15799476D01*
X7614524Y-15799476D02*
X7738333Y-15799476D01*
X7671667Y-15875667D01*
X7700238Y-15875667D01*
X7719286Y-15885190D01*
X7728809Y-15894714D01*
X7738333Y-15913762D01*
X7738333Y-15961381D01*
X7728809Y-15980428D01*
X7719286Y-15989952D01*
X7700238Y-15999476D01*
X7643095Y-15999476D01*
X7624048Y-15989952D01*
X7614524Y-15980428D01*
X7928809Y-15999476D02*
X7814524Y-15999476D01*
X7871667Y-15999476D02*
X7871667Y-15799476D01*
X7852619Y-15828048D01*
X7833571Y-15847095D01*
X7814524Y-15856619D01*
X8109762Y-15799476D02*
X8014524Y-15799476D01*
X8005000Y-15894714D01*
X8014524Y-15885190D01*
X8033571Y-15875667D01*
X8081190Y-15875667D01*
X8100238Y-15885190D01*
X8109762Y-15894714D01*
X8119286Y-15913762D01*
X8119286Y-15961381D01*
X8109762Y-15980428D01*
X8100238Y-15989952D01*
X8081190Y-15999476D01*
X8033571Y-15999476D01*
X8014524Y-15989952D01*
X8005000Y-15980428D01*
X8195476Y-15799476D02*
X8195476Y-15837571D01*
X8271667Y-15799476D02*
X8271667Y-15837571D01*
X8566905Y-16075667D02*
X8557381Y-16066143D01*
X8538333Y-16037571D01*
X8528810Y-16018524D01*
X8519286Y-15989952D01*
X8509762Y-15942333D01*
X8509762Y-15904238D01*
X8519286Y-15856619D01*
X8528810Y-15828048D01*
X8538333Y-15809000D01*
X8557381Y-15780428D01*
X8566905Y-15770905D01*
X8728810Y-15866143D02*
X8728810Y-15999476D01*
X8681190Y-15789952D02*
X8633571Y-15932809D01*
X8757381Y-15932809D01*
X8985952Y-15999476D02*
X8985952Y-15799476D01*
X9071667Y-15999476D02*
X9071667Y-15894714D01*
X9062143Y-15875667D01*
X9043095Y-15866143D01*
X9014524Y-15866143D01*
X8995476Y-15875667D01*
X8985952Y-15885190D01*
X9195476Y-15999476D02*
X9176429Y-15989952D01*
X9166905Y-15980428D01*
X9157381Y-15961381D01*
X9157381Y-15904238D01*
X9166905Y-15885190D01*
X9176429Y-15875667D01*
X9195476Y-15866143D01*
X9224048Y-15866143D01*
X9243095Y-15875667D01*
X9252619Y-15885190D01*
X9262143Y-15904238D01*
X9262143Y-15961381D01*
X9252619Y-15980428D01*
X9243095Y-15989952D01*
X9224048Y-15999476D01*
X9195476Y-15999476D01*
X9376429Y-15999476D02*
X9357381Y-15989952D01*
X9347857Y-15970905D01*
X9347857Y-15799476D01*
X9528810Y-15989952D02*
X9509762Y-15999476D01*
X9471667Y-15999476D01*
X9452619Y-15989952D01*
X9443095Y-15970905D01*
X9443095Y-15894714D01*
X9452619Y-15875667D01*
X9471667Y-15866143D01*
X9509762Y-15866143D01*
X9528810Y-15875667D01*
X9538333Y-15894714D01*
X9538333Y-15913762D01*
X9443095Y-15932809D01*
X9614524Y-15989952D02*
X9633571Y-15999476D01*
X9671667Y-15999476D01*
X9690714Y-15989952D01*
X9700238Y-15970905D01*
X9700238Y-15961381D01*
X9690714Y-15942333D01*
X9671667Y-15932809D01*
X9643095Y-15932809D01*
X9624048Y-15923286D01*
X9614524Y-15904238D01*
X9614524Y-15894714D01*
X9624048Y-15875667D01*
X9643095Y-15866143D01*
X9671667Y-15866143D01*
X9690714Y-15875667D01*
X9766905Y-16075667D02*
X9776429Y-16066143D01*
X9795476Y-16037571D01*
X9805000Y-16018524D01*
X9814524Y-15989952D01*
X9824048Y-15942333D01*
X9824048Y-15904238D01*
X9814524Y-15856619D01*
X9805000Y-15828048D01*
X9795476Y-15809000D01*
X9776429Y-15780428D01*
X9766905Y-15770905D01*
D14*
X4950000Y-16128000D02*
X4950000Y-16218000D01*
X4905000Y-16173000D02*
X4995000Y-16173000D01*
D11*
X5290714Y-16063476D02*
X5309762Y-16063476D01*
X5328810Y-16073000D01*
X5338333Y-16082524D01*
X5347857Y-16101571D01*
X5357381Y-16139667D01*
X5357381Y-16187286D01*
X5347857Y-16225381D01*
X5338333Y-16244428D01*
X5328810Y-16253952D01*
X5309762Y-16263476D01*
X5290714Y-16263476D01*
X5271667Y-16253952D01*
X5262143Y-16244428D01*
X5252619Y-16225381D01*
X5243095Y-16187286D01*
X5243095Y-16139667D01*
X5252619Y-16101571D01*
X5262143Y-16082524D01*
X5271667Y-16073000D01*
X5290714Y-16063476D01*
X5443095Y-16244428D02*
X5452619Y-16253952D01*
X5443095Y-16263476D01*
X5433571Y-16253952D01*
X5443095Y-16244428D01*
X5443095Y-16263476D01*
X5547857Y-16263476D02*
X5585952Y-16263476D01*
X5605000Y-16253952D01*
X5614524Y-16244428D01*
X5633571Y-16215857D01*
X5643095Y-16177762D01*
X5643095Y-16101571D01*
X5633571Y-16082524D01*
X5624048Y-16073000D01*
X5605000Y-16063476D01*
X5566905Y-16063476D01*
X5547857Y-16073000D01*
X5538333Y-16082524D01*
X5528810Y-16101571D01*
X5528810Y-16149190D01*
X5538333Y-16168238D01*
X5547857Y-16177762D01*
X5566905Y-16187286D01*
X5605000Y-16187286D01*
X5624048Y-16177762D01*
X5633571Y-16168238D01*
X5643095Y-16149190D01*
X5766905Y-16063476D02*
X5785952Y-16063476D01*
X5805000Y-16073000D01*
X5814524Y-16082524D01*
X5824048Y-16101571D01*
X5833571Y-16139667D01*
X5833571Y-16187286D01*
X5824048Y-16225381D01*
X5814524Y-16244428D01*
X5805000Y-16253952D01*
X5785952Y-16263476D01*
X5766905Y-16263476D01*
X5747857Y-16253952D01*
X5738333Y-16244428D01*
X5728809Y-16225381D01*
X5719286Y-16187286D01*
X5719286Y-16139667D01*
X5728809Y-16101571D01*
X5738333Y-16082524D01*
X5747857Y-16073000D01*
X5766905Y-16063476D01*
X5957381Y-16063476D02*
X5976428Y-16063476D01*
X5995476Y-16073000D01*
X6005000Y-16082524D01*
X6014524Y-16101571D01*
X6024048Y-16139667D01*
X6024048Y-16187286D01*
X6014524Y-16225381D01*
X6005000Y-16244428D01*
X5995476Y-16253952D01*
X5976428Y-16263476D01*
X5957381Y-16263476D01*
X5938333Y-16253952D01*
X5928809Y-16244428D01*
X5919286Y-16225381D01*
X5909762Y-16187286D01*
X5909762Y-16139667D01*
X5919286Y-16101571D01*
X5928809Y-16082524D01*
X5938333Y-16073000D01*
X5957381Y-16063476D01*
X6109762Y-16263476D02*
X6109762Y-16130143D01*
X6109762Y-16149190D02*
X6119286Y-16139667D01*
X6138333Y-16130143D01*
X6166905Y-16130143D01*
X6185952Y-16139667D01*
X6195476Y-16158714D01*
X6195476Y-16263476D01*
X6195476Y-16158714D02*
X6205000Y-16139667D01*
X6224048Y-16130143D01*
X6252619Y-16130143D01*
X6271667Y-16139667D01*
X6281190Y-16158714D01*
X6281190Y-16263476D01*
X6376428Y-16263476D02*
X6376428Y-16130143D01*
X6376428Y-16149190D02*
X6385952Y-16139667D01*
X6405000Y-16130143D01*
X6433571Y-16130143D01*
X6452619Y-16139667D01*
X6462143Y-16158714D01*
X6462143Y-16263476D01*
X6462143Y-16158714D02*
X6471667Y-16139667D01*
X6490714Y-16130143D01*
X6519286Y-16130143D01*
X6538333Y-16139667D01*
X6547857Y-16158714D01*
X6547857Y-16263476D01*
X6938333Y-16053952D02*
X6766905Y-16311095D01*
X7195476Y-16063476D02*
X7214524Y-16063476D01*
X7233571Y-16073000D01*
X7243095Y-16082524D01*
X7252619Y-16101571D01*
X7262143Y-16139667D01*
X7262143Y-16187286D01*
X7252619Y-16225381D01*
X7243095Y-16244428D01*
X7233571Y-16253952D01*
X7214524Y-16263476D01*
X7195476Y-16263476D01*
X7176428Y-16253952D01*
X7166905Y-16244428D01*
X7157381Y-16225381D01*
X7147857Y-16187286D01*
X7147857Y-16139667D01*
X7157381Y-16101571D01*
X7166905Y-16082524D01*
X7176428Y-16073000D01*
X7195476Y-16063476D01*
X7347857Y-16244428D02*
X7357381Y-16253952D01*
X7347857Y-16263476D01*
X7338333Y-16253952D01*
X7347857Y-16244428D01*
X7347857Y-16263476D01*
X7481190Y-16063476D02*
X7500238Y-16063476D01*
X7519286Y-16073000D01*
X7528809Y-16082524D01*
X7538333Y-16101571D01*
X7547857Y-16139667D01*
X7547857Y-16187286D01*
X7538333Y-16225381D01*
X7528809Y-16244428D01*
X7519286Y-16253952D01*
X7500238Y-16263476D01*
X7481190Y-16263476D01*
X7462143Y-16253952D01*
X7452619Y-16244428D01*
X7443095Y-16225381D01*
X7433571Y-16187286D01*
X7433571Y-16139667D01*
X7443095Y-16101571D01*
X7452619Y-16082524D01*
X7462143Y-16073000D01*
X7481190Y-16063476D01*
X7614524Y-16063476D02*
X7738333Y-16063476D01*
X7671667Y-16139667D01*
X7700238Y-16139667D01*
X7719286Y-16149190D01*
X7728809Y-16158714D01*
X7738333Y-16177762D01*
X7738333Y-16225381D01*
X7728809Y-16244428D01*
X7719286Y-16253952D01*
X7700238Y-16263476D01*
X7643095Y-16263476D01*
X7624048Y-16253952D01*
X7614524Y-16244428D01*
X7919286Y-16063476D02*
X7824048Y-16063476D01*
X7814524Y-16158714D01*
X7824048Y-16149190D01*
X7843095Y-16139667D01*
X7890714Y-16139667D01*
X7909762Y-16149190D01*
X7919286Y-16158714D01*
X7928809Y-16177762D01*
X7928809Y-16225381D01*
X7919286Y-16244428D01*
X7909762Y-16253952D01*
X7890714Y-16263476D01*
X7843095Y-16263476D01*
X7824048Y-16253952D01*
X7814524Y-16244428D01*
X8100238Y-16130143D02*
X8100238Y-16263476D01*
X8052619Y-16053952D02*
X8005000Y-16196809D01*
X8128809Y-16196809D01*
X8195476Y-16063476D02*
X8195476Y-16101571D01*
X8271667Y-16063476D02*
X8271667Y-16101571D01*
X8566905Y-16339667D02*
X8557381Y-16330143D01*
X8538333Y-16301571D01*
X8528810Y-16282524D01*
X8519286Y-16253952D01*
X8509762Y-16206333D01*
X8509762Y-16168238D01*
X8519286Y-16120619D01*
X8528810Y-16092048D01*
X8538333Y-16073000D01*
X8557381Y-16044428D01*
X8566905Y-16034905D01*
X8671667Y-16149190D02*
X8652619Y-16139667D01*
X8643095Y-16130143D01*
X8633571Y-16111095D01*
X8633571Y-16101571D01*
X8643095Y-16082524D01*
X8652619Y-16073000D01*
X8671667Y-16063476D01*
X8709762Y-16063476D01*
X8728810Y-16073000D01*
X8738333Y-16082524D01*
X8747857Y-16101571D01*
X8747857Y-16111095D01*
X8738333Y-16130143D01*
X8728810Y-16139667D01*
X8709762Y-16149190D01*
X8671667Y-16149190D01*
X8652619Y-16158714D01*
X8643095Y-16168238D01*
X8633571Y-16187286D01*
X8633571Y-16225381D01*
X8643095Y-16244428D01*
X8652619Y-16253952D01*
X8671667Y-16263476D01*
X8709762Y-16263476D01*
X8728810Y-16253952D01*
X8738333Y-16244428D01*
X8747857Y-16225381D01*
X8747857Y-16187286D01*
X8738333Y-16168238D01*
X8728810Y-16158714D01*
X8709762Y-16149190D01*
X8985952Y-16263476D02*
X8985952Y-16063476D01*
X9071667Y-16263476D02*
X9071667Y-16158714D01*
X9062143Y-16139667D01*
X9043095Y-16130143D01*
X9014524Y-16130143D01*
X8995476Y-16139667D01*
X8985952Y-16149190D01*
X9195476Y-16263476D02*
X9176429Y-16253952D01*
X9166905Y-16244428D01*
X9157381Y-16225381D01*
X9157381Y-16168238D01*
X9166905Y-16149190D01*
X9176429Y-16139667D01*
X9195476Y-16130143D01*
X9224048Y-16130143D01*
X9243095Y-16139667D01*
X9252619Y-16149190D01*
X9262143Y-16168238D01*
X9262143Y-16225381D01*
X9252619Y-16244428D01*
X9243095Y-16253952D01*
X9224048Y-16263476D01*
X9195476Y-16263476D01*
X9376429Y-16263476D02*
X9357381Y-16253952D01*
X9347857Y-16234905D01*
X9347857Y-16063476D01*
X9528810Y-16253952D02*
X9509762Y-16263476D01*
X9471667Y-16263476D01*
X9452619Y-16253952D01*
X9443095Y-16234905D01*
X9443095Y-16158714D01*
X9452619Y-16139667D01*
X9471667Y-16130143D01*
X9509762Y-16130143D01*
X9528810Y-16139667D01*
X9538333Y-16158714D01*
X9538333Y-16177762D01*
X9443095Y-16196809D01*
X9614524Y-16253952D02*
X9633571Y-16263476D01*
X9671667Y-16263476D01*
X9690714Y-16253952D01*
X9700238Y-16234905D01*
X9700238Y-16225381D01*
X9690714Y-16206333D01*
X9671667Y-16196809D01*
X9643095Y-16196809D01*
X9624048Y-16187286D01*
X9614524Y-16168238D01*
X9614524Y-16158714D01*
X9624048Y-16139667D01*
X9643095Y-16130143D01*
X9671667Y-16130143D01*
X9690714Y-16139667D01*
X9766905Y-16339667D02*
X9776429Y-16330143D01*
X9795476Y-16301571D01*
X9805000Y-16282524D01*
X9814524Y-16253952D01*
X9824048Y-16206333D01*
X9824048Y-16168238D01*
X9814524Y-16120619D01*
X9805000Y-16092048D01*
X9795476Y-16073000D01*
X9776429Y-16044428D01*
X9766905Y-16034905D01*
D15*
X4981088Y-16470588D02*
X4981088Y-16403412D01*
X4913912Y-16403412D01*
X4913912Y-16470588D01*
X4981088Y-16470588D01*
D11*
X5290714Y-16327476D02*
X5309762Y-16327476D01*
X5328810Y-16337000D01*
X5338333Y-16346524D01*
X5347857Y-16365571D01*
X5357381Y-16403667D01*
X5357381Y-16451286D01*
X5347857Y-16489381D01*
X5338333Y-16508428D01*
X5328810Y-16517952D01*
X5309762Y-16527476D01*
X5290714Y-16527476D01*
X5271667Y-16517952D01*
X5262143Y-16508428D01*
X5252619Y-16489381D01*
X5243095Y-16451286D01*
X5243095Y-16403667D01*
X5252619Y-16365571D01*
X5262143Y-16346524D01*
X5271667Y-16337000D01*
X5290714Y-16327476D01*
X5443095Y-16508428D02*
X5452619Y-16517952D01*
X5443095Y-16527476D01*
X5433571Y-16517952D01*
X5443095Y-16508428D01*
X5443095Y-16527476D01*
X5547857Y-16527476D02*
X5585952Y-16527476D01*
X5605000Y-16517952D01*
X5614524Y-16508428D01*
X5633571Y-16479857D01*
X5643095Y-16441762D01*
X5643095Y-16365571D01*
X5633571Y-16346524D01*
X5624048Y-16337000D01*
X5605000Y-16327476D01*
X5566905Y-16327476D01*
X5547857Y-16337000D01*
X5538333Y-16346524D01*
X5528810Y-16365571D01*
X5528810Y-16413190D01*
X5538333Y-16432238D01*
X5547857Y-16441762D01*
X5566905Y-16451286D01*
X5605000Y-16451286D01*
X5624048Y-16441762D01*
X5633571Y-16432238D01*
X5643095Y-16413190D01*
X5824048Y-16327476D02*
X5728809Y-16327476D01*
X5719286Y-16422714D01*
X5728809Y-16413190D01*
X5747857Y-16403667D01*
X5795476Y-16403667D01*
X5814524Y-16413190D01*
X5824048Y-16422714D01*
X5833571Y-16441762D01*
X5833571Y-16489381D01*
X5824048Y-16508428D01*
X5814524Y-16517952D01*
X5795476Y-16527476D01*
X5747857Y-16527476D01*
X5728809Y-16517952D01*
X5719286Y-16508428D01*
X5957381Y-16327476D02*
X5976428Y-16327476D01*
X5995476Y-16337000D01*
X6005000Y-16346524D01*
X6014524Y-16365571D01*
X6024048Y-16403667D01*
X6024048Y-16451286D01*
X6014524Y-16489381D01*
X6005000Y-16508428D01*
X5995476Y-16517952D01*
X5976428Y-16527476D01*
X5957381Y-16527476D01*
X5938333Y-16517952D01*
X5928809Y-16508428D01*
X5919286Y-16489381D01*
X5909762Y-16451286D01*
X5909762Y-16403667D01*
X5919286Y-16365571D01*
X5928809Y-16346524D01*
X5938333Y-16337000D01*
X5957381Y-16327476D01*
X6109762Y-16527476D02*
X6109762Y-16394143D01*
X6109762Y-16413190D02*
X6119286Y-16403667D01*
X6138333Y-16394143D01*
X6166905Y-16394143D01*
X6185952Y-16403667D01*
X6195476Y-16422714D01*
X6195476Y-16527476D01*
X6195476Y-16422714D02*
X6205000Y-16403667D01*
X6224048Y-16394143D01*
X6252619Y-16394143D01*
X6271667Y-16403667D01*
X6281190Y-16422714D01*
X6281190Y-16527476D01*
X6376428Y-16527476D02*
X6376428Y-16394143D01*
X6376428Y-16413190D02*
X6385952Y-16403667D01*
X6405000Y-16394143D01*
X6433571Y-16394143D01*
X6452619Y-16403667D01*
X6462143Y-16422714D01*
X6462143Y-16527476D01*
X6462143Y-16422714D02*
X6471667Y-16403667D01*
X6490714Y-16394143D01*
X6519286Y-16394143D01*
X6538333Y-16403667D01*
X6547857Y-16422714D01*
X6547857Y-16527476D01*
X6938333Y-16317952D02*
X6766905Y-16575095D01*
X7195476Y-16327476D02*
X7214524Y-16327476D01*
X7233571Y-16337000D01*
X7243095Y-16346524D01*
X7252619Y-16365571D01*
X7262143Y-16403667D01*
X7262143Y-16451286D01*
X7252619Y-16489381D01*
X7243095Y-16508428D01*
X7233571Y-16517952D01*
X7214524Y-16527476D01*
X7195476Y-16527476D01*
X7176428Y-16517952D01*
X7166905Y-16508428D01*
X7157381Y-16489381D01*
X7147857Y-16451286D01*
X7147857Y-16403667D01*
X7157381Y-16365571D01*
X7166905Y-16346524D01*
X7176428Y-16337000D01*
X7195476Y-16327476D01*
X7347857Y-16508428D02*
X7357381Y-16517952D01*
X7347857Y-16527476D01*
X7338333Y-16517952D01*
X7347857Y-16508428D01*
X7347857Y-16527476D01*
X7481190Y-16327476D02*
X7500238Y-16327476D01*
X7519286Y-16337000D01*
X7528809Y-16346524D01*
X7538333Y-16365571D01*
X7547857Y-16403667D01*
X7547857Y-16451286D01*
X7538333Y-16489381D01*
X7528809Y-16508428D01*
X7519286Y-16517952D01*
X7500238Y-16527476D01*
X7481190Y-16527476D01*
X7462143Y-16517952D01*
X7452619Y-16508428D01*
X7443095Y-16489381D01*
X7433571Y-16451286D01*
X7433571Y-16403667D01*
X7443095Y-16365571D01*
X7452619Y-16346524D01*
X7462143Y-16337000D01*
X7481190Y-16327476D01*
X7614524Y-16327476D02*
X7738333Y-16327476D01*
X7671667Y-16403667D01*
X7700238Y-16403667D01*
X7719286Y-16413190D01*
X7728809Y-16422714D01*
X7738333Y-16441762D01*
X7738333Y-16489381D01*
X7728809Y-16508428D01*
X7719286Y-16517952D01*
X7700238Y-16527476D01*
X7643095Y-16527476D01*
X7624048Y-16517952D01*
X7614524Y-16508428D01*
X7805000Y-16327476D02*
X7938333Y-16327476D01*
X7852619Y-16527476D01*
X8100238Y-16394143D02*
X8100238Y-16527476D01*
X8052619Y-16317952D02*
X8005000Y-16460809D01*
X8128809Y-16460809D01*
X8195476Y-16327476D02*
X8195476Y-16365571D01*
X8271667Y-16327476D02*
X8271667Y-16365571D01*
X8566905Y-16603667D02*
X8557381Y-16594143D01*
X8538333Y-16565571D01*
X8528810Y-16546524D01*
X8519286Y-16517952D01*
X8509762Y-16470333D01*
X8509762Y-16432238D01*
X8519286Y-16384619D01*
X8528810Y-16356048D01*
X8538333Y-16337000D01*
X8557381Y-16308428D01*
X8566905Y-16298905D01*
X8728810Y-16394143D02*
X8728810Y-16527476D01*
X8681190Y-16317952D02*
X8633571Y-16460809D01*
X8757381Y-16460809D01*
X8814524Y-16327476D02*
X8947857Y-16327476D01*
X8862143Y-16527476D01*
X9176429Y-16527476D02*
X9176429Y-16327476D01*
X9262143Y-16527476D02*
X9262143Y-16422714D01*
X9252619Y-16403667D01*
X9233571Y-16394143D01*
X9205000Y-16394143D01*
X9185952Y-16403667D01*
X9176429Y-16413190D01*
X9385952Y-16527476D02*
X9366905Y-16517952D01*
X9357381Y-16508428D01*
X9347857Y-16489381D01*
X9347857Y-16432238D01*
X9357381Y-16413190D01*
X9366905Y-16403667D01*
X9385952Y-16394143D01*
X9414524Y-16394143D01*
X9433571Y-16403667D01*
X9443095Y-16413190D01*
X9452619Y-16432238D01*
X9452619Y-16489381D01*
X9443095Y-16508428D01*
X9433571Y-16517952D01*
X9414524Y-16527476D01*
X9385952Y-16527476D01*
X9566905Y-16527476D02*
X9547857Y-16517952D01*
X9538333Y-16498905D01*
X9538333Y-16327476D01*
X9719286Y-16517952D02*
X9700238Y-16527476D01*
X9662143Y-16527476D01*
X9643095Y-16517952D01*
X9633571Y-16498905D01*
X9633571Y-16422714D01*
X9643095Y-16403667D01*
X9662143Y-16394143D01*
X9700238Y-16394143D01*
X9719286Y-16403667D01*
X9728810Y-16422714D01*
X9728810Y-16441762D01*
X9633571Y-16460809D01*
X9805000Y-16517952D02*
X9824048Y-16527476D01*
X9862143Y-16527476D01*
X9881190Y-16517952D01*
X9890714Y-16498905D01*
X9890714Y-16489381D01*
X9881190Y-16470333D01*
X9862143Y-16460809D01*
X9833571Y-16460809D01*
X9814524Y-16451286D01*
X9805000Y-16432238D01*
X9805000Y-16422714D01*
X9814524Y-16403667D01*
X9833571Y-16394143D01*
X9862143Y-16394143D01*
X9881190Y-16403667D01*
X9957381Y-16603667D02*
X9966905Y-16594143D01*
X9985952Y-16565571D01*
X9995476Y-16546524D01*
X10005000Y-16517952D01*
X10014524Y-16470333D01*
X10014524Y-16432238D01*
X10005000Y-16384619D01*
X9995476Y-16356048D01*
X9985952Y-16337000D01*
X9966905Y-16308428D01*
X9957381Y-16298905D01*
D16*
X4944000Y-16752000D02*
X4995000Y-16701000D01*
X4944000Y-16650000D01*
X4893000Y-16701000D01*
X4944000Y-16752000D01*
D11*
X5357381Y-16791476D02*
X5243095Y-16791476D01*
X5300238Y-16791476D02*
X5300238Y-16591476D01*
X5281190Y-16620048D01*
X5262143Y-16639095D01*
X5243095Y-16648619D01*
X5443095Y-16772428D02*
X5452619Y-16781952D01*
X5443095Y-16791476D01*
X5433571Y-16781952D01*
X5443095Y-16772428D01*
X5443095Y-16791476D01*
X5576429Y-16591476D02*
X5595476Y-16591476D01*
X5614524Y-16601000D01*
X5624048Y-16610524D01*
X5633571Y-16629571D01*
X5643095Y-16667667D01*
X5643095Y-16715286D01*
X5633571Y-16753381D01*
X5624048Y-16772428D01*
X5614524Y-16781952D01*
X5595476Y-16791476D01*
X5576429Y-16791476D01*
X5557381Y-16781952D01*
X5547857Y-16772428D01*
X5538333Y-16753381D01*
X5528810Y-16715286D01*
X5528810Y-16667667D01*
X5538333Y-16629571D01*
X5547857Y-16610524D01*
X5557381Y-16601000D01*
X5576429Y-16591476D01*
X5719286Y-16610524D02*
X5728809Y-16601000D01*
X5747857Y-16591476D01*
X5795476Y-16591476D01*
X5814524Y-16601000D01*
X5824048Y-16610524D01*
X5833571Y-16629571D01*
X5833571Y-16648619D01*
X5824048Y-16677190D01*
X5709762Y-16791476D01*
X5833571Y-16791476D01*
X5957381Y-16591476D02*
X5976428Y-16591476D01*
X5995476Y-16601000D01*
X6005000Y-16610524D01*
X6014524Y-16629571D01*
X6024048Y-16667667D01*
X6024048Y-16715286D01*
X6014524Y-16753381D01*
X6005000Y-16772428D01*
X5995476Y-16781952D01*
X5976428Y-16791476D01*
X5957381Y-16791476D01*
X5938333Y-16781952D01*
X5928809Y-16772428D01*
X5919286Y-16753381D01*
X5909762Y-16715286D01*
X5909762Y-16667667D01*
X5919286Y-16629571D01*
X5928809Y-16610524D01*
X5938333Y-16601000D01*
X5957381Y-16591476D01*
X6109762Y-16791476D02*
X6109762Y-16658143D01*
X6109762Y-16677190D02*
X6119286Y-16667667D01*
X6138333Y-16658143D01*
X6166905Y-16658143D01*
X6185952Y-16667667D01*
X6195476Y-16686714D01*
X6195476Y-16791476D01*
X6195476Y-16686714D02*
X6205000Y-16667667D01*
X6224048Y-16658143D01*
X6252619Y-16658143D01*
X6271667Y-16667667D01*
X6281190Y-16686714D01*
X6281190Y-16791476D01*
X6376428Y-16791476D02*
X6376428Y-16658143D01*
X6376428Y-16677190D02*
X6385952Y-16667667D01*
X6405000Y-16658143D01*
X6433571Y-16658143D01*
X6452619Y-16667667D01*
X6462143Y-16686714D01*
X6462143Y-16791476D01*
X6462143Y-16686714D02*
X6471667Y-16667667D01*
X6490714Y-16658143D01*
X6519286Y-16658143D01*
X6538333Y-16667667D01*
X6547857Y-16686714D01*
X6547857Y-16791476D01*
X6938333Y-16581952D02*
X6766905Y-16839095D01*
X7195476Y-16591476D02*
X7214524Y-16591476D01*
X7233571Y-16601000D01*
X7243095Y-16610524D01*
X7252619Y-16629571D01*
X7262143Y-16667667D01*
X7262143Y-16715286D01*
X7252619Y-16753381D01*
X7243095Y-16772428D01*
X7233571Y-16781952D01*
X7214524Y-16791476D01*
X7195476Y-16791476D01*
X7176428Y-16781952D01*
X7166905Y-16772428D01*
X7157381Y-16753381D01*
X7147857Y-16715286D01*
X7147857Y-16667667D01*
X7157381Y-16629571D01*
X7166905Y-16610524D01*
X7176428Y-16601000D01*
X7195476Y-16591476D01*
X7347857Y-16772428D02*
X7357381Y-16781952D01*
X7347857Y-16791476D01*
X7338333Y-16781952D01*
X7347857Y-16772428D01*
X7347857Y-16791476D01*
X7481190Y-16591476D02*
X7500238Y-16591476D01*
X7519286Y-16601000D01*
X7528809Y-16610524D01*
X7538333Y-16629571D01*
X7547857Y-16667667D01*
X7547857Y-16715286D01*
X7538333Y-16753381D01*
X7528809Y-16772428D01*
X7519286Y-16781952D01*
X7500238Y-16791476D01*
X7481190Y-16791476D01*
X7462143Y-16781952D01*
X7452619Y-16772428D01*
X7443095Y-16753381D01*
X7433571Y-16715286D01*
X7433571Y-16667667D01*
X7443095Y-16629571D01*
X7452619Y-16610524D01*
X7462143Y-16601000D01*
X7481190Y-16591476D01*
X7719286Y-16658143D02*
X7719286Y-16791476D01*
X7671667Y-16581952D02*
X7624048Y-16724809D01*
X7747857Y-16724809D01*
X7862143Y-16591476D02*
X7881190Y-16591476D01*
X7900238Y-16601000D01*
X7909762Y-16610524D01*
X7919286Y-16629571D01*
X7928809Y-16667667D01*
X7928809Y-16715286D01*
X7919286Y-16753381D01*
X7909762Y-16772428D01*
X7900238Y-16781952D01*
X7881190Y-16791476D01*
X7862143Y-16791476D01*
X7843095Y-16781952D01*
X7833571Y-16772428D01*
X7824048Y-16753381D01*
X7814524Y-16715286D01*
X7814524Y-16667667D01*
X7824048Y-16629571D01*
X7833571Y-16610524D01*
X7843095Y-16601000D01*
X7862143Y-16591476D01*
X8005000Y-16610524D02*
X8014524Y-16601000D01*
X8033571Y-16591476D01*
X8081190Y-16591476D01*
X8100238Y-16601000D01*
X8109762Y-16610524D01*
X8119286Y-16629571D01*
X8119286Y-16648619D01*
X8109762Y-16677190D01*
X7995476Y-16791476D01*
X8119286Y-16791476D01*
X8195476Y-16591476D02*
X8195476Y-16629571D01*
X8271667Y-16591476D02*
X8271667Y-16629571D01*
X8566905Y-16867667D02*
X8557381Y-16858143D01*
X8538333Y-16829571D01*
X8528810Y-16810524D01*
X8519286Y-16781952D01*
X8509762Y-16734333D01*
X8509762Y-16696238D01*
X8519286Y-16648619D01*
X8528810Y-16620048D01*
X8538333Y-16601000D01*
X8557381Y-16572428D01*
X8566905Y-16562905D01*
X8747857Y-16791476D02*
X8633571Y-16791476D01*
X8690714Y-16791476D02*
X8690714Y-16591476D01*
X8671667Y-16620048D01*
X8652619Y-16639095D01*
X8633571Y-16648619D01*
X8919286Y-16591476D02*
X8881190Y-16591476D01*
X8862143Y-16601000D01*
X8852619Y-16610524D01*
X8833571Y-16639095D01*
X8824048Y-16677190D01*
X8824048Y-16753381D01*
X8833571Y-16772428D01*
X8843095Y-16781952D01*
X8862143Y-16791476D01*
X8900238Y-16791476D01*
X8919286Y-16781952D01*
X8928810Y-16772428D01*
X8938333Y-16753381D01*
X8938333Y-16705762D01*
X8928810Y-16686714D01*
X8919286Y-16677190D01*
X8900238Y-16667667D01*
X8862143Y-16667667D01*
X8843095Y-16677190D01*
X8833571Y-16686714D01*
X8824048Y-16705762D01*
X9176429Y-16791476D02*
X9176429Y-16591476D01*
X9262143Y-16791476D02*
X9262143Y-16686714D01*
X9252619Y-16667667D01*
X9233571Y-16658143D01*
X9205000Y-16658143D01*
X9185952Y-16667667D01*
X9176429Y-16677190D01*
X9385952Y-16791476D02*
X9366905Y-16781952D01*
X9357381Y-16772428D01*
X9347857Y-16753381D01*
X9347857Y-16696238D01*
X9357381Y-16677190D01*
X9366905Y-16667667D01*
X9385952Y-16658143D01*
X9414524Y-16658143D01*
X9433571Y-16667667D01*
X9443095Y-16677190D01*
X9452619Y-16696238D01*
X9452619Y-16753381D01*
X9443095Y-16772428D01*
X9433571Y-16781952D01*
X9414524Y-16791476D01*
X9385952Y-16791476D01*
X9566905Y-16791476D02*
X9547857Y-16781952D01*
X9538333Y-16762905D01*
X9538333Y-16591476D01*
X9719286Y-16781952D02*
X9700238Y-16791476D01*
X9662143Y-16791476D01*
X9643095Y-16781952D01*
X9633571Y-16762905D01*
X9633571Y-16686714D01*
X9643095Y-16667667D01*
X9662143Y-16658143D01*
X9700238Y-16658143D01*
X9719286Y-16667667D01*
X9728810Y-16686714D01*
X9728810Y-16705762D01*
X9633571Y-16724809D01*
X9805000Y-16781952D02*
X9824048Y-16791476D01*
X9862143Y-16791476D01*
X9881190Y-16781952D01*
X9890714Y-16762905D01*
X9890714Y-16753381D01*
X9881190Y-16734333D01*
X9862143Y-16724809D01*
X9833571Y-16724809D01*
X9814524Y-16715286D01*
X9805000Y-16696238D01*
X9805000Y-16686714D01*
X9814524Y-16667667D01*
X9833571Y-16658143D01*
X9862143Y-16658143D01*
X9881190Y-16667667D01*
X9957381Y-16867667D02*
X9966905Y-16858143D01*
X9985952Y-16829571D01*
X9995476Y-16810524D01*
X10005000Y-16781952D01*
X10014524Y-16734333D01*
X10014524Y-16696238D01*
X10005000Y-16648619D01*
X9995476Y-16620048D01*
X9985952Y-16601000D01*
X9966905Y-16572428D01*
X9957381Y-16562905D01*
M02*
