%TF.GenerationSoftware,KiCad,Pcbnew,(6.0.8)*%
%TF.CreationDate,2023-12-15T13:23:08-05:00*%
%TF.ProjectId,main_pcb,6d61696e-5f70-4636-922e-6b696361645f,rev?*%
%TF.SameCoordinates,Original*%
%TF.FileFunction,Plated,1,2,PTH,Drill*%
%TF.FilePolarity,Positive*%
%FSLAX46Y46*%
G04 Gerber Fmt 4.6, Leading zero omitted, Abs format (unit mm)*
G04 Created by KiCad (PCBNEW (6.0.8)) date 2023-12-15 13:23:08*
%MOMM*%
%LPD*%
G01*
G04 APERTURE LIST*
%TA.AperFunction,ViaDrill*%
%ADD10C,0.400000*%
%TD*%
%TA.AperFunction,ViaDrill*%
%ADD11C,0.800000*%
%TD*%
%TA.AperFunction,ComponentDrill*%
%ADD12C,0.900000*%
%TD*%
%TA.AperFunction,ComponentDrill*%
%ADD13C,0.950000*%
%TD*%
%TA.AperFunction,ComponentDrill*%
%ADD14C,1.020000*%
%TD*%
G04 APERTURE END LIST*
D10*
X51250000Y-148750000D03*
X51500000Y-51500000D03*
X51700000Y-127100000D03*
X51700000Y-134700000D03*
X54600000Y-138400000D03*
X54600000Y-140600000D03*
X54700000Y-110300000D03*
X55100000Y-94100000D03*
X55100000Y-104100000D03*
X55800000Y-96400000D03*
X55800000Y-97600000D03*
X57300000Y-66700000D03*
X57300000Y-68200000D03*
X57300000Y-69700000D03*
X57300000Y-96400000D03*
X57300000Y-97600000D03*
X57600000Y-121900000D03*
X58500000Y-66700000D03*
X58500000Y-68200000D03*
X58500000Y-69700000D03*
X58800000Y-96400000D03*
X58800000Y-97600000D03*
X59400000Y-102800000D03*
X59400000Y-104300000D03*
X59400000Y-105800000D03*
X59500000Y-108300000D03*
X60600000Y-102800000D03*
X60600000Y-104300000D03*
X60600000Y-105800000D03*
X60600000Y-125000000D03*
X60800000Y-147300000D03*
X62400000Y-94400000D03*
X62600000Y-113800000D03*
X63500000Y-79500000D03*
X63892000Y-86262500D03*
X64150000Y-89750000D03*
X65000000Y-79500000D03*
X65000000Y-112000000D03*
X65100000Y-102700000D03*
X65400000Y-83500000D03*
X65500000Y-82381000D03*
X65543000Y-85243000D03*
X66200000Y-138150000D03*
X66250000Y-124750000D03*
X66250000Y-127000000D03*
X66300000Y-121900000D03*
X67300000Y-99300000D03*
X67310000Y-94869000D03*
X67375000Y-89850000D03*
X67818000Y-113538000D03*
X68600000Y-58700000D03*
X68850000Y-141100000D03*
X68950000Y-138400000D03*
X69212500Y-80800000D03*
X69212500Y-89841500D03*
X69500000Y-64000000D03*
X71200000Y-113600000D03*
X71600000Y-100100000D03*
X71600000Y-101600000D03*
X71600000Y-103100000D03*
X71750000Y-109500000D03*
X72500000Y-107000000D03*
X72800000Y-100100000D03*
X72800000Y-101600000D03*
X72800000Y-103100000D03*
X76700000Y-109600000D03*
X76800000Y-96100000D03*
X76800000Y-100500000D03*
X76900000Y-92400000D03*
X77200000Y-112200000D03*
X77200000Y-113700000D03*
X77200000Y-115200000D03*
X78400000Y-112200000D03*
X78400000Y-113700000D03*
X78400000Y-115200000D03*
X79200000Y-81250000D03*
X79200000Y-83800000D03*
X79200000Y-86500000D03*
X79200000Y-146900000D03*
X80500000Y-108000000D03*
X80800000Y-100070000D03*
X80800000Y-101570000D03*
X80800000Y-103070000D03*
X81200000Y-148900000D03*
X82000000Y-100070000D03*
X82000000Y-101570000D03*
X82000000Y-103070000D03*
X82500000Y-124750000D03*
X82500000Y-127000000D03*
X82700000Y-144800000D03*
X82900000Y-121300000D03*
X83300000Y-60700000D03*
X83300000Y-62500000D03*
X83300000Y-64200000D03*
X84800000Y-97400000D03*
X85400000Y-104600000D03*
X85750000Y-92250000D03*
X85800000Y-87200000D03*
X85900000Y-81200000D03*
X86492500Y-88700000D03*
X87300000Y-122500000D03*
X88500000Y-126500000D03*
X89000000Y-86900000D03*
X89100000Y-93500000D03*
X90500000Y-51250000D03*
X90600000Y-102500000D03*
X91750000Y-111500000D03*
X91900000Y-93200000D03*
X92000000Y-87700000D03*
X92000000Y-126500000D03*
X92300000Y-78000000D03*
X92500000Y-122500000D03*
X93000000Y-108200000D03*
X97200000Y-75600000D03*
X98000000Y-122250000D03*
X98000000Y-125000000D03*
X98000000Y-127500000D03*
X98000000Y-143250000D03*
X98250000Y-133750000D03*
X98250000Y-137500000D03*
X99250000Y-147750000D03*
X99350000Y-60400000D03*
X101200000Y-91100000D03*
X101200000Y-107900000D03*
X101200000Y-119500000D03*
X101250000Y-131750000D03*
X101250000Y-135750000D03*
X101400000Y-87800000D03*
X101400000Y-97700000D03*
X104500000Y-55200000D03*
X104500000Y-58500000D03*
X104600000Y-68400000D03*
X104900000Y-79600000D03*
X105283000Y-129540000D03*
X105400000Y-140900000D03*
X105500000Y-126800000D03*
X105537000Y-92456000D03*
X105537000Y-100838000D03*
X106000000Y-147300000D03*
X106426000Y-138430000D03*
X107000000Y-95900000D03*
X107000000Y-103900000D03*
X108500000Y-83000000D03*
X108600000Y-120300000D03*
X109474000Y-131826000D03*
X109650000Y-60400000D03*
X110800000Y-127000000D03*
X110800000Y-147400000D03*
X112100000Y-81200000D03*
X112200000Y-59500000D03*
X112900000Y-107900000D03*
X112900000Y-115700000D03*
X113400000Y-148900000D03*
X113800000Y-59500000D03*
X114900000Y-101700000D03*
X116250000Y-141250000D03*
X116600000Y-132900000D03*
X116700000Y-128100000D03*
X117850000Y-87000000D03*
X118000000Y-74550000D03*
X119900000Y-53500000D03*
X120000000Y-68300000D03*
X120700000Y-128400000D03*
X120800000Y-111900000D03*
X120800000Y-115400000D03*
X120800000Y-140900000D03*
X120900000Y-105200000D03*
X120900000Y-122100000D03*
X123000000Y-107800000D03*
X123000000Y-109500000D03*
X123000000Y-138000000D03*
X123000000Y-139700000D03*
X127127000Y-117221000D03*
X128200000Y-123800000D03*
X128750000Y-51250000D03*
X128750000Y-148750000D03*
X128800000Y-88600000D03*
X128800000Y-106400000D03*
D11*
X85000000Y-100406001D03*
X88500000Y-109750000D03*
X90100000Y-122550000D03*
X91700000Y-109800000D03*
D12*
%TO.C,D5*%
X123710000Y-133500000D03*
%TO.C,D8*%
X123735000Y-114000000D03*
%TO.C,D7*%
X123735000Y-120500000D03*
%TO.C,D6*%
X123735000Y-127000000D03*
%TO.C,D5*%
X126250000Y-133500000D03*
%TO.C,D8*%
X126275000Y-114000000D03*
%TO.C,D7*%
X126275000Y-120500000D03*
%TO.C,D6*%
X126275000Y-127000000D03*
D13*
%TO.C,J10*%
X70612000Y-132334000D03*
X70612000Y-134834000D03*
X70612000Y-137334000D03*
X70612000Y-139834000D03*
X70612000Y-142334000D03*
X70612000Y-144834000D03*
%TO.C,J8*%
X78299800Y-132332400D03*
X78299800Y-134832400D03*
X78299800Y-137332400D03*
X78299800Y-139832400D03*
X78299800Y-142332400D03*
X78299800Y-144832400D03*
%TO.C,J6*%
X91000000Y-55525000D03*
%TO.C,J5*%
X91000000Y-64525000D03*
%TO.C,J4*%
X91000000Y-73525000D03*
%TO.C,J6*%
X93500000Y-55525000D03*
%TO.C,J5*%
X93500000Y-64525000D03*
%TO.C,J4*%
X93500000Y-73525000D03*
%TO.C,J6*%
X96000000Y-55525000D03*
%TO.C,J5*%
X96000000Y-64525000D03*
%TO.C,J4*%
X96000000Y-73525000D03*
%TO.C,J6*%
X98500000Y-55525000D03*
%TO.C,J5*%
X98500000Y-64525000D03*
%TO.C,J4*%
X98500000Y-73525000D03*
%TO.C,J6*%
X101000000Y-55525000D03*
%TO.C,J5*%
X101000000Y-64525000D03*
%TO.C,J4*%
X101000000Y-73525000D03*
%TO.C,J7*%
X106800000Y-111760000D03*
%TO.C,J1*%
X108000000Y-54475000D03*
%TO.C,J2*%
X108000000Y-63475000D03*
%TO.C,J3*%
X108000000Y-72475000D03*
%TO.C,J7*%
X109300000Y-111760000D03*
%TO.C,J1*%
X110500000Y-54475000D03*
%TO.C,J2*%
X110500000Y-63475000D03*
%TO.C,J3*%
X110500000Y-72475000D03*
%TO.C,J7*%
X111800000Y-111760000D03*
%TO.C,J1*%
X113000000Y-54475000D03*
%TO.C,J2*%
X113000000Y-63475000D03*
%TO.C,J3*%
X113000000Y-72475000D03*
%TO.C,J7*%
X114300000Y-111760000D03*
%TO.C,J1*%
X115500000Y-54475000D03*
%TO.C,J2*%
X115500000Y-63475000D03*
%TO.C,J3*%
X115500000Y-72475000D03*
%TO.C,J7*%
X116800000Y-111760000D03*
%TO.C,J1*%
X118000000Y-54475000D03*
%TO.C,J2*%
X118000000Y-63475000D03*
%TO.C,J3*%
X118000000Y-72475000D03*
D14*
%TO.C,U3*%
X54009000Y-118157000D03*
X54009000Y-120697000D03*
X54009000Y-123237000D03*
X54009000Y-125777000D03*
X54009000Y-128317000D03*
X54009000Y-130857000D03*
X54009000Y-133397000D03*
X54009000Y-135937000D03*
X64169000Y-118157000D03*
X64169000Y-120697000D03*
X64169000Y-123237000D03*
X64169000Y-125777000D03*
X64169000Y-128317000D03*
X64169000Y-130857000D03*
X64169000Y-133397000D03*
X64169000Y-135937000D03*
M02*
