%TF.GenerationSoftware,KiCad,Pcbnew,(6.0.8)*%
%TF.CreationDate,2023-12-15T22:11:56-05:00*%
%TF.ProjectId,main_pcb,6d61696e-5f70-4636-922e-6b696361645f,rev?*%
%TF.SameCoordinates,Original*%
%TF.FileFunction,Legend,Top*%
%TF.FilePolarity,Positive*%
%FSLAX46Y46*%
G04 Gerber Fmt 4.6, Leading zero omitted, Abs format (unit mm)*
G04 Created by KiCad (PCBNEW (6.0.8)) date 2023-12-15 22:11:56*
%MOMM*%
%LPD*%
G01*
G04 APERTURE LIST*
%ADD10C,0.150000*%
%ADD11C,0.250000*%
%ADD12C,0.300000*%
%ADD13C,0.275000*%
%ADD14C,0.400000*%
%ADD15C,0.140000*%
%ADD16C,0.120000*%
G04 APERTURE END LIST*
D10*
X85550000Y-58850000D02*
X85050000Y-59250000D01*
X83150000Y-58850000D02*
X85550000Y-58850000D01*
X85050000Y-58450000D02*
X85550000Y-58850000D01*
D11*
X67107142Y-128902380D02*
X67107142Y-127902380D01*
X67440476Y-128616666D01*
X67773809Y-127902380D01*
X67773809Y-128902380D01*
X68440476Y-127902380D02*
X68630952Y-127902380D01*
X68726190Y-127950000D01*
X68821428Y-128045238D01*
X68869047Y-128235714D01*
X68869047Y-128569047D01*
X68821428Y-128759523D01*
X68726190Y-128854761D01*
X68630952Y-128902380D01*
X68440476Y-128902380D01*
X68345238Y-128854761D01*
X68250000Y-128759523D01*
X68202380Y-128569047D01*
X68202380Y-128235714D01*
X68250000Y-128045238D01*
X68345238Y-127950000D01*
X68440476Y-127902380D01*
X69154761Y-127902380D02*
X69726190Y-127902380D01*
X69440476Y-128902380D02*
X69440476Y-127902380D01*
X70250000Y-127902380D02*
X70440476Y-127902380D01*
X70535714Y-127950000D01*
X70630952Y-128045238D01*
X70678571Y-128235714D01*
X70678571Y-128569047D01*
X70630952Y-128759523D01*
X70535714Y-128854761D01*
X70440476Y-128902380D01*
X70250000Y-128902380D01*
X70154761Y-128854761D01*
X70059523Y-128759523D01*
X70011904Y-128569047D01*
X70011904Y-128235714D01*
X70059523Y-128045238D01*
X70154761Y-127950000D01*
X70250000Y-127902380D01*
X71678571Y-128902380D02*
X71345238Y-128426190D01*
X71107142Y-128902380D02*
X71107142Y-127902380D01*
X71488095Y-127902380D01*
X71583333Y-127950000D01*
X71630952Y-127997619D01*
X71678571Y-128092857D01*
X71678571Y-128235714D01*
X71630952Y-128330952D01*
X71583333Y-128378571D01*
X71488095Y-128426190D01*
X71107142Y-128426190D01*
X73202380Y-128378571D02*
X73345238Y-128426190D01*
X73392857Y-128473809D01*
X73440476Y-128569047D01*
X73440476Y-128711904D01*
X73392857Y-128807142D01*
X73345238Y-128854761D01*
X73250000Y-128902380D01*
X72869047Y-128902380D01*
X72869047Y-127902380D01*
X73202380Y-127902380D01*
X73297619Y-127950000D01*
X73345238Y-127997619D01*
X73392857Y-128092857D01*
X73392857Y-128188095D01*
X73345238Y-128283333D01*
X73297619Y-128330952D01*
X73202380Y-128378571D01*
X72869047Y-128378571D01*
D12*
X57628571Y-63985714D02*
X57685714Y-64042857D01*
X57742857Y-64214285D01*
X57742857Y-64328571D01*
X57685714Y-64500000D01*
X57571428Y-64614285D01*
X57457142Y-64671428D01*
X57228571Y-64728571D01*
X57057142Y-64728571D01*
X56828571Y-64671428D01*
X56714285Y-64614285D01*
X56600000Y-64500000D01*
X56542857Y-64328571D01*
X56542857Y-64214285D01*
X56600000Y-64042857D01*
X56657142Y-63985714D01*
X57742857Y-62785714D02*
X57171428Y-63185714D01*
X57742857Y-63471428D02*
X56542857Y-63471428D01*
X56542857Y-63014285D01*
X56600000Y-62900000D01*
X56657142Y-62842857D01*
X56771428Y-62785714D01*
X56942857Y-62785714D01*
X57057142Y-62842857D01*
X57114285Y-62900000D01*
X57171428Y-63014285D01*
X57171428Y-63471428D01*
X57742857Y-61585714D02*
X57171428Y-61985714D01*
X57742857Y-62271428D02*
X56542857Y-62271428D01*
X56542857Y-61814285D01*
X56600000Y-61700000D01*
X56657142Y-61642857D01*
X56771428Y-61585714D01*
X56942857Y-61585714D01*
X57057142Y-61642857D01*
X57114285Y-61700000D01*
X57171428Y-61814285D01*
X57171428Y-62271428D01*
X57628571Y-60385714D02*
X57685714Y-60442857D01*
X57742857Y-60614285D01*
X57742857Y-60728571D01*
X57685714Y-60900000D01*
X57571428Y-61014285D01*
X57457142Y-61071428D01*
X57228571Y-61128571D01*
X57057142Y-61128571D01*
X56828571Y-61071428D01*
X56714285Y-61014285D01*
X56600000Y-60900000D01*
X56542857Y-60728571D01*
X56542857Y-60614285D01*
X56600000Y-60442857D01*
X56657142Y-60385714D01*
X56542857Y-60042857D02*
X56542857Y-59357142D01*
X57742857Y-59700000D02*
X56542857Y-59700000D01*
X129242857Y-134842857D02*
X129242857Y-135414285D01*
X128042857Y-135414285D01*
X128614285Y-134442857D02*
X128614285Y-134042857D01*
X129242857Y-133871428D02*
X129242857Y-134442857D01*
X128042857Y-134442857D01*
X128042857Y-133871428D01*
X129242857Y-133357142D02*
X128042857Y-133357142D01*
X128042857Y-133071428D01*
X128100000Y-132900000D01*
X128214285Y-132785714D01*
X128328571Y-132728571D01*
X128557142Y-132671428D01*
X128728571Y-132671428D01*
X128957142Y-132728571D01*
X129071428Y-132785714D01*
X129185714Y-132900000D01*
X129242857Y-133071428D01*
X129242857Y-133357142D01*
X128042857Y-131928571D02*
X128042857Y-131814285D01*
X128100000Y-131700000D01*
X128157142Y-131642857D01*
X128271428Y-131585714D01*
X128500000Y-131528571D01*
X128785714Y-131528571D01*
X129014285Y-131585714D01*
X129128571Y-131642857D01*
X129185714Y-131700000D01*
X129242857Y-131814285D01*
X129242857Y-131928571D01*
X129185714Y-132042857D01*
X129128571Y-132100000D01*
X129014285Y-132157142D01*
X128785714Y-132214285D01*
X128500000Y-132214285D01*
X128271428Y-132157142D01*
X128157142Y-132100000D01*
X128100000Y-132042857D01*
X128042857Y-131928571D01*
X105271428Y-115878571D02*
X106128571Y-115878571D01*
X105700000Y-117378571D02*
X105700000Y-115878571D01*
X107200000Y-117307142D02*
X107057142Y-117378571D01*
X106771428Y-117378571D01*
X106628571Y-117307142D01*
X106557142Y-117164285D01*
X106557142Y-116592857D01*
X106628571Y-116450000D01*
X106771428Y-116378571D01*
X107057142Y-116378571D01*
X107200000Y-116450000D01*
X107271428Y-116592857D01*
X107271428Y-116735714D01*
X106557142Y-116878571D01*
X108485714Y-117307142D02*
X108342857Y-117378571D01*
X108057142Y-117378571D01*
X107914285Y-117307142D01*
X107842857Y-117164285D01*
X107842857Y-116592857D01*
X107914285Y-116450000D01*
X108057142Y-116378571D01*
X108342857Y-116378571D01*
X108485714Y-116450000D01*
X108557142Y-116592857D01*
X108557142Y-116735714D01*
X107842857Y-116878571D01*
X109200000Y-116378571D02*
X109200000Y-117378571D01*
X109200000Y-116521428D02*
X109271428Y-116450000D01*
X109414285Y-116378571D01*
X109628571Y-116378571D01*
X109771428Y-116450000D01*
X109842857Y-116592857D01*
X109842857Y-117378571D01*
X110485714Y-117307142D02*
X110628571Y-117378571D01*
X110914285Y-117378571D01*
X111057142Y-117307142D01*
X111128571Y-117164285D01*
X111128571Y-117092857D01*
X111057142Y-116950000D01*
X110914285Y-116878571D01*
X110700000Y-116878571D01*
X110557142Y-116807142D01*
X110485714Y-116664285D01*
X110485714Y-116592857D01*
X110557142Y-116450000D01*
X110700000Y-116378571D01*
X110914285Y-116378571D01*
X111057142Y-116450000D01*
X111628571Y-116378571D02*
X111985714Y-117378571D01*
X112342857Y-116378571D02*
X111985714Y-117378571D01*
X111842857Y-117735714D01*
X111771428Y-117807142D01*
X111628571Y-117878571D01*
X114700000Y-116378571D02*
X114700000Y-117378571D01*
X114342857Y-115807142D02*
X113985714Y-116878571D01*
X114914285Y-116878571D01*
X115485714Y-117235714D02*
X115557142Y-117307142D01*
X115485714Y-117378571D01*
X115414285Y-117307142D01*
X115485714Y-117235714D01*
X115485714Y-117378571D01*
X116985714Y-117378571D02*
X116128571Y-117378571D01*
X116557142Y-117378571D02*
X116557142Y-115878571D01*
X116414285Y-116092857D01*
X116271428Y-116235714D01*
X116128571Y-116307142D01*
X99085714Y-68892857D02*
X98514285Y-68892857D01*
X98514285Y-67692857D01*
X99485714Y-68892857D02*
X99485714Y-67692857D01*
X99771428Y-67692857D01*
X99942857Y-67750000D01*
X100057142Y-67864285D01*
X100114285Y-67978571D01*
X100171428Y-68207142D01*
X100171428Y-68378571D01*
X100114285Y-68607142D01*
X100057142Y-68721428D01*
X99942857Y-68835714D01*
X99771428Y-68892857D01*
X99485714Y-68892857D01*
X100628571Y-68550000D02*
X101200000Y-68550000D01*
X100514285Y-68892857D02*
X100914285Y-67692857D01*
X101314285Y-68892857D01*
X102400000Y-68892857D02*
X102000000Y-68321428D01*
X101714285Y-68892857D02*
X101714285Y-67692857D01*
X102171428Y-67692857D01*
X102285714Y-67750000D01*
X102342857Y-67807142D01*
X102400000Y-67921428D01*
X102400000Y-68092857D01*
X102342857Y-68207142D01*
X102285714Y-68264285D01*
X102171428Y-68321428D01*
X101714285Y-68321428D01*
X103485714Y-67692857D02*
X102914285Y-67692857D01*
X102857142Y-68264285D01*
X102914285Y-68207142D01*
X103028571Y-68150000D01*
X103314285Y-68150000D01*
X103428571Y-68207142D01*
X103485714Y-68264285D01*
X103542857Y-68378571D01*
X103542857Y-68664285D01*
X103485714Y-68778571D01*
X103428571Y-68835714D01*
X103314285Y-68892857D01*
X103028571Y-68892857D01*
X102914285Y-68835714D01*
X102857142Y-68778571D01*
X95035714Y-104342857D02*
X95035714Y-105314285D01*
X95092857Y-105428571D01*
X95150000Y-105485714D01*
X95264285Y-105542857D01*
X95492857Y-105542857D01*
X95607142Y-105485714D01*
X95664285Y-105428571D01*
X95721428Y-105314285D01*
X95721428Y-104342857D01*
X96235714Y-105485714D02*
X96407142Y-105542857D01*
X96692857Y-105542857D01*
X96807142Y-105485714D01*
X96864285Y-105428571D01*
X96921428Y-105314285D01*
X96921428Y-105200000D01*
X96864285Y-105085714D01*
X96807142Y-105028571D01*
X96692857Y-104971428D01*
X96464285Y-104914285D01*
X96350000Y-104857142D01*
X96292857Y-104800000D01*
X96235714Y-104685714D01*
X96235714Y-104571428D01*
X96292857Y-104457142D01*
X96350000Y-104400000D01*
X96464285Y-104342857D01*
X96750000Y-104342857D01*
X96921428Y-104400000D01*
X97435714Y-105542857D02*
X97435714Y-104342857D01*
X98121428Y-105542857D01*
X98121428Y-104342857D01*
X99378571Y-105428571D02*
X99321428Y-105485714D01*
X99150000Y-105542857D01*
X99035714Y-105542857D01*
X98864285Y-105485714D01*
X98750000Y-105371428D01*
X98692857Y-105257142D01*
X98635714Y-105028571D01*
X98635714Y-104857142D01*
X98692857Y-104628571D01*
X98750000Y-104514285D01*
X98864285Y-104400000D01*
X99035714Y-104342857D01*
X99150000Y-104342857D01*
X99321428Y-104400000D01*
X99378571Y-104457142D01*
X100521428Y-105542857D02*
X99835714Y-105542857D01*
X100178571Y-105542857D02*
X100178571Y-104342857D01*
X100064285Y-104514285D01*
X99950000Y-104628571D01*
X99835714Y-104685714D01*
D13*
X71054761Y-118726619D02*
X71054761Y-117626619D01*
X71054761Y-118150428D02*
X71683333Y-118150428D01*
X71683333Y-118726619D02*
X71683333Y-117626619D01*
X72102380Y-117626619D02*
X72364285Y-118726619D01*
X72573809Y-117940904D01*
X72783333Y-118726619D01*
X73045238Y-117626619D01*
X74145238Y-117626619D02*
X74773809Y-117626619D01*
X74459523Y-118726619D02*
X74459523Y-117626619D01*
X75559523Y-118674238D02*
X75454761Y-118726619D01*
X75245238Y-118726619D01*
X75140476Y-118674238D01*
X75088095Y-118569476D01*
X75088095Y-118150428D01*
X75140476Y-118045666D01*
X75245238Y-117993285D01*
X75454761Y-117993285D01*
X75559523Y-118045666D01*
X75611904Y-118150428D01*
X75611904Y-118255190D01*
X75088095Y-118359952D01*
X76554761Y-118726619D02*
X76554761Y-118150428D01*
X76502380Y-118045666D01*
X76397619Y-117993285D01*
X76188095Y-117993285D01*
X76083333Y-118045666D01*
X76554761Y-118674238D02*
X76450000Y-118726619D01*
X76188095Y-118726619D01*
X76083333Y-118674238D01*
X76030952Y-118569476D01*
X76030952Y-118464714D01*
X76083333Y-118359952D01*
X76188095Y-118307571D01*
X76450000Y-118307571D01*
X76554761Y-118255190D01*
X77078571Y-118726619D02*
X77078571Y-117993285D01*
X77078571Y-118098047D02*
X77130952Y-118045666D01*
X77235714Y-117993285D01*
X77392857Y-117993285D01*
X77497619Y-118045666D01*
X77550000Y-118150428D01*
X77550000Y-118726619D01*
X77550000Y-118150428D02*
X77602380Y-118045666D01*
X77707142Y-117993285D01*
X77864285Y-117993285D01*
X77969047Y-118045666D01*
X78021428Y-118150428D01*
X78021428Y-118726619D01*
X78545238Y-118621857D02*
X78597619Y-118674238D01*
X78545238Y-118726619D01*
X78492857Y-118674238D01*
X78545238Y-118621857D01*
X78545238Y-118726619D01*
X78545238Y-118045666D02*
X78597619Y-118098047D01*
X78545238Y-118150428D01*
X78492857Y-118098047D01*
X78545238Y-118045666D01*
X78545238Y-118150428D01*
X69378571Y-119397619D02*
X70111904Y-119397619D01*
X69378571Y-120497619D01*
X70111904Y-120497619D01*
X71002380Y-120497619D02*
X71002380Y-119921428D01*
X70950000Y-119816666D01*
X70845238Y-119764285D01*
X70635714Y-119764285D01*
X70530952Y-119816666D01*
X71002380Y-120445238D02*
X70897619Y-120497619D01*
X70635714Y-120497619D01*
X70530952Y-120445238D01*
X70478571Y-120340476D01*
X70478571Y-120235714D01*
X70530952Y-120130952D01*
X70635714Y-120078571D01*
X70897619Y-120078571D01*
X71002380Y-120026190D01*
X71997619Y-120445238D02*
X71892857Y-120497619D01*
X71683333Y-120497619D01*
X71578571Y-120445238D01*
X71526190Y-120392857D01*
X71473809Y-120288095D01*
X71473809Y-119973809D01*
X71526190Y-119869047D01*
X71578571Y-119816666D01*
X71683333Y-119764285D01*
X71892857Y-119764285D01*
X71997619Y-119816666D01*
X72469047Y-120497619D02*
X72469047Y-119397619D01*
X72940476Y-120497619D02*
X72940476Y-119921428D01*
X72888095Y-119816666D01*
X72783333Y-119764285D01*
X72626190Y-119764285D01*
X72521428Y-119816666D01*
X72469047Y-119869047D01*
X74669047Y-119921428D02*
X74826190Y-119973809D01*
X74878571Y-120026190D01*
X74930952Y-120130952D01*
X74930952Y-120288095D01*
X74878571Y-120392857D01*
X74826190Y-120445238D01*
X74721428Y-120497619D01*
X74302380Y-120497619D01*
X74302380Y-119397619D01*
X74669047Y-119397619D01*
X74773809Y-119450000D01*
X74826190Y-119502380D01*
X74878571Y-119607142D01*
X74878571Y-119711904D01*
X74826190Y-119816666D01*
X74773809Y-119869047D01*
X74669047Y-119921428D01*
X74302380Y-119921428D01*
X75873809Y-120497619D02*
X75873809Y-119921428D01*
X75821428Y-119816666D01*
X75716666Y-119764285D01*
X75507142Y-119764285D01*
X75402380Y-119816666D01*
X75873809Y-120445238D02*
X75769047Y-120497619D01*
X75507142Y-120497619D01*
X75402380Y-120445238D01*
X75350000Y-120340476D01*
X75350000Y-120235714D01*
X75402380Y-120130952D01*
X75507142Y-120078571D01*
X75769047Y-120078571D01*
X75873809Y-120026190D01*
X76554761Y-120497619D02*
X76450000Y-120445238D01*
X76397619Y-120340476D01*
X76397619Y-119397619D01*
X77445238Y-120497619D02*
X77445238Y-119397619D01*
X77445238Y-120445238D02*
X77340476Y-120497619D01*
X77130952Y-120497619D01*
X77026190Y-120445238D01*
X76973809Y-120392857D01*
X76921428Y-120288095D01*
X76921428Y-119973809D01*
X76973809Y-119869047D01*
X77026190Y-119816666D01*
X77130952Y-119764285D01*
X77340476Y-119764285D01*
X77445238Y-119816666D01*
X77864285Y-119764285D02*
X78073809Y-120497619D01*
X78283333Y-119973809D01*
X78492857Y-120497619D01*
X78702380Y-119764285D01*
X79121428Y-120497619D02*
X79121428Y-119764285D01*
X79121428Y-119397619D02*
X79069047Y-119450000D01*
X79121428Y-119502380D01*
X79173809Y-119450000D01*
X79121428Y-119397619D01*
X79121428Y-119502380D01*
X79645238Y-119764285D02*
X79645238Y-120497619D01*
X79645238Y-119869047D02*
X79697619Y-119816666D01*
X79802380Y-119764285D01*
X79959523Y-119764285D01*
X80064285Y-119816666D01*
X80116666Y-119921428D01*
X80116666Y-120497619D01*
X70426190Y-122268619D02*
X70426190Y-121168619D01*
X71054761Y-122268619D01*
X71054761Y-121168619D01*
X71997619Y-122216238D02*
X71892857Y-122268619D01*
X71683333Y-122268619D01*
X71578571Y-122216238D01*
X71526190Y-122111476D01*
X71526190Y-121692428D01*
X71578571Y-121587666D01*
X71683333Y-121535285D01*
X71892857Y-121535285D01*
X71997619Y-121587666D01*
X72050000Y-121692428D01*
X72050000Y-121797190D01*
X71526190Y-121901952D01*
X72521428Y-122268619D02*
X72521428Y-121168619D01*
X72992857Y-122268619D02*
X72992857Y-121692428D01*
X72940476Y-121587666D01*
X72835714Y-121535285D01*
X72678571Y-121535285D01*
X72573809Y-121587666D01*
X72521428Y-121640047D01*
X73988095Y-122268619D02*
X73988095Y-121692428D01*
X73935714Y-121587666D01*
X73830952Y-121535285D01*
X73621428Y-121535285D01*
X73516666Y-121587666D01*
X73988095Y-122216238D02*
X73883333Y-122268619D01*
X73621428Y-122268619D01*
X73516666Y-122216238D01*
X73464285Y-122111476D01*
X73464285Y-122006714D01*
X73516666Y-121901952D01*
X73621428Y-121849571D01*
X73883333Y-121849571D01*
X73988095Y-121797190D01*
X74669047Y-122268619D02*
X74564285Y-122216238D01*
X74511904Y-122111476D01*
X74511904Y-121168619D01*
X76502380Y-121221000D02*
X76397619Y-121168619D01*
X76240476Y-121168619D01*
X76083333Y-121221000D01*
X75978571Y-121325761D01*
X75926190Y-121430523D01*
X75873809Y-121640047D01*
X75873809Y-121797190D01*
X75926190Y-122006714D01*
X75978571Y-122111476D01*
X76083333Y-122216238D01*
X76240476Y-122268619D01*
X76345238Y-122268619D01*
X76502380Y-122216238D01*
X76554761Y-122163857D01*
X76554761Y-121797190D01*
X76345238Y-121797190D01*
X77497619Y-122268619D02*
X77497619Y-121692428D01*
X77445238Y-121587666D01*
X77340476Y-121535285D01*
X77130952Y-121535285D01*
X77026190Y-121587666D01*
X77497619Y-122216238D02*
X77392857Y-122268619D01*
X77130952Y-122268619D01*
X77026190Y-122216238D01*
X76973809Y-122111476D01*
X76973809Y-122006714D01*
X77026190Y-121901952D01*
X77130952Y-121849571D01*
X77392857Y-121849571D01*
X77497619Y-121797190D01*
X78021428Y-122268619D02*
X78021428Y-121535285D01*
X78021428Y-121744809D02*
X78073809Y-121640047D01*
X78126190Y-121587666D01*
X78230952Y-121535285D01*
X78335714Y-121535285D01*
X79173809Y-121535285D02*
X79173809Y-122425761D01*
X79121428Y-122530523D01*
X79069047Y-122582904D01*
X78964285Y-122635285D01*
X78807142Y-122635285D01*
X78702380Y-122582904D01*
X79173809Y-122216238D02*
X79069047Y-122268619D01*
X78859523Y-122268619D01*
X78754761Y-122216238D01*
X78702380Y-122163857D01*
X78650000Y-122059095D01*
X78650000Y-121744809D01*
X78702380Y-121640047D01*
X78754761Y-121587666D01*
X78859523Y-121535285D01*
X79069047Y-121535285D01*
X79173809Y-121587666D01*
D12*
X80857142Y-58342857D02*
X81085714Y-58342857D01*
X81200000Y-58400000D01*
X81314285Y-58514285D01*
X81371428Y-58742857D01*
X81371428Y-59142857D01*
X81314285Y-59371428D01*
X81200000Y-59485714D01*
X81085714Y-59542857D01*
X80857142Y-59542857D01*
X80742857Y-59485714D01*
X80628571Y-59371428D01*
X80571428Y-59142857D01*
X80571428Y-58742857D01*
X80628571Y-58514285D01*
X80742857Y-58400000D01*
X80857142Y-58342857D01*
X81885714Y-59542857D02*
X81885714Y-58342857D01*
X82571428Y-59542857D01*
X82571428Y-58342857D01*
D13*
X66900000Y-123892857D02*
X66847619Y-123945238D01*
X66690476Y-123997619D01*
X66585714Y-123997619D01*
X66428571Y-123945238D01*
X66323809Y-123840476D01*
X66271428Y-123735714D01*
X66219047Y-123526190D01*
X66219047Y-123369047D01*
X66271428Y-123159523D01*
X66323809Y-123054761D01*
X66428571Y-122950000D01*
X66585714Y-122897619D01*
X66690476Y-122897619D01*
X66847619Y-122950000D01*
X66900000Y-123002380D01*
X67528571Y-123997619D02*
X67423809Y-123945238D01*
X67371428Y-123892857D01*
X67319047Y-123788095D01*
X67319047Y-123473809D01*
X67371428Y-123369047D01*
X67423809Y-123316666D01*
X67528571Y-123264285D01*
X67685714Y-123264285D01*
X67790476Y-123316666D01*
X67842857Y-123369047D01*
X67895238Y-123473809D01*
X67895238Y-123788095D01*
X67842857Y-123892857D01*
X67790476Y-123945238D01*
X67685714Y-123997619D01*
X67528571Y-123997619D01*
X68366666Y-123997619D02*
X68366666Y-123264285D01*
X68366666Y-123473809D02*
X68419047Y-123369047D01*
X68471428Y-123316666D01*
X68576190Y-123264285D01*
X68680952Y-123264285D01*
X69047619Y-123997619D02*
X69047619Y-123264285D01*
X69047619Y-122897619D02*
X68995238Y-122950000D01*
X69047619Y-123002380D01*
X69100000Y-122950000D01*
X69047619Y-122897619D01*
X69047619Y-123002380D01*
X69571428Y-123264285D02*
X69571428Y-123997619D01*
X69571428Y-123369047D02*
X69623809Y-123316666D01*
X69728571Y-123264285D01*
X69885714Y-123264285D01*
X69990476Y-123316666D01*
X70042857Y-123421428D01*
X70042857Y-123997619D01*
X70409523Y-123264285D02*
X70828571Y-123264285D01*
X70566666Y-122897619D02*
X70566666Y-123840476D01*
X70619047Y-123945238D01*
X70723809Y-123997619D01*
X70828571Y-123997619D01*
X71195238Y-123997619D02*
X71195238Y-122897619D01*
X71666666Y-123997619D02*
X71666666Y-123421428D01*
X71614285Y-123316666D01*
X71509523Y-123264285D01*
X71352380Y-123264285D01*
X71247619Y-123316666D01*
X71195238Y-123369047D01*
X72190476Y-123997619D02*
X72190476Y-123264285D01*
X72190476Y-122897619D02*
X72138095Y-122950000D01*
X72190476Y-123002380D01*
X72242857Y-122950000D01*
X72190476Y-122897619D01*
X72190476Y-123002380D01*
X73185714Y-123997619D02*
X73185714Y-123421428D01*
X73133333Y-123316666D01*
X73028571Y-123264285D01*
X72819047Y-123264285D01*
X72714285Y-123316666D01*
X73185714Y-123945238D02*
X73080952Y-123997619D01*
X72819047Y-123997619D01*
X72714285Y-123945238D01*
X72661904Y-123840476D01*
X72661904Y-123735714D01*
X72714285Y-123630952D01*
X72819047Y-123578571D01*
X73080952Y-123578571D01*
X73185714Y-123526190D01*
X73709523Y-123264285D02*
X73709523Y-123997619D01*
X73709523Y-123369047D02*
X73761904Y-123316666D01*
X73866666Y-123264285D01*
X74023809Y-123264285D01*
X74128571Y-123316666D01*
X74180952Y-123421428D01*
X74180952Y-123997619D01*
X75542857Y-123421428D02*
X75909523Y-123421428D01*
X76066666Y-123997619D02*
X75542857Y-123997619D01*
X75542857Y-122897619D01*
X76066666Y-122897619D01*
X76433333Y-123264285D02*
X76642857Y-123997619D01*
X76852380Y-123473809D01*
X77061904Y-123997619D01*
X77271428Y-123264285D01*
X78109523Y-123945238D02*
X78004761Y-123997619D01*
X77795238Y-123997619D01*
X77690476Y-123945238D01*
X77638095Y-123840476D01*
X77638095Y-123421428D01*
X77690476Y-123316666D01*
X77795238Y-123264285D01*
X78004761Y-123264285D01*
X78109523Y-123316666D01*
X78161904Y-123421428D01*
X78161904Y-123526190D01*
X77638095Y-123630952D01*
X78580952Y-123945238D02*
X78685714Y-123997619D01*
X78895238Y-123997619D01*
X79000000Y-123945238D01*
X79052380Y-123840476D01*
X79052380Y-123788095D01*
X79000000Y-123683333D01*
X78895238Y-123630952D01*
X78738095Y-123630952D01*
X78633333Y-123578571D01*
X78580952Y-123473809D01*
X78580952Y-123421428D01*
X78633333Y-123316666D01*
X78738095Y-123264285D01*
X78895238Y-123264285D01*
X79000000Y-123316666D01*
X79995238Y-123264285D02*
X79995238Y-123997619D01*
X79523809Y-123264285D02*
X79523809Y-123840476D01*
X79576190Y-123945238D01*
X79680952Y-123997619D01*
X79838095Y-123997619D01*
X79942857Y-123945238D01*
X79995238Y-123892857D01*
X80938095Y-123945238D02*
X80833333Y-123997619D01*
X80623809Y-123997619D01*
X80519047Y-123945238D01*
X80466666Y-123840476D01*
X80466666Y-123421428D01*
X80519047Y-123316666D01*
X80623809Y-123264285D01*
X80833333Y-123264285D01*
X80938095Y-123316666D01*
X80990476Y-123421428D01*
X80990476Y-123526190D01*
X80466666Y-123630952D01*
X81933333Y-123997619D02*
X81933333Y-122897619D01*
X81933333Y-123945238D02*
X81828571Y-123997619D01*
X81619047Y-123997619D01*
X81514285Y-123945238D01*
X81461904Y-123892857D01*
X81409523Y-123788095D01*
X81409523Y-123473809D01*
X81461904Y-123369047D01*
X81514285Y-123316666D01*
X81619047Y-123264285D01*
X81828571Y-123264285D01*
X81933333Y-123316666D01*
X82614285Y-123997619D02*
X82509523Y-123945238D01*
X82457142Y-123892857D01*
X82404761Y-123788095D01*
X82404761Y-123473809D01*
X82457142Y-123369047D01*
X82509523Y-123316666D01*
X82614285Y-123264285D01*
X82771428Y-123264285D01*
X82876190Y-123316666D01*
X82928571Y-123369047D01*
X82980952Y-123473809D01*
X82980952Y-123788095D01*
X82928571Y-123892857D01*
X82876190Y-123945238D01*
X82771428Y-123997619D01*
X82614285Y-123997619D01*
X102411904Y-80741119D02*
X102411904Y-79641119D01*
X102778571Y-80426833D01*
X103145238Y-79641119D01*
X103145238Y-80741119D01*
X103669047Y-80741119D02*
X103669047Y-80007785D01*
X103669047Y-79641119D02*
X103616666Y-79693500D01*
X103669047Y-79745880D01*
X103721428Y-79693500D01*
X103669047Y-79641119D01*
X103669047Y-79745880D01*
X104664285Y-80688738D02*
X104559523Y-80741119D01*
X104350000Y-80741119D01*
X104245238Y-80688738D01*
X104192857Y-80636357D01*
X104140476Y-80531595D01*
X104140476Y-80217309D01*
X104192857Y-80112547D01*
X104245238Y-80060166D01*
X104350000Y-80007785D01*
X104559523Y-80007785D01*
X104664285Y-80060166D01*
X105135714Y-80741119D02*
X105135714Y-80007785D01*
X105135714Y-80217309D02*
X105188095Y-80112547D01*
X105240476Y-80060166D01*
X105345238Y-80007785D01*
X105450000Y-80007785D01*
X105973809Y-80741119D02*
X105869047Y-80688738D01*
X105816666Y-80636357D01*
X105764285Y-80531595D01*
X105764285Y-80217309D01*
X105816666Y-80112547D01*
X105869047Y-80060166D01*
X105973809Y-80007785D01*
X106130952Y-80007785D01*
X106235714Y-80060166D01*
X106288095Y-80112547D01*
X106340476Y-80217309D01*
X106340476Y-80531595D01*
X106288095Y-80636357D01*
X106235714Y-80688738D01*
X106130952Y-80741119D01*
X105973809Y-80741119D01*
X106811904Y-80741119D02*
X106811904Y-80007785D01*
X106811904Y-80112547D02*
X106864285Y-80060166D01*
X106969047Y-80007785D01*
X107126190Y-80007785D01*
X107230952Y-80060166D01*
X107283333Y-80164928D01*
X107283333Y-80741119D01*
X107283333Y-80164928D02*
X107335714Y-80060166D01*
X107440476Y-80007785D01*
X107597619Y-80007785D01*
X107702380Y-80060166D01*
X107754761Y-80164928D01*
X107754761Y-80741119D01*
X108435714Y-80741119D02*
X108330952Y-80688738D01*
X108278571Y-80636357D01*
X108226190Y-80531595D01*
X108226190Y-80217309D01*
X108278571Y-80112547D01*
X108330952Y-80060166D01*
X108435714Y-80007785D01*
X108592857Y-80007785D01*
X108697619Y-80060166D01*
X108750000Y-80112547D01*
X108802380Y-80217309D01*
X108802380Y-80531595D01*
X108750000Y-80636357D01*
X108697619Y-80688738D01*
X108592857Y-80741119D01*
X108435714Y-80741119D01*
X109745238Y-80007785D02*
X109745238Y-80741119D01*
X109273809Y-80007785D02*
X109273809Y-80583976D01*
X109326190Y-80688738D01*
X109430952Y-80741119D01*
X109588095Y-80741119D01*
X109692857Y-80688738D01*
X109745238Y-80636357D01*
X110216666Y-80688738D02*
X110321428Y-80741119D01*
X110530952Y-80741119D01*
X110635714Y-80688738D01*
X110688095Y-80583976D01*
X110688095Y-80531595D01*
X110635714Y-80426833D01*
X110530952Y-80374452D01*
X110373809Y-80374452D01*
X110269047Y-80322071D01*
X110216666Y-80217309D01*
X110216666Y-80164928D01*
X110269047Y-80060166D01*
X110373809Y-80007785D01*
X110530952Y-80007785D01*
X110635714Y-80060166D01*
X111578571Y-80688738D02*
X111473809Y-80741119D01*
X111264285Y-80741119D01*
X111159523Y-80688738D01*
X111107142Y-80583976D01*
X111107142Y-80164928D01*
X111159523Y-80060166D01*
X111264285Y-80007785D01*
X111473809Y-80007785D01*
X111578571Y-80060166D01*
X111630952Y-80164928D01*
X111630952Y-80269690D01*
X111107142Y-80374452D01*
X113569047Y-80636357D02*
X113516666Y-80688738D01*
X113359523Y-80741119D01*
X113254761Y-80741119D01*
X113097619Y-80688738D01*
X112992857Y-80583976D01*
X112940476Y-80479214D01*
X112888095Y-80269690D01*
X112888095Y-80112547D01*
X112940476Y-79903023D01*
X112992857Y-79798261D01*
X113097619Y-79693500D01*
X113254761Y-79641119D01*
X113359523Y-79641119D01*
X113516666Y-79693500D01*
X113569047Y-79745880D01*
X114197619Y-80741119D02*
X114092857Y-80688738D01*
X114040476Y-80636357D01*
X113988095Y-80531595D01*
X113988095Y-80217309D01*
X114040476Y-80112547D01*
X114092857Y-80060166D01*
X114197619Y-80007785D01*
X114354761Y-80007785D01*
X114459523Y-80060166D01*
X114511904Y-80112547D01*
X114564285Y-80217309D01*
X114564285Y-80531595D01*
X114511904Y-80636357D01*
X114459523Y-80688738D01*
X114354761Y-80741119D01*
X114197619Y-80741119D01*
X115035714Y-80007785D02*
X115035714Y-80741119D01*
X115035714Y-80112547D02*
X115088095Y-80060166D01*
X115192857Y-80007785D01*
X115350000Y-80007785D01*
X115454761Y-80060166D01*
X115507142Y-80164928D01*
X115507142Y-80741119D01*
X115873809Y-80007785D02*
X116292857Y-80007785D01*
X116030952Y-79641119D02*
X116030952Y-80583976D01*
X116083333Y-80688738D01*
X116188095Y-80741119D01*
X116292857Y-80741119D01*
X116659523Y-80741119D02*
X116659523Y-80007785D01*
X116659523Y-80217309D02*
X116711904Y-80112547D01*
X116764285Y-80060166D01*
X116869047Y-80007785D01*
X116973809Y-80007785D01*
X117497619Y-80741119D02*
X117392857Y-80688738D01*
X117340476Y-80636357D01*
X117288095Y-80531595D01*
X117288095Y-80217309D01*
X117340476Y-80112547D01*
X117392857Y-80060166D01*
X117497619Y-80007785D01*
X117654761Y-80007785D01*
X117759523Y-80060166D01*
X117811904Y-80112547D01*
X117864285Y-80217309D01*
X117864285Y-80531595D01*
X117811904Y-80636357D01*
X117759523Y-80688738D01*
X117654761Y-80741119D01*
X117497619Y-80741119D01*
X118492857Y-80741119D02*
X118388095Y-80688738D01*
X118335714Y-80583976D01*
X118335714Y-79641119D01*
X119069047Y-80741119D02*
X118964285Y-80688738D01*
X118911904Y-80583976D01*
X118911904Y-79641119D01*
X119907142Y-80688738D02*
X119802380Y-80741119D01*
X119592857Y-80741119D01*
X119488095Y-80688738D01*
X119435714Y-80583976D01*
X119435714Y-80164928D01*
X119488095Y-80060166D01*
X119592857Y-80007785D01*
X119802380Y-80007785D01*
X119907142Y-80060166D01*
X119959523Y-80164928D01*
X119959523Y-80269690D01*
X119435714Y-80374452D01*
X120430952Y-80741119D02*
X120430952Y-80007785D01*
X120430952Y-80217309D02*
X120483333Y-80112547D01*
X120535714Y-80060166D01*
X120640476Y-80007785D01*
X120745238Y-80007785D01*
X103485714Y-82512119D02*
X103485714Y-81412119D01*
X103485714Y-81935928D02*
X104114285Y-81935928D01*
X104114285Y-82512119D02*
X104114285Y-81412119D01*
X104533333Y-81412119D02*
X104795238Y-82512119D01*
X105004761Y-81726404D01*
X105214285Y-82512119D01*
X105476190Y-81412119D01*
X106733333Y-82512119D02*
X106733333Y-81412119D01*
X106995238Y-81412119D01*
X107152380Y-81464500D01*
X107257142Y-81569261D01*
X107309523Y-81674023D01*
X107361904Y-81883547D01*
X107361904Y-82040690D01*
X107309523Y-82250214D01*
X107257142Y-82354976D01*
X107152380Y-82459738D01*
X106995238Y-82512119D01*
X106733333Y-82512119D01*
X108252380Y-82459738D02*
X108147619Y-82512119D01*
X107938095Y-82512119D01*
X107833333Y-82459738D01*
X107780952Y-82354976D01*
X107780952Y-81935928D01*
X107833333Y-81831166D01*
X107938095Y-81778785D01*
X108147619Y-81778785D01*
X108252380Y-81831166D01*
X108304761Y-81935928D01*
X108304761Y-82040690D01*
X107780952Y-82145452D01*
X108723809Y-82459738D02*
X108828571Y-82512119D01*
X109038095Y-82512119D01*
X109142857Y-82459738D01*
X109195238Y-82354976D01*
X109195238Y-82302595D01*
X109142857Y-82197833D01*
X109038095Y-82145452D01*
X108880952Y-82145452D01*
X108776190Y-82093071D01*
X108723809Y-81988309D01*
X108723809Y-81935928D01*
X108776190Y-81831166D01*
X108880952Y-81778785D01*
X109038095Y-81778785D01*
X109142857Y-81831166D01*
X109666666Y-82512119D02*
X109666666Y-81778785D01*
X109666666Y-81412119D02*
X109614285Y-81464500D01*
X109666666Y-81516880D01*
X109719047Y-81464500D01*
X109666666Y-81412119D01*
X109666666Y-81516880D01*
X110661904Y-81778785D02*
X110661904Y-82669261D01*
X110609523Y-82774023D01*
X110557142Y-82826404D01*
X110452380Y-82878785D01*
X110295238Y-82878785D01*
X110190476Y-82826404D01*
X110661904Y-82459738D02*
X110557142Y-82512119D01*
X110347619Y-82512119D01*
X110242857Y-82459738D01*
X110190476Y-82407357D01*
X110138095Y-82302595D01*
X110138095Y-81988309D01*
X110190476Y-81883547D01*
X110242857Y-81831166D01*
X110347619Y-81778785D01*
X110557142Y-81778785D01*
X110661904Y-81831166D01*
X111185714Y-81778785D02*
X111185714Y-82512119D01*
X111185714Y-81883547D02*
X111238095Y-81831166D01*
X111342857Y-81778785D01*
X111500000Y-81778785D01*
X111604761Y-81831166D01*
X111657142Y-81935928D01*
X111657142Y-82512119D01*
X113647619Y-82512119D02*
X113280952Y-81988309D01*
X113019047Y-82512119D02*
X113019047Y-81412119D01*
X113438095Y-81412119D01*
X113542857Y-81464500D01*
X113595238Y-81516880D01*
X113647619Y-81621642D01*
X113647619Y-81778785D01*
X113595238Y-81883547D01*
X113542857Y-81935928D01*
X113438095Y-81988309D01*
X113019047Y-81988309D01*
X114119047Y-81935928D02*
X114485714Y-81935928D01*
X114642857Y-82512119D02*
X114119047Y-82512119D01*
X114119047Y-81412119D01*
X114642857Y-81412119D01*
X114957142Y-81412119D02*
X115323809Y-82512119D01*
X115690476Y-81412119D01*
X116057142Y-82407357D02*
X116109523Y-82459738D01*
X116057142Y-82512119D01*
X116004761Y-82459738D01*
X116057142Y-82407357D01*
X116057142Y-82512119D01*
X116057142Y-81831166D02*
X116109523Y-81883547D01*
X116057142Y-81935928D01*
X116004761Y-81883547D01*
X116057142Y-81831166D01*
X116057142Y-81935928D01*
X117995238Y-82512119D02*
X117366666Y-82512119D01*
X117680952Y-82512119D02*
X117680952Y-81412119D01*
X117576190Y-81569261D01*
X117471428Y-81674023D01*
X117366666Y-81726404D01*
X118466666Y-82407357D02*
X118519047Y-82459738D01*
X118466666Y-82512119D01*
X118414285Y-82459738D01*
X118466666Y-82407357D01*
X118466666Y-82512119D01*
X119200000Y-81412119D02*
X119304761Y-81412119D01*
X119409523Y-81464500D01*
X119461904Y-81516880D01*
X119514285Y-81621642D01*
X119566666Y-81831166D01*
X119566666Y-82093071D01*
X119514285Y-82302595D01*
X119461904Y-82407357D01*
X119409523Y-82459738D01*
X119304761Y-82512119D01*
X119200000Y-82512119D01*
X119095238Y-82459738D01*
X119042857Y-82407357D01*
X118990476Y-82302595D01*
X118938095Y-82093071D01*
X118938095Y-81831166D01*
X118990476Y-81621642D01*
X119042857Y-81516880D01*
X119095238Y-81464500D01*
X119200000Y-81412119D01*
X106523809Y-84283119D02*
X106000000Y-84283119D01*
X106000000Y-83183119D01*
X107361904Y-84283119D02*
X107361904Y-83706928D01*
X107309523Y-83602166D01*
X107204761Y-83549785D01*
X106995238Y-83549785D01*
X106890476Y-83602166D01*
X107361904Y-84230738D02*
X107257142Y-84283119D01*
X106995238Y-84283119D01*
X106890476Y-84230738D01*
X106838095Y-84125976D01*
X106838095Y-84021214D01*
X106890476Y-83916452D01*
X106995238Y-83864071D01*
X107257142Y-83864071D01*
X107361904Y-83811690D01*
X107780952Y-83549785D02*
X108042857Y-84283119D01*
X108304761Y-83549785D02*
X108042857Y-84283119D01*
X107938095Y-84545023D01*
X107885714Y-84597404D01*
X107780952Y-84649785D01*
X108880952Y-84283119D02*
X108776190Y-84230738D01*
X108723809Y-84178357D01*
X108671428Y-84073595D01*
X108671428Y-83759309D01*
X108723809Y-83654547D01*
X108776190Y-83602166D01*
X108880952Y-83549785D01*
X109038095Y-83549785D01*
X109142857Y-83602166D01*
X109195238Y-83654547D01*
X109247619Y-83759309D01*
X109247619Y-84073595D01*
X109195238Y-84178357D01*
X109142857Y-84230738D01*
X109038095Y-84283119D01*
X108880952Y-84283119D01*
X110190476Y-83549785D02*
X110190476Y-84283119D01*
X109719047Y-83549785D02*
X109719047Y-84125976D01*
X109771428Y-84230738D01*
X109876190Y-84283119D01*
X110033333Y-84283119D01*
X110138095Y-84230738D01*
X110190476Y-84178357D01*
X110557142Y-83549785D02*
X110976190Y-83549785D01*
X110714285Y-83183119D02*
X110714285Y-84125976D01*
X110766666Y-84230738D01*
X110871428Y-84283119D01*
X110976190Y-84283119D01*
X112809523Y-84283119D02*
X112442857Y-83759309D01*
X112180952Y-84283119D02*
X112180952Y-83183119D01*
X112600000Y-83183119D01*
X112704761Y-83235500D01*
X112757142Y-83287880D01*
X112809523Y-83392642D01*
X112809523Y-83549785D01*
X112757142Y-83654547D01*
X112704761Y-83706928D01*
X112600000Y-83759309D01*
X112180952Y-83759309D01*
X113280952Y-83706928D02*
X113647619Y-83706928D01*
X113804761Y-84283119D02*
X113280952Y-84283119D01*
X113280952Y-83183119D01*
X113804761Y-83183119D01*
X114119047Y-83183119D02*
X114485714Y-84283119D01*
X114852380Y-83183119D01*
X115219047Y-84178357D02*
X115271428Y-84230738D01*
X115219047Y-84283119D01*
X115166666Y-84230738D01*
X115219047Y-84178357D01*
X115219047Y-84283119D01*
X115219047Y-83602166D02*
X115271428Y-83654547D01*
X115219047Y-83706928D01*
X115166666Y-83654547D01*
X115219047Y-83602166D01*
X115219047Y-83706928D01*
X116528571Y-83968833D02*
X117052380Y-83968833D01*
X116423809Y-84283119D02*
X116790476Y-83183119D01*
X117157142Y-84283119D01*
X105895238Y-84954119D02*
X106104761Y-84954119D01*
X106209523Y-85006500D01*
X106314285Y-85111261D01*
X106366666Y-85320785D01*
X106366666Y-85687452D01*
X106314285Y-85896976D01*
X106209523Y-86001738D01*
X106104761Y-86054119D01*
X105895238Y-86054119D01*
X105790476Y-86001738D01*
X105685714Y-85896976D01*
X105633333Y-85687452D01*
X105633333Y-85320785D01*
X105685714Y-85111261D01*
X105790476Y-85006500D01*
X105895238Y-84954119D01*
X106838095Y-86054119D02*
X106838095Y-85320785D01*
X106838095Y-85530309D02*
X106890476Y-85425547D01*
X106942857Y-85373166D01*
X107047619Y-85320785D01*
X107152380Y-85320785D01*
X107990476Y-86054119D02*
X107990476Y-84954119D01*
X107990476Y-86001738D02*
X107885714Y-86054119D01*
X107676190Y-86054119D01*
X107571428Y-86001738D01*
X107519047Y-85949357D01*
X107466666Y-85844595D01*
X107466666Y-85530309D01*
X107519047Y-85425547D01*
X107571428Y-85373166D01*
X107676190Y-85320785D01*
X107885714Y-85320785D01*
X107990476Y-85373166D01*
X108933333Y-86001738D02*
X108828571Y-86054119D01*
X108619047Y-86054119D01*
X108514285Y-86001738D01*
X108461904Y-85896976D01*
X108461904Y-85477928D01*
X108514285Y-85373166D01*
X108619047Y-85320785D01*
X108828571Y-85320785D01*
X108933333Y-85373166D01*
X108985714Y-85477928D01*
X108985714Y-85582690D01*
X108461904Y-85687452D01*
X109457142Y-86054119D02*
X109457142Y-85320785D01*
X109457142Y-85530309D02*
X109509523Y-85425547D01*
X109561904Y-85373166D01*
X109666666Y-85320785D01*
X109771428Y-85320785D01*
X110976190Y-86054119D02*
X110976190Y-84954119D01*
X111604761Y-86054119D01*
X111604761Y-84954119D01*
X112285714Y-86054119D02*
X112180952Y-86001738D01*
X112128571Y-85949357D01*
X112076190Y-85844595D01*
X112076190Y-85530309D01*
X112128571Y-85425547D01*
X112180952Y-85373166D01*
X112285714Y-85320785D01*
X112442857Y-85320785D01*
X112547619Y-85373166D01*
X112600000Y-85425547D01*
X112652380Y-85530309D01*
X112652380Y-85844595D01*
X112600000Y-85949357D01*
X112547619Y-86001738D01*
X112442857Y-86054119D01*
X112285714Y-86054119D01*
X113123809Y-85949357D02*
X113176190Y-86001738D01*
X113123809Y-86054119D01*
X113071428Y-86001738D01*
X113123809Y-85949357D01*
X113123809Y-86054119D01*
D12*
X59614285Y-50800000D02*
X59671428Y-50857142D01*
X59785714Y-51028571D01*
X59842857Y-51142857D01*
X59900000Y-51314285D01*
X59957142Y-51600000D01*
X59957142Y-51828571D01*
X59900000Y-52114285D01*
X59842857Y-52285714D01*
X59785714Y-52400000D01*
X59671428Y-52571428D01*
X59614285Y-52628571D01*
X59157142Y-51714285D02*
X58242857Y-51714285D01*
X57785714Y-50800000D02*
X57728571Y-50857142D01*
X57614285Y-51028571D01*
X57557142Y-51142857D01*
X57500000Y-51314285D01*
X57442857Y-51600000D01*
X57442857Y-51828571D01*
X57500000Y-52114285D01*
X57557142Y-52285714D01*
X57614285Y-52400000D01*
X57728571Y-52571428D01*
X57785714Y-52628571D01*
X95035714Y-86342857D02*
X95035714Y-87314285D01*
X95092857Y-87428571D01*
X95150000Y-87485714D01*
X95264285Y-87542857D01*
X95492857Y-87542857D01*
X95607142Y-87485714D01*
X95664285Y-87428571D01*
X95721428Y-87314285D01*
X95721428Y-86342857D01*
X96235714Y-87485714D02*
X96407142Y-87542857D01*
X96692857Y-87542857D01*
X96807142Y-87485714D01*
X96864285Y-87428571D01*
X96921428Y-87314285D01*
X96921428Y-87200000D01*
X96864285Y-87085714D01*
X96807142Y-87028571D01*
X96692857Y-86971428D01*
X96464285Y-86914285D01*
X96350000Y-86857142D01*
X96292857Y-86800000D01*
X96235714Y-86685714D01*
X96235714Y-86571428D01*
X96292857Y-86457142D01*
X96350000Y-86400000D01*
X96464285Y-86342857D01*
X96750000Y-86342857D01*
X96921428Y-86400000D01*
X97435714Y-87542857D02*
X97435714Y-86342857D01*
X98121428Y-87542857D01*
X98121428Y-86342857D01*
X99378571Y-87428571D02*
X99321428Y-87485714D01*
X99150000Y-87542857D01*
X99035714Y-87542857D01*
X98864285Y-87485714D01*
X98750000Y-87371428D01*
X98692857Y-87257142D01*
X98635714Y-87028571D01*
X98635714Y-86857142D01*
X98692857Y-86628571D01*
X98750000Y-86514285D01*
X98864285Y-86400000D01*
X99035714Y-86342857D01*
X99150000Y-86342857D01*
X99321428Y-86400000D01*
X99378571Y-86457142D01*
X99778571Y-86342857D02*
X100521428Y-86342857D01*
X100121428Y-86800000D01*
X100292857Y-86800000D01*
X100407142Y-86857142D01*
X100464285Y-86914285D01*
X100521428Y-87028571D01*
X100521428Y-87314285D01*
X100464285Y-87428571D01*
X100407142Y-87485714D01*
X100292857Y-87542857D01*
X99950000Y-87542857D01*
X99835714Y-87485714D01*
X99778571Y-87428571D01*
D14*
X124394761Y-104822678D02*
X122394761Y-104572678D01*
X123823333Y-104084583D01*
X122394761Y-103239345D01*
X124394761Y-103489345D01*
X124394761Y-102536964D02*
X123061428Y-102370297D01*
X122394761Y-102286964D02*
X122490000Y-102394107D01*
X122585238Y-102310773D01*
X122490000Y-102203630D01*
X122394761Y-102286964D01*
X122585238Y-102310773D01*
X124299523Y-100715535D02*
X124394761Y-100917916D01*
X124394761Y-101298869D01*
X124299523Y-101477440D01*
X124204285Y-101560773D01*
X124013809Y-101632202D01*
X123442380Y-101560773D01*
X123251904Y-101441726D01*
X123156666Y-101334583D01*
X123061428Y-101132202D01*
X123061428Y-100751250D01*
X123156666Y-100572678D01*
X124394761Y-99870297D02*
X123061428Y-99703630D01*
X123442380Y-99751250D02*
X123251904Y-99632202D01*
X123156666Y-99525059D01*
X123061428Y-99322678D01*
X123061428Y-99132202D01*
X124394761Y-98346488D02*
X124299523Y-98525059D01*
X124204285Y-98608392D01*
X124013809Y-98679821D01*
X123442380Y-98608392D01*
X123251904Y-98489345D01*
X123156666Y-98382202D01*
X123061428Y-98179821D01*
X123061428Y-97894107D01*
X123156666Y-97715535D01*
X123251904Y-97632202D01*
X123442380Y-97560773D01*
X124013809Y-97632202D01*
X124204285Y-97751250D01*
X124299523Y-97858392D01*
X124394761Y-98060773D01*
X124394761Y-98346488D01*
X124394761Y-96822678D02*
X123061428Y-96656011D01*
X123251904Y-96679821D02*
X123156666Y-96572678D01*
X123061428Y-96370297D01*
X123061428Y-96084583D01*
X123156666Y-95906011D01*
X123347142Y-95834583D01*
X124394761Y-95965535D01*
X123347142Y-95834583D02*
X123156666Y-95715535D01*
X123061428Y-95513154D01*
X123061428Y-95227440D01*
X123156666Y-95048869D01*
X123347142Y-94977440D01*
X124394761Y-95108392D01*
X124394761Y-93870297D02*
X124299523Y-94048869D01*
X124204285Y-94132202D01*
X124013809Y-94203630D01*
X123442380Y-94132202D01*
X123251904Y-94013154D01*
X123156666Y-93906011D01*
X123061428Y-93703630D01*
X123061428Y-93417916D01*
X123156666Y-93239345D01*
X123251904Y-93156011D01*
X123442380Y-93084583D01*
X124013809Y-93156011D01*
X124204285Y-93275059D01*
X124299523Y-93382202D01*
X124394761Y-93584583D01*
X124394761Y-93870297D01*
X123061428Y-91322678D02*
X124394761Y-91489345D01*
X123061428Y-92179821D02*
X124109047Y-92310773D01*
X124299523Y-92239345D01*
X124394761Y-92060773D01*
X124394761Y-91775059D01*
X124299523Y-91572678D01*
X124204285Y-91465535D01*
X124299523Y-90620297D02*
X124394761Y-90441726D01*
X124394761Y-90060773D01*
X124299523Y-89858392D01*
X124109047Y-89739345D01*
X124013809Y-89727440D01*
X123823333Y-89798869D01*
X123728095Y-89977440D01*
X123728095Y-90263154D01*
X123632857Y-90441726D01*
X123442380Y-90513154D01*
X123347142Y-90501250D01*
X123156666Y-90382202D01*
X123061428Y-90179821D01*
X123061428Y-89894107D01*
X123156666Y-89715535D01*
X124299523Y-88144107D02*
X124394761Y-88346488D01*
X124394761Y-88727440D01*
X124299523Y-88906011D01*
X124109047Y-88977440D01*
X123347142Y-88882202D01*
X123156666Y-88763154D01*
X123061428Y-88560773D01*
X123061428Y-88179821D01*
X123156666Y-88001250D01*
X123347142Y-87929821D01*
X123537619Y-87953630D01*
X123728095Y-88929821D01*
X125805238Y-104739345D02*
X125710000Y-104632202D01*
X125614761Y-104429821D01*
X125614761Y-103953630D01*
X125710000Y-103775059D01*
X125805238Y-103691726D01*
X125995714Y-103620297D01*
X126186190Y-103644107D01*
X126471904Y-103775059D01*
X127614761Y-105060773D01*
X127614761Y-103822678D01*
X125614761Y-102334583D02*
X125614761Y-102144107D01*
X125710000Y-101965535D01*
X125805238Y-101882202D01*
X125995714Y-101810773D01*
X126376666Y-101763154D01*
X126852857Y-101822678D01*
X127233809Y-101965535D01*
X127424285Y-102084583D01*
X127519523Y-102191726D01*
X127614761Y-102394107D01*
X127614761Y-102584583D01*
X127519523Y-102763154D01*
X127424285Y-102846488D01*
X127233809Y-102917916D01*
X126852857Y-102965535D01*
X126376666Y-102906011D01*
X125995714Y-102763154D01*
X125805238Y-102644107D01*
X125710000Y-102536964D01*
X125614761Y-102334583D01*
X125805238Y-100929821D02*
X125710000Y-100822678D01*
X125614761Y-100620297D01*
X125614761Y-100144107D01*
X125710000Y-99965535D01*
X125805238Y-99882202D01*
X125995714Y-99810773D01*
X126186190Y-99834583D01*
X126471904Y-99965535D01*
X127614761Y-101251250D01*
X127614761Y-100013154D01*
X125805238Y-99025059D02*
X125710000Y-98917916D01*
X125614761Y-98715535D01*
X125614761Y-98239345D01*
X125710000Y-98060773D01*
X125805238Y-97977440D01*
X125995714Y-97906011D01*
X126186190Y-97929821D01*
X126471904Y-98060773D01*
X127614761Y-99346488D01*
X127614761Y-98108392D01*
X126852857Y-97156011D02*
X126852857Y-95632202D01*
X125805238Y-94644107D02*
X125710000Y-94536964D01*
X125614761Y-94334583D01*
X125614761Y-93858392D01*
X125710000Y-93679821D01*
X125805238Y-93596488D01*
X125995714Y-93525059D01*
X126186190Y-93548869D01*
X126471904Y-93679821D01*
X127614761Y-94965535D01*
X127614761Y-93727440D01*
X125614761Y-92239345D02*
X125614761Y-92048869D01*
X125710000Y-91870297D01*
X125805238Y-91786964D01*
X125995714Y-91715535D01*
X126376666Y-91667916D01*
X126852857Y-91727440D01*
X127233809Y-91870297D01*
X127424285Y-91989345D01*
X127519523Y-92096488D01*
X127614761Y-92298869D01*
X127614761Y-92489345D01*
X127519523Y-92667916D01*
X127424285Y-92751250D01*
X127233809Y-92822678D01*
X126852857Y-92870297D01*
X126376666Y-92810773D01*
X125995714Y-92667916D01*
X125805238Y-92548869D01*
X125710000Y-92441726D01*
X125614761Y-92239345D01*
X125805238Y-90834583D02*
X125710000Y-90727440D01*
X125614761Y-90525059D01*
X125614761Y-90048869D01*
X125710000Y-89870297D01*
X125805238Y-89786964D01*
X125995714Y-89715535D01*
X126186190Y-89739345D01*
X126471904Y-89870297D01*
X127614761Y-91156011D01*
X127614761Y-89917916D01*
X125614761Y-89001250D02*
X125614761Y-87763154D01*
X126376666Y-88525059D01*
X126376666Y-88239345D01*
X126471904Y-88060773D01*
X126567142Y-87977440D01*
X126757619Y-87906011D01*
X127233809Y-87965535D01*
X127424285Y-88084583D01*
X127519523Y-88191726D01*
X127614761Y-88394107D01*
X127614761Y-88965535D01*
X127519523Y-89144107D01*
X127424285Y-89227440D01*
D12*
X99085714Y-77892857D02*
X98514285Y-77892857D01*
X98514285Y-76692857D01*
X99485714Y-77892857D02*
X99485714Y-76692857D01*
X99771428Y-76692857D01*
X99942857Y-76750000D01*
X100057142Y-76864285D01*
X100114285Y-76978571D01*
X100171428Y-77207142D01*
X100171428Y-77378571D01*
X100114285Y-77607142D01*
X100057142Y-77721428D01*
X99942857Y-77835714D01*
X99771428Y-77892857D01*
X99485714Y-77892857D01*
X100628571Y-77550000D02*
X101200000Y-77550000D01*
X100514285Y-77892857D02*
X100914285Y-76692857D01*
X101314285Y-77892857D01*
X102400000Y-77892857D02*
X102000000Y-77321428D01*
X101714285Y-77892857D02*
X101714285Y-76692857D01*
X102171428Y-76692857D01*
X102285714Y-76750000D01*
X102342857Y-76807142D01*
X102400000Y-76921428D01*
X102400000Y-77092857D01*
X102342857Y-77207142D01*
X102285714Y-77264285D01*
X102171428Y-77321428D01*
X101714285Y-77321428D01*
X103428571Y-77092857D02*
X103428571Y-77892857D01*
X103142857Y-76635714D02*
X102857142Y-77492857D01*
X103600000Y-77492857D01*
X129242857Y-121842857D02*
X129242857Y-122414285D01*
X128042857Y-122414285D01*
X128614285Y-121442857D02*
X128614285Y-121042857D01*
X129242857Y-120871428D02*
X129242857Y-121442857D01*
X128042857Y-121442857D01*
X128042857Y-120871428D01*
X129242857Y-120357142D02*
X128042857Y-120357142D01*
X128042857Y-120071428D01*
X128100000Y-119900000D01*
X128214285Y-119785714D01*
X128328571Y-119728571D01*
X128557142Y-119671428D01*
X128728571Y-119671428D01*
X128957142Y-119728571D01*
X129071428Y-119785714D01*
X129185714Y-119900000D01*
X129242857Y-120071428D01*
X129242857Y-120357142D01*
X128157142Y-119214285D02*
X128100000Y-119157142D01*
X128042857Y-119042857D01*
X128042857Y-118757142D01*
X128100000Y-118642857D01*
X128157142Y-118585714D01*
X128271428Y-118528571D01*
X128385714Y-118528571D01*
X128557142Y-118585714D01*
X129242857Y-119271428D01*
X129242857Y-118528571D01*
X83442857Y-86807142D02*
X83442857Y-86121428D01*
X84642857Y-86464285D02*
X83442857Y-86464285D01*
X83842857Y-85207142D02*
X84642857Y-85207142D01*
X83385714Y-85492857D02*
X84242857Y-85778571D01*
X84242857Y-85035714D01*
X84642857Y-83664285D02*
X83442857Y-83664285D01*
X83442857Y-83207142D01*
X83500000Y-83092857D01*
X83557142Y-83035714D01*
X83671428Y-82978571D01*
X83842857Y-82978571D01*
X83957142Y-83035714D01*
X84014285Y-83092857D01*
X84071428Y-83207142D01*
X84071428Y-83664285D01*
X83442857Y-82578571D02*
X84642857Y-82292857D01*
X83785714Y-82064285D01*
X84642857Y-81835714D01*
X83442857Y-81550000D01*
X84642857Y-80407142D02*
X84071428Y-80807142D01*
X84642857Y-81092857D02*
X83442857Y-81092857D01*
X83442857Y-80635714D01*
X83500000Y-80521428D01*
X83557142Y-80464285D01*
X83671428Y-80407142D01*
X83842857Y-80407142D01*
X83957142Y-80464285D01*
X84014285Y-80521428D01*
X84071428Y-80635714D01*
X84071428Y-81092857D01*
X74542857Y-63957142D02*
X73971428Y-64357142D01*
X74542857Y-64642857D02*
X73342857Y-64642857D01*
X73342857Y-64185714D01*
X73400000Y-64071428D01*
X73457142Y-64014285D01*
X73571428Y-63957142D01*
X73742857Y-63957142D01*
X73857142Y-64014285D01*
X73914285Y-64071428D01*
X73971428Y-64185714D01*
X73971428Y-64642857D01*
X73342857Y-63614285D02*
X74542857Y-63214285D01*
X73342857Y-62814285D01*
X74542857Y-61728571D02*
X73971428Y-62128571D01*
X74542857Y-62414285D02*
X73342857Y-62414285D01*
X73342857Y-61957142D01*
X73400000Y-61842857D01*
X73457142Y-61785714D01*
X73571428Y-61728571D01*
X73742857Y-61728571D01*
X73857142Y-61785714D01*
X73914285Y-61842857D01*
X73971428Y-61957142D01*
X73971428Y-62414285D01*
X74485714Y-61271428D02*
X74542857Y-61100000D01*
X74542857Y-60814285D01*
X74485714Y-60700000D01*
X74428571Y-60642857D01*
X74314285Y-60585714D01*
X74200000Y-60585714D01*
X74085714Y-60642857D01*
X74028571Y-60700000D01*
X73971428Y-60814285D01*
X73914285Y-61042857D01*
X73857142Y-61157142D01*
X73800000Y-61214285D01*
X73685714Y-61271428D01*
X73571428Y-61271428D01*
X73457142Y-61214285D01*
X73400000Y-61157142D01*
X73342857Y-61042857D01*
X73342857Y-60757142D01*
X73400000Y-60585714D01*
X73914285Y-60071428D02*
X73914285Y-59671428D01*
X74542857Y-59500000D02*
X74542857Y-60071428D01*
X73342857Y-60071428D01*
X73342857Y-59500000D01*
X105985714Y-59792857D02*
X105414285Y-59792857D01*
X105414285Y-58592857D01*
X106385714Y-59792857D02*
X106385714Y-58592857D01*
X106671428Y-58592857D01*
X106842857Y-58650000D01*
X106957142Y-58764285D01*
X107014285Y-58878571D01*
X107071428Y-59107142D01*
X107071428Y-59278571D01*
X107014285Y-59507142D01*
X106957142Y-59621428D01*
X106842857Y-59735714D01*
X106671428Y-59792857D01*
X106385714Y-59792857D01*
X107528571Y-59450000D02*
X108100000Y-59450000D01*
X107414285Y-59792857D02*
X107814285Y-58592857D01*
X108214285Y-59792857D01*
X109300000Y-59792857D02*
X108900000Y-59221428D01*
X108614285Y-59792857D02*
X108614285Y-58592857D01*
X109071428Y-58592857D01*
X109185714Y-58650000D01*
X109242857Y-58707142D01*
X109300000Y-58821428D01*
X109300000Y-58992857D01*
X109242857Y-59107142D01*
X109185714Y-59164285D01*
X109071428Y-59221428D01*
X108614285Y-59221428D01*
X110442857Y-59792857D02*
X109757142Y-59792857D01*
X110100000Y-59792857D02*
X110100000Y-58592857D01*
X109985714Y-58764285D01*
X109871428Y-58878571D01*
X109757142Y-58935714D01*
X95035714Y-95342857D02*
X95035714Y-96314285D01*
X95092857Y-96428571D01*
X95150000Y-96485714D01*
X95264285Y-96542857D01*
X95492857Y-96542857D01*
X95607142Y-96485714D01*
X95664285Y-96428571D01*
X95721428Y-96314285D01*
X95721428Y-95342857D01*
X96235714Y-96485714D02*
X96407142Y-96542857D01*
X96692857Y-96542857D01*
X96807142Y-96485714D01*
X96864285Y-96428571D01*
X96921428Y-96314285D01*
X96921428Y-96200000D01*
X96864285Y-96085714D01*
X96807142Y-96028571D01*
X96692857Y-95971428D01*
X96464285Y-95914285D01*
X96350000Y-95857142D01*
X96292857Y-95800000D01*
X96235714Y-95685714D01*
X96235714Y-95571428D01*
X96292857Y-95457142D01*
X96350000Y-95400000D01*
X96464285Y-95342857D01*
X96750000Y-95342857D01*
X96921428Y-95400000D01*
X97435714Y-96542857D02*
X97435714Y-95342857D01*
X98121428Y-96542857D01*
X98121428Y-95342857D01*
X99378571Y-96428571D02*
X99321428Y-96485714D01*
X99150000Y-96542857D01*
X99035714Y-96542857D01*
X98864285Y-96485714D01*
X98750000Y-96371428D01*
X98692857Y-96257142D01*
X98635714Y-96028571D01*
X98635714Y-95857142D01*
X98692857Y-95628571D01*
X98750000Y-95514285D01*
X98864285Y-95400000D01*
X99035714Y-95342857D01*
X99150000Y-95342857D01*
X99321428Y-95400000D01*
X99378571Y-95457142D01*
X99835714Y-95457142D02*
X99892857Y-95400000D01*
X100007142Y-95342857D01*
X100292857Y-95342857D01*
X100407142Y-95400000D01*
X100464285Y-95457142D01*
X100521428Y-95571428D01*
X100521428Y-95685714D01*
X100464285Y-95857142D01*
X99778571Y-96542857D01*
X100521428Y-96542857D01*
X129242857Y-128342857D02*
X129242857Y-128914285D01*
X128042857Y-128914285D01*
X128614285Y-127942857D02*
X128614285Y-127542857D01*
X129242857Y-127371428D02*
X129242857Y-127942857D01*
X128042857Y-127942857D01*
X128042857Y-127371428D01*
X129242857Y-126857142D02*
X128042857Y-126857142D01*
X128042857Y-126571428D01*
X128100000Y-126400000D01*
X128214285Y-126285714D01*
X128328571Y-126228571D01*
X128557142Y-126171428D01*
X128728571Y-126171428D01*
X128957142Y-126228571D01*
X129071428Y-126285714D01*
X129185714Y-126400000D01*
X129242857Y-126571428D01*
X129242857Y-126857142D01*
X129242857Y-125028571D02*
X129242857Y-125714285D01*
X129242857Y-125371428D02*
X128042857Y-125371428D01*
X128214285Y-125485714D01*
X128328571Y-125600000D01*
X128385714Y-125714285D01*
X129242857Y-115342857D02*
X129242857Y-115914285D01*
X128042857Y-115914285D01*
X128614285Y-114942857D02*
X128614285Y-114542857D01*
X129242857Y-114371428D02*
X129242857Y-114942857D01*
X128042857Y-114942857D01*
X128042857Y-114371428D01*
X129242857Y-113857142D02*
X128042857Y-113857142D01*
X128042857Y-113571428D01*
X128100000Y-113400000D01*
X128214285Y-113285714D01*
X128328571Y-113228571D01*
X128557142Y-113171428D01*
X128728571Y-113171428D01*
X128957142Y-113228571D01*
X129071428Y-113285714D01*
X129185714Y-113400000D01*
X129242857Y-113571428D01*
X129242857Y-113857142D01*
X128042857Y-112771428D02*
X128042857Y-112028571D01*
X128500000Y-112428571D01*
X128500000Y-112257142D01*
X128557142Y-112142857D01*
X128614285Y-112085714D01*
X128728571Y-112028571D01*
X129014285Y-112028571D01*
X129128571Y-112085714D01*
X129185714Y-112142857D01*
X129242857Y-112257142D01*
X129242857Y-112600000D01*
X129185714Y-112714285D01*
X129128571Y-112771428D01*
X99085714Y-59792857D02*
X98514285Y-59792857D01*
X98514285Y-58592857D01*
X99485714Y-59792857D02*
X99485714Y-58592857D01*
X99771428Y-58592857D01*
X99942857Y-58650000D01*
X100057142Y-58764285D01*
X100114285Y-58878571D01*
X100171428Y-59107142D01*
X100171428Y-59278571D01*
X100114285Y-59507142D01*
X100057142Y-59621428D01*
X99942857Y-59735714D01*
X99771428Y-59792857D01*
X99485714Y-59792857D01*
X100628571Y-59450000D02*
X101200000Y-59450000D01*
X100514285Y-59792857D02*
X100914285Y-58592857D01*
X101314285Y-59792857D01*
X102400000Y-59792857D02*
X102000000Y-59221428D01*
X101714285Y-59792857D02*
X101714285Y-58592857D01*
X102171428Y-58592857D01*
X102285714Y-58650000D01*
X102342857Y-58707142D01*
X102400000Y-58821428D01*
X102400000Y-58992857D01*
X102342857Y-59107142D01*
X102285714Y-59164285D01*
X102171428Y-59221428D01*
X101714285Y-59221428D01*
X103428571Y-58592857D02*
X103200000Y-58592857D01*
X103085714Y-58650000D01*
X103028571Y-58707142D01*
X102914285Y-58878571D01*
X102857142Y-59107142D01*
X102857142Y-59564285D01*
X102914285Y-59678571D01*
X102971428Y-59735714D01*
X103085714Y-59792857D01*
X103314285Y-59792857D01*
X103428571Y-59735714D01*
X103485714Y-59678571D01*
X103542857Y-59564285D01*
X103542857Y-59278571D01*
X103485714Y-59164285D01*
X103428571Y-59107142D01*
X103314285Y-59050000D01*
X103085714Y-59050000D01*
X102971428Y-59107142D01*
X102914285Y-59164285D01*
X102857142Y-59278571D01*
X106085714Y-68892857D02*
X105514285Y-68892857D01*
X105514285Y-67692857D01*
X106485714Y-68892857D02*
X106485714Y-67692857D01*
X106771428Y-67692857D01*
X106942857Y-67750000D01*
X107057142Y-67864285D01*
X107114285Y-67978571D01*
X107171428Y-68207142D01*
X107171428Y-68378571D01*
X107114285Y-68607142D01*
X107057142Y-68721428D01*
X106942857Y-68835714D01*
X106771428Y-68892857D01*
X106485714Y-68892857D01*
X107628571Y-68550000D02*
X108200000Y-68550000D01*
X107514285Y-68892857D02*
X107914285Y-67692857D01*
X108314285Y-68892857D01*
X109400000Y-68892857D02*
X109000000Y-68321428D01*
X108714285Y-68892857D02*
X108714285Y-67692857D01*
X109171428Y-67692857D01*
X109285714Y-67750000D01*
X109342857Y-67807142D01*
X109400000Y-67921428D01*
X109400000Y-68092857D01*
X109342857Y-68207142D01*
X109285714Y-68264285D01*
X109171428Y-68321428D01*
X108714285Y-68321428D01*
X109857142Y-67807142D02*
X109914285Y-67750000D01*
X110028571Y-67692857D01*
X110314285Y-67692857D01*
X110428571Y-67750000D01*
X110485714Y-67807142D01*
X110542857Y-67921428D01*
X110542857Y-68035714D01*
X110485714Y-68207142D01*
X109800000Y-68892857D01*
X110542857Y-68892857D01*
X106085714Y-77892857D02*
X105514285Y-77892857D01*
X105514285Y-76692857D01*
X106485714Y-77892857D02*
X106485714Y-76692857D01*
X106771428Y-76692857D01*
X106942857Y-76750000D01*
X107057142Y-76864285D01*
X107114285Y-76978571D01*
X107171428Y-77207142D01*
X107171428Y-77378571D01*
X107114285Y-77607142D01*
X107057142Y-77721428D01*
X106942857Y-77835714D01*
X106771428Y-77892857D01*
X106485714Y-77892857D01*
X107628571Y-77550000D02*
X108200000Y-77550000D01*
X107514285Y-77892857D02*
X107914285Y-76692857D01*
X108314285Y-77892857D01*
X109400000Y-77892857D02*
X109000000Y-77321428D01*
X108714285Y-77892857D02*
X108714285Y-76692857D01*
X109171428Y-76692857D01*
X109285714Y-76750000D01*
X109342857Y-76807142D01*
X109400000Y-76921428D01*
X109400000Y-77092857D01*
X109342857Y-77207142D01*
X109285714Y-77264285D01*
X109171428Y-77321428D01*
X108714285Y-77321428D01*
X109800000Y-76692857D02*
X110542857Y-76692857D01*
X110142857Y-77150000D01*
X110314285Y-77150000D01*
X110428571Y-77207142D01*
X110485714Y-77264285D01*
X110542857Y-77378571D01*
X110542857Y-77664285D01*
X110485714Y-77778571D01*
X110428571Y-77835714D01*
X110314285Y-77892857D01*
X109971428Y-77892857D01*
X109857142Y-77835714D01*
X109800000Y-77778571D01*
D11*
X74728571Y-128902380D02*
X74728571Y-127902380D01*
X75061904Y-128616666D01*
X75395238Y-127902380D01*
X75395238Y-128902380D01*
X76061904Y-127902380D02*
X76252380Y-127902380D01*
X76347619Y-127950000D01*
X76442857Y-128045238D01*
X76490476Y-128235714D01*
X76490476Y-128569047D01*
X76442857Y-128759523D01*
X76347619Y-128854761D01*
X76252380Y-128902380D01*
X76061904Y-128902380D01*
X75966666Y-128854761D01*
X75871428Y-128759523D01*
X75823809Y-128569047D01*
X75823809Y-128235714D01*
X75871428Y-128045238D01*
X75966666Y-127950000D01*
X76061904Y-127902380D01*
X76776190Y-127902380D02*
X77347619Y-127902380D01*
X77061904Y-128902380D02*
X77061904Y-127902380D01*
X77871428Y-127902380D02*
X78061904Y-127902380D01*
X78157142Y-127950000D01*
X78252380Y-128045238D01*
X78300000Y-128235714D01*
X78300000Y-128569047D01*
X78252380Y-128759523D01*
X78157142Y-128854761D01*
X78061904Y-128902380D01*
X77871428Y-128902380D01*
X77776190Y-128854761D01*
X77680952Y-128759523D01*
X77633333Y-128569047D01*
X77633333Y-128235714D01*
X77680952Y-128045238D01*
X77776190Y-127950000D01*
X77871428Y-127902380D01*
X79300000Y-128902380D02*
X78966666Y-128426190D01*
X78728571Y-128902380D02*
X78728571Y-127902380D01*
X79109523Y-127902380D01*
X79204761Y-127950000D01*
X79252380Y-127997619D01*
X79300000Y-128092857D01*
X79300000Y-128235714D01*
X79252380Y-128330952D01*
X79204761Y-128378571D01*
X79109523Y-128426190D01*
X78728571Y-128426190D01*
X80442857Y-128616666D02*
X80919047Y-128616666D01*
X80347619Y-128902380D02*
X80680952Y-127902380D01*
X81014285Y-128902380D01*
D15*
%TO.C,R20*%
X127721428Y-108107142D02*
X127421428Y-107678571D01*
X127207142Y-108107142D02*
X127207142Y-107207142D01*
X127550000Y-107207142D01*
X127635714Y-107250000D01*
X127678571Y-107292857D01*
X127721428Y-107378571D01*
X127721428Y-107507142D01*
X127678571Y-107592857D01*
X127635714Y-107635714D01*
X127550000Y-107678571D01*
X127207142Y-107678571D01*
X128064285Y-107292857D02*
X128107142Y-107250000D01*
X128192857Y-107207142D01*
X128407142Y-107207142D01*
X128492857Y-107250000D01*
X128535714Y-107292857D01*
X128578571Y-107378571D01*
X128578571Y-107464285D01*
X128535714Y-107592857D01*
X128021428Y-108107142D01*
X128578571Y-108107142D01*
X129135714Y-107207142D02*
X129221428Y-107207142D01*
X129307142Y-107250000D01*
X129350000Y-107292857D01*
X129392857Y-107378571D01*
X129435714Y-107550000D01*
X129435714Y-107764285D01*
X129392857Y-107935714D01*
X129350000Y-108021428D01*
X129307142Y-108064285D01*
X129221428Y-108107142D01*
X129135714Y-108107142D01*
X129050000Y-108064285D01*
X129007142Y-108021428D01*
X128964285Y-107935714D01*
X128921428Y-107764285D01*
X128921428Y-107550000D01*
X128964285Y-107378571D01*
X129007142Y-107292857D01*
X129050000Y-107250000D01*
X129135714Y-107207142D01*
%TO.C,H2*%
X124314285Y-59607142D02*
X124314285Y-58707142D01*
X124314285Y-59135714D02*
X124828571Y-59135714D01*
X124828571Y-59607142D02*
X124828571Y-58707142D01*
X125214285Y-58792857D02*
X125257142Y-58750000D01*
X125342857Y-58707142D01*
X125557142Y-58707142D01*
X125642857Y-58750000D01*
X125685714Y-58792857D01*
X125728571Y-58878571D01*
X125728571Y-58964285D01*
X125685714Y-59092857D01*
X125171428Y-59607142D01*
X125728571Y-59607142D01*
%TO.C,H4*%
X121264285Y-142107142D02*
X121264285Y-141207142D01*
X121264285Y-141635714D02*
X121778571Y-141635714D01*
X121778571Y-142107142D02*
X121778571Y-141207142D01*
X122592857Y-141507142D02*
X122592857Y-142107142D01*
X122378571Y-141164285D02*
X122164285Y-141807142D01*
X122721428Y-141807142D01*
%TO.C,D8*%
X121307142Y-114664285D02*
X120407142Y-114664285D01*
X120407142Y-114450000D01*
X120450000Y-114321428D01*
X120535714Y-114235714D01*
X120621428Y-114192857D01*
X120792857Y-114150000D01*
X120921428Y-114150000D01*
X121092857Y-114192857D01*
X121178571Y-114235714D01*
X121264285Y-114321428D01*
X121307142Y-114450000D01*
X121307142Y-114664285D01*
X120792857Y-113635714D02*
X120750000Y-113721428D01*
X120707142Y-113764285D01*
X120621428Y-113807142D01*
X120578571Y-113807142D01*
X120492857Y-113764285D01*
X120450000Y-113721428D01*
X120407142Y-113635714D01*
X120407142Y-113464285D01*
X120450000Y-113378571D01*
X120492857Y-113335714D01*
X120578571Y-113292857D01*
X120621428Y-113292857D01*
X120707142Y-113335714D01*
X120750000Y-113378571D01*
X120792857Y-113464285D01*
X120792857Y-113635714D01*
X120835714Y-113721428D01*
X120878571Y-113764285D01*
X120964285Y-113807142D01*
X121135714Y-113807142D01*
X121221428Y-113764285D01*
X121264285Y-113721428D01*
X121307142Y-113635714D01*
X121307142Y-113464285D01*
X121264285Y-113378571D01*
X121221428Y-113335714D01*
X121135714Y-113292857D01*
X120964285Y-113292857D01*
X120878571Y-113335714D01*
X120835714Y-113378571D01*
X120792857Y-113464285D01*
%TO.C,J3*%
X112700000Y-76607142D02*
X112700000Y-77250000D01*
X112657142Y-77378571D01*
X112571428Y-77464285D01*
X112442857Y-77507142D01*
X112357142Y-77507142D01*
X113042857Y-76607142D02*
X113600000Y-76607142D01*
X113300000Y-76950000D01*
X113428571Y-76950000D01*
X113514285Y-76992857D01*
X113557142Y-77035714D01*
X113600000Y-77121428D01*
X113600000Y-77335714D01*
X113557142Y-77421428D01*
X113514285Y-77464285D01*
X113428571Y-77507142D01*
X113171428Y-77507142D01*
X113085714Y-77464285D01*
X113042857Y-77421428D01*
%TO.C,J1*%
X112700000Y-58607142D02*
X112700000Y-59250000D01*
X112657142Y-59378571D01*
X112571428Y-59464285D01*
X112442857Y-59507142D01*
X112357142Y-59507142D01*
X113600000Y-59507142D02*
X113085714Y-59507142D01*
X113342857Y-59507142D02*
X113342857Y-58607142D01*
X113257142Y-58735714D01*
X113171428Y-58821428D01*
X113085714Y-58864285D01*
%TO.C,D5*%
X121407142Y-134164285D02*
X120507142Y-134164285D01*
X120507142Y-133950000D01*
X120550000Y-133821428D01*
X120635714Y-133735714D01*
X120721428Y-133692857D01*
X120892857Y-133650000D01*
X121021428Y-133650000D01*
X121192857Y-133692857D01*
X121278571Y-133735714D01*
X121364285Y-133821428D01*
X121407142Y-133950000D01*
X121407142Y-134164285D01*
X120507142Y-132835714D02*
X120507142Y-133264285D01*
X120935714Y-133307142D01*
X120892857Y-133264285D01*
X120850000Y-133178571D01*
X120850000Y-132964285D01*
X120892857Y-132878571D01*
X120935714Y-132835714D01*
X121021428Y-132792857D01*
X121235714Y-132792857D01*
X121321428Y-132835714D01*
X121364285Y-132878571D01*
X121407142Y-132964285D01*
X121407142Y-133178571D01*
X121364285Y-133264285D01*
X121321428Y-133307142D01*
%TO.C,U3*%
X53314285Y-115307142D02*
X53314285Y-116035714D01*
X53357142Y-116121428D01*
X53400000Y-116164285D01*
X53485714Y-116207142D01*
X53657142Y-116207142D01*
X53742857Y-116164285D01*
X53785714Y-116121428D01*
X53828571Y-116035714D01*
X53828571Y-115307142D01*
X54171428Y-115307142D02*
X54728571Y-115307142D01*
X54428571Y-115650000D01*
X54557142Y-115650000D01*
X54642857Y-115692857D01*
X54685714Y-115735714D01*
X54728571Y-115821428D01*
X54728571Y-116035714D01*
X54685714Y-116121428D01*
X54642857Y-116164285D01*
X54557142Y-116207142D01*
X54300000Y-116207142D01*
X54214285Y-116164285D01*
X54171428Y-116121428D01*
%TO.C,D7*%
X121307142Y-121164285D02*
X120407142Y-121164285D01*
X120407142Y-120950000D01*
X120450000Y-120821428D01*
X120535714Y-120735714D01*
X120621428Y-120692857D01*
X120792857Y-120650000D01*
X120921428Y-120650000D01*
X121092857Y-120692857D01*
X121178571Y-120735714D01*
X121264285Y-120821428D01*
X121307142Y-120950000D01*
X121307142Y-121164285D01*
X120407142Y-120350000D02*
X120407142Y-119750000D01*
X121307142Y-120135714D01*
%TO.C,R18*%
X127721428Y-138407142D02*
X127421428Y-137978571D01*
X127207142Y-138407142D02*
X127207142Y-137507142D01*
X127550000Y-137507142D01*
X127635714Y-137550000D01*
X127678571Y-137592857D01*
X127721428Y-137678571D01*
X127721428Y-137807142D01*
X127678571Y-137892857D01*
X127635714Y-137935714D01*
X127550000Y-137978571D01*
X127207142Y-137978571D01*
X128578571Y-138407142D02*
X128064285Y-138407142D01*
X128321428Y-138407142D02*
X128321428Y-137507142D01*
X128235714Y-137635714D01*
X128150000Y-137721428D01*
X128064285Y-137764285D01*
X129092857Y-137892857D02*
X129007142Y-137850000D01*
X128964285Y-137807142D01*
X128921428Y-137721428D01*
X128921428Y-137678571D01*
X128964285Y-137592857D01*
X129007142Y-137550000D01*
X129092857Y-137507142D01*
X129264285Y-137507142D01*
X129350000Y-137550000D01*
X129392857Y-137592857D01*
X129435714Y-137678571D01*
X129435714Y-137721428D01*
X129392857Y-137807142D01*
X129350000Y-137850000D01*
X129264285Y-137892857D01*
X129092857Y-137892857D01*
X129007142Y-137935714D01*
X128964285Y-137978571D01*
X128921428Y-138064285D01*
X128921428Y-138235714D01*
X128964285Y-138321428D01*
X129007142Y-138364285D01*
X129092857Y-138407142D01*
X129264285Y-138407142D01*
X129350000Y-138364285D01*
X129392857Y-138321428D01*
X129435714Y-138235714D01*
X129435714Y-138064285D01*
X129392857Y-137978571D01*
X129350000Y-137935714D01*
X129264285Y-137892857D01*
%TO.C,R21*%
X127721428Y-109907142D02*
X127421428Y-109478571D01*
X127207142Y-109907142D02*
X127207142Y-109007142D01*
X127550000Y-109007142D01*
X127635714Y-109050000D01*
X127678571Y-109092857D01*
X127721428Y-109178571D01*
X127721428Y-109307142D01*
X127678571Y-109392857D01*
X127635714Y-109435714D01*
X127550000Y-109478571D01*
X127207142Y-109478571D01*
X128064285Y-109092857D02*
X128107142Y-109050000D01*
X128192857Y-109007142D01*
X128407142Y-109007142D01*
X128492857Y-109050000D01*
X128535714Y-109092857D01*
X128578571Y-109178571D01*
X128578571Y-109264285D01*
X128535714Y-109392857D01*
X128021428Y-109907142D01*
X128578571Y-109907142D01*
X129435714Y-109907142D02*
X128921428Y-109907142D01*
X129178571Y-109907142D02*
X129178571Y-109007142D01*
X129092857Y-109135714D01*
X129007142Y-109221428D01*
X128921428Y-109264285D01*
%TO.C,J4*%
X95700000Y-76582142D02*
X95700000Y-77225000D01*
X95657142Y-77353571D01*
X95571428Y-77439285D01*
X95442857Y-77482142D01*
X95357142Y-77482142D01*
X96514285Y-76882142D02*
X96514285Y-77482142D01*
X96300000Y-76539285D02*
X96085714Y-77182142D01*
X96642857Y-77182142D01*
%TO.C,J10*%
X73307142Y-139312571D02*
X73950000Y-139312571D01*
X74078571Y-139355428D01*
X74164285Y-139441142D01*
X74207142Y-139569714D01*
X74207142Y-139655428D01*
X74207142Y-138412571D02*
X74207142Y-138926857D01*
X74207142Y-138669714D02*
X73307142Y-138669714D01*
X73435714Y-138755428D01*
X73521428Y-138841142D01*
X73564285Y-138926857D01*
X73307142Y-137855428D02*
X73307142Y-137769714D01*
X73350000Y-137684000D01*
X73392857Y-137641142D01*
X73478571Y-137598285D01*
X73650000Y-137555428D01*
X73864285Y-137555428D01*
X74035714Y-137598285D01*
X74121428Y-137641142D01*
X74164285Y-137684000D01*
X74207142Y-137769714D01*
X74207142Y-137855428D01*
X74164285Y-137941142D01*
X74121428Y-137984000D01*
X74035714Y-138026857D01*
X73864285Y-138069714D01*
X73650000Y-138069714D01*
X73478571Y-138026857D01*
X73392857Y-137984000D01*
X73350000Y-137941142D01*
X73307142Y-137855428D01*
%TO.C,J5*%
X95700000Y-67582142D02*
X95700000Y-68225000D01*
X95657142Y-68353571D01*
X95571428Y-68439285D01*
X95442857Y-68482142D01*
X95357142Y-68482142D01*
X96557142Y-67582142D02*
X96128571Y-67582142D01*
X96085714Y-68010714D01*
X96128571Y-67967857D01*
X96214285Y-67925000D01*
X96428571Y-67925000D01*
X96514285Y-67967857D01*
X96557142Y-68010714D01*
X96600000Y-68096428D01*
X96600000Y-68310714D01*
X96557142Y-68396428D01*
X96514285Y-68439285D01*
X96428571Y-68482142D01*
X96214285Y-68482142D01*
X96128571Y-68439285D01*
X96085714Y-68396428D01*
%TO.C,J6*%
X97000000Y-58607142D02*
X97000000Y-59250000D01*
X96957142Y-59378571D01*
X96871428Y-59464285D01*
X96742857Y-59507142D01*
X96657142Y-59507142D01*
X97814285Y-58607142D02*
X97642857Y-58607142D01*
X97557142Y-58650000D01*
X97514285Y-58692857D01*
X97428571Y-58821428D01*
X97385714Y-58992857D01*
X97385714Y-59335714D01*
X97428571Y-59421428D01*
X97471428Y-59464285D01*
X97557142Y-59507142D01*
X97728571Y-59507142D01*
X97814285Y-59464285D01*
X97857142Y-59421428D01*
X97900000Y-59335714D01*
X97900000Y-59121428D01*
X97857142Y-59035714D01*
X97814285Y-58992857D01*
X97728571Y-58950000D01*
X97557142Y-58950000D01*
X97471428Y-58992857D01*
X97428571Y-59035714D01*
X97385714Y-59121428D01*
D10*
%TO.C,J7*%
X111466666Y-107662380D02*
X111466666Y-108376666D01*
X111419047Y-108519523D01*
X111323809Y-108614761D01*
X111180952Y-108662380D01*
X111085714Y-108662380D01*
X111847619Y-107662380D02*
X112514285Y-107662380D01*
X112085714Y-108662380D01*
D15*
%TO.C,H1*%
X51264285Y-142107142D02*
X51264285Y-141207142D01*
X51264285Y-141635714D02*
X51778571Y-141635714D01*
X51778571Y-142107142D02*
X51778571Y-141207142D01*
X52678571Y-142107142D02*
X52164285Y-142107142D01*
X52421428Y-142107142D02*
X52421428Y-141207142D01*
X52335714Y-141335714D01*
X52250000Y-141421428D01*
X52164285Y-141464285D01*
%TO.C,D6*%
X121307142Y-127664285D02*
X120407142Y-127664285D01*
X120407142Y-127450000D01*
X120450000Y-127321428D01*
X120535714Y-127235714D01*
X120621428Y-127192857D01*
X120792857Y-127150000D01*
X120921428Y-127150000D01*
X121092857Y-127192857D01*
X121178571Y-127235714D01*
X121264285Y-127321428D01*
X121307142Y-127450000D01*
X121307142Y-127664285D01*
X120407142Y-126378571D02*
X120407142Y-126550000D01*
X120450000Y-126635714D01*
X120492857Y-126678571D01*
X120621428Y-126764285D01*
X120792857Y-126807142D01*
X121135714Y-126807142D01*
X121221428Y-126764285D01*
X121264285Y-126721428D01*
X121307142Y-126635714D01*
X121307142Y-126464285D01*
X121264285Y-126378571D01*
X121221428Y-126335714D01*
X121135714Y-126292857D01*
X120921428Y-126292857D01*
X120835714Y-126335714D01*
X120792857Y-126378571D01*
X120750000Y-126464285D01*
X120750000Y-126635714D01*
X120792857Y-126721428D01*
X120835714Y-126764285D01*
X120921428Y-126807142D01*
%TO.C,J2*%
X112700000Y-67507142D02*
X112700000Y-68150000D01*
X112657142Y-68278571D01*
X112571428Y-68364285D01*
X112442857Y-68407142D01*
X112357142Y-68407142D01*
X113085714Y-67592857D02*
X113128571Y-67550000D01*
X113214285Y-67507142D01*
X113428571Y-67507142D01*
X113514285Y-67550000D01*
X113557142Y-67592857D01*
X113600000Y-67678571D01*
X113600000Y-67764285D01*
X113557142Y-67892857D01*
X113042857Y-68407142D01*
X113600000Y-68407142D01*
%TO.C,C12*%
X55021428Y-108578571D02*
X55064285Y-108621428D01*
X55107142Y-108750000D01*
X55107142Y-108835714D01*
X55064285Y-108964285D01*
X54978571Y-109050000D01*
X54892857Y-109092857D01*
X54721428Y-109135714D01*
X54592857Y-109135714D01*
X54421428Y-109092857D01*
X54335714Y-109050000D01*
X54250000Y-108964285D01*
X54207142Y-108835714D01*
X54207142Y-108750000D01*
X54250000Y-108621428D01*
X54292857Y-108578571D01*
X55107142Y-107721428D02*
X55107142Y-108235714D01*
X55107142Y-107978571D02*
X54207142Y-107978571D01*
X54335714Y-108064285D01*
X54421428Y-108150000D01*
X54464285Y-108235714D01*
X54292857Y-107378571D02*
X54250000Y-107335714D01*
X54207142Y-107250000D01*
X54207142Y-107035714D01*
X54250000Y-106950000D01*
X54292857Y-106907142D01*
X54378571Y-106864285D01*
X54464285Y-106864285D01*
X54592857Y-106907142D01*
X55107142Y-107421428D01*
X55107142Y-106864285D01*
%TO.C,R19*%
X127721428Y-140107142D02*
X127421428Y-139678571D01*
X127207142Y-140107142D02*
X127207142Y-139207142D01*
X127550000Y-139207142D01*
X127635714Y-139250000D01*
X127678571Y-139292857D01*
X127721428Y-139378571D01*
X127721428Y-139507142D01*
X127678571Y-139592857D01*
X127635714Y-139635714D01*
X127550000Y-139678571D01*
X127207142Y-139678571D01*
X128578571Y-140107142D02*
X128064285Y-140107142D01*
X128321428Y-140107142D02*
X128321428Y-139207142D01*
X128235714Y-139335714D01*
X128150000Y-139421428D01*
X128064285Y-139464285D01*
X129007142Y-140107142D02*
X129178571Y-140107142D01*
X129264285Y-140064285D01*
X129307142Y-140021428D01*
X129392857Y-139892857D01*
X129435714Y-139721428D01*
X129435714Y-139378571D01*
X129392857Y-139292857D01*
X129350000Y-139250000D01*
X129264285Y-139207142D01*
X129092857Y-139207142D01*
X129007142Y-139250000D01*
X128964285Y-139292857D01*
X128921428Y-139378571D01*
X128921428Y-139592857D01*
X128964285Y-139678571D01*
X129007142Y-139721428D01*
X129092857Y-139764285D01*
X129264285Y-139764285D01*
X129350000Y-139721428D01*
X129392857Y-139678571D01*
X129435714Y-139592857D01*
%TO.C,H3*%
X54314285Y-59607142D02*
X54314285Y-58707142D01*
X54314285Y-59135714D02*
X54828571Y-59135714D01*
X54828571Y-59607142D02*
X54828571Y-58707142D01*
X55171428Y-58707142D02*
X55728571Y-58707142D01*
X55428571Y-59050000D01*
X55557142Y-59050000D01*
X55642857Y-59092857D01*
X55685714Y-59135714D01*
X55728571Y-59221428D01*
X55728571Y-59435714D01*
X55685714Y-59521428D01*
X55642857Y-59564285D01*
X55557142Y-59607142D01*
X55300000Y-59607142D01*
X55214285Y-59564285D01*
X55171428Y-59521428D01*
%TO.C,J8*%
X81057142Y-138900000D02*
X81700000Y-138900000D01*
X81828571Y-138942857D01*
X81914285Y-139028571D01*
X81957142Y-139157142D01*
X81957142Y-139242857D01*
X81442857Y-138342857D02*
X81400000Y-138428571D01*
X81357142Y-138471428D01*
X81271428Y-138514285D01*
X81228571Y-138514285D01*
X81142857Y-138471428D01*
X81100000Y-138428571D01*
X81057142Y-138342857D01*
X81057142Y-138171428D01*
X81100000Y-138085714D01*
X81142857Y-138042857D01*
X81228571Y-138000000D01*
X81271428Y-138000000D01*
X81357142Y-138042857D01*
X81400000Y-138085714D01*
X81442857Y-138171428D01*
X81442857Y-138342857D01*
X81485714Y-138428571D01*
X81528571Y-138471428D01*
X81614285Y-138514285D01*
X81785714Y-138514285D01*
X81871428Y-138471428D01*
X81914285Y-138428571D01*
X81957142Y-138342857D01*
X81957142Y-138171428D01*
X81914285Y-138085714D01*
X81871428Y-138042857D01*
X81785714Y-138000000D01*
X81614285Y-138000000D01*
X81528571Y-138042857D01*
X81485714Y-138085714D01*
X81442857Y-138171428D01*
D16*
%TO.C,R20*%
X124995276Y-108272500D02*
X125504724Y-108272500D01*
X124995276Y-107227500D02*
X125504724Y-107227500D01*
%TO.C,D8*%
X127565000Y-115545000D02*
X127565000Y-112455000D01*
X122015000Y-113999538D02*
G75*
G03*
X127565000Y-115544830I2990000J-462D01*
G01*
X127565000Y-112455170D02*
G75*
G03*
X122015000Y-114000462I-2560000J-1544830D01*
G01*
X127505000Y-114000000D02*
G75*
G03*
X127505000Y-114000000I-2500000J0D01*
G01*
%TO.C,J3*%
X106400000Y-69725000D02*
X105150000Y-69725000D01*
X117250000Y-70025000D02*
X108750000Y-70025000D01*
X119800000Y-72275000D02*
X119800000Y-75225000D01*
X107250000Y-70775000D02*
X107250000Y-70025000D01*
X106200000Y-72275000D02*
X106200000Y-75225000D01*
X120560000Y-70015000D02*
X105440000Y-70015000D01*
X118750000Y-70025000D02*
X118750000Y-70775000D01*
X118750000Y-70775000D02*
X120550000Y-70775000D01*
X120550000Y-70025000D02*
X118750000Y-70025000D01*
X108750000Y-70775000D02*
X117250000Y-70775000D01*
X120550000Y-70775000D02*
X120550000Y-70025000D01*
X105440000Y-70015000D02*
X105440000Y-75985000D01*
X120560000Y-75985000D02*
X120560000Y-70015000D01*
X106200000Y-75225000D02*
X113000000Y-75225000D01*
X105440000Y-75985000D02*
X120560000Y-75985000D01*
X108750000Y-70025000D02*
X108750000Y-70775000D01*
X107250000Y-70025000D02*
X105450000Y-70025000D01*
X105150000Y-69725000D02*
X105150000Y-70975000D01*
X105450000Y-70775000D02*
X107250000Y-70775000D01*
X119800000Y-75225000D02*
X113000000Y-75225000D01*
X120550000Y-72275000D02*
X119800000Y-72275000D01*
X105450000Y-70025000D02*
X105450000Y-70775000D01*
X105450000Y-72275000D02*
X106200000Y-72275000D01*
X117250000Y-70775000D02*
X117250000Y-70025000D01*
%TO.C,J1*%
X105150000Y-51725000D02*
X105150000Y-52975000D01*
X107250000Y-52025000D02*
X105450000Y-52025000D01*
X120550000Y-54275000D02*
X119800000Y-54275000D01*
X108750000Y-52775000D02*
X117250000Y-52775000D01*
X120550000Y-52775000D02*
X120550000Y-52025000D01*
X105440000Y-52015000D02*
X105440000Y-57985000D01*
X105440000Y-57985000D02*
X120560000Y-57985000D01*
X119800000Y-57225000D02*
X113000000Y-57225000D01*
X106200000Y-57225000D02*
X113000000Y-57225000D01*
X118750000Y-52775000D02*
X120550000Y-52775000D01*
X105450000Y-52025000D02*
X105450000Y-52775000D01*
X120560000Y-57985000D02*
X120560000Y-52015000D01*
X108750000Y-52025000D02*
X108750000Y-52775000D01*
X117250000Y-52775000D02*
X117250000Y-52025000D01*
X107250000Y-52775000D02*
X107250000Y-52025000D01*
X106400000Y-51725000D02*
X105150000Y-51725000D01*
X120560000Y-52015000D02*
X105440000Y-52015000D01*
X119800000Y-54275000D02*
X119800000Y-57225000D01*
X105450000Y-52775000D02*
X107250000Y-52775000D01*
X117250000Y-52025000D02*
X108750000Y-52025000D01*
X106200000Y-54275000D02*
X106200000Y-57225000D01*
X105450000Y-54275000D02*
X106200000Y-54275000D01*
X120550000Y-52025000D02*
X118750000Y-52025000D01*
X118750000Y-52025000D02*
X118750000Y-52775000D01*
%TO.C,D5*%
X127540000Y-135045000D02*
X127540000Y-131955000D01*
X121990000Y-133499538D02*
G75*
G03*
X127540000Y-135044830I2990000J-462D01*
G01*
X127540000Y-131955170D02*
G75*
G03*
X121990000Y-133500462I-2560000J-1544830D01*
G01*
X127480000Y-133500000D02*
G75*
G03*
X127480000Y-133500000I-2500000J0D01*
G01*
%TO.C,U3*%
X52739000Y-116887000D02*
X65439000Y-116887000D01*
X65439000Y-116887000D02*
X65439000Y-137207000D01*
X65439000Y-137207000D02*
X52739000Y-137207000D01*
X52739000Y-137207000D02*
X52739000Y-116887000D01*
%TO.C,D7*%
X127565000Y-122045000D02*
X127565000Y-118955000D01*
X122015000Y-120499538D02*
G75*
G03*
X127565000Y-122044830I2990000J-462D01*
G01*
X127565000Y-118955170D02*
G75*
G03*
X122015000Y-120500462I-2560000J-1544830D01*
G01*
X127505000Y-120500000D02*
G75*
G03*
X127505000Y-120500000I-2500000J0D01*
G01*
%TO.C,R18*%
X124995276Y-137477500D02*
X125504724Y-137477500D01*
X124995276Y-138522500D02*
X125504724Y-138522500D01*
%TO.C,R21*%
X124995276Y-108977500D02*
X125504724Y-108977500D01*
X124995276Y-110022500D02*
X125504724Y-110022500D01*
%TO.C,J4*%
X88440000Y-75985000D02*
X103560000Y-75985000D01*
X103550000Y-75975000D02*
X103550000Y-75225000D01*
X91750000Y-75225000D02*
X91750000Y-75975000D01*
X100250000Y-75975000D02*
X100250000Y-75225000D01*
X103850000Y-76275000D02*
X103850000Y-75025000D01*
X88450000Y-75225000D02*
X88450000Y-75975000D01*
X90250000Y-75225000D02*
X88450000Y-75225000D01*
X103550000Y-75225000D02*
X101750000Y-75225000D01*
X89200000Y-73725000D02*
X89200000Y-70775000D01*
X89200000Y-70775000D02*
X96000000Y-70775000D01*
X88450000Y-75975000D02*
X90250000Y-75975000D01*
X101750000Y-75225000D02*
X101750000Y-75975000D01*
X103560000Y-70015000D02*
X88440000Y-70015000D01*
X102800000Y-73725000D02*
X102800000Y-70775000D01*
X103560000Y-75985000D02*
X103560000Y-70015000D01*
X90250000Y-75975000D02*
X90250000Y-75225000D01*
X100250000Y-75225000D02*
X91750000Y-75225000D01*
X91750000Y-75975000D02*
X100250000Y-75975000D01*
X103550000Y-73725000D02*
X102800000Y-73725000D01*
X102600000Y-76275000D02*
X103850000Y-76275000D01*
X102800000Y-70775000D02*
X96000000Y-70775000D01*
X88440000Y-70015000D02*
X88440000Y-75985000D01*
X101750000Y-75975000D02*
X103550000Y-75975000D01*
X88450000Y-73725000D02*
X89200000Y-73725000D01*
%TO.C,G\u002A\u002A\u002A*%
G36*
X126266933Y-83282850D02*
G01*
X126104348Y-83282850D01*
X126104348Y-83043575D01*
X126105123Y-83022102D01*
X126227053Y-83022102D01*
X126230845Y-83138000D01*
X126246785Y-83201907D01*
X126281718Y-83222954D01*
X126342492Y-83210272D01*
X126362588Y-83202878D01*
X126391873Y-83174432D01*
X126407031Y-83109445D01*
X126411111Y-83003481D01*
X126409842Y-82902743D01*
X126401080Y-82848765D01*
X126377400Y-82826956D01*
X126331371Y-82822726D01*
X126319082Y-82822705D01*
X126227053Y-82822705D01*
X126227053Y-83022102D01*
X126105123Y-83022102D01*
X126109209Y-82908863D01*
X126122717Y-82812201D01*
X126141160Y-82767488D01*
X126191146Y-82746552D01*
X126278808Y-82733218D01*
X126340556Y-82730676D01*
X126503140Y-82730676D01*
X126503140Y-82969952D01*
X126498280Y-83104663D01*
X126484771Y-83201326D01*
X126466329Y-83246039D01*
X126416342Y-83266975D01*
X126328680Y-83280309D01*
X126281718Y-83282242D01*
X126266933Y-83282850D01*
G37*
G36*
X124323375Y-83313288D02*
G01*
X124376770Y-83354603D01*
X124461516Y-83434823D01*
X124479671Y-83452726D01*
X124571946Y-83544755D01*
X124627397Y-83604516D01*
X124652845Y-83642864D01*
X124655108Y-83670654D01*
X124641005Y-83698740D01*
X124637600Y-83704121D01*
X124605614Y-83706025D01*
X124548437Y-83670150D01*
X124477212Y-83608153D01*
X124403080Y-83531693D01*
X124337184Y-83452428D01*
X124290665Y-83382015D01*
X124274665Y-83332113D01*
X124276035Y-83325807D01*
X124292680Y-83305486D01*
X124323375Y-83313288D01*
G37*
G36*
X121729122Y-82727391D02*
G01*
X121746248Y-82798365D01*
X121752929Y-82896129D01*
X121749389Y-83003886D01*
X121735846Y-83104842D01*
X121712524Y-83182201D01*
X121694626Y-83209616D01*
X121667751Y-83232792D01*
X121651054Y-83229631D01*
X121641311Y-83190530D01*
X121635297Y-83105883D01*
X121631894Y-83022792D01*
X121628713Y-82876241D01*
X121633791Y-82780766D01*
X121649272Y-82726394D01*
X121677303Y-82703152D01*
X121701332Y-82700000D01*
X121729122Y-82727391D01*
G37*
G36*
X121009561Y-83261017D02*
G01*
X121012861Y-83160145D01*
X121101179Y-83160145D01*
X121288164Y-83160145D01*
X121288164Y-82757278D01*
X121203805Y-82766984D01*
X121157553Y-82776043D01*
X121131306Y-82799665D01*
X121118158Y-82852735D01*
X121111198Y-82950137D01*
X121110312Y-82968418D01*
X121101179Y-83160145D01*
X121012861Y-83160145D01*
X121018488Y-82988178D01*
X121027416Y-82715338D01*
X121219143Y-82706205D01*
X121410870Y-82697073D01*
X121410870Y-82942137D01*
X121407181Y-83059197D01*
X121397392Y-83151240D01*
X121383418Y-83202169D01*
X121379405Y-83206647D01*
X121333093Y-83220440D01*
X121247616Y-83235143D01*
X121178750Y-83243555D01*
X121101179Y-83251561D01*
X121009561Y-83261017D01*
G37*
G36*
X124365395Y-83249633D02*
G01*
X124303648Y-83252174D01*
X124141063Y-83252174D01*
X124141063Y-83160145D01*
X124263768Y-83160145D01*
X124450754Y-83160145D01*
X124441621Y-82968418D01*
X124434980Y-82863516D01*
X124423131Y-82805060D01*
X124399164Y-82778164D01*
X124356173Y-82767945D01*
X124348128Y-82766984D01*
X124263768Y-82757278D01*
X124263768Y-83160145D01*
X124141063Y-83160145D01*
X124141063Y-83012899D01*
X124145924Y-82878187D01*
X124159432Y-82781524D01*
X124177875Y-82736812D01*
X124227861Y-82715876D01*
X124315523Y-82702541D01*
X124377271Y-82700000D01*
X124539855Y-82700000D01*
X124539855Y-82939276D01*
X124534995Y-83073987D01*
X124521486Y-83170650D01*
X124503044Y-83215362D01*
X124453057Y-83236298D01*
X124450754Y-83236648D01*
X124365395Y-83249633D01*
G37*
G36*
X126813885Y-82737905D02*
G01*
X126830021Y-82762758D01*
X126837994Y-82822588D01*
X126840494Y-82928981D01*
X126840580Y-82967703D01*
X126835754Y-83103524D01*
X126822315Y-83200797D01*
X126803768Y-83246039D01*
X126764167Y-83276461D01*
X126738791Y-83268711D01*
X126725499Y-83216550D01*
X126722147Y-83113738D01*
X126724349Y-83014778D01*
X126730453Y-82883065D01*
X126739918Y-82800926D01*
X126755391Y-82756587D01*
X126779518Y-82738273D01*
X126786896Y-82736441D01*
X126813885Y-82737905D01*
G37*
G36*
X121012194Y-82385568D02*
G01*
X121013684Y-82346500D01*
X121203743Y-82346500D01*
X121203855Y-82379960D01*
X121204000Y-82380130D01*
X121235200Y-82381925D01*
X121321910Y-82384446D01*
X121458294Y-82387581D01*
X121638515Y-82391219D01*
X121856735Y-82395249D01*
X122107119Y-82399560D01*
X122383829Y-82404039D01*
X122681028Y-82408578D01*
X122749624Y-82409588D01*
X124287774Y-82432092D01*
X124308431Y-82338039D01*
X124356626Y-82228500D01*
X124446910Y-82111950D01*
X124564295Y-82003881D01*
X124693793Y-81919786D01*
X124729300Y-81903023D01*
X124920000Y-81851984D01*
X125114308Y-81854879D01*
X125300917Y-81906812D01*
X125468516Y-82002888D01*
X125605797Y-82138208D01*
X125701451Y-82307878D01*
X125708431Y-82326946D01*
X125742234Y-82423913D01*
X128812978Y-82423913D01*
X128794302Y-82159270D01*
X128784230Y-82038222D01*
X128773390Y-81942432D01*
X128763600Y-81886937D01*
X128760432Y-81879433D01*
X128727423Y-81879778D01*
X128647494Y-81889546D01*
X128533959Y-81906507D01*
X128400133Y-81928435D01*
X128259332Y-81953101D01*
X128124871Y-81978276D01*
X128010064Y-82001732D01*
X127956434Y-82013985D01*
X127915376Y-82016335D01*
X127891233Y-81988592D01*
X127874513Y-81917020D01*
X127870154Y-81889166D01*
X127829916Y-81708474D01*
X127762865Y-81500085D01*
X127677684Y-81285712D01*
X127583060Y-81087064D01*
X127487678Y-80925854D01*
X127480849Y-80916038D01*
X127440816Y-80850253D01*
X127423451Y-80803854D01*
X127423430Y-80802963D01*
X127447766Y-80775325D01*
X127514354Y-80722121D01*
X127613566Y-80650532D01*
X127735770Y-80567741D01*
X127760870Y-80551287D01*
X127886467Y-80466677D01*
X127990859Y-80391179D01*
X128064393Y-80332166D01*
X128097412Y-80297007D01*
X128098309Y-80293678D01*
X128076649Y-80249254D01*
X128017477Y-80173061D01*
X127929505Y-80073668D01*
X127821448Y-79959648D01*
X127702018Y-79839570D01*
X127579929Y-79722007D01*
X127463893Y-79615528D01*
X127362624Y-79528706D01*
X127284834Y-79470110D01*
X127239237Y-79448313D01*
X127238923Y-79448309D01*
X127209577Y-79472049D01*
X127157603Y-79534791D01*
X127093379Y-79623823D01*
X127082406Y-79640036D01*
X127000238Y-79760917D01*
X126913569Y-79885864D01*
X126848486Y-79977602D01*
X126743141Y-80123440D01*
X126615472Y-80044023D01*
X126362473Y-79905631D01*
X126083611Y-79784993D01*
X125811035Y-79695916D01*
X125795535Y-79691865D01*
X125678447Y-79661132D01*
X125586727Y-79635895D01*
X125534514Y-79620096D01*
X125527795Y-79617248D01*
X125530329Y-79585983D01*
X125543599Y-79505973D01*
X125565568Y-79388483D01*
X125594200Y-79244775D01*
X125602023Y-79206733D01*
X125631455Y-79057385D01*
X125653687Y-78930474D01*
X125666898Y-78837583D01*
X125669266Y-78790296D01*
X125668036Y-78787037D01*
X125619683Y-78768246D01*
X125522798Y-78751962D01*
X125390171Y-78738857D01*
X125234594Y-78729601D01*
X125068859Y-78724866D01*
X124905759Y-78725323D01*
X124758084Y-78731643D01*
X124702140Y-78736367D01*
X124569052Y-78750625D01*
X124460861Y-78763722D01*
X124390696Y-78773977D01*
X124370896Y-78778817D01*
X124372845Y-78810922D01*
X124385526Y-78890866D01*
X124406830Y-79006494D01*
X124433801Y-79141546D01*
X124471006Y-79320173D01*
X124494845Y-79448168D01*
X124501991Y-79535427D01*
X124489117Y-79591843D01*
X124452896Y-79627312D01*
X124390000Y-79651728D01*
X124297103Y-79674986D01*
X124250651Y-79686217D01*
X124074713Y-79739190D01*
X123875997Y-79814170D01*
X123676374Y-79901714D01*
X123497714Y-79992380D01*
X123387402Y-80058909D01*
X123293281Y-80122150D01*
X123054014Y-79770379D01*
X122814746Y-79418607D01*
X122718665Y-79486882D01*
X122627212Y-79558352D01*
X122516980Y-79654417D01*
X122396506Y-79766431D01*
X122274332Y-79885750D01*
X122158996Y-80003728D01*
X122059038Y-80111720D01*
X121982997Y-80201081D01*
X121939414Y-80263166D01*
X121932367Y-80282908D01*
X121956525Y-80307747D01*
X122022780Y-80359201D01*
X122121809Y-80430418D01*
X122244287Y-80514549D01*
X122282755Y-80540313D01*
X122633142Y-80773674D01*
X122525955Y-80941234D01*
X122399537Y-81168824D01*
X122286030Y-81429829D01*
X122197224Y-81696322D01*
X122180452Y-81759772D01*
X122141625Y-81891473D01*
X122105902Y-81962593D01*
X122082775Y-81976113D01*
X122037325Y-81969628D01*
X121944782Y-81954125D01*
X121818359Y-81931884D01*
X121671265Y-81905187D01*
X121662378Y-81903550D01*
X121518201Y-81878034D01*
X121397467Y-81858683D01*
X121312053Y-81847253D01*
X121273840Y-81845505D01*
X121273081Y-81845921D01*
X121264299Y-81879147D01*
X121251444Y-81955360D01*
X121236740Y-82057382D01*
X121222408Y-82168031D01*
X121210668Y-82270130D01*
X121203743Y-82346500D01*
X121013684Y-82346500D01*
X121016062Y-82284164D01*
X121026353Y-82155788D01*
X121041231Y-82014771D01*
X121058860Y-81875446D01*
X121077404Y-81752144D01*
X121095026Y-81659198D01*
X121109891Y-81610939D01*
X121111760Y-81608450D01*
X121144301Y-81609784D01*
X121225682Y-81621264D01*
X121344569Y-81641082D01*
X121489625Y-81667431D01*
X121531558Y-81675383D01*
X121682860Y-81702256D01*
X121812332Y-81721342D01*
X121908237Y-81731203D01*
X121958839Y-81730401D01*
X121963113Y-81728284D01*
X121982803Y-81689088D01*
X122015113Y-81606844D01*
X122054104Y-81496981D01*
X122067321Y-81457609D01*
X122121576Y-81309846D01*
X122187112Y-81154318D01*
X122250138Y-81023667D01*
X122252669Y-81018941D01*
X122356798Y-80825683D01*
X122006539Y-80592408D01*
X121879089Y-80506052D01*
X121772373Y-80430939D01*
X121695706Y-80373841D01*
X121658404Y-80341531D01*
X121656280Y-80337764D01*
X121675638Y-80296541D01*
X121728068Y-80220593D01*
X121805110Y-80120354D01*
X121898299Y-80006253D01*
X121999174Y-79888721D01*
X122099273Y-79778190D01*
X122168447Y-79706459D01*
X122295141Y-79587215D01*
X122444546Y-79457557D01*
X122588657Y-79341593D01*
X122618208Y-79319319D01*
X122860410Y-79139737D01*
X123103587Y-79492936D01*
X123346763Y-79846135D01*
X123582862Y-79727812D01*
X123730596Y-79659571D01*
X123895374Y-79592226D01*
X124042706Y-79539833D01*
X124049034Y-79537846D01*
X124158205Y-79503609D01*
X124241732Y-79476958D01*
X124284912Y-79462597D01*
X124287647Y-79461497D01*
X124284755Y-79431543D01*
X124270939Y-79352563D01*
X124248263Y-79235491D01*
X124218793Y-79091262D01*
X124208132Y-79040530D01*
X124120075Y-78624268D01*
X124184253Y-78608905D01*
X124416545Y-78567186D01*
X124690570Y-78541271D01*
X124988447Y-78532462D01*
X125180569Y-78536293D01*
X125381936Y-78547431D01*
X125563590Y-78563471D01*
X125716797Y-78583122D01*
X125832823Y-78605093D01*
X125902932Y-78628093D01*
X125920132Y-78645598D01*
X125914041Y-78681946D01*
X125897572Y-78765804D01*
X125873235Y-78884700D01*
X125843540Y-79026160D01*
X125843442Y-79026623D01*
X125813561Y-79170818D01*
X125789142Y-79295181D01*
X125772740Y-79386235D01*
X125766908Y-79430096D01*
X125795582Y-79462825D01*
X125875636Y-79502119D01*
X125973974Y-79536215D01*
X126101916Y-79580740D01*
X126255464Y-79642119D01*
X126405885Y-79708723D01*
X126437882Y-79723977D01*
X126558889Y-79781598D01*
X126637217Y-79814392D01*
X126684944Y-79825204D01*
X126714147Y-79816883D01*
X126735517Y-79794134D01*
X126768974Y-79747279D01*
X126827923Y-79662605D01*
X126903397Y-79553057D01*
X126969495Y-79456429D01*
X127049277Y-79342841D01*
X127118296Y-79250877D01*
X127168508Y-79190862D01*
X127190570Y-79172673D01*
X127247998Y-79194075D01*
X127337885Y-79254548D01*
X127452718Y-79346619D01*
X127584985Y-79462815D01*
X127727172Y-79595663D01*
X127871768Y-79737690D01*
X128011259Y-79881421D01*
X128138133Y-80019384D01*
X128244878Y-80144106D01*
X128323980Y-80248113D01*
X128367926Y-80323933D01*
X128374396Y-80350297D01*
X128349910Y-80380408D01*
X128282818Y-80435609D01*
X128182666Y-80508679D01*
X128059003Y-80592396D01*
X128025724Y-80614019D01*
X127677051Y-80838710D01*
X127793348Y-81066117D01*
X127862029Y-81213138D01*
X127929684Y-81378759D01*
X127980970Y-81525011D01*
X128018479Y-81635636D01*
X128053882Y-81721078D01*
X128080710Y-81766155D01*
X128085032Y-81769235D01*
X128125959Y-81768376D01*
X128214616Y-81756972D01*
X128338647Y-81736886D01*
X128485698Y-81709979D01*
X128512564Y-81704770D01*
X128660089Y-81676980D01*
X128784478Y-81655552D01*
X128874162Y-81642329D01*
X128917571Y-81639157D01*
X128919664Y-81639873D01*
X128931962Y-81678139D01*
X128947647Y-81763507D01*
X128965008Y-81881940D01*
X128982333Y-82019399D01*
X128997914Y-82161847D01*
X129010039Y-82295246D01*
X129016997Y-82405557D01*
X129018003Y-82446920D01*
X129018599Y-82638647D01*
X128578823Y-82638647D01*
X128449715Y-82638145D01*
X128268797Y-82636710D01*
X128045602Y-82634457D01*
X127789663Y-82631496D01*
X127510513Y-82627939D01*
X127217687Y-82623898D01*
X126920716Y-82619485D01*
X126845610Y-82618316D01*
X125552174Y-82597985D01*
X125552174Y-82525065D01*
X125530721Y-82423335D01*
X125475794Y-82308338D01*
X125401543Y-82205486D01*
X125345803Y-82154434D01*
X125220192Y-82084997D01*
X125084159Y-82054088D01*
X124979927Y-82050882D01*
X124808846Y-82082919D01*
X124662433Y-82167182D01*
X124548944Y-82296782D01*
X124476636Y-82464830D01*
X124474645Y-82472537D01*
X124440543Y-82607971D01*
X121012078Y-82607971D01*
X121012194Y-82385568D01*
G37*
G36*
X124902100Y-85732096D02*
G01*
X124805437Y-85718588D01*
X124760725Y-85700145D01*
X124740621Y-85650969D01*
X124735068Y-85614251D01*
X124785266Y-85614251D01*
X125184058Y-85614251D01*
X125184058Y-85430193D01*
X124785266Y-85430193D01*
X124785266Y-85614251D01*
X124735068Y-85614251D01*
X124727250Y-85562560D01*
X124723913Y-85485411D01*
X124723913Y-85307488D01*
X124951795Y-85307488D01*
X125096803Y-85312844D01*
X125191352Y-85334524D01*
X125245823Y-85380946D01*
X125270597Y-85460526D01*
X125276087Y-85570428D01*
X125276087Y-85736957D01*
X125036812Y-85736957D01*
X124902100Y-85732096D01*
G37*
G36*
X126597021Y-84184015D02*
G01*
X126596463Y-84221122D01*
X126550618Y-84287459D01*
X126457729Y-84386705D01*
X126445924Y-84398443D01*
X126345255Y-84492182D01*
X126274566Y-84542818D01*
X126226041Y-84555573D01*
X126214793Y-84552854D01*
X126194234Y-84536185D01*
X126201912Y-84505573D01*
X126243232Y-84452264D01*
X126323598Y-84367504D01*
X126338621Y-84352277D01*
X126425283Y-84269034D01*
X126498828Y-84206234D01*
X126546644Y-84174401D01*
X126554053Y-84172464D01*
X126597021Y-84184015D01*
G37*
G36*
X124902100Y-84566396D02*
G01*
X124805437Y-84552887D01*
X124760725Y-84534445D01*
X124739789Y-84484458D01*
X124726454Y-84396796D01*
X124725263Y-84367846D01*
X124815942Y-84367846D01*
X124826786Y-84418473D01*
X124870419Y-84446279D01*
X124930978Y-84459538D01*
X125032918Y-84472665D01*
X125124960Y-84478833D01*
X125130375Y-84478890D01*
X125190315Y-84470590D01*
X125212368Y-84432263D01*
X125214735Y-84387198D01*
X125214735Y-84295169D01*
X125015338Y-84295169D01*
X124908062Y-84296639D01*
X124848300Y-84304407D01*
X124822227Y-84323513D01*
X124816018Y-84358995D01*
X124815942Y-84367846D01*
X124725263Y-84367846D01*
X124723913Y-84335048D01*
X124723913Y-84172464D01*
X124981380Y-84172464D01*
X125117300Y-84174304D01*
X125203295Y-84186232D01*
X125250792Y-84217860D01*
X125271217Y-84278801D01*
X125275996Y-84378666D01*
X125276087Y-84420383D01*
X125276087Y-84571256D01*
X125036812Y-84571256D01*
X124902100Y-84566396D01*
G37*
G36*
X128071614Y-82737905D02*
G01*
X128087750Y-82762758D01*
X128095723Y-82822588D01*
X128098224Y-82928981D01*
X128098309Y-82967703D01*
X128093484Y-83103524D01*
X128080044Y-83200797D01*
X128061498Y-83246039D01*
X128021896Y-83276461D01*
X127996521Y-83268711D01*
X127983228Y-83216550D01*
X127979876Y-83113738D01*
X127982079Y-83014778D01*
X127988182Y-82883065D01*
X127997647Y-82800926D01*
X128013121Y-82756587D01*
X128037248Y-82738273D01*
X128044626Y-82736441D01*
X128071614Y-82737905D01*
G37*
G36*
X123414489Y-83247754D02*
G01*
X123362819Y-83245981D01*
X123205435Y-83236836D01*
X123202347Y-83160145D01*
X123312802Y-83160145D01*
X123496860Y-83160145D01*
X123496860Y-82761353D01*
X123312802Y-82761353D01*
X123312802Y-83160145D01*
X123202347Y-83160145D01*
X123196365Y-83011595D01*
X123194814Y-82870784D01*
X123209427Y-82780027D01*
X123248628Y-82728517D01*
X123320842Y-82705446D01*
X123434495Y-82700004D01*
X123439264Y-82700000D01*
X123619565Y-82700000D01*
X123619565Y-82927881D01*
X123615196Y-83063125D01*
X123600581Y-83150178D01*
X123573457Y-83201678D01*
X123569884Y-83205444D01*
X123511056Y-83237990D01*
X123496860Y-83239425D01*
X123414489Y-83247754D01*
G37*
G36*
X123469481Y-84133445D02*
G01*
X123516250Y-84167259D01*
X123589341Y-84239234D01*
X123659100Y-84313689D01*
X123746797Y-84414183D01*
X123792325Y-84482542D01*
X123799727Y-84526985D01*
X123776971Y-84553431D01*
X123741470Y-84542751D01*
X123681678Y-84495240D01*
X123609201Y-84423821D01*
X123535644Y-84341419D01*
X123472614Y-84260957D01*
X123431715Y-84195359D01*
X123423416Y-84159727D01*
X123441161Y-84132648D01*
X123469481Y-84133445D01*
G37*
G36*
X127742291Y-82748352D02*
G01*
X127754401Y-82799667D01*
X127760064Y-82899940D01*
X127760870Y-82983756D01*
X127758589Y-83104177D01*
X127752513Y-83199982D01*
X127743794Y-83255484D01*
X127740419Y-83262400D01*
X127706586Y-83282357D01*
X127685168Y-83257877D01*
X127674822Y-83183893D01*
X127674203Y-83055339D01*
X127675316Y-83016908D01*
X127684745Y-82864442D01*
X127700984Y-82771803D01*
X127722524Y-82738265D01*
X127742291Y-82748352D01*
G37*
G36*
X125770024Y-83356525D02*
G01*
X125768309Y-83395396D01*
X125719250Y-83463670D01*
X125621451Y-83564204D01*
X125615194Y-83570188D01*
X125506654Y-83666504D01*
X125430619Y-83716550D01*
X125383290Y-83723349D01*
X125365703Y-83705534D01*
X125378720Y-83670618D01*
X125427497Y-83610511D01*
X125510360Y-83524016D01*
X125597022Y-83440773D01*
X125670567Y-83377973D01*
X125718384Y-83346141D01*
X125725792Y-83344203D01*
X125770024Y-83356525D01*
G37*
G36*
X122027603Y-82707064D02*
G01*
X122043635Y-82730783D01*
X122051908Y-82788163D01*
X122054846Y-82890464D01*
X122055073Y-82955218D01*
X122052702Y-83088669D01*
X122044309Y-83172228D01*
X122027971Y-83217214D01*
X122007897Y-83233037D01*
X121971046Y-83236560D01*
X121948097Y-83207566D01*
X121937099Y-83137887D01*
X121936102Y-83019352D01*
X121938596Y-82942865D01*
X121945838Y-82822737D01*
X121957844Y-82751366D01*
X121977945Y-82716173D01*
X122001389Y-82705745D01*
X122027603Y-82707064D01*
G37*
G36*
X128393249Y-82758445D02*
G01*
X128401189Y-82830526D01*
X128404545Y-82930077D01*
X128403510Y-83040261D01*
X128398275Y-83144236D01*
X128389034Y-83225164D01*
X128375978Y-83266204D01*
X128374396Y-83267512D01*
X128330320Y-83276255D01*
X128301320Y-83235481D01*
X128285909Y-83141302D01*
X128282367Y-83026426D01*
X128290284Y-82874856D01*
X128314872Y-82778878D01*
X128357390Y-82734699D01*
X128380532Y-82730676D01*
X128393249Y-82758445D01*
G37*
G36*
X125115150Y-86168957D02*
G01*
X125198694Y-86177777D01*
X125242976Y-86194716D01*
X125256504Y-86212440D01*
X125256292Y-86234567D01*
X125228311Y-86248389D01*
X125162488Y-86255706D01*
X125048749Y-86258318D01*
X124999037Y-86258454D01*
X124864614Y-86256651D01*
X124780972Y-86250071D01*
X124737612Y-86236959D01*
X124724039Y-86215558D01*
X124723913Y-86212440D01*
X124735132Y-86189310D01*
X124775943Y-86175210D01*
X124857079Y-86168223D01*
X124981380Y-86166425D01*
X125115150Y-86168957D01*
G37*
G36*
X127217899Y-83282850D02*
G01*
X127055314Y-83282850D01*
X127055314Y-83025384D01*
X127055358Y-83022102D01*
X127147343Y-83022102D01*
X127148849Y-83129411D01*
X127156673Y-83189194D01*
X127175772Y-83215265D01*
X127211104Y-83221434D01*
X127218921Y-83221498D01*
X127277438Y-83215941D01*
X127311253Y-83190624D01*
X127327002Y-83132572D01*
X127331324Y-83028814D01*
X127331401Y-83001651D01*
X127330094Y-82901554D01*
X127321143Y-82848144D01*
X127297007Y-82826754D01*
X127250142Y-82822720D01*
X127239372Y-82822705D01*
X127147343Y-82822705D01*
X127147343Y-83022102D01*
X127055358Y-83022102D01*
X127057154Y-82889464D01*
X127069082Y-82803469D01*
X127100710Y-82755972D01*
X127161651Y-82735547D01*
X127261517Y-82730768D01*
X127303234Y-82730676D01*
X127454106Y-82730676D01*
X127454106Y-82969952D01*
X127449246Y-83104663D01*
X127435737Y-83201326D01*
X127417295Y-83246039D01*
X127367309Y-83266975D01*
X127279646Y-83280309D01*
X127218921Y-83282808D01*
X127217899Y-83282850D01*
G37*
G36*
X122431769Y-85174470D02*
G01*
X122487479Y-85228573D01*
X122564284Y-85305935D01*
X122588263Y-85330495D01*
X122686784Y-85436932D01*
X122742082Y-85511375D01*
X122758114Y-85561049D01*
X122738840Y-85593179D01*
X122733976Y-85596426D01*
X122698417Y-85585779D01*
X122638604Y-85538272D01*
X122566136Y-85466831D01*
X122492610Y-85384384D01*
X122429624Y-85303857D01*
X122388776Y-85238178D01*
X122380520Y-85202465D01*
X122400897Y-85160734D01*
X122407869Y-85154106D01*
X122431769Y-85174470D01*
G37*
G36*
X124047289Y-83589375D02*
G01*
X124100684Y-83630690D01*
X124185429Y-83710910D01*
X124203584Y-83728813D01*
X124295859Y-83820842D01*
X124351310Y-83880603D01*
X124376758Y-83918951D01*
X124379021Y-83946741D01*
X124364918Y-83974827D01*
X124361513Y-83980208D01*
X124329527Y-83982112D01*
X124272350Y-83946237D01*
X124201125Y-83884240D01*
X124126993Y-83807780D01*
X124061097Y-83728515D01*
X124014578Y-83658102D01*
X123998578Y-83608200D01*
X123999948Y-83601894D01*
X124016593Y-83581573D01*
X124047289Y-83589375D01*
G37*
G36*
X125159687Y-83741052D02*
G01*
X125053014Y-83742029D01*
X124943149Y-83737953D01*
X124849377Y-83729172D01*
X124790984Y-83716037D01*
X124786116Y-83713493D01*
X124755949Y-83665336D01*
X124749492Y-83620290D01*
X124815942Y-83620290D01*
X125214735Y-83620290D01*
X125214735Y-83436232D01*
X124815942Y-83436232D01*
X124815942Y-83620290D01*
X124749492Y-83620290D01*
X124741672Y-83565735D01*
X124740101Y-83506898D01*
X124739251Y-83328865D01*
X124969324Y-83319684D01*
X125090288Y-83316827D01*
X125166339Y-83322313D01*
X125213709Y-83339405D01*
X125248626Y-83371370D01*
X125253080Y-83376766D01*
X125283527Y-83441975D01*
X125302718Y-83534203D01*
X125308307Y-83629041D01*
X125297948Y-83702081D01*
X125286313Y-83722544D01*
X125243881Y-83734674D01*
X125214735Y-83736882D01*
X125159687Y-83741052D01*
G37*
G36*
X127666818Y-85226000D02*
G01*
X127668841Y-85239427D01*
X127648430Y-85270569D01*
X127594051Y-85332703D01*
X127515978Y-85414321D01*
X127485071Y-85445246D01*
X127389913Y-85535633D01*
X127326344Y-85585275D01*
X127285770Y-85599791D01*
X127263957Y-85589754D01*
X127253631Y-85560733D01*
X127274791Y-85515915D01*
X127333157Y-85446177D01*
X127392995Y-85383934D01*
X127490573Y-85294652D01*
X127574370Y-85235618D01*
X127635934Y-85211258D01*
X127666818Y-85226000D01*
G37*
G36*
X122343257Y-82717676D02*
G01*
X122355368Y-82768990D01*
X122361030Y-82869264D01*
X122361836Y-82953080D01*
X122359555Y-83073501D01*
X122353479Y-83169306D01*
X122344760Y-83224808D01*
X122341385Y-83231723D01*
X122307552Y-83251681D01*
X122286134Y-83227201D01*
X122275788Y-83153217D01*
X122275169Y-83024663D01*
X122276282Y-82986232D01*
X122285712Y-82833765D01*
X122301950Y-82741126D01*
X122323491Y-82707588D01*
X122343257Y-82717676D01*
G37*
G36*
X124902100Y-85149246D02*
G01*
X124805437Y-85135737D01*
X124760725Y-85117295D01*
X124739789Y-85067309D01*
X124734327Y-85031401D01*
X124785266Y-85031401D01*
X125218810Y-85031401D01*
X125209103Y-84947041D01*
X125200647Y-84902180D01*
X125178719Y-84876100D01*
X125129046Y-84862650D01*
X125037355Y-84855676D01*
X124992331Y-84853611D01*
X124785266Y-84844540D01*
X124785266Y-85031401D01*
X124734327Y-85031401D01*
X124726454Y-84979646D01*
X124723913Y-84917899D01*
X124723913Y-84755314D01*
X124981380Y-84755314D01*
X125117300Y-84757154D01*
X125203295Y-84769082D01*
X125250792Y-84800710D01*
X125271217Y-84861651D01*
X125275996Y-84961517D01*
X125276087Y-85003234D01*
X125276087Y-85154106D01*
X125036812Y-85154106D01*
X124902100Y-85149246D01*
G37*
G36*
X123776227Y-83866676D02*
G01*
X123834888Y-83914278D01*
X123899074Y-83975320D01*
X124004370Y-84082380D01*
X124067030Y-84158017D01*
X124091725Y-84209872D01*
X124083130Y-84245587D01*
X124071397Y-84257081D01*
X124032532Y-84252403D01*
X123970939Y-84209622D01*
X123898206Y-84141493D01*
X123825918Y-84060772D01*
X123765663Y-83980214D01*
X123729027Y-83912575D01*
X123724803Y-83875527D01*
X123742610Y-83855521D01*
X123776227Y-83866676D01*
G37*
G36*
X128770680Y-83282850D02*
G01*
X128619807Y-83282850D01*
X128619807Y-83038519D01*
X128620296Y-83022102D01*
X128742512Y-83022102D01*
X128744018Y-83129411D01*
X128751842Y-83189194D01*
X128770941Y-83215265D01*
X128806273Y-83221434D01*
X128814090Y-83221498D01*
X128872607Y-83215941D01*
X128906422Y-83190624D01*
X128922171Y-83132572D01*
X128926493Y-83028814D01*
X128926570Y-83001651D01*
X128925263Y-82901554D01*
X128916312Y-82848144D01*
X128892176Y-82826754D01*
X128845311Y-82822720D01*
X128834541Y-82822705D01*
X128742512Y-82822705D01*
X128742512Y-83022102D01*
X128620296Y-83022102D01*
X128623975Y-82898520D01*
X128642619Y-82808691D01*
X128684945Y-82758078D01*
X128760161Y-82735725D01*
X128877475Y-82730677D01*
X128878539Y-82730676D01*
X129018599Y-82730676D01*
X129018599Y-82988143D01*
X129016318Y-83120088D01*
X129008101Y-83202522D01*
X128991888Y-83247165D01*
X128970076Y-83264230D01*
X128911731Y-83275270D01*
X128819396Y-83281946D01*
X128814090Y-83282044D01*
X128770680Y-83282850D01*
G37*
G36*
X123274028Y-85067323D02*
G01*
X123109357Y-84904697D01*
X123029514Y-84818787D01*
X122971001Y-84742371D01*
X122945076Y-84690391D01*
X122944686Y-84686152D01*
X122958434Y-84650085D01*
X123036281Y-84650085D01*
X123173676Y-84784928D01*
X123249382Y-84857520D01*
X123296302Y-84892576D01*
X123329200Y-84895778D01*
X123362836Y-84872809D01*
X123374607Y-84862272D01*
X123438144Y-84804772D01*
X123299006Y-84665635D01*
X123159869Y-84526497D01*
X123036281Y-84650085D01*
X122958434Y-84650085D01*
X122964614Y-84633871D01*
X123015916Y-84558564D01*
X123063385Y-84502981D01*
X123182085Y-84375730D01*
X123353692Y-84557853D01*
X123433850Y-84647791D01*
X123494309Y-84724882D01*
X123524708Y-84775615D01*
X123526418Y-84783071D01*
X123506172Y-84826525D01*
X123452776Y-84893359D01*
X123400782Y-84946745D01*
X123329200Y-85014839D01*
X123274028Y-85067323D01*
G37*
G36*
X127678963Y-86005508D02*
G01*
X127606729Y-85943812D01*
X127546751Y-85883777D01*
X127529549Y-85859214D01*
X127624082Y-85859214D01*
X127692259Y-85927390D01*
X127760436Y-85995567D01*
X127898696Y-85859875D01*
X127970587Y-85786009D01*
X128020584Y-85728314D01*
X128036957Y-85701633D01*
X128014542Y-85669280D01*
X127968520Y-85631148D01*
X127928651Y-85607838D01*
X127893377Y-85608255D01*
X127847818Y-85638888D01*
X127777095Y-85706231D01*
X127762082Y-85721213D01*
X127624082Y-85859214D01*
X127529549Y-85859214D01*
X127516432Y-85840483D01*
X127515459Y-85835194D01*
X127536747Y-85799664D01*
X127591381Y-85738094D01*
X127665516Y-85663652D01*
X127745308Y-85589506D01*
X127816912Y-85528821D01*
X127866483Y-85494766D01*
X127876782Y-85491546D01*
X127916963Y-85510497D01*
X127981891Y-85557674D01*
X128054624Y-85618564D01*
X128118223Y-85678653D01*
X128155747Y-85723428D01*
X128159662Y-85733905D01*
X128139352Y-85763863D01*
X128085726Y-85824094D01*
X128009737Y-85902396D01*
X127997647Y-85914393D01*
X127913030Y-85992187D01*
X127840252Y-86048839D01*
X127793668Y-86073314D01*
X127790581Y-86073566D01*
X127760436Y-86060176D01*
X127746048Y-86053785D01*
X127678963Y-86005508D01*
G37*
G36*
X122217854Y-86108622D02*
G01*
X122059773Y-85935655D01*
X121983571Y-85845714D01*
X121927509Y-85767033D01*
X121902184Y-85714736D01*
X121901691Y-85710034D01*
X121916016Y-85676053D01*
X121979638Y-85676053D01*
X122123404Y-85819819D01*
X122200898Y-85895737D01*
X122249256Y-85933896D01*
X122282515Y-85940129D01*
X122314715Y-85920269D01*
X122330811Y-85905992D01*
X122394450Y-85848399D01*
X122248773Y-85700497D01*
X122103095Y-85552595D01*
X122041366Y-85614324D01*
X121979638Y-85676053D01*
X121916016Y-85676053D01*
X121922499Y-85660675D01*
X121976083Y-85589299D01*
X122026044Y-85536117D01*
X122150398Y-85414855D01*
X122317469Y-85588546D01*
X122396689Y-85675999D01*
X122455592Y-85750728D01*
X122483582Y-85799033D01*
X122484541Y-85804563D01*
X122463950Y-85847297D01*
X122410523Y-85915084D01*
X122351198Y-85977755D01*
X122282515Y-86045162D01*
X122217854Y-86108622D01*
G37*
G36*
X127390731Y-84949913D02*
G01*
X127392754Y-84963340D01*
X127372344Y-84994482D01*
X127317964Y-85056616D01*
X127239891Y-85138234D01*
X127208984Y-85169159D01*
X127113826Y-85259546D01*
X127050257Y-85309188D01*
X127009683Y-85323704D01*
X126987870Y-85313667D01*
X126977544Y-85284646D01*
X126998705Y-85239828D01*
X127057071Y-85170091D01*
X127116908Y-85107847D01*
X127214487Y-85018565D01*
X127298283Y-84959531D01*
X127359847Y-84935171D01*
X127390731Y-84949913D01*
G37*
G36*
X125104547Y-85892632D02*
G01*
X125191677Y-85900657D01*
X125239202Y-85916132D01*
X125256504Y-85936353D01*
X125256291Y-85958588D01*
X125228155Y-85972429D01*
X125161982Y-85979707D01*
X125047659Y-85982253D01*
X125002319Y-85982367D01*
X124864777Y-85980074D01*
X124777647Y-85972049D01*
X124730122Y-85956573D01*
X124712820Y-85936353D01*
X124713033Y-85914118D01*
X124741169Y-85900277D01*
X124807342Y-85892999D01*
X124921665Y-85890453D01*
X124967005Y-85890338D01*
X125104547Y-85892632D01*
G37*
G36*
X125490821Y-83025384D02*
G01*
X125492661Y-82889464D01*
X125504589Y-82803469D01*
X125536218Y-82755972D01*
X125597158Y-82735547D01*
X125697024Y-82730768D01*
X125738741Y-82730676D01*
X125889614Y-82730676D01*
X125889614Y-82969952D01*
X125884753Y-83104663D01*
X125871245Y-83201326D01*
X125852802Y-83246039D01*
X125802816Y-83266975D01*
X125715154Y-83280309D01*
X125653406Y-83282850D01*
X125490821Y-83282850D01*
X125490821Y-83190821D01*
X125579923Y-83190821D01*
X125766908Y-83190821D01*
X125766908Y-82787954D01*
X125682549Y-82797661D01*
X125636297Y-82806719D01*
X125610050Y-82830341D01*
X125596901Y-82883411D01*
X125589942Y-82980813D01*
X125589056Y-82999094D01*
X125579923Y-83190821D01*
X125490821Y-83190821D01*
X125490821Y-83025384D01*
G37*
G36*
X122733592Y-84910790D02*
G01*
X122799908Y-84966020D01*
X122866900Y-85030353D01*
X122974434Y-85148033D01*
X123029028Y-85236845D01*
X123031251Y-85297943D01*
X123009498Y-85320689D01*
X122978346Y-85306987D01*
X122918915Y-85255880D01*
X122842127Y-85177159D01*
X122812468Y-85144091D01*
X122723161Y-85036302D01*
X122675670Y-84962599D01*
X122665975Y-84916288D01*
X122669870Y-84906677D01*
X122693071Y-84892782D01*
X122733592Y-84910790D01*
G37*
G36*
X123914505Y-82727769D02*
G01*
X123922445Y-82799849D01*
X123925801Y-82899401D01*
X123924766Y-83009585D01*
X123919531Y-83113560D01*
X123910290Y-83194488D01*
X123897235Y-83235527D01*
X123895652Y-83236836D01*
X123851577Y-83245579D01*
X123822576Y-83204805D01*
X123807165Y-83110625D01*
X123803623Y-82995750D01*
X123811540Y-82844180D01*
X123836128Y-82748202D01*
X123878646Y-82704022D01*
X123901788Y-82700000D01*
X123914505Y-82727769D01*
G37*
G36*
X126320934Y-83907929D02*
G01*
X126320376Y-83945035D01*
X126274531Y-84011372D01*
X126181642Y-84110618D01*
X126169838Y-84122356D01*
X126069168Y-84216095D01*
X125998479Y-84266731D01*
X125949954Y-84279486D01*
X125938706Y-84276767D01*
X125918147Y-84260098D01*
X125925825Y-84229486D01*
X125967145Y-84176177D01*
X126047511Y-84091417D01*
X126062534Y-84076190D01*
X126149196Y-83992947D01*
X126222741Y-83930147D01*
X126270557Y-83898314D01*
X126277966Y-83896377D01*
X126320934Y-83907929D01*
G37*
G36*
X122842704Y-83241355D02*
G01*
X122746530Y-83247377D01*
X122721111Y-83246212D01*
X122591908Y-83236836D01*
X122588820Y-83160145D01*
X122699276Y-83160145D01*
X122883334Y-83160145D01*
X122883334Y-82761353D01*
X122699276Y-82761353D01*
X122699276Y-83160145D01*
X122588820Y-83160145D01*
X122582838Y-83011595D01*
X122581469Y-82870592D01*
X122596242Y-82779653D01*
X122634987Y-82728058D01*
X122705536Y-82705083D01*
X122810399Y-82700000D01*
X122975363Y-82700000D01*
X122975363Y-82944331D01*
X122973532Y-83069117D01*
X122965906Y-83146817D01*
X122949287Y-83191644D01*
X122920476Y-83217810D01*
X122912838Y-83222125D01*
X122883334Y-83230215D01*
X122842704Y-83241355D01*
G37*
G36*
X126046111Y-83632612D02*
G01*
X126044396Y-83671483D01*
X125995337Y-83739757D01*
X125897538Y-83840291D01*
X125891281Y-83846275D01*
X125782741Y-83942591D01*
X125706706Y-83992637D01*
X125659377Y-83999436D01*
X125641790Y-83981621D01*
X125654807Y-83946705D01*
X125703584Y-83886598D01*
X125786447Y-83800103D01*
X125873109Y-83716860D01*
X125946654Y-83654060D01*
X125994471Y-83622227D01*
X126001879Y-83620290D01*
X126046111Y-83632612D01*
G37*
G36*
X124872406Y-86837689D02*
G01*
X124778842Y-86821105D01*
X124724977Y-86782948D01*
X124700060Y-86714610D01*
X124694299Y-86622736D01*
X124785266Y-86622736D01*
X124789366Y-86682889D01*
X124813088Y-86710605D01*
X124873563Y-86718538D01*
X124915640Y-86719018D01*
X125015776Y-86723650D01*
X125100528Y-86734607D01*
X125115036Y-86737934D01*
X125163016Y-86743081D01*
X125181529Y-86712663D01*
X125184058Y-86660824D01*
X125178072Y-86595834D01*
X125147483Y-86569800D01*
X125080526Y-86565218D01*
X124973759Y-86559047D01*
X124881129Y-86546045D01*
X124815100Y-86537684D01*
X124789485Y-86559771D01*
X124785266Y-86622736D01*
X124694299Y-86622736D01*
X124693343Y-86607487D01*
X124693237Y-86582572D01*
X124693237Y-86442512D01*
X124952906Y-86442512D01*
X125096918Y-86446128D01*
X125190482Y-86462711D01*
X125244348Y-86500869D01*
X125269264Y-86569207D01*
X125275981Y-86676330D01*
X125276087Y-86701244D01*
X125276087Y-86841304D01*
X125016418Y-86841304D01*
X124872406Y-86837689D01*
G37*
G36*
X125131172Y-83897402D02*
G01*
X125212680Y-83902208D01*
X125256202Y-83913388D01*
X125273414Y-83933539D01*
X125276087Y-83957730D01*
X125270845Y-83988610D01*
X125246792Y-84006967D01*
X125191444Y-84016000D01*
X125092312Y-84018914D01*
X125036812Y-84019082D01*
X124882237Y-84012348D01*
X124782468Y-83991065D01*
X124732336Y-83953612D01*
X124723913Y-83920918D01*
X124752303Y-83910111D01*
X124828347Y-83901732D01*
X124938360Y-83896998D01*
X125000000Y-83896377D01*
X125131172Y-83897402D01*
G37*
G36*
X126614236Y-84961730D02*
G01*
X126562904Y-84918949D01*
X126449193Y-84816218D01*
X126581087Y-84816218D01*
X126717441Y-84952572D01*
X126855361Y-84817213D01*
X126993282Y-84681854D01*
X126925993Y-84610228D01*
X126858703Y-84538602D01*
X126581087Y-84816218D01*
X126449193Y-84816218D01*
X126438433Y-84806497D01*
X126615539Y-84627524D01*
X126702255Y-84544451D01*
X126776162Y-84481877D01*
X126824486Y-84450368D01*
X126831862Y-84448551D01*
X126872784Y-84467461D01*
X126938328Y-84514557D01*
X127011508Y-84575386D01*
X127075342Y-84635493D01*
X127112844Y-84680427D01*
X127116667Y-84690910D01*
X127096357Y-84720867D01*
X127042731Y-84781099D01*
X126966742Y-84859401D01*
X126954652Y-84871398D01*
X126868826Y-84949501D01*
X126793363Y-85006478D01*
X126743274Y-85031141D01*
X126740006Y-85031401D01*
X126717441Y-85022787D01*
X126688821Y-85011862D01*
X126614236Y-84961730D01*
G37*
%TO.C,J10*%
X72312000Y-147384000D02*
X73062000Y-147384000D01*
X70812000Y-130534000D02*
X67862000Y-130534000D01*
X72312000Y-133084000D02*
X72312000Y-144084000D01*
X67102000Y-147394000D02*
X73072000Y-147394000D01*
X73072000Y-129774000D02*
X67102000Y-129774000D01*
X73072000Y-147394000D02*
X73072000Y-129774000D01*
X73062000Y-129784000D02*
X72312000Y-129784000D01*
X73362000Y-130734000D02*
X73362000Y-129484000D01*
X72312000Y-129784000D02*
X72312000Y-131584000D01*
X70812000Y-129784000D02*
X70812000Y-130534000D01*
X73062000Y-144084000D02*
X73062000Y-133084000D01*
X73062000Y-145584000D02*
X72312000Y-145584000D01*
X73062000Y-133084000D02*
X72312000Y-133084000D01*
X72312000Y-144084000D02*
X73062000Y-144084000D01*
X67102000Y-129774000D02*
X67102000Y-147394000D01*
X73362000Y-129484000D02*
X72112000Y-129484000D01*
X70812000Y-146634000D02*
X67862000Y-146634000D01*
X67862000Y-146634000D02*
X67862000Y-138584000D01*
X73062000Y-147384000D02*
X73062000Y-145584000D01*
X73062000Y-131584000D02*
X73062000Y-129784000D01*
X70812000Y-147384000D02*
X70812000Y-146634000D01*
X72312000Y-145584000D02*
X72312000Y-147384000D01*
X72312000Y-131584000D02*
X73062000Y-131584000D01*
X67862000Y-130534000D02*
X67862000Y-138584000D01*
%TO.C,J5*%
X88450000Y-66225000D02*
X88450000Y-66975000D01*
X101750000Y-66225000D02*
X101750000Y-66975000D01*
X88440000Y-66985000D02*
X103560000Y-66985000D01*
X90250000Y-66975000D02*
X90250000Y-66225000D01*
X102800000Y-64725000D02*
X102800000Y-61775000D01*
X103850000Y-67275000D02*
X103850000Y-66025000D01*
X89200000Y-61775000D02*
X96000000Y-61775000D01*
X100250000Y-66975000D02*
X100250000Y-66225000D01*
X103550000Y-64725000D02*
X102800000Y-64725000D01*
X102600000Y-67275000D02*
X103850000Y-67275000D01*
X91750000Y-66975000D02*
X100250000Y-66975000D01*
X103550000Y-66975000D02*
X103550000Y-66225000D01*
X103560000Y-61015000D02*
X88440000Y-61015000D01*
X88450000Y-66975000D02*
X90250000Y-66975000D01*
X90250000Y-66225000D02*
X88450000Y-66225000D01*
X102800000Y-61775000D02*
X96000000Y-61775000D01*
X88440000Y-61015000D02*
X88440000Y-66985000D01*
X89200000Y-64725000D02*
X89200000Y-61775000D01*
X91750000Y-66225000D02*
X91750000Y-66975000D01*
X103550000Y-66225000D02*
X101750000Y-66225000D01*
X101750000Y-66975000D02*
X103550000Y-66975000D01*
X88450000Y-64725000D02*
X89200000Y-64725000D01*
X103560000Y-66985000D02*
X103560000Y-61015000D01*
X100250000Y-66225000D02*
X91750000Y-66225000D01*
%TO.C,J6*%
X100250000Y-57975000D02*
X100250000Y-57225000D01*
X103560000Y-52015000D02*
X88440000Y-52015000D01*
X103550000Y-57975000D02*
X103550000Y-57225000D01*
X89200000Y-52775000D02*
X96000000Y-52775000D01*
X102800000Y-52775000D02*
X96000000Y-52775000D01*
X88450000Y-57225000D02*
X88450000Y-57975000D01*
X103850000Y-58275000D02*
X103850000Y-57025000D01*
X103550000Y-55725000D02*
X102800000Y-55725000D01*
X103550000Y-57225000D02*
X101750000Y-57225000D01*
X101750000Y-57225000D02*
X101750000Y-57975000D01*
X90250000Y-57225000D02*
X88450000Y-57225000D01*
X91750000Y-57225000D02*
X91750000Y-57975000D01*
X89200000Y-55725000D02*
X89200000Y-52775000D01*
X88450000Y-57975000D02*
X90250000Y-57975000D01*
X88450000Y-55725000D02*
X89200000Y-55725000D01*
X88440000Y-52015000D02*
X88440000Y-57985000D01*
X102600000Y-58275000D02*
X103850000Y-58275000D01*
X90250000Y-57975000D02*
X90250000Y-57225000D01*
X88440000Y-57985000D02*
X103560000Y-57985000D01*
X91750000Y-57975000D02*
X100250000Y-57975000D01*
X101750000Y-57975000D02*
X103550000Y-57975000D01*
X102800000Y-55725000D02*
X102800000Y-52775000D01*
X100250000Y-57225000D02*
X91750000Y-57225000D01*
X103560000Y-57985000D02*
X103560000Y-52015000D01*
%TO.C,G\u002A\u002A\u002A*%
G36*
X121998476Y-60519759D02*
G01*
X128001525Y-60519759D01*
X128001525Y-77964104D01*
X121998476Y-77964104D01*
X121998476Y-77592948D01*
X122369632Y-77592948D01*
X126000509Y-77592948D01*
X126562646Y-77592948D01*
X127678780Y-77592948D01*
X127678780Y-77367027D01*
X127291487Y-77367027D01*
X127291487Y-77304706D01*
X127292291Y-77279786D01*
X127297448Y-77259373D01*
X127311074Y-77239431D01*
X127337287Y-77215921D01*
X127380202Y-77184807D01*
X127443937Y-77142051D01*
X127484825Y-77115094D01*
X127678163Y-76987802D01*
X127678472Y-76854670D01*
X127677535Y-76793692D01*
X127674772Y-76747405D01*
X127670709Y-76723328D01*
X127669137Y-76721538D01*
X127653183Y-76730233D01*
X127615563Y-76754205D01*
X127561093Y-76790286D01*
X127494590Y-76835305D01*
X127456331Y-76861555D01*
X127378405Y-76914834D01*
X127322598Y-76951490D01*
X127284736Y-76973617D01*
X127260643Y-76983309D01*
X127259212Y-76983245D01*
X127246145Y-76982659D01*
X127237066Y-76973761D01*
X127236019Y-76972026D01*
X127170362Y-76884572D01*
X127090542Y-76825542D01*
X126994713Y-76793982D01*
X126881289Y-76788923D01*
X126816295Y-76795759D01*
X126770079Y-76809230D01*
X126729218Y-76833848D01*
X126715181Y-76844736D01*
X126668436Y-76890749D01*
X126625038Y-76946756D01*
X126613723Y-76965039D01*
X126598955Y-76992884D01*
X126588151Y-77020259D01*
X126580561Y-77052907D01*
X126575434Y-77096571D01*
X126572019Y-77156994D01*
X126569564Y-77239920D01*
X126568013Y-77314581D01*
X126562646Y-77592948D01*
X126000509Y-77592948D01*
X126000509Y-77198637D01*
X125999926Y-77086999D01*
X125998289Y-76984436D01*
X125995766Y-76895903D01*
X125992523Y-76826357D01*
X125988728Y-76780753D01*
X125985913Y-76765935D01*
X125969267Y-76735873D01*
X125937788Y-76689581D01*
X125897368Y-76635567D01*
X125883731Y-76618322D01*
X125826397Y-76539557D01*
X125782926Y-76460608D01*
X125749302Y-76372051D01*
X125721503Y-76264464D01*
X125715428Y-76234922D01*
X126841212Y-76234922D01*
X126850820Y-76345718D01*
X126887192Y-76451643D01*
X126946813Y-76542314D01*
X127017762Y-76611483D01*
X127093744Y-76654918D01*
X127183387Y-76676435D01*
X127259212Y-76680500D01*
X127352807Y-76674778D01*
X127427288Y-76654571D01*
X127494203Y-76615465D01*
X127547025Y-76570462D01*
X127620652Y-76479519D01*
X127664662Y-76382760D01*
X127674148Y-76325229D01*
X127674269Y-76249912D01*
X127666192Y-76169531D01*
X127651086Y-76096809D01*
X127634287Y-76051843D01*
X127569407Y-75957815D01*
X127487307Y-75886957D01*
X127393038Y-75840166D01*
X127291647Y-75818339D01*
X127188184Y-75822373D01*
X127087697Y-75853166D01*
X126995235Y-75911614D01*
X126970599Y-75933908D01*
X126901338Y-76022956D01*
X126858130Y-76125315D01*
X126841212Y-76234922D01*
X125715428Y-76234922D01*
X125710972Y-76213256D01*
X125685833Y-76084200D01*
X125516392Y-76033505D01*
X125425323Y-76008296D01*
X125324739Y-75983657D01*
X125230982Y-75963485D01*
X125194838Y-75956812D01*
X125104689Y-75944756D01*
X125002726Y-75936687D01*
X124893925Y-75932411D01*
X124783262Y-75931732D01*
X124675712Y-75934456D01*
X124576253Y-75940387D01*
X124489859Y-75949332D01*
X124421507Y-75961095D01*
X124376172Y-75975480D01*
X124359491Y-75989524D01*
X124362292Y-76016364D01*
X124379650Y-76064755D01*
X124408647Y-76129114D01*
X124446363Y-76203857D01*
X124489882Y-76283401D01*
X124536283Y-76362164D01*
X124582649Y-76434562D01*
X124618734Y-76485447D01*
X124721764Y-76622052D01*
X124663201Y-76614040D01*
X124498683Y-76585891D01*
X124328624Y-76546900D01*
X124195303Y-76508770D01*
X124129882Y-76489589D01*
X124076058Y-76476905D01*
X124041040Y-76472249D01*
X124031914Y-76474088D01*
X124016123Y-76501386D01*
X123993686Y-76553110D01*
X123966838Y-76622657D01*
X123937810Y-76703427D01*
X123908838Y-76788815D01*
X123882156Y-76872219D01*
X123859996Y-76947037D01*
X123844593Y-77006666D01*
X123838181Y-77044504D01*
X123838120Y-77046910D01*
X123832397Y-77074053D01*
X123816481Y-77074729D01*
X123792249Y-77052402D01*
X123761580Y-77010536D01*
X123726350Y-76952595D01*
X123688440Y-76882044D01*
X123649725Y-76802347D01*
X123612085Y-76716968D01*
X123577396Y-76629372D01*
X123547538Y-76543024D01*
X123527573Y-76474028D01*
X123491809Y-76335681D01*
X123418872Y-76319018D01*
X123244071Y-76287049D01*
X123041876Y-76264918D01*
X122962675Y-76259344D01*
X122892257Y-76253992D01*
X122835583Y-76247717D01*
X122799231Y-76241376D01*
X122789200Y-76236770D01*
X122800537Y-76208188D01*
X122831895Y-76162263D01*
X122879289Y-76103229D01*
X122938736Y-76035317D01*
X123006253Y-75962760D01*
X123077857Y-75889792D01*
X123149565Y-75820644D01*
X123217393Y-75759549D01*
X123277358Y-75710741D01*
X123298879Y-75695172D01*
X123386277Y-75634979D01*
X123386277Y-75490927D01*
X123390266Y-75401034D01*
X123400951Y-75297921D01*
X123416408Y-75199466D01*
X123419104Y-75185793D01*
X123436637Y-75109713D01*
X123458110Y-75031393D01*
X123481387Y-74957054D01*
X123504334Y-74892916D01*
X123524820Y-74845198D01*
X123540708Y-74820121D01*
X123545331Y-74817824D01*
X123556869Y-74831224D01*
X123580521Y-74867322D01*
X123612805Y-74920561D01*
X123649021Y-74983231D01*
X123695874Y-75062993D01*
X123747246Y-75145557D01*
X123795687Y-75219160D01*
X123822281Y-75256904D01*
X123902239Y-75365650D01*
X124019449Y-75286180D01*
X124091956Y-75239929D01*
X124172241Y-75193513D01*
X124255108Y-75149387D01*
X124335363Y-75110007D01*
X124407811Y-75077828D01*
X124467257Y-75055305D01*
X124508507Y-75044892D01*
X124525165Y-75047168D01*
X124522208Y-75064049D01*
X124508082Y-75102688D01*
X124485562Y-75155739D01*
X124477365Y-75173840D01*
X124430160Y-75290943D01*
X124388099Y-75421828D01*
X124356180Y-75550054D01*
X124345842Y-75606392D01*
X124340050Y-75649775D01*
X124343035Y-75668681D01*
X124358081Y-75670438D01*
X124372866Y-75666698D01*
X124417582Y-75656481D01*
X126565312Y-75656481D01*
X127678780Y-75656481D01*
X127678780Y-75430559D01*
X127559782Y-75430559D01*
X127602117Y-75386182D01*
X127649772Y-75320306D01*
X127673834Y-75243491D01*
X127678426Y-75175347D01*
X127662347Y-75074112D01*
X127616390Y-74982288D01*
X127551997Y-74911824D01*
X127483377Y-74863516D01*
X127408219Y-74833756D01*
X127317463Y-74819730D01*
X127259357Y-74817999D01*
X127249272Y-74817699D01*
X127129008Y-74829956D01*
X127029613Y-74866414D01*
X126949742Y-74927863D01*
X126888050Y-75015088D01*
X126878010Y-75035197D01*
X126847084Y-75133601D01*
X126845707Y-75230562D01*
X126873212Y-75320852D01*
X126923914Y-75394030D01*
X126958231Y-75430559D01*
X126565312Y-75430559D01*
X126565312Y-75656481D01*
X124417582Y-75656481D01*
X124666959Y-75599501D01*
X124979771Y-75556428D01*
X125308130Y-75537892D01*
X125373585Y-75537172D01*
X125674552Y-75536042D01*
X125699401Y-75446992D01*
X125735793Y-75353015D01*
X125788671Y-75263036D01*
X125850754Y-75188478D01*
X125881203Y-75161886D01*
X125917735Y-75132786D01*
X125945936Y-75105084D01*
X125966883Y-75074238D01*
X125981652Y-75035704D01*
X125991319Y-74984939D01*
X125996960Y-74917400D01*
X125999650Y-74828542D01*
X126000466Y-74713823D01*
X126000509Y-74658102D01*
X126000509Y-74300953D01*
X122369632Y-74300953D01*
X122369632Y-77592948D01*
X121998476Y-77592948D01*
X121998476Y-74224484D01*
X126842609Y-74224484D01*
X126847393Y-74333403D01*
X126879665Y-74443631D01*
X126893527Y-74473336D01*
X126957291Y-74568596D01*
X127038597Y-74636886D01*
X127137921Y-74678495D01*
X127255744Y-74693711D01*
X127259357Y-74693760D01*
X127372164Y-74680499D01*
X127471221Y-74640570D01*
X127553921Y-74577599D01*
X127617658Y-74495207D01*
X127659823Y-74397020D01*
X127677810Y-74286659D01*
X127669011Y-74167750D01*
X127661698Y-74134624D01*
X127620560Y-74034285D01*
X127554475Y-73950140D01*
X127468209Y-73885786D01*
X127366527Y-73844817D01*
X127258963Y-73830826D01*
X127148386Y-73844754D01*
X127051137Y-73884888D01*
X126969575Y-73947076D01*
X126906059Y-74027171D01*
X126862950Y-74121024D01*
X126855782Y-74157482D01*
X126842609Y-74224484D01*
X121998476Y-74224484D01*
X121998476Y-73703876D01*
X122369632Y-73703876D01*
X126000509Y-73703876D01*
X126000509Y-73413406D01*
X126644523Y-73413406D01*
X126649295Y-73522332D01*
X126654066Y-73631258D01*
X126754924Y-73636063D01*
X126809886Y-73639324D01*
X126840048Y-73645073D01*
X126852851Y-73657235D01*
X126855737Y-73679737D01*
X126855782Y-73689279D01*
X126855782Y-73737690D01*
X126956639Y-73732886D01*
X127011860Y-73729356D01*
X127042633Y-73723076D01*
X127056777Y-73710497D01*
X127062108Y-73688073D01*
X127062493Y-73684852D01*
X127067488Y-73641622D01*
X127307466Y-73636440D01*
X127402382Y-73633961D01*
X127470847Y-73630746D01*
X127518684Y-73626000D01*
X127551715Y-73618928D01*
X127575763Y-73608733D01*
X127592940Y-73597428D01*
X127630790Y-73562295D01*
X127658242Y-73525060D01*
X127658371Y-73524811D01*
X127673260Y-73472614D01*
X127677735Y-73402393D01*
X127671620Y-73326730D01*
X127661795Y-73280273D01*
X127644989Y-73219759D01*
X127456824Y-73219759D01*
X127465292Y-73294886D01*
X127467800Y-73340783D01*
X127460320Y-73373116D01*
X127438421Y-73394213D01*
X127397672Y-73406407D01*
X127333644Y-73412027D01*
X127241905Y-73413405D01*
X127239991Y-73413406D01*
X127065566Y-73413406D01*
X127065566Y-73219759D01*
X126855782Y-73219759D01*
X126855782Y-73413406D01*
X126644523Y-73413406D01*
X126000509Y-73413406D01*
X126000509Y-72929289D01*
X124806354Y-72929289D01*
X124806319Y-72912430D01*
X126569682Y-72912430D01*
X126571368Y-72965218D01*
X126602309Y-73016105D01*
X126604921Y-73018777D01*
X126651289Y-73051638D01*
X126697349Y-73053623D01*
X126748676Y-73024970D01*
X126748713Y-73024941D01*
X126782241Y-72980578D01*
X126791251Y-72926742D01*
X126774608Y-72875163D01*
X126764526Y-72861976D01*
X126723481Y-72838038D01*
X126670629Y-72833636D01*
X126619681Y-72848542D01*
X126597586Y-72864740D01*
X126569682Y-72912430D01*
X124806319Y-72912430D01*
X124806151Y-72832465D01*
X126855782Y-72832465D01*
X126855782Y-73058387D01*
X127678780Y-73058387D01*
X127678780Y-72832465D01*
X126855782Y-72832465D01*
X124806151Y-72832465D01*
X124805855Y-72691265D01*
X124803126Y-72531961D01*
X124795050Y-72395939D01*
X124780702Y-72274512D01*
X124766458Y-72198134D01*
X126843588Y-72198134D01*
X126848495Y-72301078D01*
X126873465Y-72400465D01*
X126918643Y-72488974D01*
X126936569Y-72512810D01*
X127012742Y-72582121D01*
X127103628Y-72628132D01*
X127203395Y-72651346D01*
X127306211Y-72652266D01*
X127406244Y-72631395D01*
X127497662Y-72589237D01*
X127574634Y-72526293D01*
X127626187Y-72453345D01*
X127665758Y-72344513D01*
X127678586Y-72226401D01*
X127663649Y-72109224D01*
X127661479Y-72101114D01*
X127640027Y-72052093D01*
X127605190Y-71998213D01*
X127586382Y-71975284D01*
X127564155Y-71950682D01*
X127528406Y-71911112D01*
X127466427Y-71971633D01*
X127424812Y-72016226D01*
X127407367Y-72047915D01*
X127412150Y-72072767D01*
X127428538Y-72090057D01*
X127448096Y-72117977D01*
X127466340Y-72162088D01*
X127469785Y-72173769D01*
X127476477Y-72255368D01*
X127452240Y-72329920D01*
X127410748Y-72382284D01*
X127383163Y-72403640D01*
X127351033Y-72415422D01*
X127303999Y-72420274D01*
X127259212Y-72420966D01*
X127196642Y-72419297D01*
X127155825Y-72412490D01*
X127126332Y-72397851D01*
X127106937Y-72381589D01*
X127073661Y-72338632D01*
X127048398Y-72286366D01*
X127046699Y-72281053D01*
X127037796Y-72242587D01*
X127039824Y-72209736D01*
X127054987Y-72169797D01*
X127071833Y-72136132D01*
X127115290Y-72052369D01*
X127047006Y-71982792D01*
X127008635Y-71944891D01*
X126984741Y-71927207D01*
X126967624Y-71926511D01*
X126949584Y-71939571D01*
X126947809Y-71941169D01*
X126893388Y-72010859D01*
X126858600Y-72098954D01*
X126843588Y-72198134D01*
X124766458Y-72198134D01*
X124759158Y-72158993D01*
X124741315Y-72084721D01*
X124676297Y-71891287D01*
X124587098Y-71717067D01*
X124475262Y-71563676D01*
X124406415Y-71495856D01*
X126847590Y-71495856D01*
X126858578Y-71588283D01*
X126889676Y-71669093D01*
X126939082Y-71733993D01*
X127004994Y-71778690D01*
X127085611Y-71798892D01*
X127105657Y-71799622D01*
X127185492Y-71785645D01*
X127251924Y-71743472D01*
X127305534Y-71672504D01*
X127346906Y-71572138D01*
X127355666Y-71541396D01*
X127383008Y-71462257D01*
X127415019Y-71413633D01*
X127451189Y-71396285D01*
X127452924Y-71396252D01*
X127479630Y-71410166D01*
X127495107Y-71447057D01*
X127499369Y-71499649D01*
X127492429Y-71560668D01*
X127474303Y-71622838D01*
X127452397Y-71667466D01*
X127431620Y-71705421D01*
X127420958Y-71732309D01*
X127420585Y-71735295D01*
X127433412Y-71754587D01*
X127464809Y-71779743D01*
X127504150Y-71804207D01*
X127540808Y-71821422D01*
X127564155Y-71824832D01*
X127565003Y-71824393D01*
X127587373Y-71798852D01*
X127614113Y-71751257D01*
X127640638Y-71690560D01*
X127656207Y-71646379D01*
X127672557Y-71566390D01*
X127676871Y-71477673D01*
X127668921Y-71395645D01*
X127660408Y-71362351D01*
X127620791Y-71287339D01*
X127562304Y-71231345D01*
X127491465Y-71197068D01*
X127414794Y-71187205D01*
X127372173Y-71196881D01*
X127338810Y-71204456D01*
X127312225Y-71218221D01*
X127270949Y-71256018D01*
X127228806Y-71315578D01*
X127191889Y-71387149D01*
X127170753Y-71444664D01*
X127144504Y-71516556D01*
X127115920Y-71566054D01*
X127087656Y-71588867D01*
X127080817Y-71589899D01*
X127050170Y-71581272D01*
X127040431Y-71572258D01*
X127030476Y-71532919D01*
X127032683Y-71476336D01*
X127045643Y-71414548D01*
X127064535Y-71365997D01*
X127084523Y-71325118D01*
X127096407Y-71297529D01*
X127097840Y-71292275D01*
X127084683Y-71281019D01*
X127050693Y-71260729D01*
X127016530Y-71242632D01*
X126935221Y-71201429D01*
X126893152Y-71293320D01*
X126858514Y-71396104D01*
X126847590Y-71495856D01*
X124406415Y-71495856D01*
X124342335Y-71432732D01*
X124189860Y-71325851D01*
X124019384Y-71244650D01*
X123902669Y-71207203D01*
X123820529Y-71191973D01*
X123716649Y-71182383D01*
X123600762Y-71178415D01*
X123482600Y-71180048D01*
X123371894Y-71187263D01*
X123278378Y-71200040D01*
X123241042Y-71208526D01*
X123058920Y-71273958D01*
X122895150Y-71364916D01*
X122751517Y-71479949D01*
X122629804Y-71617604D01*
X122531796Y-71776431D01*
X122524248Y-71791614D01*
X122490610Y-71862634D01*
X122462201Y-71928795D01*
X122438586Y-71993569D01*
X122419327Y-72060426D01*
X122403987Y-72132838D01*
X122392130Y-72214276D01*
X122383318Y-72308210D01*
X122377115Y-72418113D01*
X122373085Y-72547454D01*
X122370789Y-72699706D01*
X122369791Y-72878339D01*
X122369632Y-73020157D01*
X122369632Y-73703876D01*
X121998476Y-73703876D01*
X121998476Y-69876323D01*
X123624851Y-69876323D01*
X123628861Y-70007619D01*
X123641339Y-70130627D01*
X123659563Y-70224336D01*
X123724407Y-70414431D01*
X123814845Y-70587485D01*
X123929090Y-70741231D01*
X124065356Y-70873403D01*
X124221857Y-70981732D01*
X124281894Y-71014002D01*
X124374985Y-71058058D01*
X124456513Y-71089593D01*
X124535553Y-71110542D01*
X124621186Y-71122845D01*
X124722487Y-71128438D01*
X124822491Y-71129379D01*
X124918056Y-71128607D01*
X124989547Y-71126182D01*
X125045161Y-71121083D01*
X125093093Y-71112285D01*
X125141536Y-71098766D01*
X125185578Y-71084070D01*
X125368763Y-71004437D01*
X125531850Y-70900062D01*
X125673499Y-70772469D01*
X125792366Y-70623182D01*
X125887110Y-70453724D01*
X125956389Y-70265619D01*
X125969356Y-70214427D01*
X126598450Y-70214427D01*
X126612027Y-70298354D01*
X126634406Y-70354923D01*
X126693634Y-70431147D01*
X126767593Y-70480601D01*
X126851993Y-70501589D01*
X126942543Y-70492419D01*
X126964934Y-70485464D01*
X127014780Y-70468025D01*
X127054649Y-70454280D01*
X127066710Y-70450225D01*
X127093860Y-70458100D01*
X127128105Y-70496604D01*
X127133853Y-70505056D01*
X127194147Y-70569889D01*
X127272449Y-70608560D01*
X127369969Y-70621660D01*
X127372173Y-70621665D01*
X127472945Y-70608541D01*
X127554485Y-70570042D01*
X127615714Y-70507476D01*
X127655556Y-70422154D01*
X127672933Y-70315384D01*
X127672951Y-70256309D01*
X127666472Y-70182525D01*
X127651899Y-70124310D01*
X127624666Y-70065151D01*
X127615481Y-70048523D01*
X127563246Y-69955967D01*
X127622610Y-69895173D01*
X127681973Y-69834379D01*
X127678780Y-69830102D01*
X127620437Y-69751953D01*
X127558901Y-69669528D01*
X127482991Y-69744296D01*
X127407082Y-69819064D01*
X127345250Y-69782166D01*
X127293028Y-69751063D01*
X127242370Y-69720983D01*
X127233427Y-69715688D01*
X127183437Y-69686108D01*
X127140638Y-69764742D01*
X127116939Y-69810851D01*
X127101397Y-69846009D01*
X127097840Y-69858606D01*
X127111263Y-69873279D01*
X127145851Y-69895010D01*
X127178526Y-69911627D01*
X127222808Y-69933636D01*
X127252115Y-69950634D01*
X127259212Y-69957101D01*
X127249808Y-69972723D01*
X127225475Y-70005207D01*
X127200125Y-70036891D01*
X127141038Y-70109000D01*
X127117477Y-70062759D01*
X127063112Y-69981072D01*
X126995523Y-69926818D01*
X126911158Y-69898075D01*
X126806463Y-69892918D01*
X126803897Y-69893056D01*
X126758700Y-69908014D01*
X126707421Y-69943131D01*
X126659502Y-69990270D01*
X126624385Y-70041294D01*
X126619388Y-70052057D01*
X126600669Y-70127580D01*
X126598450Y-70214427D01*
X125969356Y-70214427D01*
X125976567Y-70185960D01*
X125989026Y-70104911D01*
X125994924Y-70000992D01*
X125994498Y-69869889D01*
X125994333Y-69863215D01*
X125991053Y-69767606D01*
X125985846Y-69694221D01*
X125977197Y-69633011D01*
X125963587Y-69573927D01*
X125943501Y-69506921D01*
X125937961Y-69489811D01*
X125862400Y-69307864D01*
X125761495Y-69144150D01*
X125699508Y-69072491D01*
X126565312Y-69072491D01*
X127678780Y-69072491D01*
X127678780Y-68265629D01*
X127468996Y-68265629D01*
X127468996Y-68830432D01*
X127226938Y-68830432D01*
X127226938Y-68346315D01*
X127017154Y-68346315D01*
X127017154Y-68830432D01*
X126775096Y-68830432D01*
X126775096Y-68265629D01*
X126565312Y-68265629D01*
X126565312Y-69072491D01*
X125699508Y-69072491D01*
X125637461Y-69000762D01*
X125492515Y-68879795D01*
X125328873Y-68783344D01*
X125148752Y-68713502D01*
X125103052Y-68700864D01*
X124971824Y-68677574D01*
X124825296Y-68668600D01*
X124677066Y-68673941D01*
X124540730Y-68693599D01*
X124509804Y-68700826D01*
X124334782Y-68761820D01*
X124172399Y-68850451D01*
X124025552Y-68963585D01*
X123897142Y-69098087D01*
X123790065Y-69250825D01*
X123707222Y-69418664D01*
X123651510Y-69598471D01*
X123643559Y-69637294D01*
X123629641Y-69748845D01*
X123624851Y-69876323D01*
X121998476Y-69876323D01*
X121998476Y-67491042D01*
X122369632Y-67491042D01*
X122369632Y-68249492D01*
X126000509Y-68249492D01*
X126000509Y-67862199D01*
X126565312Y-67862199D01*
X126565312Y-68088120D01*
X127678780Y-68088120D01*
X127678780Y-67862199D01*
X126565312Y-67862199D01*
X126000509Y-67862199D01*
X126000509Y-67491042D01*
X122369632Y-67491042D01*
X121998476Y-67491042D01*
X121998476Y-67268533D01*
X126842117Y-67268533D01*
X126844411Y-67338918D01*
X126870577Y-67446544D01*
X126923705Y-67538459D01*
X127001219Y-67611955D01*
X127100542Y-67664323D01*
X127174122Y-67685450D01*
X127285526Y-67693957D01*
X127392122Y-67674863D01*
X127488684Y-67631042D01*
X127569990Y-67565365D01*
X127630815Y-67480706D01*
X127655754Y-67420574D01*
X127672051Y-67338723D01*
X127675943Y-67247046D01*
X127667432Y-67160623D01*
X127655757Y-67115819D01*
X127634891Y-67069960D01*
X127605972Y-67021268D01*
X127574983Y-66978272D01*
X127547907Y-66949499D01*
X127534080Y-66942376D01*
X127516873Y-66954030D01*
X127488231Y-66983813D01*
X127469019Y-67006897D01*
X127417918Y-67071418D01*
X127449453Y-67123892D01*
X127484433Y-67204258D01*
X127494237Y-67282366D01*
X127479526Y-67352286D01*
X127440957Y-67408085D01*
X127415730Y-67427169D01*
X127379021Y-67447760D01*
X127354426Y-67458336D01*
X127352002Y-67458707D01*
X127348023Y-67443467D01*
X127344594Y-67401201D01*
X127341947Y-67337160D01*
X127340316Y-67256590D01*
X127339899Y-67185522D01*
X127339858Y-67080123D01*
X127338318Y-67003010D01*
X127333148Y-66950203D01*
X127322220Y-66917721D01*
X127303403Y-66901581D01*
X127274569Y-66897803D01*
X127258347Y-66899625D01*
X127233588Y-66902405D01*
X127192113Y-66909204D01*
X127074303Y-66941639D01*
X126978767Y-66995806D01*
X126907137Y-67069688D01*
X126861043Y-67161269D01*
X126842117Y-67268533D01*
X121998476Y-67268533D01*
X121998476Y-65771400D01*
X123625450Y-65771400D01*
X123627657Y-65920604D01*
X123642781Y-66061285D01*
X123659908Y-66143584D01*
X123725341Y-66335660D01*
X123815695Y-66509564D01*
X123929168Y-66663432D01*
X124063961Y-66795399D01*
X124218275Y-66903602D01*
X124390310Y-66986178D01*
X124511257Y-67025352D01*
X124648562Y-67051131D01*
X124799104Y-67060960D01*
X124950162Y-67054848D01*
X125089018Y-67032806D01*
X125120116Y-67024869D01*
X125303062Y-66957753D01*
X125470622Y-66863744D01*
X125620078Y-66745353D01*
X125748709Y-66605091D01*
X125853796Y-66445467D01*
X125909321Y-66322440D01*
X126843537Y-66322440D01*
X126848195Y-66441544D01*
X126880182Y-66547810D01*
X126936553Y-66637988D01*
X127014364Y-66708823D01*
X127110671Y-66757064D01*
X127222528Y-66779457D01*
X127258347Y-66780650D01*
X127378855Y-66766265D01*
X127482673Y-66724821D01*
X127568008Y-66657598D01*
X127633071Y-66565874D01*
X127664662Y-66490638D01*
X127672957Y-66440663D01*
X127674163Y-66372765D01*
X127669170Y-66298946D01*
X127658868Y-66231210D01*
X127644148Y-66181558D01*
X127641314Y-66175858D01*
X127611815Y-66129042D01*
X127576541Y-66081662D01*
X127574622Y-66079346D01*
X127534464Y-66031245D01*
X127469456Y-66094723D01*
X127426767Y-66140074D01*
X127407943Y-66172132D01*
X127410965Y-66196885D01*
X127428538Y-66216105D01*
X127448096Y-66244025D01*
X127466340Y-66288136D01*
X127469785Y-66299817D01*
X127476477Y-66381416D01*
X127452240Y-66455968D01*
X127410748Y-66508333D01*
X127383163Y-66529688D01*
X127351033Y-66541470D01*
X127303999Y-66546323D01*
X127259212Y-66547014D01*
X127196642Y-66545345D01*
X127155825Y-66538539D01*
X127126332Y-66523899D01*
X127106937Y-66507638D01*
X127073661Y-66464680D01*
X127048398Y-66412414D01*
X127046699Y-66407102D01*
X127037796Y-66368635D01*
X127039824Y-66335784D01*
X127054987Y-66295845D01*
X127071833Y-66262180D01*
X127115290Y-66178417D01*
X127065566Y-66127751D01*
X127047006Y-66108840D01*
X127008635Y-66070939D01*
X126984741Y-66053256D01*
X126967624Y-66052559D01*
X126949584Y-66065619D01*
X126947809Y-66067217D01*
X126902208Y-66126059D01*
X126866922Y-66206587D01*
X126846027Y-66298821D01*
X126843537Y-66322440D01*
X125909321Y-66322440D01*
X125929529Y-66277666D01*
X125961979Y-66160004D01*
X125983969Y-66021981D01*
X125995082Y-65873833D01*
X125994899Y-65725797D01*
X125987076Y-65635261D01*
X126645998Y-65635261D01*
X126645998Y-65861182D01*
X126855782Y-65861182D01*
X126855782Y-65958005D01*
X127065566Y-65958005D01*
X127065566Y-65861182D01*
X127293082Y-65861182D01*
X127407394Y-65859392D01*
X127494116Y-65853160D01*
X127557779Y-65841191D01*
X127602914Y-65822191D01*
X127634053Y-65794867D01*
X127655725Y-65757924D01*
X127655882Y-65757566D01*
X127673458Y-65689021D01*
X127676776Y-65607655D01*
X127665864Y-65529586D01*
X127655398Y-65497576D01*
X127639945Y-65465243D01*
X127621756Y-65448610D01*
X127590540Y-65442471D01*
X127544806Y-65441614D01*
X127457597Y-65441614D01*
X127465514Y-65524012D01*
X127467579Y-65580408D01*
X127459550Y-65611955D01*
X127451043Y-65620588D01*
X127426535Y-65626332D01*
X127377321Y-65631007D01*
X127310965Y-65634073D01*
X127247915Y-65635014D01*
X127067176Y-65635261D01*
X127062337Y-65542472D01*
X127057497Y-65449683D01*
X126956639Y-65444878D01*
X126855782Y-65440074D01*
X126855782Y-65635261D01*
X126645998Y-65635261D01*
X125987076Y-65635261D01*
X125983001Y-65588108D01*
X125962056Y-65481957D01*
X125943061Y-65424404D01*
X125913885Y-65350235D01*
X125879372Y-65271395D01*
X125860588Y-65231830D01*
X125822797Y-65158776D01*
X125786096Y-65099134D01*
X125751797Y-65054321D01*
X126854368Y-65054321D01*
X126859109Y-65171315D01*
X126863850Y-65288310D01*
X127271315Y-65292622D01*
X127678780Y-65296933D01*
X127678780Y-65054321D01*
X127481099Y-65054295D01*
X127389205Y-65053239D01*
X127322841Y-65049600D01*
X127275317Y-65042630D01*
X127261494Y-65038313D01*
X127239942Y-65031583D01*
X127228085Y-65026055D01*
X127162478Y-64980018D01*
X127123276Y-64919857D01*
X127107417Y-64840380D01*
X127106762Y-64820305D01*
X127105909Y-64731607D01*
X126997550Y-64731592D01*
X126937117Y-64733091D01*
X126900796Y-64738954D01*
X126880510Y-64751194D01*
X126872487Y-64762789D01*
X126855941Y-64825995D01*
X126867602Y-64894573D01*
X126905498Y-64962447D01*
X126953264Y-65012055D01*
X127003493Y-65054321D01*
X126854368Y-65054321D01*
X125751797Y-65054321D01*
X125743570Y-65043572D01*
X125688303Y-64982759D01*
X125638796Y-64932529D01*
X125565080Y-64861657D01*
X125502958Y-64808868D01*
X125443427Y-64767394D01*
X125377485Y-64730470D01*
X125355019Y-64719225D01*
X125247906Y-64669994D01*
X125152967Y-64635221D01*
X125060101Y-64612689D01*
X124959208Y-64600182D01*
X124840186Y-64595481D01*
X124790216Y-64595275D01*
X124697375Y-64596154D01*
X124627918Y-64599026D01*
X124572968Y-64605052D01*
X124523645Y-64615394D01*
X124471070Y-64631215D01*
X124443266Y-64640681D01*
X124258229Y-64720930D01*
X124094413Y-64825273D01*
X123952700Y-64952742D01*
X123833978Y-65102367D01*
X123739131Y-65273180D01*
X123669044Y-65464213D01*
X123659795Y-65498094D01*
X123636162Y-65626341D01*
X123625450Y-65771400D01*
X121998476Y-65771400D01*
X121998476Y-64234912D01*
X126842816Y-64234912D01*
X126865694Y-64347174D01*
X126871815Y-64364506D01*
X126903981Y-64429383D01*
X126946988Y-64490371D01*
X126964604Y-64509464D01*
X127057413Y-64579778D01*
X127157912Y-64621322D01*
X127261494Y-64635166D01*
X127363551Y-64622378D01*
X127459475Y-64584030D01*
X127544660Y-64521189D01*
X127614497Y-64434926D01*
X127656568Y-64348840D01*
X127671697Y-64278442D01*
X127674465Y-64192067D01*
X127665724Y-64103182D01*
X127646325Y-64025257D01*
X127634334Y-63997332D01*
X127567478Y-63901391D01*
X127480000Y-63829362D01*
X127375084Y-63783364D01*
X127288974Y-63767411D01*
X127179812Y-63772127D01*
X127081141Y-63804191D01*
X126995750Y-63859608D01*
X126926431Y-63934383D01*
X126875975Y-64024522D01*
X126854307Y-64100887D01*
X126847173Y-64126030D01*
X126842816Y-64234912D01*
X121998476Y-64234912D01*
X121998476Y-63440598D01*
X122369632Y-63440598D01*
X122369632Y-64199047D01*
X126000509Y-64199047D01*
X126000509Y-63601970D01*
X126854307Y-63601970D01*
X127678780Y-63601970D01*
X127678780Y-63376049D01*
X127429413Y-63376049D01*
X127326090Y-63374808D01*
X127240606Y-63371283D01*
X127177621Y-63365767D01*
X127141795Y-63358553D01*
X127140033Y-63357818D01*
X127098386Y-63323449D01*
X127075521Y-63273284D01*
X127071829Y-63217156D01*
X127087702Y-63164895D01*
X127123530Y-63126330D01*
X127130660Y-63122330D01*
X127167469Y-63112895D01*
X127235097Y-63106389D01*
X127334033Y-63102779D01*
X127424619Y-63101954D01*
X127678780Y-63101716D01*
X127678780Y-62873949D01*
X127349100Y-62878906D01*
X127236829Y-62880815D01*
X127152121Y-62883026D01*
X127090268Y-62886019D01*
X127046560Y-62890276D01*
X127016286Y-62896277D01*
X126994737Y-62904505D01*
X126977203Y-62915440D01*
X126974907Y-62917135D01*
X126914899Y-62970793D01*
X126880167Y-63027675D01*
X126865404Y-63098509D01*
X126863850Y-63141583D01*
X126865814Y-63201816D01*
X126874530Y-63243397D01*
X126894234Y-63279852D01*
X126916239Y-63308822D01*
X126968627Y-63374012D01*
X126916239Y-63379065D01*
X126863850Y-63384117D01*
X126859079Y-63493044D01*
X126854368Y-63600578D01*
X126854307Y-63601970D01*
X126000509Y-63601970D01*
X126000509Y-63440598D01*
X122369632Y-63440598D01*
X121998476Y-63440598D01*
X121998476Y-60808038D01*
X123612198Y-60808038D01*
X123612198Y-61552542D01*
X124303897Y-61552542D01*
X124466969Y-61552932D01*
X124618027Y-61554058D01*
X124753785Y-61555849D01*
X124870961Y-61558237D01*
X124966268Y-61561153D01*
X125036425Y-61564526D01*
X125078145Y-61568288D01*
X125082141Y-61568955D01*
X125184390Y-61601185D01*
X125262383Y-61654685D01*
X125316436Y-61729801D01*
X125346868Y-61826879D01*
X125351733Y-61863301D01*
X125348815Y-61971718D01*
X125317982Y-62064324D01*
X125259740Y-62140208D01*
X125174592Y-62198462D01*
X125162873Y-62204093D01*
X125144372Y-62212170D01*
X125124892Y-62218898D01*
X125101392Y-62224424D01*
X125070829Y-62228897D01*
X125030162Y-62232463D01*
X124976347Y-62235269D01*
X124906344Y-62237464D01*
X124817109Y-62239194D01*
X124705600Y-62240606D01*
X124568775Y-62241848D01*
X124403593Y-62243068D01*
X124350477Y-62243435D01*
X123612198Y-62248495D01*
X123612198Y-62990687D01*
X124406957Y-62984845D01*
X124597206Y-62983404D01*
X124758360Y-62981879D01*
X124893596Y-62979935D01*
X125006095Y-62977231D01*
X125099033Y-62973432D01*
X125175589Y-62968197D01*
X125238942Y-62961190D01*
X125292270Y-62952073D01*
X125338750Y-62940507D01*
X125381563Y-62926154D01*
X125423884Y-62908677D01*
X125468894Y-62887737D01*
X125510590Y-62867475D01*
X125646611Y-62783665D01*
X125754648Y-62682148D01*
X126854368Y-62682148D01*
X127678780Y-62682148D01*
X127678780Y-62439535D01*
X127306211Y-62443477D01*
X127271315Y-62443846D01*
X126863850Y-62448158D01*
X126854368Y-62682148D01*
X125754648Y-62682148D01*
X125761784Y-62675443D01*
X125855710Y-62543369D01*
X125859049Y-62536191D01*
X126569682Y-62536191D01*
X126571368Y-62588979D01*
X126602309Y-62639866D01*
X126604921Y-62642538D01*
X126651289Y-62675399D01*
X126697349Y-62677384D01*
X126748676Y-62648731D01*
X126748713Y-62648702D01*
X126782241Y-62604339D01*
X126791251Y-62550504D01*
X126774608Y-62498924D01*
X126764526Y-62485737D01*
X126723481Y-62461799D01*
X126670629Y-62457397D01*
X126619681Y-62472303D01*
X126597586Y-62488501D01*
X126569682Y-62536191D01*
X125859049Y-62536191D01*
X125927990Y-62388001D01*
X125977336Y-62214168D01*
X125988431Y-62135557D01*
X125994575Y-62035683D01*
X125996025Y-61923124D01*
X125993430Y-61821895D01*
X126843588Y-61821895D01*
X126848495Y-61924839D01*
X126873465Y-62024226D01*
X126918643Y-62112735D01*
X126936569Y-62136571D01*
X127012742Y-62205882D01*
X127103628Y-62251893D01*
X127203395Y-62275107D01*
X127306211Y-62276027D01*
X127406244Y-62255157D01*
X127497662Y-62212998D01*
X127574634Y-62150054D01*
X127626187Y-62077106D01*
X127665758Y-61968275D01*
X127678586Y-61850162D01*
X127663649Y-61732985D01*
X127661479Y-61724875D01*
X127640027Y-61675854D01*
X127605190Y-61621974D01*
X127586382Y-61599045D01*
X127564155Y-61574443D01*
X127528406Y-61534873D01*
X127466427Y-61595394D01*
X127424812Y-61639987D01*
X127407367Y-61671676D01*
X127412150Y-61696528D01*
X127428538Y-61713818D01*
X127448096Y-61741738D01*
X127466340Y-61785849D01*
X127469785Y-61797530D01*
X127476477Y-61879129D01*
X127452240Y-61953681D01*
X127410748Y-62006045D01*
X127383163Y-62027401D01*
X127351033Y-62039183D01*
X127303999Y-62044035D01*
X127259212Y-62044727D01*
X127196642Y-62043058D01*
X127155825Y-62036251D01*
X127126332Y-62021612D01*
X127106937Y-62005350D01*
X127073661Y-61962393D01*
X127048398Y-61910127D01*
X127046699Y-61904814D01*
X127037796Y-61866348D01*
X127039824Y-61833497D01*
X127054987Y-61793558D01*
X127071833Y-61759893D01*
X127115290Y-61676130D01*
X127047006Y-61606553D01*
X127008635Y-61568652D01*
X126984741Y-61550968D01*
X126967624Y-61550272D01*
X126949584Y-61563332D01*
X126947809Y-61564930D01*
X126893388Y-61634620D01*
X126858600Y-61722715D01*
X126843588Y-61821895D01*
X125993430Y-61821895D01*
X125993034Y-61806455D01*
X125985859Y-61694252D01*
X125974753Y-61595092D01*
X125959973Y-61517551D01*
X125956218Y-61504130D01*
X125891629Y-61335784D01*
X125806916Y-61192191D01*
X125742789Y-61119617D01*
X126847590Y-61119617D01*
X126858578Y-61212044D01*
X126889676Y-61292854D01*
X126939082Y-61357754D01*
X127004994Y-61402451D01*
X127085611Y-61422653D01*
X127105657Y-61423383D01*
X127185492Y-61409406D01*
X127251924Y-61367233D01*
X127305534Y-61296265D01*
X127346906Y-61195899D01*
X127355666Y-61165157D01*
X127383008Y-61086018D01*
X127415019Y-61037394D01*
X127451189Y-61020046D01*
X127452924Y-61020013D01*
X127479630Y-61033927D01*
X127495107Y-61070818D01*
X127499369Y-61123410D01*
X127492429Y-61184429D01*
X127474303Y-61246599D01*
X127452397Y-61291227D01*
X127431620Y-61329182D01*
X127420958Y-61356070D01*
X127420585Y-61359056D01*
X127433412Y-61378348D01*
X127464809Y-61403504D01*
X127504150Y-61427968D01*
X127540808Y-61445183D01*
X127564155Y-61448594D01*
X127565003Y-61448154D01*
X127587373Y-61422613D01*
X127614113Y-61375018D01*
X127640638Y-61314321D01*
X127656207Y-61270140D01*
X127672557Y-61190151D01*
X127676871Y-61101435D01*
X127668921Y-61019406D01*
X127660408Y-60986112D01*
X127620791Y-60911101D01*
X127562304Y-60855106D01*
X127491465Y-60820829D01*
X127414794Y-60810966D01*
X127338810Y-60828217D01*
X127312225Y-60841982D01*
X127270949Y-60879779D01*
X127228806Y-60939339D01*
X127191889Y-61010910D01*
X127170753Y-61068425D01*
X127144504Y-61140318D01*
X127115920Y-61189815D01*
X127087656Y-61212628D01*
X127080817Y-61213660D01*
X127050170Y-61205033D01*
X127040431Y-61196019D01*
X127030476Y-61156680D01*
X127032683Y-61100097D01*
X127045643Y-61038309D01*
X127064535Y-60989758D01*
X127084523Y-60948879D01*
X127096407Y-60921290D01*
X127097840Y-60916036D01*
X127084683Y-60904780D01*
X127050693Y-60884490D01*
X127016530Y-60866393D01*
X126935221Y-60825191D01*
X126893152Y-60917081D01*
X126858514Y-61019865D01*
X126847590Y-61119617D01*
X125742789Y-61119617D01*
X125700707Y-61071992D01*
X125571634Y-60973825D01*
X125546356Y-60961047D01*
X126026328Y-60961047D01*
X126039800Y-61020961D01*
X126075143Y-61069619D01*
X126124752Y-61101825D01*
X126181020Y-61112381D01*
X126229518Y-61099885D01*
X126286596Y-61056075D01*
X126317457Y-61000533D01*
X126320848Y-60939780D01*
X126295516Y-60880336D01*
X126276083Y-60857399D01*
X126220075Y-60818505D01*
X126162168Y-60811819D01*
X126102542Y-60837342D01*
X126078222Y-60856596D01*
X126041665Y-60897370D01*
X126027413Y-60939863D01*
X126026328Y-60961047D01*
X125546356Y-60961047D01*
X125418326Y-60896328D01*
X125303842Y-60856035D01*
X125275625Y-60847852D01*
X125247825Y-60840989D01*
X125217350Y-60835303D01*
X125181109Y-60830652D01*
X125136010Y-60826892D01*
X125078963Y-60823880D01*
X125006875Y-60821473D01*
X124916657Y-60819529D01*
X124805215Y-60817904D01*
X124669459Y-60816456D01*
X124506298Y-60815042D01*
X124398888Y-60814188D01*
X123612198Y-60808038D01*
X121998476Y-60808038D01*
X121998476Y-60519759D01*
G37*
G36*
X127347377Y-75062365D02*
G01*
X127412621Y-75098710D01*
X127458366Y-75153745D01*
X127480897Y-75219962D01*
X127476496Y-75289855D01*
X127469738Y-75309530D01*
X127428061Y-75370671D01*
X127363056Y-75409852D01*
X127279163Y-75426401D01*
X127188575Y-75420516D01*
X127118539Y-75389821D01*
X127068809Y-75334185D01*
X127055611Y-75307505D01*
X127040720Y-75236854D01*
X127053481Y-75172173D01*
X127089346Y-75117283D01*
X127143763Y-75076008D01*
X127212184Y-75052172D01*
X127290056Y-75049596D01*
X127347377Y-75062365D01*
G37*
G36*
X125000971Y-65324926D02*
G01*
X125119007Y-65373746D01*
X125217487Y-65445995D01*
X125293883Y-65540100D01*
X125316802Y-65581681D01*
X125351827Y-65682465D01*
X125367836Y-65795469D01*
X125364035Y-65908107D01*
X125343126Y-65998473D01*
X125286861Y-66110238D01*
X125206962Y-66203929D01*
X125107918Y-66277311D01*
X124994217Y-66328148D01*
X124870345Y-66354204D01*
X124740791Y-66353245D01*
X124660738Y-66338400D01*
X124532879Y-66291047D01*
X124427707Y-66221422D01*
X124346692Y-66131563D01*
X124291301Y-66023508D01*
X124263002Y-65899296D01*
X124261257Y-65783749D01*
X124285173Y-65659707D01*
X124335998Y-65549801D01*
X124410504Y-65456603D01*
X124505468Y-65382690D01*
X124617663Y-65330635D01*
X124743865Y-65303013D01*
X124865905Y-65301106D01*
X125000971Y-65324926D01*
G37*
G36*
X126924443Y-70110805D02*
G01*
X126967847Y-70146473D01*
X126994178Y-70188338D01*
X127008221Y-70221162D01*
X127002668Y-70240747D01*
X126980168Y-70257862D01*
X126915413Y-70288303D01*
X126857276Y-70292614D01*
X126811260Y-70270458D01*
X126809051Y-70268327D01*
X126780263Y-70221988D01*
X126777053Y-70173744D01*
X126796430Y-70132027D01*
X126835404Y-70105272D01*
X126868775Y-70099894D01*
X126924443Y-70110805D01*
G37*
G36*
X126157143Y-60937218D02*
G01*
X126161881Y-60963533D01*
X126153464Y-60995980D01*
X126137675Y-61003876D01*
X126118207Y-60989848D01*
X126113469Y-60963533D01*
X126121886Y-60931086D01*
X126137675Y-60923190D01*
X126157143Y-60937218D01*
G37*
G36*
X126985954Y-77028590D02*
G01*
X127032288Y-77059172D01*
X127062433Y-77108176D01*
X127078207Y-77179878D01*
X127081703Y-77253871D01*
X127081703Y-77368238D01*
X126932434Y-77363598D01*
X126783164Y-77358958D01*
X126777909Y-77294409D01*
X126778716Y-77196047D01*
X126797119Y-77116300D01*
X126831011Y-77057859D01*
X126878286Y-77023416D01*
X126936838Y-77015661D01*
X126985954Y-77028590D01*
G37*
G36*
X123730239Y-71969162D02*
G01*
X123843319Y-72013977D01*
X123941333Y-72083270D01*
X124020140Y-72175039D01*
X124057638Y-72242562D01*
X124088852Y-72330640D01*
X124110702Y-72439637D01*
X124123675Y-72572976D01*
X124128257Y-72734079D01*
X124128270Y-72739676D01*
X124128590Y-72929289D01*
X123060339Y-72929289D01*
X123067088Y-72650922D01*
X123070686Y-72536459D01*
X123075563Y-72448734D01*
X123082270Y-72382220D01*
X123091360Y-72331389D01*
X123102965Y-72291868D01*
X123160088Y-72171869D01*
X123235611Y-72078239D01*
X123330225Y-72010362D01*
X123444621Y-71967627D01*
X123475443Y-71960977D01*
X123606234Y-71950828D01*
X123730239Y-71969162D01*
G37*
G36*
X126047409Y-60987149D02*
G01*
X126048112Y-60933342D01*
X126073622Y-60881119D01*
X126091050Y-60862675D01*
X126143497Y-60831282D01*
X126198401Y-60831550D01*
X126231525Y-60845139D01*
X126282653Y-60887538D01*
X126305016Y-60942894D01*
X126297508Y-61007531D01*
X126287649Y-61031603D01*
X126260771Y-61061306D01*
X126219352Y-61084209D01*
X126217112Y-61084974D01*
X126156366Y-61091453D01*
X126105314Y-61072867D01*
X126097332Y-61065010D01*
X126067736Y-61035878D01*
X126061118Y-61020013D01*
X126097332Y-61020013D01*
X126173984Y-61018141D01*
X126212264Y-61015790D01*
X126227361Y-61011793D01*
X126222395Y-61008889D01*
X126198422Y-60992667D01*
X126194155Y-60980463D01*
X126205490Y-60953253D01*
X126218361Y-60939327D01*
X126238702Y-60915028D01*
X126242567Y-60903101D01*
X126232850Y-60898182D01*
X126218361Y-60907052D01*
X126192426Y-60918972D01*
X126170155Y-60907223D01*
X126136721Y-60892910D01*
X126111209Y-60907223D01*
X126098147Y-60946694D01*
X126097332Y-60963026D01*
X126097332Y-61020013D01*
X126061118Y-61020013D01*
X126047409Y-60987149D01*
G37*
G36*
X127342696Y-74072451D02*
G01*
X127409216Y-74109648D01*
X127455122Y-74165943D01*
X127476766Y-74236669D01*
X127470501Y-74317162D01*
X127468059Y-74326048D01*
X127434140Y-74389961D01*
X127379871Y-74435972D01*
X127312630Y-74462691D01*
X127239799Y-74468727D01*
X127168758Y-74452689D01*
X127106887Y-74413186D01*
X127091592Y-74396997D01*
X127050834Y-74327607D01*
X127038699Y-74256214D01*
X127052433Y-74188371D01*
X127089281Y-74129633D01*
X127146490Y-74085553D01*
X127221306Y-74061684D01*
X127259212Y-74059015D01*
X127342696Y-74072451D01*
G37*
G36*
X127440553Y-70119254D02*
G01*
X127460420Y-70153757D01*
X127476567Y-70197626D01*
X127484051Y-70239703D01*
X127484111Y-70245673D01*
X127478090Y-70293605D01*
X127468884Y-70326105D01*
X127436058Y-70371835D01*
X127388815Y-70392261D01*
X127333770Y-70386557D01*
X127277538Y-70353901D01*
X127273573Y-70350446D01*
X127222876Y-70305147D01*
X127315400Y-70205210D01*
X127359196Y-70159582D01*
X127395457Y-70124884D01*
X127418230Y-70106702D01*
X127421909Y-70105273D01*
X127440553Y-70119254D01*
G37*
G36*
X124907004Y-69388504D02*
G01*
X124968356Y-69393172D01*
X125015588Y-69402496D01*
X125057746Y-69417754D01*
X125066524Y-69421704D01*
X125164027Y-69481170D01*
X125249656Y-69560882D01*
X125313625Y-69651578D01*
X125317652Y-69659303D01*
X125346226Y-69738938D01*
X125363053Y-69834541D01*
X125367054Y-69932975D01*
X125357149Y-70021102D01*
X125349635Y-70048793D01*
X125293050Y-70170681D01*
X125211931Y-70273264D01*
X125109028Y-70353449D01*
X125051957Y-70383415D01*
X124979562Y-70405477D01*
X124887721Y-70418122D01*
X124787279Y-70421328D01*
X124689081Y-70415073D01*
X124603971Y-70399338D01*
X124561557Y-70384365D01*
X124460211Y-70322167D01*
X124371926Y-70238248D01*
X124308958Y-70146641D01*
X124288079Y-70103107D01*
X124275215Y-70062551D01*
X124268493Y-70014771D01*
X124266042Y-69949567D01*
X124265834Y-69911627D01*
X124267116Y-69832971D01*
X124272204Y-69776247D01*
X124282821Y-69731177D01*
X124300690Y-69687486D01*
X124304855Y-69678881D01*
X124373549Y-69574545D01*
X124466370Y-69487269D01*
X124561907Y-69429898D01*
X124608044Y-69410020D01*
X124650373Y-69397412D01*
X124698617Y-69390480D01*
X124762500Y-69387631D01*
X124822491Y-69387214D01*
X124907004Y-69388504D01*
G37*
G36*
X127319089Y-63997251D02*
G01*
X127387168Y-64025559D01*
X127438584Y-64073936D01*
X127469495Y-64137070D01*
X127476058Y-64209648D01*
X127454428Y-64286355D01*
X127452399Y-64290479D01*
X127403514Y-64355135D01*
X127337389Y-64394939D01*
X127259247Y-64408215D01*
X127174314Y-64393285D01*
X127155057Y-64385973D01*
X127093444Y-64345906D01*
X127055663Y-64291431D01*
X127040464Y-64228447D01*
X127046594Y-64162853D01*
X127072801Y-64100549D01*
X127117833Y-64047432D01*
X127180437Y-64009402D01*
X127238191Y-63994327D01*
X127319089Y-63997251D01*
G37*
G36*
X127177221Y-67138294D02*
G01*
X127186553Y-67149000D01*
X127191798Y-67173976D01*
X127194115Y-67219059D01*
X127194662Y-67290088D01*
X127194664Y-67297395D01*
X127194256Y-67370766D01*
X127192224Y-67417725D01*
X127187348Y-67444133D01*
X127178413Y-67455849D01*
X127164201Y-67458734D01*
X127161148Y-67458768D01*
X127128816Y-67447833D01*
X127090155Y-67420665D01*
X127080462Y-67411597D01*
X127046499Y-67368346D01*
X127031865Y-67319978D01*
X127032285Y-67257052D01*
X127047598Y-67221590D01*
X127081148Y-67182871D01*
X127122025Y-67151025D01*
X127159317Y-67136183D01*
X127162644Y-67136023D01*
X127177221Y-67138294D01*
G37*
G36*
X127331926Y-76054325D02*
G01*
X127392308Y-76081414D01*
X127438308Y-76118694D01*
X127450397Y-76135997D01*
X127472257Y-76201593D01*
X127475770Y-76272847D01*
X127462737Y-76327544D01*
X127416950Y-76393893D01*
X127352436Y-76437504D01*
X127275442Y-76456085D01*
X127192214Y-76447343D01*
X127163067Y-76437525D01*
X127113186Y-76411390D01*
X127080627Y-76374723D01*
X127062414Y-76338947D01*
X127041771Y-76258774D01*
X127050133Y-76185057D01*
X127084288Y-76122370D01*
X127141022Y-76075289D01*
X127217122Y-76048388D01*
X127269720Y-76043834D01*
X127331926Y-76054325D01*
G37*
%TO.C,J7*%
X118600000Y-111560000D02*
X118600000Y-114510000D01*
X106050000Y-110060000D02*
X106050000Y-109310000D01*
X106050000Y-109310000D02*
X104250000Y-109310000D01*
X104250000Y-109310000D02*
X104250000Y-110060000D01*
X117550000Y-110060000D02*
X119350000Y-110060000D01*
X116050000Y-109310000D02*
X107550000Y-109310000D01*
X116050000Y-110060000D02*
X116050000Y-109310000D01*
X117550000Y-109310000D02*
X117550000Y-110060000D01*
X107550000Y-110060000D02*
X116050000Y-110060000D01*
X119360000Y-109300000D02*
X104240000Y-109300000D01*
X104240000Y-115270000D02*
X119360000Y-115270000D01*
X118600000Y-114510000D02*
X111800000Y-114510000D01*
X119350000Y-110060000D02*
X119350000Y-109310000D01*
X104250000Y-111560000D02*
X105000000Y-111560000D01*
X104240000Y-109300000D02*
X104240000Y-115270000D01*
X119350000Y-109310000D02*
X117550000Y-109310000D01*
X105200000Y-109010000D02*
X103950000Y-109010000D01*
X105000000Y-111560000D02*
X105000000Y-114510000D01*
X119350000Y-111560000D02*
X118600000Y-111560000D01*
X104250000Y-110060000D02*
X106050000Y-110060000D01*
X107550000Y-109310000D02*
X107550000Y-110060000D01*
X119360000Y-115270000D02*
X119360000Y-109300000D01*
X103950000Y-109010000D02*
X103950000Y-110260000D01*
X105000000Y-114510000D02*
X111800000Y-114510000D01*
%TO.C,D6*%
X127565000Y-128545000D02*
X127565000Y-125455000D01*
X127565000Y-125455170D02*
G75*
G03*
X122015000Y-127000462I-2560000J-1544830D01*
G01*
X122015000Y-126999538D02*
G75*
G03*
X127565000Y-128544830I2990000J-462D01*
G01*
X127505000Y-127000000D02*
G75*
G03*
X127505000Y-127000000I-2500000J0D01*
G01*
%TO.C,J2*%
X118750000Y-61775000D02*
X120550000Y-61775000D01*
X105440000Y-61015000D02*
X105440000Y-66985000D01*
X106200000Y-66225000D02*
X113000000Y-66225000D01*
X120550000Y-61025000D02*
X118750000Y-61025000D01*
X120550000Y-63275000D02*
X119800000Y-63275000D01*
X105450000Y-61025000D02*
X105450000Y-61775000D01*
X120560000Y-61015000D02*
X105440000Y-61015000D01*
X105440000Y-66985000D02*
X120560000Y-66985000D01*
X119800000Y-66225000D02*
X113000000Y-66225000D01*
X107250000Y-61775000D02*
X107250000Y-61025000D01*
X120560000Y-66985000D02*
X120560000Y-61015000D01*
X118750000Y-61025000D02*
X118750000Y-61775000D01*
X117250000Y-61025000D02*
X108750000Y-61025000D01*
X106200000Y-63275000D02*
X106200000Y-66225000D01*
X108750000Y-61025000D02*
X108750000Y-61775000D01*
X120550000Y-61775000D02*
X120550000Y-61025000D01*
X107250000Y-61025000D02*
X105450000Y-61025000D01*
X106400000Y-60725000D02*
X105150000Y-60725000D01*
X117250000Y-61775000D02*
X117250000Y-61025000D01*
X105450000Y-61775000D02*
X107250000Y-61775000D01*
X108750000Y-61775000D02*
X117250000Y-61775000D01*
X119800000Y-63275000D02*
X119800000Y-66225000D01*
X105150000Y-60725000D02*
X105150000Y-61975000D01*
X105450000Y-63275000D02*
X106200000Y-63275000D01*
%TO.C,C12*%
X63295563Y-112360000D02*
X61510000Y-112360000D01*
X55640000Y-103640000D02*
X58490000Y-103640000D01*
X56704437Y-112360000D02*
X55640000Y-111295563D01*
X55640000Y-111295563D02*
X55640000Y-103640000D01*
X64360000Y-111295563D02*
X64360000Y-103640000D01*
X56990000Y-113100000D02*
X57990000Y-113100000D01*
X63295563Y-112360000D02*
X64360000Y-111295563D01*
X57490000Y-113600000D02*
X57490000Y-112600000D01*
X56704437Y-112360000D02*
X58490000Y-112360000D01*
X64360000Y-103640000D02*
X61510000Y-103640000D01*
%TO.C,R19*%
X124995276Y-139227500D02*
X125504724Y-139227500D01*
X124995276Y-140272500D02*
X125504724Y-140272500D01*
%TO.C,J8*%
X78499800Y-147382400D02*
X78499800Y-146632400D01*
X80749800Y-133082400D02*
X79999800Y-133082400D01*
X74789800Y-147392400D02*
X80759800Y-147392400D01*
X79999800Y-129782400D02*
X79999800Y-131582400D01*
X80749800Y-144082400D02*
X80749800Y-133082400D01*
X78499800Y-146632400D02*
X75549800Y-146632400D01*
X74789800Y-129772400D02*
X74789800Y-147392400D01*
X80749800Y-131582400D02*
X80749800Y-129782400D01*
X79999800Y-131582400D02*
X80749800Y-131582400D01*
X78499800Y-129782400D02*
X78499800Y-130532400D01*
X79999800Y-145582400D02*
X79999800Y-147382400D01*
X81049800Y-130732400D02*
X81049800Y-129482400D01*
X80749800Y-129782400D02*
X79999800Y-129782400D01*
X80749800Y-147382400D02*
X80749800Y-145582400D01*
X80759800Y-147392400D02*
X80759800Y-129772400D01*
X78499800Y-130532400D02*
X75549800Y-130532400D01*
X79999800Y-144082400D02*
X80749800Y-144082400D01*
X79999800Y-147382400D02*
X80749800Y-147382400D01*
X75549800Y-146632400D02*
X75549800Y-138582400D01*
X81049800Y-129482400D02*
X79799800Y-129482400D01*
X80749800Y-145582400D02*
X79999800Y-145582400D01*
X75549800Y-130532400D02*
X75549800Y-138582400D01*
X79999800Y-133082400D02*
X79999800Y-144082400D01*
X80759800Y-129772400D02*
X74789800Y-129772400D01*
%TD*%
G36*
X118542121Y-84670002D02*
G01*
X118588614Y-84723658D01*
X118600000Y-84776000D01*
X118600000Y-86274000D01*
X118579998Y-86342121D01*
X118526342Y-86388614D01*
X118474000Y-86400000D01*
X113726000Y-86400000D01*
X113657879Y-86379998D01*
X113611386Y-86326342D01*
X113600000Y-86274000D01*
X113600000Y-84776000D01*
X113620002Y-84707879D01*
X113673658Y-84661386D01*
X113726000Y-84650000D01*
X118474000Y-84650000D01*
X118542121Y-84670002D01*
G37*
M02*
