%TF.GenerationSoftware,KiCad,Pcbnew,(6.0.8)*%
%TF.CreationDate,2023-12-15T22:11:56-05:00*%
%TF.ProjectId,main_pcb,6d61696e-5f70-4636-922e-6b696361645f,rev?*%
%TF.SameCoordinates,Original*%
%TF.FileFunction,Soldermask,Bot*%
%TF.FilePolarity,Negative*%
%FSLAX46Y46*%
G04 Gerber Fmt 4.6, Leading zero omitted, Abs format (unit mm)*
G04 Created by KiCad (PCBNEW (6.0.8)) date 2023-12-15 22:11:56*
%MOMM*%
%LPD*%
G01*
G04 APERTURE LIST*
G04 Aperture macros list*
%AMRoundRect*
0 Rectangle with rounded corners*
0 $1 Rounding radius*
0 $2 $3 $4 $5 $6 $7 $8 $9 X,Y pos of 4 corners*
0 Add a 4 corners polygon primitive as box body*
4,1,4,$2,$3,$4,$5,$6,$7,$8,$9,$2,$3,0*
0 Add four circle primitives for the rounded corners*
1,1,$1+$1,$2,$3*
1,1,$1+$1,$4,$5*
1,1,$1+$1,$6,$7*
1,1,$1+$1,$8,$9*
0 Add four rect primitives between the rounded corners*
20,1,$1+$1,$2,$3,$4,$5,0*
20,1,$1+$1,$4,$5,$6,$7,0*
20,1,$1+$1,$6,$7,$8,$9,0*
20,1,$1+$1,$8,$9,$2,$3,0*%
G04 Aperture macros list end*
%ADD10C,3.200000*%
%ADD11R,1.800000X1.800000*%
%ADD12C,1.800000*%
%ADD13RoundRect,0.250000X-0.600000X-0.725000X0.600000X-0.725000X0.600000X0.725000X-0.600000X0.725000X0*%
%ADD14O,1.700000X1.950000*%
%ADD15R,1.700000X1.700000*%
%ADD16O,1.700000X1.700000*%
%ADD17C,1.700000*%
%ADD18RoundRect,0.250000X0.600000X0.725000X-0.600000X0.725000X-0.600000X-0.725000X0.600000X-0.725000X0*%
%ADD19RoundRect,0.250000X-0.725000X0.600000X-0.725000X-0.600000X0.725000X-0.600000X0.725000X0.600000X0*%
%ADD20O,1.950000X1.700000*%
G04 APERTURE END LIST*
D10*
%TO.C,H2*%
X125000000Y-55000000D03*
%TD*%
%TO.C,H4*%
X125000000Y-145000000D03*
%TD*%
D11*
%TO.C,D8*%
X126275000Y-114000000D03*
D12*
X123735000Y-114000000D03*
%TD*%
D13*
%TO.C,J3*%
X108000000Y-72475000D03*
D14*
X110500000Y-72475000D03*
X113000000Y-72475000D03*
X115500000Y-72475000D03*
X118000000Y-72475000D03*
%TD*%
D13*
%TO.C,J1*%
X108000000Y-54475000D03*
D14*
X110500000Y-54475000D03*
X113000000Y-54475000D03*
X115500000Y-54475000D03*
X118000000Y-54475000D03*
%TD*%
D11*
%TO.C,D5*%
X126250000Y-133500000D03*
D12*
X123710000Y-133500000D03*
%TD*%
D15*
%TO.C,U3*%
X54009000Y-118157000D03*
D16*
X54009000Y-120697000D03*
X54009000Y-123237000D03*
X54009000Y-125777000D03*
X54009000Y-128317000D03*
X54009000Y-130857000D03*
X54009000Y-133397000D03*
X54009000Y-135937000D03*
X64169000Y-135937000D03*
X64169000Y-133397000D03*
X64169000Y-130857000D03*
D17*
X64169000Y-128317000D03*
D16*
X64169000Y-125777000D03*
X64169000Y-123237000D03*
X64169000Y-120697000D03*
D15*
X64169000Y-118157000D03*
%TD*%
D11*
%TO.C,D7*%
X126275000Y-120500000D03*
D12*
X123735000Y-120500000D03*
%TD*%
D18*
%TO.C,J4*%
X101000000Y-73525000D03*
D14*
X98500000Y-73525000D03*
X96000000Y-73525000D03*
X93500000Y-73525000D03*
X91000000Y-73525000D03*
%TD*%
D19*
%TO.C,J10*%
X70612000Y-132334000D03*
D20*
X70612000Y-134834000D03*
X70612000Y-137334000D03*
X70612000Y-139834000D03*
X70612000Y-142334000D03*
X70612000Y-144834000D03*
%TD*%
D18*
%TO.C,J5*%
X101000000Y-64525000D03*
D14*
X98500000Y-64525000D03*
X96000000Y-64525000D03*
X93500000Y-64525000D03*
X91000000Y-64525000D03*
%TD*%
D18*
%TO.C,J6*%
X101000000Y-55525000D03*
D14*
X98500000Y-55525000D03*
X96000000Y-55525000D03*
X93500000Y-55525000D03*
X91000000Y-55525000D03*
%TD*%
D13*
%TO.C,J7*%
X106800000Y-111760000D03*
D14*
X109300000Y-111760000D03*
X111800000Y-111760000D03*
X114300000Y-111760000D03*
X116800000Y-111760000D03*
%TD*%
D10*
%TO.C,H1*%
X55000000Y-145000000D03*
%TD*%
D11*
%TO.C,D6*%
X126275000Y-127000000D03*
D12*
X123735000Y-127000000D03*
%TD*%
D13*
%TO.C,J2*%
X108000000Y-63475000D03*
D14*
X110500000Y-63475000D03*
X113000000Y-63475000D03*
X115500000Y-63475000D03*
X118000000Y-63475000D03*
%TD*%
D10*
%TO.C,H3*%
X55000000Y-55000000D03*
%TD*%
D19*
%TO.C,J8*%
X78299800Y-132332400D03*
D20*
X78299800Y-134832400D03*
X78299800Y-137332400D03*
X78299800Y-139832400D03*
X78299800Y-142332400D03*
X78299800Y-144832400D03*
%TD*%
M02*
