%TF.GenerationSoftware,KiCad,Pcbnew,7.0.8*%
%TF.CreationDate,2024-03-05T19:06:49-05:00*%
%TF.ProjectId,UpdatedPCB2024,55706461-7465-4645-9043-42323032342e,rev?*%
%TF.SameCoordinates,Original*%
%TF.FileFunction,Paste,Top*%
%TF.FilePolarity,Positive*%
%FSLAX46Y46*%
G04 Gerber Fmt 4.6, Leading zero omitted, Abs format (unit mm)*
G04 Created by KiCad (PCBNEW 7.0.8) date 2024-03-05 19:06:49*
%MOMM*%
%LPD*%
G01*
G04 APERTURE LIST*
G04 Aperture macros list*
%AMRoundRect*
0 Rectangle with rounded corners*
0 $1 Rounding radius*
0 $2 $3 $4 $5 $6 $7 $8 $9 X,Y pos of 4 corners*
0 Add a 4 corners polygon primitive as box body*
4,1,4,$2,$3,$4,$5,$6,$7,$8,$9,$2,$3,0*
0 Add four circle primitives for the rounded corners*
1,1,$1+$1,$2,$3*
1,1,$1+$1,$4,$5*
1,1,$1+$1,$6,$7*
1,1,$1+$1,$8,$9*
0 Add four rect primitives between the rounded corners*
20,1,$1+$1,$2,$3,$4,$5,0*
20,1,$1+$1,$4,$5,$6,$7,0*
20,1,$1+$1,$6,$7,$8,$9,0*
20,1,$1+$1,$8,$9,$2,$3,0*%
G04 Aperture macros list end*
%ADD10R,1.422400X0.558800*%
%ADD11R,0.965200X0.863600*%
%ADD12R,2.540000X9.530000*%
%ADD13R,3.657600X1.905000*%
%ADD14RoundRect,0.237500X-0.250000X-0.237500X0.250000X-0.237500X0.250000X0.237500X-0.250000X0.237500X0*%
%ADD15RoundRect,0.250000X1.950000X1.000000X-1.950000X1.000000X-1.950000X-1.000000X1.950000X-1.000000X0*%
%ADD16R,1.305598X1.449997*%
%ADD17R,0.558800X1.422400*%
%ADD18R,1.447800X0.558800*%
%ADD19R,2.260600X2.489200*%
%ADD20R,1.422400X0.355600*%
%ADD21R,2.997200X3.098800*%
G04 APERTURE END LIST*
D10*
%TO.C,Q2*%
X116858000Y-104710001D03*
X116858000Y-102809999D03*
X114572000Y-103760000D03*
%TD*%
D11*
%TO.C,C2*%
X101600000Y-107100100D03*
X101600000Y-105499900D03*
%TD*%
D12*
%TO.C,L1*%
X105265000Y-119000000D03*
X113175000Y-119000000D03*
%TD*%
D13*
%TO.C,C1*%
X97256600Y-96140000D03*
X88900000Y-96140000D03*
%TD*%
D14*
%TO.C,R2*%
X96238500Y-134620000D03*
X98063500Y-134620000D03*
%TD*%
D15*
%TO.C,C5*%
X96300000Y-106300000D03*
X88900000Y-106300000D03*
%TD*%
D16*
%TO.C,C4*%
X102402799Y-101220000D03*
X100797201Y-101220000D03*
%TD*%
D14*
%TO.C,R1*%
X88618500Y-134620000D03*
X90443500Y-134620000D03*
%TD*%
D17*
%TO.C,Q1*%
X114764999Y-109983000D03*
X116665001Y-109983000D03*
X115715000Y-107697000D03*
%TD*%
D18*
%TO.C,C3*%
X119380000Y-107658900D03*
X119380000Y-110021100D03*
%TD*%
D19*
%TO.C,C6*%
X105555000Y-109728000D03*
X111092200Y-109728000D03*
%TD*%
D14*
%TO.C,R4*%
X111478500Y-134620000D03*
X113303500Y-134620000D03*
%TD*%
%TO.C,R3*%
X103858500Y-134620000D03*
X105683500Y-134620000D03*
%TD*%
D20*
%TO.C,U3*%
X105250200Y-101809999D03*
X105250200Y-102460000D03*
X105250200Y-103110001D03*
X105250200Y-103760000D03*
X105250200Y-104409999D03*
X105250200Y-105060000D03*
X105250200Y-105709999D03*
X110939800Y-105710001D03*
X110939800Y-105060000D03*
X110939800Y-104410001D03*
X110939800Y-103760000D03*
X110939800Y-103110001D03*
X110939800Y-102460000D03*
X110939800Y-101810001D03*
D21*
X108095000Y-103760000D03*
%TD*%
M02*
