%TF.GenerationSoftware,KiCad,Pcbnew,7.0.8*%
%TF.CreationDate,2024-03-05T19:06:49-05:00*%
%TF.ProjectId,UpdatedPCB2024,55706461-7465-4645-9043-42323032342e,rev?*%
%TF.SameCoordinates,Original*%
%TF.FileFunction,Copper,L2,Bot*%
%TF.FilePolarity,Positive*%
%FSLAX46Y46*%
G04 Gerber Fmt 4.6, Leading zero omitted, Abs format (unit mm)*
G04 Created by KiCad (PCBNEW 7.0.8) date 2024-03-05 19:06:49*
%MOMM*%
%LPD*%
G01*
G04 APERTURE LIST*
G04 Aperture macros list*
%AMRoundRect*
0 Rectangle with rounded corners*
0 $1 Rounding radius*
0 $2 $3 $4 $5 $6 $7 $8 $9 X,Y pos of 4 corners*
0 Add a 4 corners polygon primitive as box body*
4,1,4,$2,$3,$4,$5,$6,$7,$8,$9,$2,$3,0*
0 Add four circle primitives for the rounded corners*
1,1,$1+$1,$2,$3*
1,1,$1+$1,$4,$5*
1,1,$1+$1,$6,$7*
1,1,$1+$1,$8,$9*
0 Add four rect primitives between the rounded corners*
20,1,$1+$1,$2,$3,$4,$5,0*
20,1,$1+$1,$4,$5,$6,$7,0*
20,1,$1+$1,$6,$7,$8,$9,0*
20,1,$1+$1,$8,$9,$2,$3,0*%
G04 Aperture macros list end*
%TA.AperFunction,ComponentPad*%
%ADD10O,1.700000X1.950000*%
%TD*%
%TA.AperFunction,ComponentPad*%
%ADD11RoundRect,0.250000X0.600000X0.725000X-0.600000X0.725000X-0.600000X-0.725000X0.600000X-0.725000X0*%
%TD*%
%TA.AperFunction,ComponentPad*%
%ADD12RoundRect,0.250000X-0.725000X0.600000X-0.725000X-0.600000X0.725000X-0.600000X0.725000X0.600000X0*%
%TD*%
%TA.AperFunction,ComponentPad*%
%ADD13O,1.950000X1.700000*%
%TD*%
%TA.AperFunction,ComponentPad*%
%ADD14R,1.800000X1.800000*%
%TD*%
%TA.AperFunction,ComponentPad*%
%ADD15C,1.800000*%
%TD*%
%TA.AperFunction,ComponentPad*%
%ADD16C,3.000000*%
%TD*%
%TA.AperFunction,ComponentPad*%
%ADD17R,3.000000X3.000000*%
%TD*%
%TA.AperFunction,ComponentPad*%
%ADD18C,1.600000*%
%TD*%
%TA.AperFunction,ComponentPad*%
%ADD19R,1.700000X1.700000*%
%TD*%
%TA.AperFunction,ComponentPad*%
%ADD20O,1.700000X1.700000*%
%TD*%
%TA.AperFunction,ComponentPad*%
%ADD21C,1.700000*%
%TD*%
%TA.AperFunction,ViaPad*%
%ADD22C,0.500000*%
%TD*%
%TA.AperFunction,ViaPad*%
%ADD23C,0.800000*%
%TD*%
%TA.AperFunction,Conductor*%
%ADD24C,0.600000*%
%TD*%
%TA.AperFunction,Conductor*%
%ADD25C,0.250000*%
%TD*%
G04 APERTURE END LIST*
D10*
%TO.P,J8,6,Pin_6*%
%TO.N,/AOUT1*%
X147520000Y-132080000D03*
%TO.P,J8,5,Pin_5*%
%TO.N,/AOUT2*%
X150020000Y-132080000D03*
%TO.P,J8,4,Pin_4*%
%TO.N,+3V3*%
X152520000Y-132080000D03*
%TO.P,J8,3,Pin_3*%
%TO.N,/AEQ1*%
X155020000Y-132080000D03*
%TO.P,J8,2,Pin_2*%
%TO.N,/AEQ2*%
X157520000Y-132080000D03*
D11*
%TO.P,J8,1,Pin_1*%
%TO.N,GND*%
X160020000Y-132080000D03*
%TD*%
D12*
%TO.P,J2,1,Pin_1*%
%TO.N,GND*%
X93980000Y-73740000D03*
D13*
%TO.P,J2,2,Pin_2*%
%TO.N,/SDA0*%
X93980000Y-76240000D03*
%TO.P,J2,3,Pin_3*%
%TO.N,/SCL0*%
X93980000Y-78740000D03*
%TO.P,J2,4,Pin_4*%
%TO.N,/LCS2*%
X93980000Y-81240000D03*
%TO.P,J2,5,Pin_5*%
%TO.N,+3V3*%
X93980000Y-83740000D03*
%TD*%
D14*
%TO.P,D3,1,K*%
%TO.N,Net-(D3-K)*%
X104771000Y-129540000D03*
D15*
%TO.P,D3,2,A*%
%TO.N,/LED2*%
X107311000Y-129540000D03*
%TD*%
D12*
%TO.P,J1,1,Pin_1*%
%TO.N,GND*%
X124460000Y-73740000D03*
D13*
%TO.P,J1,2,Pin_2*%
%TO.N,/SDA0*%
X124460000Y-76240000D03*
%TO.P,J1,3,Pin_3*%
%TO.N,/SCL0*%
X124460000Y-78740000D03*
%TO.P,J1,4,Pin_4*%
%TO.N,/LCS1*%
X124460000Y-81240000D03*
%TO.P,J1,5,Pin_5*%
%TO.N,+3V3*%
X124460000Y-83740000D03*
%TD*%
D14*
%TO.P,D1,1,K*%
%TO.N,Net-(D1-K)*%
X89531000Y-129540000D03*
D15*
%TO.P,D1,2,A*%
%TO.N,/LED0*%
X92071000Y-129540000D03*
%TD*%
D16*
%TO.P,SW1,1,A*%
%TO.N,unconnected-(SW1-A-Pad1)*%
X99060000Y-114300000D03*
%TO.P,SW1,2,B*%
%TO.N,Net-(J10-Pin_2)*%
X99060000Y-119000000D03*
%TO.P,SW1,3,C*%
%TO.N,+BATT*%
X99060000Y-123700000D03*
%TD*%
D17*
%TO.P,J10,1,Pin_1*%
%TO.N,GND*%
X91440000Y-121540000D03*
D16*
%TO.P,J10,2,Pin_2*%
%TO.N,Net-(J10-Pin_2)*%
X91440000Y-116460000D03*
%TD*%
D18*
%TO.P,U1,Vin,Vin*%
%TO.N,+BATT*%
X124460000Y-99060000D03*
%TO.P,U1,VBat,VBat*%
%TO.N,unconnected-(U1-PadVBat)*%
X157480000Y-111760000D03*
%TO.P,U1,Prg,Prg*%
%TO.N,unconnected-(U1-PadPrg)*%
X157480000Y-104140000D03*
%TO.P,U1,On/Off,On/Off*%
%TO.N,unconnected-(U1-PadOn{slash}Off)*%
X157480000Y-101600000D03*
%TO.P,U1,G3,GND*%
%TO.N,GND*%
X127000000Y-99060000D03*
%TO.P,U1,G2,GND*%
%TO.N,unconnected-(U1-GND-PadG2)*%
X157480000Y-106680000D03*
%TO.P,U1,G1,GND*%
%TO.N,GND*%
X124460000Y-114300000D03*
%TO.P,U1,34*%
%TO.N,N/C*%
X127000000Y-101600000D03*
%TO.P,U1,33*%
X149860000Y-101600000D03*
%TO.P,U1,32*%
X152400000Y-101600000D03*
%TO.P,U1,31*%
X149860000Y-104140000D03*
%TO.P,U1,30*%
X152400000Y-104140000D03*
%TO.P,U1,29*%
X149860000Y-106680000D03*
%TO.P,U1,28*%
X152400000Y-106680000D03*
%TO.P,U1,27*%
X149860000Y-109220000D03*
%TO.P,U1,26*%
X152400000Y-109220000D03*
%TO.P,U1,25*%
X149860000Y-111760000D03*
%TO.P,U1,24*%
X152400000Y-111760000D03*
%TO.P,U1,23,IO23*%
%TO.N,/LCS2*%
X132080000Y-99060000D03*
%TO.P,U1,22,IO22*%
%TO.N,/LCS4*%
X134620000Y-99060000D03*
%TO.P,U1,21,IO21*%
%TO.N,/LCS3*%
X137160000Y-99060000D03*
%TO.P,U1,20,IO20*%
%TO.N,/LCS1*%
X139700000Y-99060000D03*
%TO.P,U1,19,IO19*%
%TO.N,/SCL0*%
X142240000Y-99060000D03*
%TO.P,U1,18,IO18*%
%TO.N,/SDA0*%
X144780000Y-99060000D03*
%TO.P,U1,17,IO17*%
%TO.N,unconnected-(U1-IO17-Pad17)*%
X147320000Y-99060000D03*
%TO.P,U1,16,IO16*%
%TO.N,/LCS5*%
X149860000Y-99060000D03*
%TO.P,U1,15,IO15*%
%TO.N,/LCS7*%
X152400000Y-99060000D03*
%TO.P,U1,14,IO14*%
%TO.N,/LCS6*%
X154940000Y-99060000D03*
%TO.P,U1,13,IO13*%
%TO.N,unconnected-(U1-IO13-Pad13)*%
X157480000Y-99060000D03*
%TO.P,U1,12,IO12*%
%TO.N,/AEQ2*%
X157480000Y-114300000D03*
%TO.P,U1,11,IO11*%
%TO.N,/BEQ2*%
X154940000Y-114300000D03*
%TO.P,U1,10,IO10*%
%TO.N,/AEQ1*%
X152400000Y-114300000D03*
%TO.P,U1,9,IO9*%
%TO.N,/BEQ1*%
X149860000Y-114300000D03*
%TO.P,U1,8,IO8*%
%TO.N,/AIN1*%
X147320000Y-114300000D03*
%TO.P,U1,7,IO7*%
%TO.N,/AIN2*%
X144780000Y-114300000D03*
%TO.P,U1,6,IO6*%
%TO.N,/BIN2*%
X142240000Y-114300000D03*
%TO.P,U1,5,IO5*%
%TO.N,/BIN1*%
X139700000Y-114300000D03*
%TO.P,U1,4,IO4*%
%TO.N,/LED3*%
X137160000Y-114300000D03*
%TO.P,U1,3V*%
%TO.N,N/C*%
X129540000Y-99060000D03*
%TO.P,U1,3.3V,3.3V*%
%TO.N,unconnected-(U1-Pad3.3V)*%
X157480000Y-109220000D03*
%TO.P,U1,3,IO3*%
%TO.N,/LED2*%
X134620000Y-114300000D03*
%TO.P,U1,2,IO2*%
%TO.N,/LED1*%
X132080000Y-114300000D03*
%TO.P,U1,1,IO1*%
%TO.N,/LED0*%
X129540000Y-114300000D03*
%TO.P,U1,0,IO0*%
%TO.N,unconnected-(U1-IO0-Pad0)*%
X127000000Y-114300000D03*
%TD*%
D12*
%TO.P,J7,1,Pin_1*%
%TO.N,GND*%
X154940000Y-73740000D03*
D13*
%TO.P,J7,2,Pin_2*%
%TO.N,/SDA0*%
X154940000Y-76240000D03*
%TO.P,J7,3,Pin_3*%
%TO.N,/SCL0*%
X154940000Y-78740000D03*
%TO.P,J7,4,Pin_4*%
%TO.N,/LCS7*%
X154940000Y-81240000D03*
%TO.P,J7,5,Pin_5*%
%TO.N,+3V3*%
X154940000Y-83740000D03*
%TD*%
D12*
%TO.P,J6,1,Pin_1*%
%TO.N,GND*%
X144780000Y-73740000D03*
D13*
%TO.P,J6,2,Pin_2*%
%TO.N,/SDA0*%
X144780000Y-76240000D03*
%TO.P,J6,3,Pin_3*%
%TO.N,/SCL0*%
X144780000Y-78740000D03*
%TO.P,J6,4,Pin_4*%
%TO.N,/LCS6*%
X144780000Y-81240000D03*
%TO.P,J6,5,Pin_5*%
%TO.N,+3V3*%
X144780000Y-83740000D03*
%TD*%
D12*
%TO.P,J3,1,Pin_1*%
%TO.N,GND*%
X104140000Y-73740000D03*
D13*
%TO.P,J3,2,Pin_2*%
%TO.N,/SDA0*%
X104140000Y-76240000D03*
%TO.P,J3,3,Pin_3*%
%TO.N,/SCL0*%
X104140000Y-78740000D03*
%TO.P,J3,4,Pin_4*%
%TO.N,/LCS3*%
X104140000Y-81240000D03*
%TO.P,J3,5,Pin_5*%
%TO.N,+3V3*%
X104140000Y-83740000D03*
%TD*%
D10*
%TO.P,J9,6,Pin_6*%
%TO.N,/BOUT2*%
X147520000Y-124460000D03*
%TO.P,J9,5,Pin_5*%
%TO.N,/BOUT1*%
X150020000Y-124460000D03*
%TO.P,J9,4,Pin_4*%
%TO.N,+3V3*%
X152520000Y-124460000D03*
%TO.P,J9,3,Pin_3*%
%TO.N,/BEQ1*%
X155020000Y-124460000D03*
%TO.P,J9,2,Pin_2*%
%TO.N,/BEQ2*%
X157520000Y-124460000D03*
D11*
%TO.P,J9,1,Pin_1*%
%TO.N,GND*%
X160020000Y-124460000D03*
%TD*%
D14*
%TO.P,D2,1,K*%
%TO.N,Net-(D2-K)*%
X96520000Y-129540000D03*
D15*
%TO.P,D2,2,A*%
%TO.N,/LED1*%
X99060000Y-129540000D03*
%TD*%
D19*
%TO.P,U2,16,GND1*%
%TO.N,GND*%
X123190000Y-121920000D03*
D20*
%TO.P,U2,15,VMM*%
%TO.N,unconnected-(U2-VMM-Pad15)*%
X125730000Y-121920000D03*
%TO.P,U2,14,BIN1*%
%TO.N,/BIN1*%
X128270000Y-121920000D03*
%TO.P,U2,13,BIN2*%
%TO.N,/BIN2*%
X130810000Y-121920000D03*
D21*
%TO.P,U2,12,AIN2*%
%TO.N,/AIN2*%
X133350000Y-121920000D03*
D20*
%TO.P,U2,11,AIN1*%
%TO.N,/AIN1*%
X135890000Y-121920000D03*
%TO.P,U2,10,~{SLP}*%
%TO.N,unconnected-(U2-~{SLP}-Pad10)*%
X138430000Y-121920000D03*
%TO.P,U2,9,~{FLT}*%
%TO.N,unconnected-(U2-~{FLT}-Pad9)*%
X140970000Y-121920000D03*
%TO.P,U2,8,BISEN*%
%TO.N,unconnected-(U2-BISEN-Pad8)*%
X140970000Y-132080000D03*
%TO.P,U2,7,AISEN*%
%TO.N,unconnected-(U2-AISEN-Pad7)*%
X138430000Y-132080000D03*
%TO.P,U2,6,AOUT1*%
%TO.N,/AOUT1*%
X135890000Y-132080000D03*
%TO.P,U2,5,AOUT2*%
%TO.N,/AOUT2*%
X133350000Y-132080000D03*
%TO.P,U2,4,BOUT2*%
%TO.N,/BOUT2*%
X130810000Y-132080000D03*
%TO.P,U2,3,BOUT1*%
%TO.N,/BOUT1*%
X128270000Y-132080000D03*
%TO.P,U2,2,VIN*%
%TO.N,+BATT*%
X125730000Y-132080000D03*
D19*
%TO.P,U2,1,GND0*%
%TO.N,GND*%
X123190000Y-132080000D03*
%TD*%
D14*
%TO.P,D4,1,K*%
%TO.N,Net-(D4-K)*%
X112663000Y-129540000D03*
D15*
%TO.P,D4,2,A*%
%TO.N,/LED3*%
X115203000Y-129540000D03*
%TD*%
D12*
%TO.P,J4,1,Pin_1*%
%TO.N,GND*%
X114300000Y-73740000D03*
D13*
%TO.P,J4,2,Pin_2*%
%TO.N,/SDA0*%
X114300000Y-76240000D03*
%TO.P,J4,3,Pin_3*%
%TO.N,/SCL0*%
X114300000Y-78740000D03*
%TO.P,J4,4,Pin_4*%
%TO.N,/LCS4*%
X114300000Y-81240000D03*
%TO.P,J4,5,Pin_5*%
%TO.N,+3V3*%
X114300000Y-83740000D03*
%TD*%
D12*
%TO.P,J5,1,Pin_1*%
%TO.N,GND*%
X134620000Y-73740000D03*
D13*
%TO.P,J5,2,Pin_2*%
%TO.N,/SDA0*%
X134620000Y-76240000D03*
%TO.P,J5,3,Pin_3*%
%TO.N,/SCL0*%
X134620000Y-78740000D03*
%TO.P,J5,4,Pin_4*%
%TO.N,/LCS5*%
X134620000Y-81240000D03*
%TO.P,J5,5,Pin_5*%
%TO.N,+3V3*%
X134620000Y-83740000D03*
%TD*%
D22*
%TO.N,+BATT*%
X119380000Y-114300000D03*
D23*
%TO.N,GND*%
X108712000Y-116078000D03*
X88900000Y-112268000D03*
X88138000Y-125222000D03*
X88138000Y-133350000D03*
X92456000Y-135382000D03*
X100838000Y-135382000D03*
X108458000Y-135636000D03*
X119888000Y-135382000D03*
X87630000Y-102616000D03*
X87884000Y-89662000D03*
X87884000Y-82550000D03*
X102870000Y-104648000D03*
X99568000Y-103124000D03*
X114046000Y-101600000D03*
X149352000Y-73660000D03*
X139446000Y-73660000D03*
X128778000Y-73660000D03*
X119126000Y-73660000D03*
X98552000Y-73660000D03*
X108712000Y-73660000D03*
X119888000Y-99822000D03*
%TD*%
D24*
%TO.N,+BATT*%
X119380000Y-125730000D02*
X125730000Y-132080000D01*
X119380000Y-114300000D02*
X119380000Y-125730000D01*
D25*
%TO.N,+3V3*%
X152520000Y-124460000D02*
X152520000Y-132080000D01*
X156065000Y-120915000D02*
X152520000Y-124460000D01*
X156065000Y-84865000D02*
X156065000Y-120915000D01*
X154940000Y-83740000D02*
X156065000Y-84865000D01*
X124460000Y-83740000D02*
X134620000Y-83740000D01*
X124460000Y-83740000D02*
X114300000Y-83740000D01*
%TO.N,/SCL0*%
X134620000Y-78740000D02*
X124460000Y-78740000D01*
%TD*%
%TA.AperFunction,Conductor*%
%TO.N,GND*%
G36*
X172408539Y-69870185D02*
G01*
X172454294Y-69922989D01*
X172465500Y-69974500D01*
X172465500Y-136781500D01*
X172445815Y-136848539D01*
X172393011Y-136894294D01*
X172341500Y-136905500D01*
X80642500Y-136905500D01*
X80575461Y-136885815D01*
X80529706Y-136833011D01*
X80518500Y-136781500D01*
X80518500Y-132588000D01*
X81528477Y-132588000D01*
X81536384Y-132713692D01*
X81536506Y-132717561D01*
X81536506Y-132747648D01*
X81540276Y-132777495D01*
X81540642Y-132781372D01*
X81548547Y-132907024D01*
X81548549Y-132907041D01*
X81572145Y-133030738D01*
X81572754Y-133034584D01*
X81576523Y-133064415D01*
X81576524Y-133064419D01*
X81584003Y-133093551D01*
X81584849Y-133097336D01*
X81608448Y-133221043D01*
X81608450Y-133221050D01*
X81647359Y-133340800D01*
X81648445Y-133344539D01*
X81655926Y-133373673D01*
X81667002Y-133401652D01*
X81668320Y-133405314D01*
X81707231Y-133525067D01*
X81760850Y-133639013D01*
X81762389Y-133642569D01*
X81773465Y-133670543D01*
X81773470Y-133670556D01*
X81787954Y-133696901D01*
X81789723Y-133700372D01*
X81843339Y-133814311D01*
X81843342Y-133814317D01*
X81910812Y-133920633D01*
X81912795Y-133923985D01*
X81927284Y-133950341D01*
X81927289Y-133950349D01*
X81944971Y-133974687D01*
X81947160Y-133977908D01*
X81984362Y-134036528D01*
X82014629Y-134084221D01*
X82094901Y-134181253D01*
X82097273Y-134184311D01*
X82097276Y-134184316D01*
X82097279Y-134184319D01*
X82114960Y-134208655D01*
X82114963Y-134208660D01*
X82135551Y-134230584D01*
X82138127Y-134233505D01*
X82218390Y-134330526D01*
X82218399Y-134330536D01*
X82310173Y-134416716D01*
X82312913Y-134419455D01*
X82323403Y-134430626D01*
X82333530Y-134441411D01*
X82356715Y-134460591D01*
X82359636Y-134463166D01*
X82451421Y-134549357D01*
X82451431Y-134549365D01*
X82553294Y-134623373D01*
X82556372Y-134625761D01*
X82567580Y-134635032D01*
X82579550Y-134644935D01*
X82579552Y-134644936D01*
X82579553Y-134644937D01*
X82604960Y-134661061D01*
X82608165Y-134663239D01*
X82710041Y-134737256D01*
X82820419Y-134797937D01*
X82823720Y-134799889D01*
X82849136Y-134816019D01*
X82876372Y-134828835D01*
X82879796Y-134830580D01*
X82990169Y-134891258D01*
X82990174Y-134891260D01*
X82990176Y-134891261D01*
X82990177Y-134891262D01*
X83107247Y-134937613D01*
X83110821Y-134939159D01*
X83138039Y-134951967D01*
X83166677Y-134961272D01*
X83170308Y-134962580D01*
X83287390Y-135008936D01*
X83409396Y-135040262D01*
X83413077Y-135041331D01*
X83441703Y-135050633D01*
X83441705Y-135050633D01*
X83441707Y-135050634D01*
X83449195Y-135052062D01*
X83471267Y-135056272D01*
X83475017Y-135057110D01*
X83597017Y-135088435D01*
X83597030Y-135088436D01*
X83597032Y-135088437D01*
X83605802Y-135089544D01*
X83721975Y-135104220D01*
X83725757Y-135104819D01*
X83755339Y-135110463D01*
X83785376Y-135112352D01*
X83789232Y-135112717D01*
X83846001Y-135119888D01*
X83914155Y-135128499D01*
X83914161Y-135128499D01*
X83914165Y-135128500D01*
X83914167Y-135128500D01*
X84040091Y-135128500D01*
X84043963Y-135128621D01*
X84069541Y-135130230D01*
X84073998Y-135130511D01*
X84074000Y-135130511D01*
X84074002Y-135130511D01*
X84078458Y-135130230D01*
X84104036Y-135128621D01*
X84107909Y-135128500D01*
X84233833Y-135128500D01*
X84233835Y-135128500D01*
X84233840Y-135128499D01*
X84233844Y-135128499D01*
X84281869Y-135122431D01*
X84358767Y-135112717D01*
X84362623Y-135112352D01*
X84392661Y-135110463D01*
X84422257Y-135104817D01*
X84426009Y-135104222D01*
X84550983Y-135088435D01*
X84673015Y-135057102D01*
X84676688Y-135056281D01*
X84706297Y-135050633D01*
X84734945Y-135041324D01*
X84738588Y-135040265D01*
X84860610Y-135008936D01*
X84977704Y-134962575D01*
X84981319Y-134961273D01*
X85009961Y-134951967D01*
X85037205Y-134939146D01*
X85040722Y-134937624D01*
X85157831Y-134891258D01*
X85268228Y-134830566D01*
X85271613Y-134828842D01*
X85298864Y-134816019D01*
X85324316Y-134799866D01*
X85327560Y-134797948D01*
X85437959Y-134737256D01*
X85539846Y-134663230D01*
X85543039Y-134661061D01*
X85568450Y-134644935D01*
X85591662Y-134625731D01*
X85594663Y-134623403D01*
X85696577Y-134549359D01*
X85788389Y-134463141D01*
X85791263Y-134460608D01*
X85814469Y-134441411D01*
X85835102Y-134419438D01*
X85837789Y-134416751D01*
X85929606Y-134330530D01*
X86009903Y-134233466D01*
X86012406Y-134230628D01*
X86033038Y-134208658D01*
X86050731Y-134184305D01*
X86053087Y-134181266D01*
X86133371Y-134084221D01*
X86133374Y-134084215D01*
X86133379Y-134084210D01*
X86164818Y-134034667D01*
X86200861Y-133977873D01*
X86203012Y-133974709D01*
X86220713Y-133950346D01*
X86235232Y-133923935D01*
X86237153Y-133920685D01*
X86304659Y-133814315D01*
X86358285Y-133700353D01*
X86360015Y-133696956D01*
X86374533Y-133670549D01*
X86385626Y-133642528D01*
X86387136Y-133639040D01*
X86440767Y-133525070D01*
X86479687Y-133405286D01*
X86480990Y-133401666D01*
X86492072Y-133373679D01*
X86499560Y-133344511D01*
X86500629Y-133340834D01*
X86539551Y-133221046D01*
X86563161Y-133097274D01*
X86563986Y-133093588D01*
X86571476Y-133064419D01*
X86575250Y-133034541D01*
X86575845Y-133030782D01*
X86599451Y-132907039D01*
X86599451Y-132907038D01*
X86599452Y-132907032D01*
X86607357Y-132781372D01*
X86607358Y-132781350D01*
X86607724Y-132777486D01*
X86611493Y-132747652D01*
X86611494Y-132747646D01*
X86612141Y-132706377D01*
X86612252Y-132703560D01*
X86619523Y-132588000D01*
X86612252Y-132472443D01*
X86612141Y-132469619D01*
X86611494Y-132428354D01*
X86607723Y-132398502D01*
X86607358Y-132394649D01*
X86603291Y-132330000D01*
X86599452Y-132268968D01*
X86599449Y-132268954D01*
X86575850Y-132145243D01*
X86575243Y-132141403D01*
X86571476Y-132111587D01*
X86571476Y-132111581D01*
X86571473Y-132111571D01*
X86569439Y-132103648D01*
X86563991Y-132082432D01*
X86563155Y-132078695D01*
X86539551Y-131954954D01*
X86500633Y-131835178D01*
X86499559Y-131831484D01*
X86492072Y-131802321D01*
X86486840Y-131789107D01*
X86480998Y-131774349D01*
X86479679Y-131770685D01*
X86449009Y-131676295D01*
X86440767Y-131650930D01*
X86438705Y-131646549D01*
X86419154Y-131605000D01*
X86387140Y-131536968D01*
X86385622Y-131533458D01*
X86374533Y-131505451D01*
X86360036Y-131479081D01*
X86358269Y-131475613D01*
X86304659Y-131361685D01*
X86237180Y-131255356D01*
X86235210Y-131252025D01*
X86220713Y-131225654D01*
X86203747Y-131202302D01*
X86203028Y-131201312D01*
X86200838Y-131198090D01*
X86190725Y-131182155D01*
X86133371Y-131091779D01*
X86053098Y-130994746D01*
X86050741Y-130991708D01*
X86033038Y-130967342D01*
X86012436Y-130945403D01*
X86009871Y-130942493D01*
X85929609Y-130845473D01*
X85929607Y-130845471D01*
X85887679Y-130806098D01*
X85837805Y-130759263D01*
X85835086Y-130756544D01*
X85817004Y-130737288D01*
X85814473Y-130734593D01*
X85814469Y-130734589D01*
X85791275Y-130715400D01*
X85788355Y-130712825D01*
X85696589Y-130626651D01*
X85696573Y-130626638D01*
X85594706Y-130552626D01*
X85591629Y-130550240D01*
X85579241Y-130539992D01*
X85568450Y-130531065D01*
X85556667Y-130523587D01*
X85543039Y-130514938D01*
X85539820Y-130512749D01*
X85505577Y-130487870D01*
X88130500Y-130487870D01*
X88130501Y-130487876D01*
X88136908Y-130547483D01*
X88187202Y-130682328D01*
X88187206Y-130682335D01*
X88273452Y-130797544D01*
X88273455Y-130797547D01*
X88388664Y-130883793D01*
X88388671Y-130883797D01*
X88523517Y-130934091D01*
X88523516Y-130934091D01*
X88530444Y-130934835D01*
X88583127Y-130940500D01*
X90478872Y-130940499D01*
X90538483Y-130934091D01*
X90673331Y-130883796D01*
X90788546Y-130797546D01*
X90874796Y-130682331D01*
X90875256Y-130681097D01*
X90903455Y-130605493D01*
X90945326Y-130549559D01*
X91010790Y-130525141D01*
X91079063Y-130539992D01*
X91110866Y-130564843D01*
X91118302Y-130572920D01*
X91119215Y-130573912D01*
X91119222Y-130573918D01*
X91302365Y-130716464D01*
X91302371Y-130716468D01*
X91302374Y-130716470D01*
X91506497Y-130826936D01*
X91572495Y-130849593D01*
X91726015Y-130902297D01*
X91726017Y-130902297D01*
X91726019Y-130902298D01*
X91954951Y-130940500D01*
X91954952Y-130940500D01*
X92187048Y-130940500D01*
X92187049Y-130940500D01*
X92415981Y-130902298D01*
X92635503Y-130826936D01*
X92839626Y-130716470D01*
X92858936Y-130701441D01*
X92955039Y-130626641D01*
X93022784Y-130573913D01*
X93101992Y-130487870D01*
X95119500Y-130487870D01*
X95119501Y-130487876D01*
X95125908Y-130547483D01*
X95176202Y-130682328D01*
X95176206Y-130682335D01*
X95262452Y-130797544D01*
X95262455Y-130797547D01*
X95377664Y-130883793D01*
X95377671Y-130883797D01*
X95512517Y-130934091D01*
X95512516Y-130934091D01*
X95519444Y-130934835D01*
X95572127Y-130940500D01*
X97467872Y-130940499D01*
X97527483Y-130934091D01*
X97662331Y-130883796D01*
X97777546Y-130797546D01*
X97863796Y-130682331D01*
X97864256Y-130681097D01*
X97892455Y-130605493D01*
X97934326Y-130549559D01*
X97999790Y-130525141D01*
X98068063Y-130539992D01*
X98099866Y-130564843D01*
X98107302Y-130572920D01*
X98108215Y-130573912D01*
X98108222Y-130573918D01*
X98291365Y-130716464D01*
X98291371Y-130716468D01*
X98291374Y-130716470D01*
X98495497Y-130826936D01*
X98561495Y-130849593D01*
X98715015Y-130902297D01*
X98715017Y-130902297D01*
X98715019Y-130902298D01*
X98943951Y-130940500D01*
X98943952Y-130940500D01*
X99176048Y-130940500D01*
X99176049Y-130940500D01*
X99404981Y-130902298D01*
X99624503Y-130826936D01*
X99828626Y-130716470D01*
X99847936Y-130701441D01*
X99944039Y-130626641D01*
X100011784Y-130573913D01*
X100090992Y-130487870D01*
X103370500Y-130487870D01*
X103370501Y-130487876D01*
X103376908Y-130547483D01*
X103427202Y-130682328D01*
X103427206Y-130682335D01*
X103513452Y-130797544D01*
X103513455Y-130797547D01*
X103628664Y-130883793D01*
X103628671Y-130883797D01*
X103763517Y-130934091D01*
X103763516Y-130934091D01*
X103770444Y-130934835D01*
X103823127Y-130940500D01*
X105718872Y-130940499D01*
X105778483Y-130934091D01*
X105913331Y-130883796D01*
X106028546Y-130797546D01*
X106114796Y-130682331D01*
X106115256Y-130681097D01*
X106143455Y-130605493D01*
X106185326Y-130549559D01*
X106250790Y-130525141D01*
X106319063Y-130539992D01*
X106350866Y-130564843D01*
X106358302Y-130572920D01*
X106359215Y-130573912D01*
X106359222Y-130573918D01*
X106542365Y-130716464D01*
X106542371Y-130716468D01*
X106542374Y-130716470D01*
X106746497Y-130826936D01*
X106812495Y-130849593D01*
X106966015Y-130902297D01*
X106966017Y-130902297D01*
X106966019Y-130902298D01*
X107194951Y-130940500D01*
X107194952Y-130940500D01*
X107427048Y-130940500D01*
X107427049Y-130940500D01*
X107655981Y-130902298D01*
X107875503Y-130826936D01*
X108079626Y-130716470D01*
X108098936Y-130701441D01*
X108195039Y-130626641D01*
X108262784Y-130573913D01*
X108341992Y-130487870D01*
X111262500Y-130487870D01*
X111262501Y-130487876D01*
X111268908Y-130547483D01*
X111319202Y-130682328D01*
X111319206Y-130682335D01*
X111405452Y-130797544D01*
X111405455Y-130797547D01*
X111520664Y-130883793D01*
X111520671Y-130883797D01*
X111655517Y-130934091D01*
X111655516Y-130934091D01*
X111662444Y-130934835D01*
X111715127Y-130940500D01*
X113610872Y-130940499D01*
X113670483Y-130934091D01*
X113805331Y-130883796D01*
X113920546Y-130797546D01*
X114006796Y-130682331D01*
X114007256Y-130681097D01*
X114035455Y-130605493D01*
X114077326Y-130549559D01*
X114142790Y-130525141D01*
X114211063Y-130539992D01*
X114242866Y-130564843D01*
X114250302Y-130572920D01*
X114251215Y-130573912D01*
X114251222Y-130573918D01*
X114434365Y-130716464D01*
X114434371Y-130716468D01*
X114434374Y-130716470D01*
X114638497Y-130826936D01*
X114704495Y-130849593D01*
X114858015Y-130902297D01*
X114858017Y-130902297D01*
X114858019Y-130902298D01*
X115086951Y-130940500D01*
X115086952Y-130940500D01*
X115319048Y-130940500D01*
X115319049Y-130940500D01*
X115547981Y-130902298D01*
X115767503Y-130826936D01*
X115971626Y-130716470D01*
X115990936Y-130701441D01*
X116087039Y-130626641D01*
X116154784Y-130573913D01*
X116311979Y-130403153D01*
X116438924Y-130208849D01*
X116532157Y-129996300D01*
X116589134Y-129771305D01*
X116608300Y-129540000D01*
X116608300Y-129539993D01*
X116589135Y-129308702D01*
X116589133Y-129308691D01*
X116532157Y-129083699D01*
X116438924Y-128871151D01*
X116311983Y-128676852D01*
X116311980Y-128676849D01*
X116311979Y-128676847D01*
X116154784Y-128506087D01*
X116154779Y-128506083D01*
X116154777Y-128506081D01*
X115971634Y-128363535D01*
X115971628Y-128363531D01*
X115767504Y-128253064D01*
X115767495Y-128253061D01*
X115547984Y-128177702D01*
X115357450Y-128145908D01*
X115319049Y-128139500D01*
X115086951Y-128139500D01*
X115048550Y-128145908D01*
X114858015Y-128177702D01*
X114638504Y-128253061D01*
X114638495Y-128253064D01*
X114434371Y-128363531D01*
X114434365Y-128363535D01*
X114251222Y-128506081D01*
X114251218Y-128506085D01*
X114242866Y-128515158D01*
X114182979Y-128551148D01*
X114113141Y-128549047D01*
X114055525Y-128509522D01*
X114035455Y-128474507D01*
X114006797Y-128397671D01*
X114006793Y-128397664D01*
X113920547Y-128282455D01*
X113920544Y-128282452D01*
X113805335Y-128196206D01*
X113805328Y-128196202D01*
X113670482Y-128145908D01*
X113670483Y-128145908D01*
X113610883Y-128139501D01*
X113610881Y-128139500D01*
X113610873Y-128139500D01*
X113610864Y-128139500D01*
X111715129Y-128139500D01*
X111715123Y-128139501D01*
X111655516Y-128145908D01*
X111520671Y-128196202D01*
X111520664Y-128196206D01*
X111405455Y-128282452D01*
X111405452Y-128282455D01*
X111319206Y-128397664D01*
X111319202Y-128397671D01*
X111268908Y-128532517D01*
X111262501Y-128592116D01*
X111262500Y-128592135D01*
X111262500Y-130487870D01*
X108341992Y-130487870D01*
X108419979Y-130403153D01*
X108546924Y-130208849D01*
X108640157Y-129996300D01*
X108697134Y-129771305D01*
X108716300Y-129540000D01*
X108716300Y-129539993D01*
X108697135Y-129308702D01*
X108697133Y-129308691D01*
X108640157Y-129083699D01*
X108546924Y-128871151D01*
X108419983Y-128676852D01*
X108419980Y-128676849D01*
X108419979Y-128676847D01*
X108262784Y-128506087D01*
X108262779Y-128506083D01*
X108262777Y-128506081D01*
X108079634Y-128363535D01*
X108079628Y-128363531D01*
X107875504Y-128253064D01*
X107875495Y-128253061D01*
X107655984Y-128177702D01*
X107465450Y-128145908D01*
X107427049Y-128139500D01*
X107194951Y-128139500D01*
X107156550Y-128145908D01*
X106966015Y-128177702D01*
X106746504Y-128253061D01*
X106746495Y-128253064D01*
X106542371Y-128363531D01*
X106542365Y-128363535D01*
X106359222Y-128506081D01*
X106359218Y-128506085D01*
X106350866Y-128515158D01*
X106290979Y-128551148D01*
X106221141Y-128549047D01*
X106163525Y-128509522D01*
X106143455Y-128474507D01*
X106114797Y-128397671D01*
X106114793Y-128397664D01*
X106028547Y-128282455D01*
X106028544Y-128282452D01*
X105913335Y-128196206D01*
X105913328Y-128196202D01*
X105778482Y-128145908D01*
X105778483Y-128145908D01*
X105718883Y-128139501D01*
X105718881Y-128139500D01*
X105718873Y-128139500D01*
X105718864Y-128139500D01*
X103823129Y-128139500D01*
X103823123Y-128139501D01*
X103763516Y-128145908D01*
X103628671Y-128196202D01*
X103628664Y-128196206D01*
X103513455Y-128282452D01*
X103513452Y-128282455D01*
X103427206Y-128397664D01*
X103427202Y-128397671D01*
X103376908Y-128532517D01*
X103370501Y-128592116D01*
X103370500Y-128592135D01*
X103370500Y-130487870D01*
X100090992Y-130487870D01*
X100168979Y-130403153D01*
X100295924Y-130208849D01*
X100389157Y-129996300D01*
X100446134Y-129771305D01*
X100465300Y-129540000D01*
X100465300Y-129539993D01*
X100446135Y-129308702D01*
X100446133Y-129308691D01*
X100389157Y-129083699D01*
X100295924Y-128871151D01*
X100168983Y-128676852D01*
X100168980Y-128676849D01*
X100168979Y-128676847D01*
X100011784Y-128506087D01*
X100011779Y-128506083D01*
X100011777Y-128506081D01*
X99828634Y-128363535D01*
X99828628Y-128363531D01*
X99624504Y-128253064D01*
X99624495Y-128253061D01*
X99404984Y-128177702D01*
X99214450Y-128145908D01*
X99176049Y-128139500D01*
X98943951Y-128139500D01*
X98905550Y-128145908D01*
X98715015Y-128177702D01*
X98495504Y-128253061D01*
X98495495Y-128253064D01*
X98291371Y-128363531D01*
X98291365Y-128363535D01*
X98108222Y-128506081D01*
X98108218Y-128506085D01*
X98099866Y-128515158D01*
X98039979Y-128551148D01*
X97970141Y-128549047D01*
X97912525Y-128509522D01*
X97892455Y-128474507D01*
X97863797Y-128397671D01*
X97863793Y-128397664D01*
X97777547Y-128282455D01*
X97777544Y-128282452D01*
X97662335Y-128196206D01*
X97662328Y-128196202D01*
X97527482Y-128145908D01*
X97527483Y-128145908D01*
X97467883Y-128139501D01*
X97467881Y-128139500D01*
X97467873Y-128139500D01*
X97467864Y-128139500D01*
X95572129Y-128139500D01*
X95572123Y-128139501D01*
X95512516Y-128145908D01*
X95377671Y-128196202D01*
X95377664Y-128196206D01*
X95262455Y-128282452D01*
X95262452Y-128282455D01*
X95176206Y-128397664D01*
X95176202Y-128397671D01*
X95125908Y-128532517D01*
X95119501Y-128592116D01*
X95119500Y-128592135D01*
X95119500Y-130487870D01*
X93101992Y-130487870D01*
X93179979Y-130403153D01*
X93306924Y-130208849D01*
X93400157Y-129996300D01*
X93457134Y-129771305D01*
X93476300Y-129540000D01*
X93476300Y-129539993D01*
X93457135Y-129308702D01*
X93457133Y-129308691D01*
X93400157Y-129083699D01*
X93306924Y-128871151D01*
X93179983Y-128676852D01*
X93179980Y-128676849D01*
X93179979Y-128676847D01*
X93022784Y-128506087D01*
X93022779Y-128506083D01*
X93022777Y-128506081D01*
X92839634Y-128363535D01*
X92839628Y-128363531D01*
X92635504Y-128253064D01*
X92635495Y-128253061D01*
X92415984Y-128177702D01*
X92225450Y-128145908D01*
X92187049Y-128139500D01*
X91954951Y-128139500D01*
X91916550Y-128145908D01*
X91726015Y-128177702D01*
X91506504Y-128253061D01*
X91506495Y-128253064D01*
X91302371Y-128363531D01*
X91302365Y-128363535D01*
X91119222Y-128506081D01*
X91119218Y-128506085D01*
X91110866Y-128515158D01*
X91050979Y-128551148D01*
X90981141Y-128549047D01*
X90923525Y-128509522D01*
X90903455Y-128474507D01*
X90874797Y-128397671D01*
X90874793Y-128397664D01*
X90788547Y-128282455D01*
X90788544Y-128282452D01*
X90673335Y-128196206D01*
X90673328Y-128196202D01*
X90538482Y-128145908D01*
X90538483Y-128145908D01*
X90478883Y-128139501D01*
X90478881Y-128139500D01*
X90478873Y-128139500D01*
X90478864Y-128139500D01*
X88583129Y-128139500D01*
X88583123Y-128139501D01*
X88523516Y-128145908D01*
X88388671Y-128196202D01*
X88388664Y-128196206D01*
X88273455Y-128282452D01*
X88273452Y-128282455D01*
X88187206Y-128397664D01*
X88187202Y-128397671D01*
X88136908Y-128532517D01*
X88130501Y-128592116D01*
X88130500Y-128592135D01*
X88130500Y-130487870D01*
X85505577Y-130487870D01*
X85437970Y-130438751D01*
X85437958Y-130438743D01*
X85327608Y-130378077D01*
X85324256Y-130376095D01*
X85298866Y-130359982D01*
X85298864Y-130359981D01*
X85271643Y-130347171D01*
X85268174Y-130345403D01*
X85157837Y-130284745D01*
X85157835Y-130284744D01*
X85157831Y-130284742D01*
X85117118Y-130268622D01*
X85040757Y-130238388D01*
X85037184Y-130236842D01*
X85009961Y-130224033D01*
X85001033Y-130221132D01*
X84981362Y-130214740D01*
X84977699Y-130213421D01*
X84860610Y-130167063D01*
X84738643Y-130135748D01*
X84734902Y-130134661D01*
X84706301Y-130125368D01*
X84706303Y-130125368D01*
X84676740Y-130119728D01*
X84672959Y-130118883D01*
X84604947Y-130101420D01*
X84550985Y-130087565D01*
X84550975Y-130087563D01*
X84426070Y-130071784D01*
X84422224Y-130071175D01*
X84392679Y-130065539D01*
X84392663Y-130065537D01*
X84392661Y-130065537D01*
X84388478Y-130065273D01*
X84362632Y-130063647D01*
X84358756Y-130063280D01*
X84233846Y-130047500D01*
X84233835Y-130047500D01*
X84107909Y-130047500D01*
X84104036Y-130047378D01*
X84078458Y-130045769D01*
X84074002Y-130045489D01*
X84073998Y-130045489D01*
X84069541Y-130045769D01*
X84043963Y-130047378D01*
X84040091Y-130047500D01*
X83914153Y-130047500D01*
X83789244Y-130063280D01*
X83785368Y-130063647D01*
X83757586Y-130065395D01*
X83755339Y-130065537D01*
X83755337Y-130065537D01*
X83755321Y-130065539D01*
X83725778Y-130071175D01*
X83721931Y-130071784D01*
X83597020Y-130087564D01*
X83545024Y-130100914D01*
X83475037Y-130118884D01*
X83471246Y-130119731D01*
X83441705Y-130125366D01*
X83427620Y-130129942D01*
X83413089Y-130134664D01*
X83409360Y-130135747D01*
X83287387Y-130167064D01*
X83170309Y-130213417D01*
X83166648Y-130214735D01*
X83138044Y-130224030D01*
X83138035Y-130224034D01*
X83110817Y-130236841D01*
X83107246Y-130238386D01*
X82990167Y-130284742D01*
X82990164Y-130284744D01*
X82879825Y-130345403D01*
X82876357Y-130347170D01*
X82849139Y-130359979D01*
X82849135Y-130359981D01*
X82823744Y-130376094D01*
X82820394Y-130378075D01*
X82710058Y-130438733D01*
X82710040Y-130438744D01*
X82608170Y-130512755D01*
X82604951Y-130514943D01*
X82579556Y-130531060D01*
X82579551Y-130531064D01*
X82556373Y-130550236D01*
X82553298Y-130552621D01*
X82451423Y-130626641D01*
X82451419Y-130626644D01*
X82359639Y-130712829D01*
X82356720Y-130715403D01*
X82333533Y-130734586D01*
X82333529Y-130734590D01*
X82312929Y-130756527D01*
X82310176Y-130759280D01*
X82218393Y-130845470D01*
X82218391Y-130845472D01*
X82138136Y-130942483D01*
X82135562Y-130945403D01*
X82114968Y-130967334D01*
X82114954Y-130967352D01*
X82097276Y-130991683D01*
X82094889Y-130994760D01*
X82014639Y-131091765D01*
X82014625Y-131091784D01*
X81947158Y-131198092D01*
X81944971Y-131201310D01*
X81927287Y-131225652D01*
X81912797Y-131252009D01*
X81910815Y-131255360D01*
X81843346Y-131361675D01*
X81843338Y-131361688D01*
X81789728Y-131475616D01*
X81787961Y-131479085D01*
X81773466Y-131505452D01*
X81762392Y-131533422D01*
X81760845Y-131536996D01*
X81707234Y-131650927D01*
X81668319Y-131770689D01*
X81667001Y-131774351D01*
X81655929Y-131802317D01*
X81655926Y-131802323D01*
X81648444Y-131831464D01*
X81647358Y-131835202D01*
X81608450Y-131954949D01*
X81608449Y-131954953D01*
X81584851Y-132078652D01*
X81584002Y-132082450D01*
X81576526Y-132111571D01*
X81576523Y-132111587D01*
X81572753Y-132141416D01*
X81572144Y-132145259D01*
X81548550Y-132268954D01*
X81548547Y-132268975D01*
X81540642Y-132394626D01*
X81540276Y-132398502D01*
X81536506Y-132428347D01*
X81536506Y-132458437D01*
X81536384Y-132462309D01*
X81528477Y-132588000D01*
X80518500Y-132588000D01*
X80518500Y-125820191D01*
X118579500Y-125820191D01*
X118579501Y-125820200D01*
X118588791Y-125860908D01*
X118589955Y-125867763D01*
X118594632Y-125909259D01*
X118608420Y-125948662D01*
X118610345Y-125955345D01*
X118619639Y-125996061D01*
X118637759Y-126033688D01*
X118640421Y-126040114D01*
X118654212Y-126079525D01*
X118676422Y-126114872D01*
X118679787Y-126120959D01*
X118697910Y-126158589D01*
X118723940Y-126191229D01*
X118727966Y-126196904D01*
X118750182Y-126232259D01*
X118750184Y-126232262D01*
X123036241Y-130518319D01*
X123069726Y-130579642D01*
X123064742Y-130649334D01*
X123022870Y-130705267D01*
X122957406Y-130729684D01*
X122948560Y-130730000D01*
X122292155Y-130730000D01*
X122232627Y-130736401D01*
X122232620Y-130736403D01*
X122097913Y-130786645D01*
X122097906Y-130786649D01*
X121982812Y-130872809D01*
X121982809Y-130872812D01*
X121896649Y-130987906D01*
X121896645Y-130987913D01*
X121846403Y-131122620D01*
X121846401Y-131122627D01*
X121840000Y-131182155D01*
X121840000Y-131830000D01*
X122744428Y-131830000D01*
X122721318Y-131865960D01*
X122680000Y-132006673D01*
X122680000Y-132153327D01*
X122721318Y-132294040D01*
X122744428Y-132330000D01*
X121840000Y-132330000D01*
X121840000Y-132977844D01*
X121846401Y-133037372D01*
X121846403Y-133037379D01*
X121896645Y-133172086D01*
X121896649Y-133172093D01*
X121982809Y-133287187D01*
X121982812Y-133287190D01*
X122097906Y-133373350D01*
X122097913Y-133373354D01*
X122232620Y-133423596D01*
X122232627Y-133423598D01*
X122292155Y-133429999D01*
X122292172Y-133430000D01*
X122940000Y-133430000D01*
X122940000Y-132526494D01*
X123044839Y-132574373D01*
X123153527Y-132590000D01*
X123226473Y-132590000D01*
X123335161Y-132574373D01*
X123440000Y-132526494D01*
X123440000Y-133430000D01*
X124087828Y-133430000D01*
X124087844Y-133429999D01*
X124147372Y-133423598D01*
X124147379Y-133423596D01*
X124282086Y-133373354D01*
X124282093Y-133373350D01*
X124397187Y-133287190D01*
X124397190Y-133287187D01*
X124483350Y-133172093D01*
X124483354Y-133172086D01*
X124532422Y-133040529D01*
X124574293Y-132984595D01*
X124639757Y-132960178D01*
X124708030Y-132975030D01*
X124736285Y-132996181D01*
X124858599Y-133118495D01*
X124935135Y-133172086D01*
X125052165Y-133254032D01*
X125052167Y-133254033D01*
X125052170Y-133254035D01*
X125266337Y-133353903D01*
X125494592Y-133415063D01*
X125665319Y-133430000D01*
X125729999Y-133435659D01*
X125730000Y-133435659D01*
X125730001Y-133435659D01*
X125794681Y-133430000D01*
X125965408Y-133415063D01*
X126193663Y-133353903D01*
X126407830Y-133254035D01*
X126601401Y-133118495D01*
X126768495Y-132951401D01*
X126898425Y-132765842D01*
X126953002Y-132722217D01*
X127022500Y-132715023D01*
X127084855Y-132746546D01*
X127101575Y-132765842D01*
X127231500Y-132951395D01*
X127231505Y-132951401D01*
X127398599Y-133118495D01*
X127475135Y-133172086D01*
X127592165Y-133254032D01*
X127592167Y-133254033D01*
X127592170Y-133254035D01*
X127806337Y-133353903D01*
X128034592Y-133415063D01*
X128205319Y-133430000D01*
X128269999Y-133435659D01*
X128270000Y-133435659D01*
X128270001Y-133435659D01*
X128334681Y-133430000D01*
X128505408Y-133415063D01*
X128733663Y-133353903D01*
X128947830Y-133254035D01*
X129141401Y-133118495D01*
X129308495Y-132951401D01*
X129438425Y-132765842D01*
X129493002Y-132722217D01*
X129562500Y-132715023D01*
X129624855Y-132746546D01*
X129641575Y-132765842D01*
X129771500Y-132951395D01*
X129771505Y-132951401D01*
X129938599Y-133118495D01*
X130015135Y-133172086D01*
X130132165Y-133254032D01*
X130132167Y-133254033D01*
X130132170Y-133254035D01*
X130346337Y-133353903D01*
X130574592Y-133415063D01*
X130745319Y-133430000D01*
X130809999Y-133435659D01*
X130810000Y-133435659D01*
X130810001Y-133435659D01*
X130874681Y-133430000D01*
X131045408Y-133415063D01*
X131273663Y-133353903D01*
X131487830Y-133254035D01*
X131681401Y-133118495D01*
X131848495Y-132951401D01*
X131978425Y-132765842D01*
X132033002Y-132722217D01*
X132102500Y-132715023D01*
X132164855Y-132746546D01*
X132181575Y-132765842D01*
X132311500Y-132951395D01*
X132311505Y-132951401D01*
X132478599Y-133118495D01*
X132555135Y-133172086D01*
X132672165Y-133254032D01*
X132672167Y-133254033D01*
X132672170Y-133254035D01*
X132886337Y-133353903D01*
X133114592Y-133415063D01*
X133285319Y-133430000D01*
X133349999Y-133435659D01*
X133350000Y-133435659D01*
X133350001Y-133435659D01*
X133414681Y-133430000D01*
X133585408Y-133415063D01*
X133813663Y-133353903D01*
X134027830Y-133254035D01*
X134221401Y-133118495D01*
X134388495Y-132951401D01*
X134518425Y-132765842D01*
X134573002Y-132722217D01*
X134642500Y-132715023D01*
X134704855Y-132746546D01*
X134721575Y-132765842D01*
X134851500Y-132951395D01*
X134851505Y-132951401D01*
X135018599Y-133118495D01*
X135095135Y-133172086D01*
X135212165Y-133254032D01*
X135212167Y-133254033D01*
X135212170Y-133254035D01*
X135426337Y-133353903D01*
X135654592Y-133415063D01*
X135825319Y-133430000D01*
X135889999Y-133435659D01*
X135890000Y-133435659D01*
X135890001Y-133435659D01*
X135954681Y-133430000D01*
X136125408Y-133415063D01*
X136353663Y-133353903D01*
X136567830Y-133254035D01*
X136761401Y-133118495D01*
X136928495Y-132951401D01*
X137058425Y-132765842D01*
X137113002Y-132722217D01*
X137182500Y-132715023D01*
X137244855Y-132746546D01*
X137261575Y-132765842D01*
X137391500Y-132951395D01*
X137391505Y-132951401D01*
X137558599Y-133118495D01*
X137635135Y-133172086D01*
X137752165Y-133254032D01*
X137752167Y-133254033D01*
X137752170Y-133254035D01*
X137966337Y-133353903D01*
X138194592Y-133415063D01*
X138365319Y-133430000D01*
X138429999Y-133435659D01*
X138430000Y-133435659D01*
X138430001Y-133435659D01*
X138494681Y-133430000D01*
X138665408Y-133415063D01*
X138893663Y-133353903D01*
X139107830Y-133254035D01*
X139301401Y-133118495D01*
X139468495Y-132951401D01*
X139598425Y-132765842D01*
X139653002Y-132722217D01*
X139722500Y-132715023D01*
X139784855Y-132746546D01*
X139801575Y-132765842D01*
X139931500Y-132951395D01*
X139931505Y-132951401D01*
X140098599Y-133118495D01*
X140175135Y-133172086D01*
X140292165Y-133254032D01*
X140292167Y-133254033D01*
X140292170Y-133254035D01*
X140506337Y-133353903D01*
X140734592Y-133415063D01*
X140905319Y-133430000D01*
X140969999Y-133435659D01*
X140970000Y-133435659D01*
X140970001Y-133435659D01*
X141034681Y-133430000D01*
X141205408Y-133415063D01*
X141433663Y-133353903D01*
X141647830Y-133254035D01*
X141841401Y-133118495D01*
X142008495Y-132951401D01*
X142144035Y-132757830D01*
X142243903Y-132543663D01*
X142305063Y-132315408D01*
X142325659Y-132080000D01*
X142305063Y-131844592D01*
X142243903Y-131616337D01*
X142144035Y-131402171D01*
X142138425Y-131394158D01*
X142008494Y-131208597D01*
X141841402Y-131041506D01*
X141841395Y-131041501D01*
X141841369Y-131041483D01*
X141735500Y-130967352D01*
X141647834Y-130905967D01*
X141647830Y-130905965D01*
X141606428Y-130886659D01*
X141433663Y-130806097D01*
X141433659Y-130806096D01*
X141433655Y-130806094D01*
X141205413Y-130744938D01*
X141205403Y-130744936D01*
X140970001Y-130724341D01*
X140969999Y-130724341D01*
X140734596Y-130744936D01*
X140734586Y-130744938D01*
X140506344Y-130806094D01*
X140506335Y-130806098D01*
X140292171Y-130905964D01*
X140292169Y-130905965D01*
X140098597Y-131041505D01*
X139931505Y-131208597D01*
X139801575Y-131394158D01*
X139746998Y-131437783D01*
X139677500Y-131444977D01*
X139615145Y-131413454D01*
X139598425Y-131394158D01*
X139468494Y-131208597D01*
X139301402Y-131041506D01*
X139301395Y-131041501D01*
X139301369Y-131041483D01*
X139195500Y-130967352D01*
X139107834Y-130905967D01*
X139107830Y-130905965D01*
X139066428Y-130886659D01*
X138893663Y-130806097D01*
X138893659Y-130806096D01*
X138893655Y-130806094D01*
X138665413Y-130744938D01*
X138665403Y-130744936D01*
X138430001Y-130724341D01*
X138429999Y-130724341D01*
X138194596Y-130744936D01*
X138194586Y-130744938D01*
X137966344Y-130806094D01*
X137966335Y-130806098D01*
X137752171Y-130905964D01*
X137752169Y-130905965D01*
X137558597Y-131041505D01*
X137391505Y-131208597D01*
X137261575Y-131394158D01*
X137206998Y-131437783D01*
X137137500Y-131444977D01*
X137075145Y-131413454D01*
X137058425Y-131394158D01*
X136928494Y-131208597D01*
X136761402Y-131041506D01*
X136761395Y-131041501D01*
X136761369Y-131041483D01*
X136655500Y-130967352D01*
X136567834Y-130905967D01*
X136567830Y-130905965D01*
X136526428Y-130886659D01*
X136353663Y-130806097D01*
X136353659Y-130806096D01*
X136353655Y-130806094D01*
X136125413Y-130744938D01*
X136125403Y-130744936D01*
X135890001Y-130724341D01*
X135889999Y-130724341D01*
X135654596Y-130744936D01*
X135654586Y-130744938D01*
X135426344Y-130806094D01*
X135426335Y-130806098D01*
X135212171Y-130905964D01*
X135212169Y-130905965D01*
X135018597Y-131041505D01*
X134851505Y-131208597D01*
X134721575Y-131394158D01*
X134666998Y-131437783D01*
X134597500Y-131444977D01*
X134535145Y-131413454D01*
X134518425Y-131394158D01*
X134388494Y-131208597D01*
X134221402Y-131041506D01*
X134221395Y-131041501D01*
X134221369Y-131041483D01*
X134115500Y-130967352D01*
X134027834Y-130905967D01*
X134027830Y-130905965D01*
X133986428Y-130886659D01*
X133813663Y-130806097D01*
X133813659Y-130806096D01*
X133813655Y-130806094D01*
X133585413Y-130744938D01*
X133585403Y-130744936D01*
X133350001Y-130724341D01*
X133349999Y-130724341D01*
X133114596Y-130744936D01*
X133114586Y-130744938D01*
X132886344Y-130806094D01*
X132886335Y-130806098D01*
X132672171Y-130905964D01*
X132672169Y-130905965D01*
X132478597Y-131041505D01*
X132311505Y-131208597D01*
X132181575Y-131394158D01*
X132126998Y-131437783D01*
X132057500Y-131444977D01*
X131995145Y-131413454D01*
X131978425Y-131394158D01*
X131848494Y-131208597D01*
X131681402Y-131041506D01*
X131681395Y-131041501D01*
X131681369Y-131041483D01*
X131575500Y-130967352D01*
X131487834Y-130905967D01*
X131487830Y-130905965D01*
X131446428Y-130886659D01*
X131273663Y-130806097D01*
X131273659Y-130806096D01*
X131273655Y-130806094D01*
X131045413Y-130744938D01*
X131045403Y-130744936D01*
X130810001Y-130724341D01*
X130809999Y-130724341D01*
X130574596Y-130744936D01*
X130574586Y-130744938D01*
X130346344Y-130806094D01*
X130346335Y-130806098D01*
X130132171Y-130905964D01*
X130132169Y-130905965D01*
X129938597Y-131041505D01*
X129771505Y-131208597D01*
X129641575Y-131394158D01*
X129586998Y-131437783D01*
X129517500Y-131444977D01*
X129455145Y-131413454D01*
X129438425Y-131394158D01*
X129308494Y-131208597D01*
X129141402Y-131041506D01*
X129141395Y-131041501D01*
X129141369Y-131041483D01*
X129035500Y-130967352D01*
X128947834Y-130905967D01*
X128947830Y-130905965D01*
X128906428Y-130886659D01*
X128733663Y-130806097D01*
X128733659Y-130806096D01*
X128733655Y-130806094D01*
X128505413Y-130744938D01*
X128505403Y-130744936D01*
X128270001Y-130724341D01*
X128269999Y-130724341D01*
X128034596Y-130744936D01*
X128034586Y-130744938D01*
X127806344Y-130806094D01*
X127806335Y-130806098D01*
X127592171Y-130905964D01*
X127592169Y-130905965D01*
X127398597Y-131041505D01*
X127231505Y-131208597D01*
X127101575Y-131394158D01*
X127046998Y-131437783D01*
X126977500Y-131444977D01*
X126915145Y-131413454D01*
X126898425Y-131394158D01*
X126768494Y-131208597D01*
X126601402Y-131041506D01*
X126601395Y-131041501D01*
X126601369Y-131041483D01*
X126495500Y-130967352D01*
X126407834Y-130905967D01*
X126407830Y-130905965D01*
X126366428Y-130886659D01*
X126193663Y-130806097D01*
X126193659Y-130806096D01*
X126193655Y-130806094D01*
X125965413Y-130744938D01*
X125965403Y-130744936D01*
X125730001Y-130724341D01*
X125729998Y-130724341D01*
X125582007Y-130737288D01*
X125513507Y-130723521D01*
X125483519Y-130701441D01*
X120216819Y-125434741D01*
X120183334Y-125373418D01*
X120180500Y-125347060D01*
X120180500Y-122817844D01*
X121840000Y-122817844D01*
X121846401Y-122877372D01*
X121846403Y-122877379D01*
X121896645Y-123012086D01*
X121896649Y-123012093D01*
X121982809Y-123127187D01*
X121982812Y-123127190D01*
X122097906Y-123213350D01*
X122097913Y-123213354D01*
X122232620Y-123263596D01*
X122232627Y-123263598D01*
X122292155Y-123269999D01*
X122292172Y-123270000D01*
X122940000Y-123270000D01*
X122940000Y-122366494D01*
X123044839Y-122414373D01*
X123153527Y-122430000D01*
X123226473Y-122430000D01*
X123335161Y-122414373D01*
X123440000Y-122366494D01*
X123440000Y-123270000D01*
X124087828Y-123270000D01*
X124087844Y-123269999D01*
X124147372Y-123263598D01*
X124147379Y-123263596D01*
X124282086Y-123213354D01*
X124282093Y-123213350D01*
X124397187Y-123127190D01*
X124397190Y-123127187D01*
X124483350Y-123012093D01*
X124483354Y-123012086D01*
X124532422Y-122880529D01*
X124574293Y-122824595D01*
X124639757Y-122800178D01*
X124708030Y-122815030D01*
X124736285Y-122836181D01*
X124858599Y-122958495D01*
X124917786Y-122999938D01*
X125052165Y-123094032D01*
X125052167Y-123094033D01*
X125052170Y-123094035D01*
X125266337Y-123193903D01*
X125494592Y-123255063D01*
X125665319Y-123270000D01*
X125729999Y-123275659D01*
X125730000Y-123275659D01*
X125730001Y-123275659D01*
X125794681Y-123270000D01*
X125965408Y-123255063D01*
X126193663Y-123193903D01*
X126407830Y-123094035D01*
X126601401Y-122958495D01*
X126768495Y-122791401D01*
X126898425Y-122605842D01*
X126953002Y-122562217D01*
X127022500Y-122555023D01*
X127084855Y-122586546D01*
X127101575Y-122605842D01*
X127231500Y-122791395D01*
X127231505Y-122791401D01*
X127398599Y-122958495D01*
X127457786Y-122999938D01*
X127592165Y-123094032D01*
X127592167Y-123094033D01*
X127592170Y-123094035D01*
X127806337Y-123193903D01*
X128034592Y-123255063D01*
X128205319Y-123270000D01*
X128269999Y-123275659D01*
X128270000Y-123275659D01*
X128270001Y-123275659D01*
X128334681Y-123270000D01*
X128505408Y-123255063D01*
X128733663Y-123193903D01*
X128947830Y-123094035D01*
X129141401Y-122958495D01*
X129308495Y-122791401D01*
X129438425Y-122605842D01*
X129493002Y-122562217D01*
X129562500Y-122555023D01*
X129624855Y-122586546D01*
X129641575Y-122605842D01*
X129771500Y-122791395D01*
X129771505Y-122791401D01*
X129938599Y-122958495D01*
X129997786Y-122999938D01*
X130132165Y-123094032D01*
X130132167Y-123094033D01*
X130132170Y-123094035D01*
X130346337Y-123193903D01*
X130574592Y-123255063D01*
X130745319Y-123270000D01*
X130809999Y-123275659D01*
X130810000Y-123275659D01*
X130810001Y-123275659D01*
X130874681Y-123270000D01*
X131045408Y-123255063D01*
X131273663Y-123193903D01*
X131487830Y-123094035D01*
X131681401Y-122958495D01*
X131848495Y-122791401D01*
X131978425Y-122605842D01*
X132033002Y-122562217D01*
X132102500Y-122555023D01*
X132164855Y-122586546D01*
X132181575Y-122605842D01*
X132311500Y-122791395D01*
X132311505Y-122791401D01*
X132478599Y-122958495D01*
X132537786Y-122999938D01*
X132672165Y-123094032D01*
X132672167Y-123094033D01*
X132672170Y-123094035D01*
X132886337Y-123193903D01*
X133114592Y-123255063D01*
X133285319Y-123270000D01*
X133349999Y-123275659D01*
X133350000Y-123275659D01*
X133350001Y-123275659D01*
X133414681Y-123270000D01*
X133585408Y-123255063D01*
X133813663Y-123193903D01*
X134027830Y-123094035D01*
X134221401Y-122958495D01*
X134388495Y-122791401D01*
X134518425Y-122605842D01*
X134573002Y-122562217D01*
X134642500Y-122555023D01*
X134704855Y-122586546D01*
X134721575Y-122605842D01*
X134851500Y-122791395D01*
X134851505Y-122791401D01*
X135018599Y-122958495D01*
X135077786Y-122999938D01*
X135212165Y-123094032D01*
X135212167Y-123094033D01*
X135212170Y-123094035D01*
X135426337Y-123193903D01*
X135654592Y-123255063D01*
X135825319Y-123270000D01*
X135889999Y-123275659D01*
X135890000Y-123275659D01*
X135890001Y-123275659D01*
X135954681Y-123270000D01*
X136125408Y-123255063D01*
X136353663Y-123193903D01*
X136567830Y-123094035D01*
X136761401Y-122958495D01*
X136928495Y-122791401D01*
X137058425Y-122605842D01*
X137113002Y-122562217D01*
X137182500Y-122555023D01*
X137244855Y-122586546D01*
X137261575Y-122605842D01*
X137391500Y-122791395D01*
X137391505Y-122791401D01*
X137558599Y-122958495D01*
X137617786Y-122999938D01*
X137752165Y-123094032D01*
X137752167Y-123094033D01*
X137752170Y-123094035D01*
X137966337Y-123193903D01*
X138194592Y-123255063D01*
X138365319Y-123270000D01*
X138429999Y-123275659D01*
X138430000Y-123275659D01*
X138430001Y-123275659D01*
X138494681Y-123270000D01*
X138665408Y-123255063D01*
X138893663Y-123193903D01*
X139107830Y-123094035D01*
X139301401Y-122958495D01*
X139468495Y-122791401D01*
X139598425Y-122605842D01*
X139653002Y-122562217D01*
X139722500Y-122555023D01*
X139784855Y-122586546D01*
X139801575Y-122605842D01*
X139931500Y-122791395D01*
X139931505Y-122791401D01*
X140098599Y-122958495D01*
X140157786Y-122999938D01*
X140292165Y-123094032D01*
X140292167Y-123094033D01*
X140292170Y-123094035D01*
X140506337Y-123193903D01*
X140734592Y-123255063D01*
X140905319Y-123270000D01*
X140969999Y-123275659D01*
X140970000Y-123275659D01*
X140970001Y-123275659D01*
X141034681Y-123270000D01*
X141205408Y-123255063D01*
X141433663Y-123193903D01*
X141647830Y-123094035D01*
X141841401Y-122958495D01*
X142008495Y-122791401D01*
X142144035Y-122597830D01*
X142243903Y-122383663D01*
X142305063Y-122155408D01*
X142325659Y-121920000D01*
X142305063Y-121684592D01*
X142243903Y-121456337D01*
X142144035Y-121242171D01*
X142140366Y-121236930D01*
X142008494Y-121048597D01*
X141841402Y-120881506D01*
X141841395Y-120881501D01*
X141647834Y-120745967D01*
X141647830Y-120745965D01*
X141576727Y-120712809D01*
X141433663Y-120646097D01*
X141433659Y-120646096D01*
X141433655Y-120646094D01*
X141205413Y-120584938D01*
X141205403Y-120584936D01*
X140970001Y-120564341D01*
X140969999Y-120564341D01*
X140734596Y-120584936D01*
X140734586Y-120584938D01*
X140506344Y-120646094D01*
X140506335Y-120646098D01*
X140292171Y-120745964D01*
X140292169Y-120745965D01*
X140098597Y-120881505D01*
X139931505Y-121048597D01*
X139801575Y-121234158D01*
X139746998Y-121277783D01*
X139677500Y-121284977D01*
X139615145Y-121253454D01*
X139598425Y-121234158D01*
X139468494Y-121048597D01*
X139301402Y-120881506D01*
X139301395Y-120881501D01*
X139107834Y-120745967D01*
X139107830Y-120745965D01*
X139036727Y-120712809D01*
X138893663Y-120646097D01*
X138893659Y-120646096D01*
X138893655Y-120646094D01*
X138665413Y-120584938D01*
X138665403Y-120584936D01*
X138430001Y-120564341D01*
X138429999Y-120564341D01*
X138194596Y-120584936D01*
X138194586Y-120584938D01*
X137966344Y-120646094D01*
X137966335Y-120646098D01*
X137752171Y-120745964D01*
X137752169Y-120745965D01*
X137558597Y-120881505D01*
X137391505Y-121048597D01*
X137261575Y-121234158D01*
X137206998Y-121277783D01*
X137137500Y-121284977D01*
X137075145Y-121253454D01*
X137058425Y-121234158D01*
X136928494Y-121048597D01*
X136761402Y-120881506D01*
X136761395Y-120881501D01*
X136567834Y-120745967D01*
X136567830Y-120745965D01*
X136496727Y-120712809D01*
X136353663Y-120646097D01*
X136353659Y-120646096D01*
X136353655Y-120646094D01*
X136125413Y-120584938D01*
X136125403Y-120584936D01*
X135890001Y-120564341D01*
X135889999Y-120564341D01*
X135654596Y-120584936D01*
X135654586Y-120584938D01*
X135426344Y-120646094D01*
X135426335Y-120646098D01*
X135212171Y-120745964D01*
X135212169Y-120745965D01*
X135018597Y-120881505D01*
X134851505Y-121048597D01*
X134721575Y-121234158D01*
X134666998Y-121277783D01*
X134597500Y-121284977D01*
X134535145Y-121253454D01*
X134518425Y-121234158D01*
X134388494Y-121048597D01*
X134221402Y-120881506D01*
X134221395Y-120881501D01*
X134027834Y-120745967D01*
X134027830Y-120745965D01*
X133956727Y-120712809D01*
X133813663Y-120646097D01*
X133813659Y-120646096D01*
X133813655Y-120646094D01*
X133585413Y-120584938D01*
X133585403Y-120584936D01*
X133350001Y-120564341D01*
X133349999Y-120564341D01*
X133114596Y-120584936D01*
X133114586Y-120584938D01*
X132886344Y-120646094D01*
X132886335Y-120646098D01*
X132672171Y-120745964D01*
X132672169Y-120745965D01*
X132478597Y-120881505D01*
X132311505Y-121048597D01*
X132181575Y-121234158D01*
X132126998Y-121277783D01*
X132057500Y-121284977D01*
X131995145Y-121253454D01*
X131978425Y-121234158D01*
X131848494Y-121048597D01*
X131681402Y-120881506D01*
X131681395Y-120881501D01*
X131487834Y-120745967D01*
X131487830Y-120745965D01*
X131416727Y-120712809D01*
X131273663Y-120646097D01*
X131273659Y-120646096D01*
X131273655Y-120646094D01*
X131045413Y-120584938D01*
X131045403Y-120584936D01*
X130810001Y-120564341D01*
X130809999Y-120564341D01*
X130574596Y-120584936D01*
X130574586Y-120584938D01*
X130346344Y-120646094D01*
X130346335Y-120646098D01*
X130132171Y-120745964D01*
X130132169Y-120745965D01*
X129938597Y-120881505D01*
X129771505Y-121048597D01*
X129641575Y-121234158D01*
X129586998Y-121277783D01*
X129517500Y-121284977D01*
X129455145Y-121253454D01*
X129438425Y-121234158D01*
X129308494Y-121048597D01*
X129141402Y-120881506D01*
X129141395Y-120881501D01*
X128947834Y-120745967D01*
X128947830Y-120745965D01*
X128876727Y-120712809D01*
X128733663Y-120646097D01*
X128733659Y-120646096D01*
X128733655Y-120646094D01*
X128505413Y-120584938D01*
X128505403Y-120584936D01*
X128270001Y-120564341D01*
X128269999Y-120564341D01*
X128034596Y-120584936D01*
X128034586Y-120584938D01*
X127806344Y-120646094D01*
X127806335Y-120646098D01*
X127592171Y-120745964D01*
X127592169Y-120745965D01*
X127398597Y-120881505D01*
X127231505Y-121048597D01*
X127101575Y-121234158D01*
X127046998Y-121277783D01*
X126977500Y-121284977D01*
X126915145Y-121253454D01*
X126898425Y-121234158D01*
X126768494Y-121048597D01*
X126601402Y-120881506D01*
X126601395Y-120881501D01*
X126407834Y-120745967D01*
X126407830Y-120745965D01*
X126336727Y-120712809D01*
X126193663Y-120646097D01*
X126193659Y-120646096D01*
X126193655Y-120646094D01*
X125965413Y-120584938D01*
X125965403Y-120584936D01*
X125730001Y-120564341D01*
X125729999Y-120564341D01*
X125494596Y-120584936D01*
X125494586Y-120584938D01*
X125266344Y-120646094D01*
X125266335Y-120646098D01*
X125052171Y-120745964D01*
X125052169Y-120745965D01*
X124858600Y-120881503D01*
X124736284Y-121003819D01*
X124674961Y-121037303D01*
X124605269Y-121032319D01*
X124549336Y-120990447D01*
X124532421Y-120959470D01*
X124483354Y-120827913D01*
X124483350Y-120827906D01*
X124397190Y-120712812D01*
X124397187Y-120712809D01*
X124282093Y-120626649D01*
X124282086Y-120626645D01*
X124147379Y-120576403D01*
X124147372Y-120576401D01*
X124087844Y-120570000D01*
X123440000Y-120570000D01*
X123440000Y-121473505D01*
X123335161Y-121425627D01*
X123226473Y-121410000D01*
X123153527Y-121410000D01*
X123044839Y-121425627D01*
X122940000Y-121473505D01*
X122940000Y-120570000D01*
X122292155Y-120570000D01*
X122232627Y-120576401D01*
X122232620Y-120576403D01*
X122097913Y-120626645D01*
X122097906Y-120626649D01*
X121982812Y-120712809D01*
X121982809Y-120712812D01*
X121896649Y-120827906D01*
X121896645Y-120827913D01*
X121846403Y-120962620D01*
X121846401Y-120962627D01*
X121840000Y-121022155D01*
X121840000Y-121670000D01*
X122744428Y-121670000D01*
X122721318Y-121705960D01*
X122680000Y-121846673D01*
X122680000Y-121993327D01*
X122721318Y-122134040D01*
X122744428Y-122170000D01*
X121840000Y-122170000D01*
X121840000Y-122817844D01*
X120180500Y-122817844D01*
X120180500Y-114255043D01*
X120180499Y-114255039D01*
X120165369Y-114120750D01*
X120165368Y-114120745D01*
X120128214Y-114014566D01*
X120105789Y-113950478D01*
X120009816Y-113797738D01*
X119882262Y-113670184D01*
X119729523Y-113574211D01*
X119559254Y-113514631D01*
X119559249Y-113514630D01*
X119380004Y-113494435D01*
X119379996Y-113494435D01*
X119200750Y-113514630D01*
X119200745Y-113514631D01*
X119030476Y-113574211D01*
X118877737Y-113670184D01*
X118750184Y-113797737D01*
X118654211Y-113950476D01*
X118594631Y-114120745D01*
X118594630Y-114120750D01*
X118579500Y-114255039D01*
X118579500Y-125820191D01*
X80518500Y-125820191D01*
X80518500Y-123700001D01*
X97054390Y-123700001D01*
X97074804Y-123985433D01*
X97135628Y-124265037D01*
X97135630Y-124265043D01*
X97135631Y-124265046D01*
X97233818Y-124528295D01*
X97235635Y-124533166D01*
X97372770Y-124784309D01*
X97372775Y-124784317D01*
X97544254Y-125013387D01*
X97544270Y-125013405D01*
X97746594Y-125215729D01*
X97746612Y-125215745D01*
X97975682Y-125387224D01*
X97975690Y-125387229D01*
X98226833Y-125524364D01*
X98226832Y-125524364D01*
X98226836Y-125524365D01*
X98226839Y-125524367D01*
X98494954Y-125624369D01*
X98494960Y-125624370D01*
X98494962Y-125624371D01*
X98774566Y-125685195D01*
X98774568Y-125685195D01*
X98774572Y-125685196D01*
X99028220Y-125703337D01*
X99059999Y-125705610D01*
X99060000Y-125705610D01*
X99060001Y-125705610D01*
X99088595Y-125703564D01*
X99345428Y-125685196D01*
X99625046Y-125624369D01*
X99893161Y-125524367D01*
X100144315Y-125387226D01*
X100373395Y-125215739D01*
X100575739Y-125013395D01*
X100747226Y-124784315D01*
X100884367Y-124533161D01*
X100984369Y-124265046D01*
X100985326Y-124260649D01*
X101045195Y-123985433D01*
X101045195Y-123985432D01*
X101045196Y-123985428D01*
X101065610Y-123700000D01*
X101045196Y-123414572D01*
X101019512Y-123296506D01*
X100984371Y-123134962D01*
X100984370Y-123134960D01*
X100984369Y-123134954D01*
X100884367Y-122866839D01*
X100867626Y-122836181D01*
X100747229Y-122615690D01*
X100747224Y-122615682D01*
X100575745Y-122386612D01*
X100575729Y-122386594D01*
X100373405Y-122184270D01*
X100373387Y-122184254D01*
X100144317Y-122012775D01*
X100144309Y-122012770D01*
X99893166Y-121875635D01*
X99893167Y-121875635D01*
X99785915Y-121835632D01*
X99625046Y-121775631D01*
X99625043Y-121775630D01*
X99625037Y-121775628D01*
X99345433Y-121714804D01*
X99060001Y-121694390D01*
X99059999Y-121694390D01*
X98774566Y-121714804D01*
X98494962Y-121775628D01*
X98226833Y-121875635D01*
X97975690Y-122012770D01*
X97975682Y-122012775D01*
X97746612Y-122184254D01*
X97746594Y-122184270D01*
X97544270Y-122386594D01*
X97544254Y-122386612D01*
X97372775Y-122615682D01*
X97372770Y-122615690D01*
X97235635Y-122866833D01*
X97135628Y-123134962D01*
X97074804Y-123414566D01*
X97054390Y-123699998D01*
X97054390Y-123700001D01*
X80518500Y-123700001D01*
X80518500Y-123087844D01*
X89440000Y-123087844D01*
X89446401Y-123147372D01*
X89446403Y-123147379D01*
X89496645Y-123282086D01*
X89496649Y-123282093D01*
X89582809Y-123397187D01*
X89582812Y-123397190D01*
X89697906Y-123483350D01*
X89697913Y-123483354D01*
X89832620Y-123533596D01*
X89832627Y-123533598D01*
X89892155Y-123539999D01*
X89892172Y-123540000D01*
X91190000Y-123540000D01*
X91190000Y-122261802D01*
X91351169Y-122300000D01*
X91484267Y-122300000D01*
X91616461Y-122284549D01*
X91690000Y-122257782D01*
X91690000Y-123540000D01*
X92987828Y-123540000D01*
X92987844Y-123539999D01*
X93047372Y-123533598D01*
X93047379Y-123533596D01*
X93182086Y-123483354D01*
X93182093Y-123483350D01*
X93297187Y-123397190D01*
X93297190Y-123397187D01*
X93383350Y-123282093D01*
X93383354Y-123282086D01*
X93433596Y-123147379D01*
X93433598Y-123147372D01*
X93439999Y-123087844D01*
X93440000Y-123087827D01*
X93440000Y-121790000D01*
X92158483Y-121790000D01*
X92193549Y-121672871D01*
X92203879Y-121495509D01*
X92173029Y-121320546D01*
X92159853Y-121290000D01*
X93440000Y-121290000D01*
X93440000Y-119992172D01*
X93439999Y-119992155D01*
X93433598Y-119932627D01*
X93433596Y-119932620D01*
X93383354Y-119797913D01*
X93383350Y-119797906D01*
X93297190Y-119682812D01*
X93297187Y-119682809D01*
X93182093Y-119596649D01*
X93182086Y-119596645D01*
X93047379Y-119546403D01*
X93047372Y-119546401D01*
X92987844Y-119540000D01*
X91690000Y-119540000D01*
X91690000Y-120818197D01*
X91528831Y-120780000D01*
X91395733Y-120780000D01*
X91263539Y-120795451D01*
X91190000Y-120822217D01*
X91190000Y-119540000D01*
X89892155Y-119540000D01*
X89832627Y-119546401D01*
X89832620Y-119546403D01*
X89697913Y-119596645D01*
X89697906Y-119596649D01*
X89582812Y-119682809D01*
X89582809Y-119682812D01*
X89496649Y-119797906D01*
X89496645Y-119797913D01*
X89446403Y-119932620D01*
X89446401Y-119932627D01*
X89440000Y-119992155D01*
X89440000Y-121290000D01*
X90721517Y-121290000D01*
X90686451Y-121407129D01*
X90676121Y-121584491D01*
X90706971Y-121759454D01*
X90720147Y-121790000D01*
X89440000Y-121790000D01*
X89440000Y-123087844D01*
X80518500Y-123087844D01*
X80518500Y-119000001D01*
X97054390Y-119000001D01*
X97074804Y-119285433D01*
X97135628Y-119565037D01*
X97135630Y-119565043D01*
X97135631Y-119565046D01*
X97179556Y-119682812D01*
X97235635Y-119833166D01*
X97372770Y-120084309D01*
X97372775Y-120084317D01*
X97544254Y-120313387D01*
X97544270Y-120313405D01*
X97746594Y-120515729D01*
X97746612Y-120515745D01*
X97975682Y-120687224D01*
X97975690Y-120687229D01*
X98226833Y-120824364D01*
X98226832Y-120824364D01*
X98226836Y-120824365D01*
X98226839Y-120824367D01*
X98494954Y-120924369D01*
X98494960Y-120924370D01*
X98494962Y-120924371D01*
X98774566Y-120985195D01*
X98774568Y-120985195D01*
X98774572Y-120985196D01*
X99028220Y-121003337D01*
X99059999Y-121005610D01*
X99060000Y-121005610D01*
X99060001Y-121005610D01*
X99088595Y-121003564D01*
X99345428Y-120985196D01*
X99396974Y-120973983D01*
X99625037Y-120924371D01*
X99625037Y-120924370D01*
X99625046Y-120924369D01*
X99893161Y-120824367D01*
X100144315Y-120687226D01*
X100373395Y-120515739D01*
X100575739Y-120313395D01*
X100747226Y-120084315D01*
X100884367Y-119833161D01*
X100984369Y-119565046D01*
X101045196Y-119285428D01*
X101065610Y-119000000D01*
X101045196Y-118714572D01*
X100984369Y-118434954D01*
X100884367Y-118166839D01*
X100873657Y-118147226D01*
X100747229Y-117915690D01*
X100747224Y-117915682D01*
X100575745Y-117686612D01*
X100575729Y-117686594D01*
X100373405Y-117484270D01*
X100373387Y-117484254D01*
X100144317Y-117312775D01*
X100144309Y-117312770D01*
X99893166Y-117175635D01*
X99893167Y-117175635D01*
X99785915Y-117135632D01*
X99625046Y-117075631D01*
X99625043Y-117075630D01*
X99625037Y-117075628D01*
X99345433Y-117014804D01*
X99060001Y-116994390D01*
X99059999Y-116994390D01*
X98774566Y-117014804D01*
X98494962Y-117075628D01*
X98226833Y-117175635D01*
X97975690Y-117312770D01*
X97975682Y-117312775D01*
X97746612Y-117484254D01*
X97746594Y-117484270D01*
X97544270Y-117686594D01*
X97544254Y-117686612D01*
X97372775Y-117915682D01*
X97372770Y-117915690D01*
X97235635Y-118166833D01*
X97135628Y-118434962D01*
X97074804Y-118714566D01*
X97054390Y-118999998D01*
X97054390Y-119000001D01*
X80518500Y-119000001D01*
X80518500Y-116460001D01*
X89434390Y-116460001D01*
X89454804Y-116745433D01*
X89515628Y-117025037D01*
X89515630Y-117025043D01*
X89515631Y-117025046D01*
X89571797Y-117175633D01*
X89615635Y-117293166D01*
X89752770Y-117544309D01*
X89752775Y-117544317D01*
X89924254Y-117773387D01*
X89924270Y-117773405D01*
X90126594Y-117975729D01*
X90126612Y-117975745D01*
X90355682Y-118147224D01*
X90355690Y-118147229D01*
X90606833Y-118284364D01*
X90606832Y-118284364D01*
X90606836Y-118284365D01*
X90606839Y-118284367D01*
X90874954Y-118384369D01*
X90874960Y-118384370D01*
X90874962Y-118384371D01*
X91154566Y-118445195D01*
X91154568Y-118445195D01*
X91154572Y-118445196D01*
X91408220Y-118463337D01*
X91439999Y-118465610D01*
X91440000Y-118465610D01*
X91440001Y-118465610D01*
X91468595Y-118463564D01*
X91725428Y-118445196D01*
X92005046Y-118384369D01*
X92273161Y-118284367D01*
X92524315Y-118147226D01*
X92753395Y-117975739D01*
X92955739Y-117773395D01*
X93127226Y-117544315D01*
X93264367Y-117293161D01*
X93364369Y-117025046D01*
X93425196Y-116745428D01*
X93445610Y-116460000D01*
X93425196Y-116174572D01*
X93384441Y-115987226D01*
X93364371Y-115894962D01*
X93364370Y-115894960D01*
X93364369Y-115894954D01*
X93264367Y-115626839D01*
X93257031Y-115613405D01*
X93127229Y-115375690D01*
X93127224Y-115375682D01*
X92955745Y-115146612D01*
X92955729Y-115146594D01*
X92753405Y-114944270D01*
X92753387Y-114944254D01*
X92524317Y-114772775D01*
X92524309Y-114772770D01*
X92273166Y-114635635D01*
X92273167Y-114635635D01*
X92138570Y-114585433D01*
X92005046Y-114535631D01*
X92005043Y-114535630D01*
X92005037Y-114535628D01*
X91725433Y-114474804D01*
X91440001Y-114454390D01*
X91439999Y-114454390D01*
X91154566Y-114474804D01*
X90874962Y-114535628D01*
X90606833Y-114635635D01*
X90355690Y-114772770D01*
X90355682Y-114772775D01*
X90126612Y-114944254D01*
X90126594Y-114944270D01*
X89924270Y-115146594D01*
X89924254Y-115146612D01*
X89752775Y-115375682D01*
X89752770Y-115375690D01*
X89615635Y-115626833D01*
X89515628Y-115894962D01*
X89454804Y-116174566D01*
X89434390Y-116459998D01*
X89434390Y-116460001D01*
X80518500Y-116460001D01*
X80518500Y-114300001D01*
X97054390Y-114300001D01*
X97074804Y-114585433D01*
X97135628Y-114865037D01*
X97135630Y-114865043D01*
X97135631Y-114865046D01*
X97195467Y-115025471D01*
X97235635Y-115133166D01*
X97372770Y-115384309D01*
X97372775Y-115384317D01*
X97544254Y-115613387D01*
X97544270Y-115613405D01*
X97746594Y-115815729D01*
X97746612Y-115815745D01*
X97975682Y-115987224D01*
X97975690Y-115987229D01*
X98226833Y-116124364D01*
X98226832Y-116124364D01*
X98226836Y-116124365D01*
X98226839Y-116124367D01*
X98494954Y-116224369D01*
X98494960Y-116224370D01*
X98494962Y-116224371D01*
X98774566Y-116285195D01*
X98774568Y-116285195D01*
X98774572Y-116285196D01*
X99028220Y-116303337D01*
X99059999Y-116305610D01*
X99060000Y-116305610D01*
X99060001Y-116305610D01*
X99088595Y-116303564D01*
X99345428Y-116285196D01*
X99625046Y-116224369D01*
X99893161Y-116124367D01*
X100144315Y-115987226D01*
X100373395Y-115815739D01*
X100575739Y-115613395D01*
X100747226Y-115384315D01*
X100884367Y-115133161D01*
X100984369Y-114865046D01*
X100989320Y-114842285D01*
X101045195Y-114585433D01*
X101045195Y-114585432D01*
X101045196Y-114585428D01*
X101065610Y-114300000D01*
X101045196Y-114014572D01*
X101037641Y-113979844D01*
X100984371Y-113734962D01*
X100984370Y-113734960D01*
X100984369Y-113734954D01*
X100884367Y-113466839D01*
X100750113Y-113220973D01*
X100747229Y-113215690D01*
X100747224Y-113215682D01*
X100575745Y-112986612D01*
X100575729Y-112986594D01*
X100373405Y-112784270D01*
X100373387Y-112784254D01*
X100144317Y-112612775D01*
X100144309Y-112612770D01*
X99893166Y-112475635D01*
X99893167Y-112475635D01*
X99785915Y-112435632D01*
X99625046Y-112375631D01*
X99625043Y-112375630D01*
X99625037Y-112375628D01*
X99345433Y-112314804D01*
X99060001Y-112294390D01*
X99059999Y-112294390D01*
X98774566Y-112314804D01*
X98494962Y-112375628D01*
X98226833Y-112475635D01*
X97975690Y-112612770D01*
X97975682Y-112612775D01*
X97746612Y-112784254D01*
X97746594Y-112784270D01*
X97544270Y-112986594D01*
X97544254Y-112986612D01*
X97372775Y-113215682D01*
X97372770Y-113215690D01*
X97235635Y-113466833D01*
X97135628Y-113734962D01*
X97074804Y-114014566D01*
X97054390Y-114299998D01*
X97054390Y-114300001D01*
X80518500Y-114300001D01*
X80518500Y-99060001D01*
X123154532Y-99060001D01*
X123174364Y-99286686D01*
X123174366Y-99286697D01*
X123233258Y-99506488D01*
X123233261Y-99506497D01*
X123329431Y-99712732D01*
X123329432Y-99712734D01*
X123459954Y-99899141D01*
X123620858Y-100060045D01*
X123620861Y-100060047D01*
X123807266Y-100190568D01*
X124013504Y-100286739D01*
X124233308Y-100345635D01*
X124395230Y-100359801D01*
X124459998Y-100365468D01*
X124460000Y-100365468D01*
X124460002Y-100365468D01*
X124516673Y-100360509D01*
X124686692Y-100345635D01*
X124906496Y-100286739D01*
X125112734Y-100190568D01*
X125299139Y-100060047D01*
X125460047Y-99899139D01*
X125590568Y-99712734D01*
X125617895Y-99654129D01*
X125664064Y-99601695D01*
X125731257Y-99582542D01*
X125798139Y-99602757D01*
X125842657Y-99654133D01*
X125869865Y-99712481D01*
X125869866Y-99712483D01*
X125920973Y-99785471D01*
X125920974Y-99785472D01*
X126474070Y-99232375D01*
X126476884Y-99245915D01*
X126546442Y-99380156D01*
X126649638Y-99490652D01*
X126778819Y-99569209D01*
X126830002Y-99583549D01*
X126274526Y-100139025D01*
X126274526Y-100139026D01*
X126347512Y-100190131D01*
X126347520Y-100190135D01*
X126405865Y-100217342D01*
X126458305Y-100263514D01*
X126477457Y-100330707D01*
X126457242Y-100397589D01*
X126405867Y-100442105D01*
X126347268Y-100469431D01*
X126347264Y-100469433D01*
X126160858Y-100599954D01*
X125999954Y-100760858D01*
X125869432Y-100947265D01*
X125869431Y-100947267D01*
X125773261Y-101153502D01*
X125773258Y-101153511D01*
X125714366Y-101373302D01*
X125714364Y-101373313D01*
X125694532Y-101599998D01*
X125694532Y-101600001D01*
X125714364Y-101826686D01*
X125714366Y-101826697D01*
X125773258Y-102046488D01*
X125773261Y-102046497D01*
X125869431Y-102252732D01*
X125869432Y-102252734D01*
X125999954Y-102439141D01*
X126160858Y-102600045D01*
X126160861Y-102600047D01*
X126347266Y-102730568D01*
X126553504Y-102826739D01*
X126773308Y-102885635D01*
X126935230Y-102899801D01*
X126999998Y-102905468D01*
X127000000Y-102905468D01*
X127000002Y-102905468D01*
X127056673Y-102900509D01*
X127226692Y-102885635D01*
X127446496Y-102826739D01*
X127652734Y-102730568D01*
X127839139Y-102600047D01*
X128000047Y-102439139D01*
X128130568Y-102252734D01*
X128226739Y-102046496D01*
X128285635Y-101826692D01*
X128305468Y-101600000D01*
X128285635Y-101373308D01*
X128226739Y-101153504D01*
X128130568Y-100947266D01*
X128000047Y-100760861D01*
X128000045Y-100760858D01*
X127839141Y-100599954D01*
X127652735Y-100469433D01*
X127652736Y-100469433D01*
X127652734Y-100469432D01*
X127594132Y-100442105D01*
X127541694Y-100395933D01*
X127522543Y-100328739D01*
X127542759Y-100261858D01*
X127594135Y-100217341D01*
X127652482Y-100190133D01*
X127725472Y-100139025D01*
X127171568Y-99585121D01*
X127288458Y-99534349D01*
X127405739Y-99438934D01*
X127492928Y-99315415D01*
X127523354Y-99229801D01*
X128079025Y-99785472D01*
X128130133Y-99712482D01*
X128157341Y-99654135D01*
X128203513Y-99601696D01*
X128270707Y-99582543D01*
X128337588Y-99602758D01*
X128382105Y-99654132D01*
X128409432Y-99712734D01*
X128460363Y-99785471D01*
X128539954Y-99899141D01*
X128700858Y-100060045D01*
X128700861Y-100060047D01*
X128887266Y-100190568D01*
X129093504Y-100286739D01*
X129313308Y-100345635D01*
X129475230Y-100359801D01*
X129539998Y-100365468D01*
X129540000Y-100365468D01*
X129540002Y-100365468D01*
X129596673Y-100360509D01*
X129766692Y-100345635D01*
X129986496Y-100286739D01*
X130192734Y-100190568D01*
X130379139Y-100060047D01*
X130540047Y-99899139D01*
X130670568Y-99712734D01*
X130697618Y-99654724D01*
X130743790Y-99602285D01*
X130810983Y-99583133D01*
X130877865Y-99603348D01*
X130922382Y-99654725D01*
X130949429Y-99712728D01*
X130949432Y-99712734D01*
X131079954Y-99899141D01*
X131240858Y-100060045D01*
X131240861Y-100060047D01*
X131427266Y-100190568D01*
X131633504Y-100286739D01*
X131853308Y-100345635D01*
X132015230Y-100359801D01*
X132079998Y-100365468D01*
X132080000Y-100365468D01*
X132080002Y-100365468D01*
X132136673Y-100360509D01*
X132306692Y-100345635D01*
X132526496Y-100286739D01*
X132732734Y-100190568D01*
X132919139Y-100060047D01*
X133080047Y-99899139D01*
X133210568Y-99712734D01*
X133237618Y-99654724D01*
X133283790Y-99602285D01*
X133350983Y-99583133D01*
X133417865Y-99603348D01*
X133462382Y-99654725D01*
X133489429Y-99712728D01*
X133489432Y-99712734D01*
X133619954Y-99899141D01*
X133780858Y-100060045D01*
X133780861Y-100060047D01*
X133967266Y-100190568D01*
X134173504Y-100286739D01*
X134393308Y-100345635D01*
X134555230Y-100359801D01*
X134619998Y-100365468D01*
X134620000Y-100365468D01*
X134620002Y-100365468D01*
X134676673Y-100360509D01*
X134846692Y-100345635D01*
X135066496Y-100286739D01*
X135272734Y-100190568D01*
X135459139Y-100060047D01*
X135620047Y-99899139D01*
X135750568Y-99712734D01*
X135777618Y-99654724D01*
X135823790Y-99602285D01*
X135890983Y-99583133D01*
X135957865Y-99603348D01*
X136002382Y-99654725D01*
X136029429Y-99712728D01*
X136029432Y-99712734D01*
X136159954Y-99899141D01*
X136320858Y-100060045D01*
X136320861Y-100060047D01*
X136507266Y-100190568D01*
X136713504Y-100286739D01*
X136933308Y-100345635D01*
X137095230Y-100359801D01*
X137159998Y-100365468D01*
X137160000Y-100365468D01*
X137160002Y-100365468D01*
X137216673Y-100360509D01*
X137386692Y-100345635D01*
X137606496Y-100286739D01*
X137812734Y-100190568D01*
X137999139Y-100060047D01*
X138160047Y-99899139D01*
X138290568Y-99712734D01*
X138317618Y-99654724D01*
X138363790Y-99602285D01*
X138430983Y-99583133D01*
X138497865Y-99603348D01*
X138542382Y-99654725D01*
X138569429Y-99712728D01*
X138569432Y-99712734D01*
X138699954Y-99899141D01*
X138860858Y-100060045D01*
X138860861Y-100060047D01*
X139047266Y-100190568D01*
X139253504Y-100286739D01*
X139473308Y-100345635D01*
X139635230Y-100359801D01*
X139699998Y-100365468D01*
X139700000Y-100365468D01*
X139700002Y-100365468D01*
X139756673Y-100360509D01*
X139926692Y-100345635D01*
X140146496Y-100286739D01*
X140352734Y-100190568D01*
X140539139Y-100060047D01*
X140700047Y-99899139D01*
X140830568Y-99712734D01*
X140857618Y-99654724D01*
X140903790Y-99602285D01*
X140970983Y-99583133D01*
X141037865Y-99603348D01*
X141082382Y-99654725D01*
X141109429Y-99712728D01*
X141109432Y-99712734D01*
X141239954Y-99899141D01*
X141400858Y-100060045D01*
X141400861Y-100060047D01*
X141587266Y-100190568D01*
X141793504Y-100286739D01*
X142013308Y-100345635D01*
X142175230Y-100359801D01*
X142239998Y-100365468D01*
X142240000Y-100365468D01*
X142240002Y-100365468D01*
X142296673Y-100360509D01*
X142466692Y-100345635D01*
X142686496Y-100286739D01*
X142892734Y-100190568D01*
X143079139Y-100060047D01*
X143240047Y-99899139D01*
X143370568Y-99712734D01*
X143397618Y-99654724D01*
X143443790Y-99602285D01*
X143510983Y-99583133D01*
X143577865Y-99603348D01*
X143622382Y-99654725D01*
X143649429Y-99712728D01*
X143649432Y-99712734D01*
X143779954Y-99899141D01*
X143940858Y-100060045D01*
X143940861Y-100060047D01*
X144127266Y-100190568D01*
X144333504Y-100286739D01*
X144553308Y-100345635D01*
X144715230Y-100359801D01*
X144779998Y-100365468D01*
X144780000Y-100365468D01*
X144780002Y-100365468D01*
X144836673Y-100360509D01*
X145006692Y-100345635D01*
X145226496Y-100286739D01*
X145432734Y-100190568D01*
X145619139Y-100060047D01*
X145780047Y-99899139D01*
X145910568Y-99712734D01*
X145937618Y-99654724D01*
X145983790Y-99602285D01*
X146050983Y-99583133D01*
X146117865Y-99603348D01*
X146162382Y-99654725D01*
X146189429Y-99712728D01*
X146189432Y-99712734D01*
X146319954Y-99899141D01*
X146480858Y-100060045D01*
X146480861Y-100060047D01*
X146667266Y-100190568D01*
X146873504Y-100286739D01*
X147093308Y-100345635D01*
X147255230Y-100359801D01*
X147319998Y-100365468D01*
X147320000Y-100365468D01*
X147320002Y-100365468D01*
X147376673Y-100360509D01*
X147546692Y-100345635D01*
X147766496Y-100286739D01*
X147972734Y-100190568D01*
X148159139Y-100060047D01*
X148320047Y-99899139D01*
X148450568Y-99712734D01*
X148477618Y-99654724D01*
X148523790Y-99602285D01*
X148590983Y-99583133D01*
X148657865Y-99603348D01*
X148702382Y-99654725D01*
X148729429Y-99712728D01*
X148729432Y-99712734D01*
X148859954Y-99899141D01*
X149020858Y-100060045D01*
X149020861Y-100060047D01*
X149207266Y-100190568D01*
X149264681Y-100217341D01*
X149265275Y-100217618D01*
X149317714Y-100263791D01*
X149336866Y-100330984D01*
X149316650Y-100397865D01*
X149265275Y-100442382D01*
X149207267Y-100469431D01*
X149207265Y-100469432D01*
X149020858Y-100599954D01*
X148859954Y-100760858D01*
X148729432Y-100947265D01*
X148729431Y-100947267D01*
X148633261Y-101153502D01*
X148633258Y-101153511D01*
X148574366Y-101373302D01*
X148574364Y-101373313D01*
X148554532Y-101599998D01*
X148554532Y-101600001D01*
X148574364Y-101826686D01*
X148574366Y-101826697D01*
X148633258Y-102046488D01*
X148633261Y-102046497D01*
X148729431Y-102252732D01*
X148729432Y-102252734D01*
X148859954Y-102439141D01*
X149020858Y-102600045D01*
X149020861Y-102600047D01*
X149207266Y-102730568D01*
X149265275Y-102757618D01*
X149317714Y-102803791D01*
X149336866Y-102870984D01*
X149316650Y-102937865D01*
X149265275Y-102982382D01*
X149207267Y-103009431D01*
X149207265Y-103009432D01*
X149020858Y-103139954D01*
X148859954Y-103300858D01*
X148729432Y-103487265D01*
X148729431Y-103487267D01*
X148633261Y-103693502D01*
X148633258Y-103693511D01*
X148574366Y-103913302D01*
X148574364Y-103913313D01*
X148554532Y-104139998D01*
X148554532Y-104140001D01*
X148574364Y-104366686D01*
X148574366Y-104366697D01*
X148633258Y-104586488D01*
X148633261Y-104586497D01*
X148729431Y-104792732D01*
X148729432Y-104792734D01*
X148859954Y-104979141D01*
X149020858Y-105140045D01*
X149020861Y-105140047D01*
X149207266Y-105270568D01*
X149265275Y-105297618D01*
X149317714Y-105343791D01*
X149336866Y-105410984D01*
X149316650Y-105477865D01*
X149265275Y-105522382D01*
X149207267Y-105549431D01*
X149207265Y-105549432D01*
X149020858Y-105679954D01*
X148859954Y-105840858D01*
X148729432Y-106027265D01*
X148729431Y-106027267D01*
X148633261Y-106233502D01*
X148633258Y-106233511D01*
X148574366Y-106453302D01*
X148574364Y-106453313D01*
X148554532Y-106679998D01*
X148554532Y-106680001D01*
X148574364Y-106906686D01*
X148574366Y-106906697D01*
X148633258Y-107126488D01*
X148633261Y-107126497D01*
X148729431Y-107332732D01*
X148729432Y-107332734D01*
X148859954Y-107519141D01*
X149020858Y-107680045D01*
X149020861Y-107680047D01*
X149207266Y-107810568D01*
X149265275Y-107837618D01*
X149317714Y-107883791D01*
X149336866Y-107950984D01*
X149316650Y-108017865D01*
X149265275Y-108062382D01*
X149207267Y-108089431D01*
X149207265Y-108089432D01*
X149020858Y-108219954D01*
X148859954Y-108380858D01*
X148729432Y-108567265D01*
X148729431Y-108567267D01*
X148633261Y-108773502D01*
X148633258Y-108773511D01*
X148574366Y-108993302D01*
X148574364Y-108993313D01*
X148554532Y-109219998D01*
X148554532Y-109220001D01*
X148574364Y-109446686D01*
X148574366Y-109446697D01*
X148633258Y-109666488D01*
X148633261Y-109666497D01*
X148729431Y-109872732D01*
X148729432Y-109872734D01*
X148859954Y-110059141D01*
X149020858Y-110220045D01*
X149020861Y-110220047D01*
X149207266Y-110350568D01*
X149265275Y-110377618D01*
X149317714Y-110423791D01*
X149336866Y-110490984D01*
X149316650Y-110557865D01*
X149265275Y-110602382D01*
X149207267Y-110629431D01*
X149207265Y-110629432D01*
X149020858Y-110759954D01*
X148859954Y-110920858D01*
X148729432Y-111107265D01*
X148729431Y-111107267D01*
X148633261Y-111313502D01*
X148633258Y-111313511D01*
X148574366Y-111533302D01*
X148574364Y-111533313D01*
X148554532Y-111759998D01*
X148554532Y-111760001D01*
X148574364Y-111986686D01*
X148574366Y-111986697D01*
X148633258Y-112206488D01*
X148633261Y-112206497D01*
X148729431Y-112412732D01*
X148729432Y-112412734D01*
X148859954Y-112599141D01*
X149020858Y-112760045D01*
X149020861Y-112760047D01*
X149207266Y-112890568D01*
X149265275Y-112917618D01*
X149317714Y-112963791D01*
X149336866Y-113030984D01*
X149316650Y-113097865D01*
X149265275Y-113142382D01*
X149207267Y-113169431D01*
X149207265Y-113169432D01*
X149020858Y-113299954D01*
X148859954Y-113460858D01*
X148729432Y-113647265D01*
X148729431Y-113647267D01*
X148702382Y-113705275D01*
X148656209Y-113757714D01*
X148589016Y-113776866D01*
X148522135Y-113756650D01*
X148477618Y-113705275D01*
X148450683Y-113647513D01*
X148450568Y-113647266D01*
X148320047Y-113460861D01*
X148320045Y-113460858D01*
X148159141Y-113299954D01*
X147972734Y-113169432D01*
X147972732Y-113169431D01*
X147766497Y-113073261D01*
X147766488Y-113073258D01*
X147546697Y-113014366D01*
X147546693Y-113014365D01*
X147546692Y-113014365D01*
X147546691Y-113014364D01*
X147546686Y-113014364D01*
X147320002Y-112994532D01*
X147319998Y-112994532D01*
X147093313Y-113014364D01*
X147093302Y-113014366D01*
X146873511Y-113073258D01*
X146873502Y-113073261D01*
X146667267Y-113169431D01*
X146667265Y-113169432D01*
X146480858Y-113299954D01*
X146319954Y-113460858D01*
X146189432Y-113647265D01*
X146189431Y-113647267D01*
X146162382Y-113705275D01*
X146116209Y-113757714D01*
X146049016Y-113776866D01*
X145982135Y-113756650D01*
X145937618Y-113705275D01*
X145910683Y-113647513D01*
X145910568Y-113647266D01*
X145780047Y-113460861D01*
X145780045Y-113460858D01*
X145619141Y-113299954D01*
X145432734Y-113169432D01*
X145432732Y-113169431D01*
X145226497Y-113073261D01*
X145226488Y-113073258D01*
X145006697Y-113014366D01*
X145006693Y-113014365D01*
X145006692Y-113014365D01*
X145006691Y-113014364D01*
X145006686Y-113014364D01*
X144780002Y-112994532D01*
X144779998Y-112994532D01*
X144553313Y-113014364D01*
X144553302Y-113014366D01*
X144333511Y-113073258D01*
X144333502Y-113073261D01*
X144127267Y-113169431D01*
X144127265Y-113169432D01*
X143940858Y-113299954D01*
X143779954Y-113460858D01*
X143649432Y-113647265D01*
X143649431Y-113647267D01*
X143622382Y-113705275D01*
X143576209Y-113757714D01*
X143509016Y-113776866D01*
X143442135Y-113756650D01*
X143397618Y-113705275D01*
X143370683Y-113647513D01*
X143370568Y-113647266D01*
X143240047Y-113460861D01*
X143240045Y-113460858D01*
X143079141Y-113299954D01*
X142892734Y-113169432D01*
X142892732Y-113169431D01*
X142686497Y-113073261D01*
X142686488Y-113073258D01*
X142466697Y-113014366D01*
X142466693Y-113014365D01*
X142466692Y-113014365D01*
X142466691Y-113014364D01*
X142466686Y-113014364D01*
X142240002Y-112994532D01*
X142239998Y-112994532D01*
X142013313Y-113014364D01*
X142013302Y-113014366D01*
X141793511Y-113073258D01*
X141793502Y-113073261D01*
X141587267Y-113169431D01*
X141587265Y-113169432D01*
X141400858Y-113299954D01*
X141239954Y-113460858D01*
X141109432Y-113647265D01*
X141109431Y-113647267D01*
X141082382Y-113705275D01*
X141036209Y-113757714D01*
X140969016Y-113776866D01*
X140902135Y-113756650D01*
X140857618Y-113705275D01*
X140830683Y-113647513D01*
X140830568Y-113647266D01*
X140700047Y-113460861D01*
X140700045Y-113460858D01*
X140539141Y-113299954D01*
X140352734Y-113169432D01*
X140352732Y-113169431D01*
X140146497Y-113073261D01*
X140146488Y-113073258D01*
X139926697Y-113014366D01*
X139926693Y-113014365D01*
X139926692Y-113014365D01*
X139926691Y-113014364D01*
X139926686Y-113014364D01*
X139700002Y-112994532D01*
X139699998Y-112994532D01*
X139473313Y-113014364D01*
X139473302Y-113014366D01*
X139253511Y-113073258D01*
X139253502Y-113073261D01*
X139047267Y-113169431D01*
X139047265Y-113169432D01*
X138860858Y-113299954D01*
X138699954Y-113460858D01*
X138569432Y-113647265D01*
X138569431Y-113647267D01*
X138542382Y-113705275D01*
X138496209Y-113757714D01*
X138429016Y-113776866D01*
X138362135Y-113756650D01*
X138317618Y-113705275D01*
X138290683Y-113647513D01*
X138290568Y-113647266D01*
X138160047Y-113460861D01*
X138160045Y-113460858D01*
X137999141Y-113299954D01*
X137812734Y-113169432D01*
X137812732Y-113169431D01*
X137606497Y-113073261D01*
X137606488Y-113073258D01*
X137386697Y-113014366D01*
X137386693Y-113014365D01*
X137386692Y-113014365D01*
X137386691Y-113014364D01*
X137386686Y-113014364D01*
X137160002Y-112994532D01*
X137159998Y-112994532D01*
X136933313Y-113014364D01*
X136933302Y-113014366D01*
X136713511Y-113073258D01*
X136713502Y-113073261D01*
X136507267Y-113169431D01*
X136507265Y-113169432D01*
X136320858Y-113299954D01*
X136159954Y-113460858D01*
X136029432Y-113647265D01*
X136029431Y-113647267D01*
X136002382Y-113705275D01*
X135956209Y-113757714D01*
X135889016Y-113776866D01*
X135822135Y-113756650D01*
X135777618Y-113705275D01*
X135750683Y-113647513D01*
X135750568Y-113647266D01*
X135620047Y-113460861D01*
X135620045Y-113460858D01*
X135459141Y-113299954D01*
X135272734Y-113169432D01*
X135272732Y-113169431D01*
X135066497Y-113073261D01*
X135066488Y-113073258D01*
X134846697Y-113014366D01*
X134846693Y-113014365D01*
X134846692Y-113014365D01*
X134846691Y-113014364D01*
X134846686Y-113014364D01*
X134620002Y-112994532D01*
X134619998Y-112994532D01*
X134393313Y-113014364D01*
X134393302Y-113014366D01*
X134173511Y-113073258D01*
X134173502Y-113073261D01*
X133967267Y-113169431D01*
X133967265Y-113169432D01*
X133780858Y-113299954D01*
X133619954Y-113460858D01*
X133489432Y-113647265D01*
X133489431Y-113647267D01*
X133462382Y-113705275D01*
X133416209Y-113757714D01*
X133349016Y-113776866D01*
X133282135Y-113756650D01*
X133237618Y-113705275D01*
X133210683Y-113647513D01*
X133210568Y-113647266D01*
X133080047Y-113460861D01*
X133080045Y-113460858D01*
X132919141Y-113299954D01*
X132732734Y-113169432D01*
X132732732Y-113169431D01*
X132526497Y-113073261D01*
X132526488Y-113073258D01*
X132306697Y-113014366D01*
X132306693Y-113014365D01*
X132306692Y-113014365D01*
X132306691Y-113014364D01*
X132306686Y-113014364D01*
X132080002Y-112994532D01*
X132079998Y-112994532D01*
X131853313Y-113014364D01*
X131853302Y-113014366D01*
X131633511Y-113073258D01*
X131633502Y-113073261D01*
X131427267Y-113169431D01*
X131427265Y-113169432D01*
X131240858Y-113299954D01*
X131079954Y-113460858D01*
X130949432Y-113647265D01*
X130949431Y-113647267D01*
X130922382Y-113705275D01*
X130876209Y-113757714D01*
X130809016Y-113776866D01*
X130742135Y-113756650D01*
X130697618Y-113705275D01*
X130670683Y-113647513D01*
X130670568Y-113647266D01*
X130540047Y-113460861D01*
X130540045Y-113460858D01*
X130379141Y-113299954D01*
X130192734Y-113169432D01*
X130192732Y-113169431D01*
X129986497Y-113073261D01*
X129986488Y-113073258D01*
X129766697Y-113014366D01*
X129766693Y-113014365D01*
X129766692Y-113014365D01*
X129766691Y-113014364D01*
X129766686Y-113014364D01*
X129540002Y-112994532D01*
X129539998Y-112994532D01*
X129313313Y-113014364D01*
X129313302Y-113014366D01*
X129093511Y-113073258D01*
X129093502Y-113073261D01*
X128887267Y-113169431D01*
X128887265Y-113169432D01*
X128700858Y-113299954D01*
X128539954Y-113460858D01*
X128409432Y-113647265D01*
X128409431Y-113647267D01*
X128382382Y-113705275D01*
X128336209Y-113757714D01*
X128269016Y-113776866D01*
X128202135Y-113756650D01*
X128157618Y-113705275D01*
X128130683Y-113647513D01*
X128130568Y-113647266D01*
X128000047Y-113460861D01*
X128000045Y-113460858D01*
X127839141Y-113299954D01*
X127652734Y-113169432D01*
X127652732Y-113169431D01*
X127446497Y-113073261D01*
X127446488Y-113073258D01*
X127226697Y-113014366D01*
X127226693Y-113014365D01*
X127226692Y-113014365D01*
X127226691Y-113014364D01*
X127226686Y-113014364D01*
X127000002Y-112994532D01*
X126999998Y-112994532D01*
X126773313Y-113014364D01*
X126773302Y-113014366D01*
X126553511Y-113073258D01*
X126553502Y-113073261D01*
X126347267Y-113169431D01*
X126347265Y-113169432D01*
X126160858Y-113299954D01*
X125999954Y-113460858D01*
X125869433Y-113647264D01*
X125842106Y-113705867D01*
X125795933Y-113758306D01*
X125728739Y-113777457D01*
X125661858Y-113757241D01*
X125617342Y-113705865D01*
X125590135Y-113647520D01*
X125590131Y-113647512D01*
X125539026Y-113574526D01*
X125539025Y-113574526D01*
X124985929Y-114127622D01*
X124983116Y-114114085D01*
X124913558Y-113979844D01*
X124810362Y-113869348D01*
X124681181Y-113790791D01*
X124629996Y-113776449D01*
X125185472Y-113220974D01*
X125185471Y-113220973D01*
X125112483Y-113169866D01*
X125112481Y-113169865D01*
X124906326Y-113073734D01*
X124906317Y-113073730D01*
X124686610Y-113014860D01*
X124686599Y-113014858D01*
X124460002Y-112995034D01*
X124459998Y-112995034D01*
X124233400Y-113014858D01*
X124233389Y-113014860D01*
X124013682Y-113073730D01*
X124013673Y-113073734D01*
X123807513Y-113169868D01*
X123734527Y-113220972D01*
X123734526Y-113220973D01*
X124288432Y-113774878D01*
X124171542Y-113825651D01*
X124054261Y-113921066D01*
X123967072Y-114044585D01*
X123936645Y-114130198D01*
X123380973Y-113574526D01*
X123380972Y-113574527D01*
X123329868Y-113647513D01*
X123233734Y-113853673D01*
X123233730Y-113853682D01*
X123174860Y-114073389D01*
X123174858Y-114073400D01*
X123155034Y-114299997D01*
X123155034Y-114300002D01*
X123174858Y-114526599D01*
X123174860Y-114526610D01*
X123233730Y-114746317D01*
X123233734Y-114746326D01*
X123329865Y-114952481D01*
X123329866Y-114952483D01*
X123380973Y-115025471D01*
X123380974Y-115025472D01*
X123934070Y-114472375D01*
X123936884Y-114485915D01*
X124006442Y-114620156D01*
X124109638Y-114730652D01*
X124238819Y-114809209D01*
X124290002Y-114823549D01*
X123734526Y-115379025D01*
X123734526Y-115379026D01*
X123807512Y-115430131D01*
X123807516Y-115430133D01*
X124013673Y-115526265D01*
X124013682Y-115526269D01*
X124233389Y-115585139D01*
X124233400Y-115585141D01*
X124459998Y-115604966D01*
X124460002Y-115604966D01*
X124686599Y-115585141D01*
X124686610Y-115585139D01*
X124906317Y-115526269D01*
X124906331Y-115526264D01*
X125112478Y-115430136D01*
X125185472Y-115379025D01*
X124631568Y-114825121D01*
X124748458Y-114774349D01*
X124865739Y-114678934D01*
X124952928Y-114555415D01*
X124983354Y-114469801D01*
X125539025Y-115025472D01*
X125590133Y-114952482D01*
X125617341Y-114894135D01*
X125663513Y-114841696D01*
X125730707Y-114822543D01*
X125797588Y-114842758D01*
X125842105Y-114894132D01*
X125869432Y-114952734D01*
X125869433Y-114952735D01*
X125999954Y-115139141D01*
X126160858Y-115300045D01*
X126160861Y-115300047D01*
X126347266Y-115430568D01*
X126553504Y-115526739D01*
X126773308Y-115585635D01*
X126935230Y-115599801D01*
X126999998Y-115605468D01*
X127000000Y-115605468D01*
X127000002Y-115605468D01*
X127056673Y-115600509D01*
X127226692Y-115585635D01*
X127446496Y-115526739D01*
X127652734Y-115430568D01*
X127839139Y-115300047D01*
X128000047Y-115139139D01*
X128130568Y-114952734D01*
X128157618Y-114894724D01*
X128203790Y-114842285D01*
X128270983Y-114823133D01*
X128337865Y-114843348D01*
X128382382Y-114894725D01*
X128409429Y-114952728D01*
X128409432Y-114952734D01*
X128539954Y-115139141D01*
X128700858Y-115300045D01*
X128700861Y-115300047D01*
X128887266Y-115430568D01*
X129093504Y-115526739D01*
X129313308Y-115585635D01*
X129475230Y-115599801D01*
X129539998Y-115605468D01*
X129540000Y-115605468D01*
X129540002Y-115605468D01*
X129596673Y-115600509D01*
X129766692Y-115585635D01*
X129986496Y-115526739D01*
X130192734Y-115430568D01*
X130379139Y-115300047D01*
X130540047Y-115139139D01*
X130670568Y-114952734D01*
X130697618Y-114894724D01*
X130743790Y-114842285D01*
X130810983Y-114823133D01*
X130877865Y-114843348D01*
X130922382Y-114894725D01*
X130949429Y-114952728D01*
X130949432Y-114952734D01*
X131079954Y-115139141D01*
X131240858Y-115300045D01*
X131240861Y-115300047D01*
X131427266Y-115430568D01*
X131633504Y-115526739D01*
X131853308Y-115585635D01*
X132015230Y-115599801D01*
X132079998Y-115605468D01*
X132080000Y-115605468D01*
X132080002Y-115605468D01*
X132136673Y-115600509D01*
X132306692Y-115585635D01*
X132526496Y-115526739D01*
X132732734Y-115430568D01*
X132919139Y-115300047D01*
X133080047Y-115139139D01*
X133210568Y-114952734D01*
X133237618Y-114894724D01*
X133283790Y-114842285D01*
X133350983Y-114823133D01*
X133417865Y-114843348D01*
X133462382Y-114894725D01*
X133489429Y-114952728D01*
X133489432Y-114952734D01*
X133619954Y-115139141D01*
X133780858Y-115300045D01*
X133780861Y-115300047D01*
X133967266Y-115430568D01*
X134173504Y-115526739D01*
X134393308Y-115585635D01*
X134555230Y-115599801D01*
X134619998Y-115605468D01*
X134620000Y-115605468D01*
X134620002Y-115605468D01*
X134676673Y-115600509D01*
X134846692Y-115585635D01*
X135066496Y-115526739D01*
X135272734Y-115430568D01*
X135459139Y-115300047D01*
X135620047Y-115139139D01*
X135750568Y-114952734D01*
X135777618Y-114894724D01*
X135823790Y-114842285D01*
X135890983Y-114823133D01*
X135957865Y-114843348D01*
X136002382Y-114894725D01*
X136029429Y-114952728D01*
X136029432Y-114952734D01*
X136159954Y-115139141D01*
X136320858Y-115300045D01*
X136320861Y-115300047D01*
X136507266Y-115430568D01*
X136713504Y-115526739D01*
X136933308Y-115585635D01*
X137095230Y-115599801D01*
X137159998Y-115605468D01*
X137160000Y-115605468D01*
X137160002Y-115605468D01*
X137216673Y-115600509D01*
X137386692Y-115585635D01*
X137606496Y-115526739D01*
X137812734Y-115430568D01*
X137999139Y-115300047D01*
X138160047Y-115139139D01*
X138290568Y-114952734D01*
X138317618Y-114894724D01*
X138363790Y-114842285D01*
X138430983Y-114823133D01*
X138497865Y-114843348D01*
X138542382Y-114894725D01*
X138569429Y-114952728D01*
X138569432Y-114952734D01*
X138699954Y-115139141D01*
X138860858Y-115300045D01*
X138860861Y-115300047D01*
X139047266Y-115430568D01*
X139253504Y-115526739D01*
X139473308Y-115585635D01*
X139635230Y-115599801D01*
X139699998Y-115605468D01*
X139700000Y-115605468D01*
X139700002Y-115605468D01*
X139756673Y-115600509D01*
X139926692Y-115585635D01*
X140146496Y-115526739D01*
X140352734Y-115430568D01*
X140539139Y-115300047D01*
X140700047Y-115139139D01*
X140830568Y-114952734D01*
X140857618Y-114894724D01*
X140903790Y-114842285D01*
X140970983Y-114823133D01*
X141037865Y-114843348D01*
X141082382Y-114894725D01*
X141109429Y-114952728D01*
X141109432Y-114952734D01*
X141239954Y-115139141D01*
X141400858Y-115300045D01*
X141400861Y-115300047D01*
X141587266Y-115430568D01*
X141793504Y-115526739D01*
X142013308Y-115585635D01*
X142175230Y-115599801D01*
X142239998Y-115605468D01*
X142240000Y-115605468D01*
X142240002Y-115605468D01*
X142296673Y-115600509D01*
X142466692Y-115585635D01*
X142686496Y-115526739D01*
X142892734Y-115430568D01*
X143079139Y-115300047D01*
X143240047Y-115139139D01*
X143370568Y-114952734D01*
X143397618Y-114894724D01*
X143443790Y-114842285D01*
X143510983Y-114823133D01*
X143577865Y-114843348D01*
X143622382Y-114894725D01*
X143649429Y-114952728D01*
X143649432Y-114952734D01*
X143779954Y-115139141D01*
X143940858Y-115300045D01*
X143940861Y-115300047D01*
X144127266Y-115430568D01*
X144333504Y-115526739D01*
X144553308Y-115585635D01*
X144715230Y-115599801D01*
X144779998Y-115605468D01*
X144780000Y-115605468D01*
X144780002Y-115605468D01*
X144836673Y-115600509D01*
X145006692Y-115585635D01*
X145226496Y-115526739D01*
X145432734Y-115430568D01*
X145619139Y-115300047D01*
X145780047Y-115139139D01*
X145910568Y-114952734D01*
X145937618Y-114894724D01*
X145983790Y-114842285D01*
X146050983Y-114823133D01*
X146117865Y-114843348D01*
X146162382Y-114894725D01*
X146189429Y-114952728D01*
X146189432Y-114952734D01*
X146319954Y-115139141D01*
X146480858Y-115300045D01*
X146480861Y-115300047D01*
X146667266Y-115430568D01*
X146873504Y-115526739D01*
X147093308Y-115585635D01*
X147255230Y-115599801D01*
X147319998Y-115605468D01*
X147320000Y-115605468D01*
X147320002Y-115605468D01*
X147376673Y-115600509D01*
X147546692Y-115585635D01*
X147766496Y-115526739D01*
X147972734Y-115430568D01*
X148159139Y-115300047D01*
X148320047Y-115139139D01*
X148450568Y-114952734D01*
X148477618Y-114894724D01*
X148523790Y-114842285D01*
X148590983Y-114823133D01*
X148657865Y-114843348D01*
X148702382Y-114894725D01*
X148729429Y-114952728D01*
X148729432Y-114952734D01*
X148859954Y-115139141D01*
X149020858Y-115300045D01*
X149020861Y-115300047D01*
X149207266Y-115430568D01*
X149413504Y-115526739D01*
X149633308Y-115585635D01*
X149795230Y-115599801D01*
X149859998Y-115605468D01*
X149860000Y-115605468D01*
X149860002Y-115605468D01*
X149916673Y-115600509D01*
X150086692Y-115585635D01*
X150306496Y-115526739D01*
X150512734Y-115430568D01*
X150699139Y-115300047D01*
X150860047Y-115139139D01*
X150990568Y-114952734D01*
X151017618Y-114894724D01*
X151063790Y-114842285D01*
X151130983Y-114823133D01*
X151197865Y-114843348D01*
X151242382Y-114894725D01*
X151269429Y-114952728D01*
X151269432Y-114952734D01*
X151399954Y-115139141D01*
X151560858Y-115300045D01*
X151560861Y-115300047D01*
X151747266Y-115430568D01*
X151953504Y-115526739D01*
X152173308Y-115585635D01*
X152335230Y-115599801D01*
X152399998Y-115605468D01*
X152400000Y-115605468D01*
X152400002Y-115605468D01*
X152456673Y-115600509D01*
X152626692Y-115585635D01*
X152846496Y-115526739D01*
X153052734Y-115430568D01*
X153239139Y-115300047D01*
X153400047Y-115139139D01*
X153530568Y-114952734D01*
X153557618Y-114894724D01*
X153603790Y-114842285D01*
X153670983Y-114823133D01*
X153737865Y-114843348D01*
X153782382Y-114894725D01*
X153809429Y-114952728D01*
X153809432Y-114952734D01*
X153939954Y-115139141D01*
X154100858Y-115300045D01*
X154100861Y-115300047D01*
X154287266Y-115430568D01*
X154493504Y-115526739D01*
X154713308Y-115585635D01*
X154875230Y-115599801D01*
X154939998Y-115605468D01*
X154940000Y-115605468D01*
X154940002Y-115605468D01*
X154996673Y-115600509D01*
X155166692Y-115585635D01*
X155283408Y-115554361D01*
X155353256Y-115556024D01*
X155411119Y-115595186D01*
X155438623Y-115659415D01*
X155439500Y-115674136D01*
X155439500Y-120604547D01*
X155419815Y-120671586D01*
X155403181Y-120692228D01*
X153074231Y-123021177D01*
X153012908Y-123054662D01*
X152954457Y-123053271D01*
X152755413Y-122999938D01*
X152755403Y-122999936D01*
X152520001Y-122979341D01*
X152519999Y-122979341D01*
X152284596Y-122999936D01*
X152284586Y-122999938D01*
X152056344Y-123061094D01*
X152056335Y-123061098D01*
X151842171Y-123160964D01*
X151842169Y-123160965D01*
X151648597Y-123296505D01*
X151481505Y-123463597D01*
X151371575Y-123620595D01*
X151316998Y-123664220D01*
X151247500Y-123671414D01*
X151185145Y-123639891D01*
X151168425Y-123620595D01*
X151058494Y-123463597D01*
X150891402Y-123296506D01*
X150891395Y-123296501D01*
X150870818Y-123282093D01*
X150832213Y-123255061D01*
X150697834Y-123160967D01*
X150697830Y-123160965D01*
X150658626Y-123142684D01*
X150483663Y-123061097D01*
X150483659Y-123061096D01*
X150483655Y-123061094D01*
X150255413Y-122999938D01*
X150255403Y-122999936D01*
X150020001Y-122979341D01*
X150019999Y-122979341D01*
X149784596Y-122999936D01*
X149784586Y-122999938D01*
X149556344Y-123061094D01*
X149556335Y-123061098D01*
X149342171Y-123160964D01*
X149342169Y-123160965D01*
X149148597Y-123296505D01*
X148981505Y-123463597D01*
X148871575Y-123620595D01*
X148816998Y-123664220D01*
X148747500Y-123671414D01*
X148685145Y-123639891D01*
X148668425Y-123620595D01*
X148558494Y-123463597D01*
X148391402Y-123296506D01*
X148391395Y-123296501D01*
X148370818Y-123282093D01*
X148332213Y-123255061D01*
X148197834Y-123160967D01*
X148197830Y-123160965D01*
X148158626Y-123142684D01*
X147983663Y-123061097D01*
X147983659Y-123061096D01*
X147983655Y-123061094D01*
X147755413Y-122999938D01*
X147755403Y-122999936D01*
X147520001Y-122979341D01*
X147519999Y-122979341D01*
X147284596Y-122999936D01*
X147284586Y-122999938D01*
X147056344Y-123061094D01*
X147056335Y-123061098D01*
X146842171Y-123160964D01*
X146842169Y-123160965D01*
X146648597Y-123296505D01*
X146481505Y-123463597D01*
X146345965Y-123657169D01*
X146345964Y-123657171D01*
X146246098Y-123871335D01*
X146246094Y-123871344D01*
X146184938Y-124099586D01*
X146184936Y-124099596D01*
X146169500Y-124276034D01*
X146169500Y-124643966D01*
X146184936Y-124820403D01*
X146184938Y-124820413D01*
X146246094Y-125048655D01*
X146246096Y-125048659D01*
X146246097Y-125048663D01*
X146270000Y-125099922D01*
X146345964Y-125262828D01*
X146345965Y-125262830D01*
X146481505Y-125456402D01*
X146648597Y-125623493D01*
X146648599Y-125623495D01*
X146736716Y-125685195D01*
X146842165Y-125759032D01*
X146842167Y-125759033D01*
X146842170Y-125759035D01*
X147056337Y-125858903D01*
X147056343Y-125858904D01*
X147056344Y-125858905D01*
X147095356Y-125869358D01*
X147284592Y-125920063D01*
X147472918Y-125936539D01*
X147519999Y-125940659D01*
X147520000Y-125940659D01*
X147520001Y-125940659D01*
X147559234Y-125937226D01*
X147755408Y-125920063D01*
X147983663Y-125858903D01*
X148197829Y-125759035D01*
X148391401Y-125623495D01*
X148558495Y-125456401D01*
X148668426Y-125299401D01*
X148723001Y-125255778D01*
X148792500Y-125248584D01*
X148854855Y-125280106D01*
X148871571Y-125299398D01*
X148940908Y-125398422D01*
X148981506Y-125456403D01*
X149148597Y-125623493D01*
X149148599Y-125623495D01*
X149236716Y-125685195D01*
X149342165Y-125759032D01*
X149342167Y-125759033D01*
X149342170Y-125759035D01*
X149556337Y-125858903D01*
X149556343Y-125858904D01*
X149556344Y-125858905D01*
X149595356Y-125869358D01*
X149784592Y-125920063D01*
X149972918Y-125936539D01*
X150019999Y-125940659D01*
X150020000Y-125940659D01*
X150020001Y-125940659D01*
X150059234Y-125937226D01*
X150255408Y-125920063D01*
X150483663Y-125858903D01*
X150697829Y-125759035D01*
X150891401Y-125623495D01*
X151058495Y-125456401D01*
X151168426Y-125299401D01*
X151223001Y-125255778D01*
X151292500Y-125248584D01*
X151354855Y-125280106D01*
X151371571Y-125299398D01*
X151440908Y-125398422D01*
X151481506Y-125456403D01*
X151648597Y-125623493D01*
X151648599Y-125623495D01*
X151648601Y-125623496D01*
X151648603Y-125623498D01*
X151681036Y-125646208D01*
X151841624Y-125758653D01*
X151885248Y-125813228D01*
X151894500Y-125860226D01*
X151894500Y-130679773D01*
X151874815Y-130746812D01*
X151841623Y-130781348D01*
X151648597Y-130916505D01*
X151481505Y-131083597D01*
X151371575Y-131240595D01*
X151316998Y-131284220D01*
X151247500Y-131291414D01*
X151185145Y-131259891D01*
X151168425Y-131240595D01*
X151058494Y-131083597D01*
X150891402Y-130916506D01*
X150891395Y-130916501D01*
X150697834Y-130780967D01*
X150697830Y-130780965D01*
X150651331Y-130759282D01*
X150483663Y-130681097D01*
X150483659Y-130681096D01*
X150483655Y-130681094D01*
X150255413Y-130619938D01*
X150255403Y-130619936D01*
X150020001Y-130599341D01*
X150019999Y-130599341D01*
X149784596Y-130619936D01*
X149784586Y-130619938D01*
X149556344Y-130681094D01*
X149556337Y-130681096D01*
X149556337Y-130681097D01*
X149553697Y-130682328D01*
X149342171Y-130780964D01*
X149342169Y-130780965D01*
X149148597Y-130916505D01*
X148981505Y-131083597D01*
X148871575Y-131240595D01*
X148816998Y-131284220D01*
X148747500Y-131291414D01*
X148685145Y-131259891D01*
X148668425Y-131240595D01*
X148558494Y-131083597D01*
X148391402Y-130916506D01*
X148391395Y-130916501D01*
X148197834Y-130780967D01*
X148197830Y-130780965D01*
X148151331Y-130759282D01*
X147983663Y-130681097D01*
X147983659Y-130681096D01*
X147983655Y-130681094D01*
X147755413Y-130619938D01*
X147755403Y-130619936D01*
X147520001Y-130599341D01*
X147519999Y-130599341D01*
X147284596Y-130619936D01*
X147284586Y-130619938D01*
X147056344Y-130681094D01*
X147056337Y-130681096D01*
X147056337Y-130681097D01*
X147053697Y-130682328D01*
X146842171Y-130780964D01*
X146842169Y-130780965D01*
X146648597Y-130916505D01*
X146481505Y-131083597D01*
X146345965Y-131277169D01*
X146345964Y-131277171D01*
X146246098Y-131491335D01*
X146246094Y-131491344D01*
X146184938Y-131719586D01*
X146184936Y-131719596D01*
X146169500Y-131896034D01*
X146169500Y-132263966D01*
X146184936Y-132440403D01*
X146184938Y-132440413D01*
X146246094Y-132668655D01*
X146246096Y-132668659D01*
X146246097Y-132668663D01*
X146291413Y-132765842D01*
X146345964Y-132882828D01*
X146345965Y-132882830D01*
X146481505Y-133076402D01*
X146577190Y-133172086D01*
X146648599Y-133243495D01*
X146710998Y-133287187D01*
X146842165Y-133379032D01*
X146842167Y-133379033D01*
X146842170Y-133379035D01*
X147056337Y-133478903D01*
X147056343Y-133478904D01*
X147056344Y-133478905D01*
X147095356Y-133489358D01*
X147284592Y-133540063D01*
X147472918Y-133556539D01*
X147519999Y-133560659D01*
X147520000Y-133560659D01*
X147520001Y-133560659D01*
X147559234Y-133557226D01*
X147755408Y-133540063D01*
X147983663Y-133478903D01*
X148197829Y-133379035D01*
X148391401Y-133243495D01*
X148558495Y-133076401D01*
X148668426Y-132919401D01*
X148723001Y-132875778D01*
X148792500Y-132868584D01*
X148854855Y-132900106D01*
X148871571Y-132919398D01*
X148910525Y-132975030D01*
X148981506Y-133076403D01*
X149077190Y-133172086D01*
X149148599Y-133243495D01*
X149210998Y-133287187D01*
X149342165Y-133379032D01*
X149342167Y-133379033D01*
X149342170Y-133379035D01*
X149556337Y-133478903D01*
X149556343Y-133478904D01*
X149556344Y-133478905D01*
X149595356Y-133489358D01*
X149784592Y-133540063D01*
X149972918Y-133556539D01*
X150019999Y-133560659D01*
X150020000Y-133560659D01*
X150020001Y-133560659D01*
X150059234Y-133557226D01*
X150255408Y-133540063D01*
X150483663Y-133478903D01*
X150697829Y-133379035D01*
X150891401Y-133243495D01*
X151058495Y-133076401D01*
X151168426Y-132919401D01*
X151223001Y-132875778D01*
X151292500Y-132868584D01*
X151354855Y-132900106D01*
X151371571Y-132919398D01*
X151410525Y-132975030D01*
X151481506Y-133076403D01*
X151577190Y-133172086D01*
X151648599Y-133243495D01*
X151710998Y-133287187D01*
X151842165Y-133379032D01*
X151842167Y-133379033D01*
X151842170Y-133379035D01*
X152056337Y-133478903D01*
X152056343Y-133478904D01*
X152056344Y-133478905D01*
X152095356Y-133489358D01*
X152284592Y-133540063D01*
X152472918Y-133556539D01*
X152519999Y-133560659D01*
X152520000Y-133560659D01*
X152520001Y-133560659D01*
X152559234Y-133557226D01*
X152755408Y-133540063D01*
X152983663Y-133478903D01*
X153197829Y-133379035D01*
X153391401Y-133243495D01*
X153558495Y-133076401D01*
X153668426Y-132919401D01*
X153723001Y-132875778D01*
X153792500Y-132868584D01*
X153854855Y-132900106D01*
X153871571Y-132919398D01*
X153910525Y-132975030D01*
X153981506Y-133076403D01*
X154077190Y-133172086D01*
X154148599Y-133243495D01*
X154210998Y-133287187D01*
X154342165Y-133379032D01*
X154342167Y-133379033D01*
X154342170Y-133379035D01*
X154556337Y-133478903D01*
X154556343Y-133478904D01*
X154556344Y-133478905D01*
X154595356Y-133489358D01*
X154784592Y-133540063D01*
X154972918Y-133556539D01*
X155019999Y-133560659D01*
X155020000Y-133560659D01*
X155020001Y-133560659D01*
X155059234Y-133557226D01*
X155255408Y-133540063D01*
X155483663Y-133478903D01*
X155697829Y-133379035D01*
X155891401Y-133243495D01*
X156058495Y-133076401D01*
X156168426Y-132919401D01*
X156223001Y-132875778D01*
X156292500Y-132868584D01*
X156354855Y-132900106D01*
X156371571Y-132919398D01*
X156410525Y-132975030D01*
X156481506Y-133076403D01*
X156577190Y-133172086D01*
X156648599Y-133243495D01*
X156710998Y-133287187D01*
X156842165Y-133379032D01*
X156842167Y-133379033D01*
X156842170Y-133379035D01*
X157056337Y-133478903D01*
X157056343Y-133478904D01*
X157056344Y-133478905D01*
X157095356Y-133489358D01*
X157284592Y-133540063D01*
X157472918Y-133556539D01*
X157519999Y-133560659D01*
X157520000Y-133560659D01*
X157520001Y-133560659D01*
X157559234Y-133557226D01*
X157755408Y-133540063D01*
X157983663Y-133478903D01*
X158197829Y-133379035D01*
X158391401Y-133243495D01*
X158538965Y-133095930D01*
X158600287Y-133062447D01*
X158669978Y-133067431D01*
X158725912Y-133109302D01*
X158732183Y-133118516D01*
X158827680Y-133273340D01*
X158827683Y-133273344D01*
X158951654Y-133397315D01*
X159100875Y-133489356D01*
X159100880Y-133489358D01*
X159267302Y-133544505D01*
X159267309Y-133544506D01*
X159370019Y-133554999D01*
X159769999Y-133554999D01*
X159770000Y-133554998D01*
X159770000Y-132488018D01*
X159884801Y-132540446D01*
X159986025Y-132555000D01*
X160053975Y-132555000D01*
X160155199Y-132540446D01*
X160270000Y-132488018D01*
X160270000Y-133554999D01*
X160669972Y-133554999D01*
X160669986Y-133554998D01*
X160772697Y-133544505D01*
X160939119Y-133489358D01*
X160939124Y-133489356D01*
X161088345Y-133397315D01*
X161212315Y-133273345D01*
X161304356Y-133124124D01*
X161304358Y-133124119D01*
X161359505Y-132957697D01*
X161359506Y-132957690D01*
X161369999Y-132854986D01*
X161370000Y-132854973D01*
X161370000Y-132588000D01*
X165665977Y-132588000D01*
X165673884Y-132713692D01*
X165674006Y-132717561D01*
X165674006Y-132747648D01*
X165677776Y-132777495D01*
X165678142Y-132781372D01*
X165686047Y-132907024D01*
X165686049Y-132907041D01*
X165709645Y-133030738D01*
X165710254Y-133034584D01*
X165714023Y-133064415D01*
X165714024Y-133064419D01*
X165721503Y-133093551D01*
X165722349Y-133097336D01*
X165745948Y-133221043D01*
X165745950Y-133221050D01*
X165784859Y-133340800D01*
X165785945Y-133344539D01*
X165793426Y-133373673D01*
X165804502Y-133401652D01*
X165805820Y-133405314D01*
X165844731Y-133525067D01*
X165898350Y-133639013D01*
X165899889Y-133642569D01*
X165910965Y-133670543D01*
X165910970Y-133670556D01*
X165925454Y-133696901D01*
X165927223Y-133700372D01*
X165980839Y-133814311D01*
X165980842Y-133814317D01*
X166048312Y-133920633D01*
X166050295Y-133923985D01*
X166064784Y-133950341D01*
X166064789Y-133950349D01*
X166082471Y-133974687D01*
X166084660Y-133977908D01*
X166121862Y-134036528D01*
X166152129Y-134084221D01*
X166232401Y-134181253D01*
X166234773Y-134184311D01*
X166234776Y-134184316D01*
X166234779Y-134184319D01*
X166252460Y-134208655D01*
X166252463Y-134208660D01*
X166273051Y-134230584D01*
X166275627Y-134233505D01*
X166355890Y-134330526D01*
X166355899Y-134330536D01*
X166447673Y-134416716D01*
X166450413Y-134419455D01*
X166460903Y-134430626D01*
X166471030Y-134441411D01*
X166494215Y-134460591D01*
X166497136Y-134463166D01*
X166588921Y-134549357D01*
X166588931Y-134549365D01*
X166690794Y-134623373D01*
X166693872Y-134625761D01*
X166705080Y-134635032D01*
X166717050Y-134644935D01*
X166717052Y-134644936D01*
X166717053Y-134644937D01*
X166742460Y-134661061D01*
X166745665Y-134663239D01*
X166847541Y-134737256D01*
X166957919Y-134797937D01*
X166961220Y-134799889D01*
X166986636Y-134816019D01*
X167013872Y-134828835D01*
X167017296Y-134830580D01*
X167127669Y-134891258D01*
X167127674Y-134891260D01*
X167127676Y-134891261D01*
X167127677Y-134891262D01*
X167244747Y-134937613D01*
X167248321Y-134939159D01*
X167275539Y-134951967D01*
X167304177Y-134961272D01*
X167307808Y-134962580D01*
X167424890Y-135008936D01*
X167546896Y-135040262D01*
X167550577Y-135041331D01*
X167579203Y-135050633D01*
X167579205Y-135050633D01*
X167579207Y-135050634D01*
X167586695Y-135052062D01*
X167608767Y-135056272D01*
X167612517Y-135057110D01*
X167734517Y-135088435D01*
X167734530Y-135088436D01*
X167734532Y-135088437D01*
X167743302Y-135089544D01*
X167859475Y-135104220D01*
X167863257Y-135104819D01*
X167892839Y-135110463D01*
X167922876Y-135112352D01*
X167926732Y-135112717D01*
X167983501Y-135119888D01*
X168051655Y-135128499D01*
X168051661Y-135128499D01*
X168051665Y-135128500D01*
X168051667Y-135128500D01*
X168177591Y-135128500D01*
X168181463Y-135128621D01*
X168207041Y-135130230D01*
X168211498Y-135130511D01*
X168211500Y-135130511D01*
X168211502Y-135130511D01*
X168215958Y-135130230D01*
X168241536Y-135128621D01*
X168245409Y-135128500D01*
X168371333Y-135128500D01*
X168371335Y-135128500D01*
X168371340Y-135128499D01*
X168371344Y-135128499D01*
X168419369Y-135122431D01*
X168496267Y-135112717D01*
X168500123Y-135112352D01*
X168530161Y-135110463D01*
X168559757Y-135104817D01*
X168563509Y-135104222D01*
X168688483Y-135088435D01*
X168810515Y-135057102D01*
X168814188Y-135056281D01*
X168843797Y-135050633D01*
X168872445Y-135041324D01*
X168876088Y-135040265D01*
X168998110Y-135008936D01*
X169115204Y-134962575D01*
X169118819Y-134961273D01*
X169147461Y-134951967D01*
X169174705Y-134939146D01*
X169178222Y-134937624D01*
X169295331Y-134891258D01*
X169405728Y-134830566D01*
X169409113Y-134828842D01*
X169436364Y-134816019D01*
X169461816Y-134799866D01*
X169465060Y-134797948D01*
X169575459Y-134737256D01*
X169677346Y-134663230D01*
X169680539Y-134661061D01*
X169705950Y-134644935D01*
X169729162Y-134625731D01*
X169732163Y-134623403D01*
X169834077Y-134549359D01*
X169925889Y-134463141D01*
X169928763Y-134460608D01*
X169951969Y-134441411D01*
X169972602Y-134419438D01*
X169975289Y-134416751D01*
X170067106Y-134330530D01*
X170147403Y-134233466D01*
X170149906Y-134230628D01*
X170170538Y-134208658D01*
X170188231Y-134184305D01*
X170190587Y-134181266D01*
X170270871Y-134084221D01*
X170270874Y-134084215D01*
X170270879Y-134084210D01*
X170302318Y-134034667D01*
X170338361Y-133977873D01*
X170340512Y-133974709D01*
X170358213Y-133950346D01*
X170372732Y-133923935D01*
X170374653Y-133920685D01*
X170442159Y-133814315D01*
X170495785Y-133700353D01*
X170497515Y-133696956D01*
X170512033Y-133670549D01*
X170523126Y-133642528D01*
X170524636Y-133639040D01*
X170578267Y-133525070D01*
X170617187Y-133405286D01*
X170618490Y-133401666D01*
X170629572Y-133373679D01*
X170637060Y-133344511D01*
X170638129Y-133340834D01*
X170677051Y-133221046D01*
X170700661Y-133097274D01*
X170701486Y-133093588D01*
X170708976Y-133064419D01*
X170712750Y-133034541D01*
X170713345Y-133030782D01*
X170736951Y-132907039D01*
X170736951Y-132907038D01*
X170736952Y-132907032D01*
X170744857Y-132781372D01*
X170744858Y-132781350D01*
X170745224Y-132777486D01*
X170748993Y-132747652D01*
X170748994Y-132747646D01*
X170749641Y-132706377D01*
X170749752Y-132703560D01*
X170757023Y-132588000D01*
X170749752Y-132472443D01*
X170749641Y-132469619D01*
X170748994Y-132428354D01*
X170745223Y-132398502D01*
X170744858Y-132394649D01*
X170740791Y-132330000D01*
X170736952Y-132268968D01*
X170736949Y-132268954D01*
X170713350Y-132145243D01*
X170712743Y-132141403D01*
X170708976Y-132111587D01*
X170708976Y-132111581D01*
X170708973Y-132111571D01*
X170706939Y-132103648D01*
X170701491Y-132082432D01*
X170700655Y-132078695D01*
X170677051Y-131954954D01*
X170638133Y-131835178D01*
X170637059Y-131831484D01*
X170629572Y-131802321D01*
X170624340Y-131789107D01*
X170618498Y-131774349D01*
X170617179Y-131770685D01*
X170586509Y-131676295D01*
X170578267Y-131650930D01*
X170576205Y-131646549D01*
X170556654Y-131605000D01*
X170524640Y-131536968D01*
X170523122Y-131533458D01*
X170512033Y-131505451D01*
X170497536Y-131479081D01*
X170495769Y-131475613D01*
X170442159Y-131361685D01*
X170374680Y-131255356D01*
X170372710Y-131252025D01*
X170358213Y-131225654D01*
X170341247Y-131202302D01*
X170340528Y-131201312D01*
X170338338Y-131198090D01*
X170328225Y-131182155D01*
X170270871Y-131091779D01*
X170190598Y-130994746D01*
X170188241Y-130991708D01*
X170170538Y-130967342D01*
X170149936Y-130945403D01*
X170147371Y-130942493D01*
X170067109Y-130845473D01*
X170067107Y-130845471D01*
X170025179Y-130806098D01*
X169975305Y-130759263D01*
X169972586Y-130756544D01*
X169954504Y-130737288D01*
X169951973Y-130734593D01*
X169951969Y-130734589D01*
X169928775Y-130715400D01*
X169925855Y-130712825D01*
X169834089Y-130626651D01*
X169834073Y-130626638D01*
X169732206Y-130552626D01*
X169729129Y-130550240D01*
X169716741Y-130539992D01*
X169705950Y-130531065D01*
X169694167Y-130523587D01*
X169680539Y-130514938D01*
X169677320Y-130512749D01*
X169575470Y-130438751D01*
X169575458Y-130438743D01*
X169465108Y-130378077D01*
X169461756Y-130376095D01*
X169436366Y-130359982D01*
X169436364Y-130359981D01*
X169409143Y-130347171D01*
X169405674Y-130345403D01*
X169295337Y-130284745D01*
X169295335Y-130284744D01*
X169295331Y-130284742D01*
X169254618Y-130268622D01*
X169178257Y-130238388D01*
X169174684Y-130236842D01*
X169147461Y-130224033D01*
X169138533Y-130221132D01*
X169118862Y-130214740D01*
X169115199Y-130213421D01*
X168998110Y-130167063D01*
X168876143Y-130135748D01*
X168872402Y-130134661D01*
X168843801Y-130125368D01*
X168843803Y-130125368D01*
X168814240Y-130119728D01*
X168810459Y-130118883D01*
X168742447Y-130101420D01*
X168688485Y-130087565D01*
X168688475Y-130087563D01*
X168563570Y-130071784D01*
X168559724Y-130071175D01*
X168530179Y-130065539D01*
X168530163Y-130065537D01*
X168530161Y-130065537D01*
X168525978Y-130065273D01*
X168500132Y-130063647D01*
X168496256Y-130063280D01*
X168371346Y-130047500D01*
X168371335Y-130047500D01*
X168245409Y-130047500D01*
X168241536Y-130047378D01*
X168215958Y-130045769D01*
X168211502Y-130045489D01*
X168211498Y-130045489D01*
X168207041Y-130045769D01*
X168181463Y-130047378D01*
X168177591Y-130047500D01*
X168051653Y-130047500D01*
X167926744Y-130063280D01*
X167922868Y-130063647D01*
X167895086Y-130065395D01*
X167892839Y-130065537D01*
X167892837Y-130065537D01*
X167892821Y-130065539D01*
X167863278Y-130071175D01*
X167859431Y-130071784D01*
X167734520Y-130087564D01*
X167682524Y-130100914D01*
X167612537Y-130118884D01*
X167608746Y-130119731D01*
X167579205Y-130125366D01*
X167565120Y-130129942D01*
X167550589Y-130134664D01*
X167546860Y-130135747D01*
X167424887Y-130167064D01*
X167307809Y-130213417D01*
X167304148Y-130214735D01*
X167275544Y-130224030D01*
X167275535Y-130224034D01*
X167248317Y-130236841D01*
X167244746Y-130238386D01*
X167127667Y-130284742D01*
X167127664Y-130284744D01*
X167017325Y-130345403D01*
X167013857Y-130347170D01*
X166986639Y-130359979D01*
X166986635Y-130359981D01*
X166961244Y-130376094D01*
X166957894Y-130378075D01*
X166847558Y-130438733D01*
X166847540Y-130438744D01*
X166745670Y-130512755D01*
X166742451Y-130514943D01*
X166717056Y-130531060D01*
X166717051Y-130531064D01*
X166693873Y-130550236D01*
X166690798Y-130552621D01*
X166588923Y-130626641D01*
X166588919Y-130626644D01*
X166497139Y-130712829D01*
X166494220Y-130715403D01*
X166471033Y-130734586D01*
X166471029Y-130734590D01*
X166450429Y-130756527D01*
X166447676Y-130759280D01*
X166355893Y-130845470D01*
X166355891Y-130845472D01*
X166275636Y-130942483D01*
X166273062Y-130945403D01*
X166252468Y-130967334D01*
X166252454Y-130967352D01*
X166234776Y-130991683D01*
X166232389Y-130994760D01*
X166152139Y-131091765D01*
X166152125Y-131091784D01*
X166084658Y-131198092D01*
X166082471Y-131201310D01*
X166064787Y-131225652D01*
X166050297Y-131252009D01*
X166048315Y-131255360D01*
X165980846Y-131361675D01*
X165980838Y-131361688D01*
X165927228Y-131475616D01*
X165925461Y-131479085D01*
X165910966Y-131505452D01*
X165899892Y-131533422D01*
X165898345Y-131536996D01*
X165844734Y-131650927D01*
X165805819Y-131770689D01*
X165804501Y-131774351D01*
X165793429Y-131802317D01*
X165793426Y-131802323D01*
X165785944Y-131831464D01*
X165784858Y-131835202D01*
X165745950Y-131954949D01*
X165745949Y-131954953D01*
X165722351Y-132078652D01*
X165721502Y-132082450D01*
X165714026Y-132111571D01*
X165714023Y-132111587D01*
X165710253Y-132141416D01*
X165709644Y-132145259D01*
X165686050Y-132268954D01*
X165686047Y-132268975D01*
X165678142Y-132394626D01*
X165677776Y-132398502D01*
X165674006Y-132428347D01*
X165674006Y-132458437D01*
X165673884Y-132462309D01*
X165665977Y-132588000D01*
X161370000Y-132588000D01*
X161370000Y-132330000D01*
X160423969Y-132330000D01*
X160456519Y-132279351D01*
X160495000Y-132148295D01*
X160495000Y-132011705D01*
X160456519Y-131880649D01*
X160423969Y-131830000D01*
X161369999Y-131830000D01*
X161369999Y-131305028D01*
X161369998Y-131305013D01*
X161359505Y-131202302D01*
X161304358Y-131035880D01*
X161304356Y-131035875D01*
X161212315Y-130886654D01*
X161088345Y-130762684D01*
X160939124Y-130670643D01*
X160939119Y-130670641D01*
X160772697Y-130615494D01*
X160772690Y-130615493D01*
X160669986Y-130605000D01*
X160270000Y-130605000D01*
X160270000Y-131671981D01*
X160155199Y-131619554D01*
X160053975Y-131605000D01*
X159986025Y-131605000D01*
X159884801Y-131619554D01*
X159770000Y-131671981D01*
X159770000Y-130605000D01*
X159370028Y-130605000D01*
X159370012Y-130605001D01*
X159267302Y-130615494D01*
X159100880Y-130670641D01*
X159100875Y-130670643D01*
X158951654Y-130762684D01*
X158827683Y-130886655D01*
X158827680Y-130886659D01*
X158732183Y-131041483D01*
X158680235Y-131088208D01*
X158611272Y-131099429D01*
X158547190Y-131071586D01*
X158538964Y-131064068D01*
X158466579Y-130991683D01*
X158391401Y-130916505D01*
X158391397Y-130916502D01*
X158391396Y-130916501D01*
X158197834Y-130780967D01*
X158197830Y-130780965D01*
X158151331Y-130759282D01*
X157983663Y-130681097D01*
X157983659Y-130681096D01*
X157983655Y-130681094D01*
X157755413Y-130619938D01*
X157755403Y-130619936D01*
X157520001Y-130599341D01*
X157519999Y-130599341D01*
X157284596Y-130619936D01*
X157284586Y-130619938D01*
X157056344Y-130681094D01*
X157056337Y-130681096D01*
X157056337Y-130681097D01*
X157053697Y-130682328D01*
X156842171Y-130780964D01*
X156842169Y-130780965D01*
X156648597Y-130916505D01*
X156481505Y-131083597D01*
X156371575Y-131240595D01*
X156316998Y-131284220D01*
X156247500Y-131291414D01*
X156185145Y-131259891D01*
X156168425Y-131240595D01*
X156058494Y-131083597D01*
X155891402Y-130916506D01*
X155891395Y-130916501D01*
X155697834Y-130780967D01*
X155697830Y-130780965D01*
X155651331Y-130759282D01*
X155483663Y-130681097D01*
X155483659Y-130681096D01*
X155483655Y-130681094D01*
X155255413Y-130619938D01*
X155255403Y-130619936D01*
X155020001Y-130599341D01*
X155019999Y-130599341D01*
X154784596Y-130619936D01*
X154784586Y-130619938D01*
X154556344Y-130681094D01*
X154556337Y-130681096D01*
X154556337Y-130681097D01*
X154553697Y-130682328D01*
X154342171Y-130780964D01*
X154342169Y-130780965D01*
X154148597Y-130916505D01*
X153981505Y-131083597D01*
X153871575Y-131240595D01*
X153816998Y-131284220D01*
X153747500Y-131291414D01*
X153685145Y-131259891D01*
X153668425Y-131240595D01*
X153558494Y-131083597D01*
X153391402Y-130916506D01*
X153391401Y-130916505D01*
X153221510Y-130797546D01*
X153198376Y-130781347D01*
X153154751Y-130726770D01*
X153145500Y-130679772D01*
X153145500Y-125860225D01*
X153165185Y-125793186D01*
X153198373Y-125758653D01*
X153391401Y-125623495D01*
X153558495Y-125456401D01*
X153668426Y-125299401D01*
X153723001Y-125255778D01*
X153792500Y-125248584D01*
X153854855Y-125280106D01*
X153871571Y-125299398D01*
X153940908Y-125398422D01*
X153981506Y-125456403D01*
X154148597Y-125623493D01*
X154148599Y-125623495D01*
X154236716Y-125685195D01*
X154342165Y-125759032D01*
X154342167Y-125759033D01*
X154342170Y-125759035D01*
X154556337Y-125858903D01*
X154556343Y-125858904D01*
X154556344Y-125858905D01*
X154595356Y-125869358D01*
X154784592Y-125920063D01*
X154972918Y-125936539D01*
X155019999Y-125940659D01*
X155020000Y-125940659D01*
X155020001Y-125940659D01*
X155059234Y-125937226D01*
X155255408Y-125920063D01*
X155483663Y-125858903D01*
X155697829Y-125759035D01*
X155891401Y-125623495D01*
X156058495Y-125456401D01*
X156168426Y-125299401D01*
X156223001Y-125255778D01*
X156292500Y-125248584D01*
X156354855Y-125280106D01*
X156371571Y-125299398D01*
X156440908Y-125398422D01*
X156481506Y-125456403D01*
X156648597Y-125623493D01*
X156648599Y-125623495D01*
X156736716Y-125685195D01*
X156842165Y-125759032D01*
X156842167Y-125759033D01*
X156842170Y-125759035D01*
X157056337Y-125858903D01*
X157056343Y-125858904D01*
X157056344Y-125858905D01*
X157095356Y-125869358D01*
X157284592Y-125920063D01*
X157472918Y-125936539D01*
X157519999Y-125940659D01*
X157520000Y-125940659D01*
X157520001Y-125940659D01*
X157559234Y-125937226D01*
X157755408Y-125920063D01*
X157983663Y-125858903D01*
X158197829Y-125759035D01*
X158391401Y-125623495D01*
X158538965Y-125475930D01*
X158600287Y-125442447D01*
X158669978Y-125447431D01*
X158725912Y-125489302D01*
X158732183Y-125498516D01*
X158827680Y-125653340D01*
X158827683Y-125653344D01*
X158951654Y-125777315D01*
X159100875Y-125869356D01*
X159100880Y-125869358D01*
X159267302Y-125924505D01*
X159267309Y-125924506D01*
X159370019Y-125934999D01*
X159769999Y-125934999D01*
X159770000Y-125934998D01*
X159770000Y-124868018D01*
X159884801Y-124920446D01*
X159986025Y-124935000D01*
X160053975Y-124935000D01*
X160155199Y-124920446D01*
X160270000Y-124868018D01*
X160270000Y-125934999D01*
X160669972Y-125934999D01*
X160669986Y-125934998D01*
X160772697Y-125924505D01*
X160939119Y-125869358D01*
X160939124Y-125869356D01*
X161088345Y-125777315D01*
X161212315Y-125653345D01*
X161304356Y-125504124D01*
X161304358Y-125504119D01*
X161359505Y-125337697D01*
X161359506Y-125337690D01*
X161369999Y-125234986D01*
X161370000Y-125234973D01*
X161370000Y-124710000D01*
X160423969Y-124710000D01*
X160456519Y-124659351D01*
X160495000Y-124528295D01*
X160495000Y-124391705D01*
X160456519Y-124260649D01*
X160423969Y-124210000D01*
X161369999Y-124210000D01*
X161369999Y-123685028D01*
X161369998Y-123685013D01*
X161359505Y-123582302D01*
X161304358Y-123415880D01*
X161304356Y-123415875D01*
X161212315Y-123266654D01*
X161088345Y-123142684D01*
X160939124Y-123050643D01*
X160939119Y-123050641D01*
X160772697Y-122995494D01*
X160772690Y-122995493D01*
X160669986Y-122985000D01*
X160270000Y-122985000D01*
X160270000Y-124051981D01*
X160155199Y-123999554D01*
X160053975Y-123985000D01*
X159986025Y-123985000D01*
X159884801Y-123999554D01*
X159770000Y-124051981D01*
X159770000Y-122985000D01*
X159370028Y-122985000D01*
X159370012Y-122985001D01*
X159267302Y-122995494D01*
X159100880Y-123050641D01*
X159100875Y-123050643D01*
X158951654Y-123142684D01*
X158827683Y-123266655D01*
X158827680Y-123266659D01*
X158732183Y-123421483D01*
X158680235Y-123468208D01*
X158611272Y-123479429D01*
X158547190Y-123451586D01*
X158538964Y-123444068D01*
X158492083Y-123397187D01*
X158391401Y-123296505D01*
X158391397Y-123296502D01*
X158391396Y-123296501D01*
X158197834Y-123160967D01*
X158197830Y-123160965D01*
X158158626Y-123142684D01*
X157983663Y-123061097D01*
X157983659Y-123061096D01*
X157983655Y-123061094D01*
X157755413Y-122999938D01*
X157755403Y-122999936D01*
X157520001Y-122979341D01*
X157519999Y-122979341D01*
X157284596Y-122999936D01*
X157284586Y-122999938D01*
X157056344Y-123061094D01*
X157056335Y-123061098D01*
X156842171Y-123160964D01*
X156842169Y-123160965D01*
X156648597Y-123296505D01*
X156481505Y-123463597D01*
X156371575Y-123620595D01*
X156316998Y-123664220D01*
X156247500Y-123671414D01*
X156185145Y-123639891D01*
X156168425Y-123620595D01*
X156058494Y-123463597D01*
X155891402Y-123296506D01*
X155891395Y-123296501D01*
X155870818Y-123282093D01*
X155832213Y-123255061D01*
X155697834Y-123160967D01*
X155697830Y-123160965D01*
X155658626Y-123142684D01*
X155483663Y-123061097D01*
X155483659Y-123061096D01*
X155483655Y-123061094D01*
X155255413Y-122999938D01*
X155255404Y-122999936D01*
X155160993Y-122991676D01*
X155095925Y-122966223D01*
X155054947Y-122909632D01*
X155051070Y-122839870D01*
X155084119Y-122780469D01*
X156448787Y-121415801D01*
X156461042Y-121405986D01*
X156460859Y-121405764D01*
X156466866Y-121400792D01*
X156466877Y-121400786D01*
X156497775Y-121367882D01*
X156514227Y-121350364D01*
X156524671Y-121339918D01*
X156535120Y-121329471D01*
X156539379Y-121323978D01*
X156543152Y-121319561D01*
X156575062Y-121285582D01*
X156584713Y-121268024D01*
X156595396Y-121251761D01*
X156607673Y-121235936D01*
X156626185Y-121193153D01*
X156628738Y-121187941D01*
X156651197Y-121147092D01*
X156656180Y-121127680D01*
X156662481Y-121109280D01*
X156670437Y-121090896D01*
X156677729Y-121044852D01*
X156678906Y-121039171D01*
X156690500Y-120994019D01*
X156690500Y-120973983D01*
X156692027Y-120954582D01*
X156692144Y-120953843D01*
X156695160Y-120934804D01*
X156690775Y-120888415D01*
X156690500Y-120882577D01*
X156690500Y-115561434D01*
X156710185Y-115494395D01*
X156762989Y-115448640D01*
X156832147Y-115438696D01*
X156866904Y-115449051D01*
X157033504Y-115526739D01*
X157253308Y-115585635D01*
X157415230Y-115599801D01*
X157479998Y-115605468D01*
X157480000Y-115605468D01*
X157480002Y-115605468D01*
X157536673Y-115600509D01*
X157706692Y-115585635D01*
X157926496Y-115526739D01*
X158132734Y-115430568D01*
X158319139Y-115300047D01*
X158480047Y-115139139D01*
X158610568Y-114952734D01*
X158706739Y-114746496D01*
X158765635Y-114526692D01*
X158785468Y-114300000D01*
X158765635Y-114073308D01*
X158706739Y-113853504D01*
X158610568Y-113647266D01*
X158480047Y-113460861D01*
X158480045Y-113460858D01*
X158319141Y-113299954D01*
X158132734Y-113169432D01*
X158132728Y-113169429D01*
X158074725Y-113142382D01*
X158022285Y-113096210D01*
X158003133Y-113029017D01*
X158023348Y-112962135D01*
X158074725Y-112917618D01*
X158132734Y-112890568D01*
X158319139Y-112760047D01*
X158480047Y-112599139D01*
X158610568Y-112412734D01*
X158706739Y-112206496D01*
X158765635Y-111986692D01*
X158785468Y-111760000D01*
X158765635Y-111533308D01*
X158706739Y-111313504D01*
X158610568Y-111107266D01*
X158480047Y-110920861D01*
X158480045Y-110920858D01*
X158319141Y-110759954D01*
X158132734Y-110629432D01*
X158132728Y-110629429D01*
X158074725Y-110602382D01*
X158022285Y-110556210D01*
X158003133Y-110489017D01*
X158023348Y-110422135D01*
X158074725Y-110377618D01*
X158132734Y-110350568D01*
X158319139Y-110220047D01*
X158480047Y-110059139D01*
X158610568Y-109872734D01*
X158706739Y-109666496D01*
X158765635Y-109446692D01*
X158785468Y-109220000D01*
X158765635Y-108993308D01*
X158706739Y-108773504D01*
X158610568Y-108567266D01*
X158480047Y-108380861D01*
X158480045Y-108380858D01*
X158319141Y-108219954D01*
X158132734Y-108089432D01*
X158132728Y-108089429D01*
X158074725Y-108062382D01*
X158022285Y-108016210D01*
X158003133Y-107949017D01*
X158023348Y-107882135D01*
X158074725Y-107837618D01*
X158132734Y-107810568D01*
X158319139Y-107680047D01*
X158480047Y-107519139D01*
X158610568Y-107332734D01*
X158706739Y-107126496D01*
X158765635Y-106906692D01*
X158785468Y-106680000D01*
X158765635Y-106453308D01*
X158706739Y-106233504D01*
X158610568Y-106027266D01*
X158480047Y-105840861D01*
X158480045Y-105840858D01*
X158319141Y-105679954D01*
X158132734Y-105549432D01*
X158132728Y-105549429D01*
X158074725Y-105522382D01*
X158022285Y-105476210D01*
X158003133Y-105409017D01*
X158023348Y-105342135D01*
X158074725Y-105297618D01*
X158132734Y-105270568D01*
X158319139Y-105140047D01*
X158480047Y-104979139D01*
X158610568Y-104792734D01*
X158706739Y-104586496D01*
X158765635Y-104366692D01*
X158785468Y-104140000D01*
X158765635Y-103913308D01*
X158706739Y-103693504D01*
X158610568Y-103487266D01*
X158480047Y-103300861D01*
X158480045Y-103300858D01*
X158319141Y-103139954D01*
X158132734Y-103009432D01*
X158132728Y-103009429D01*
X158074725Y-102982382D01*
X158022285Y-102936210D01*
X158003133Y-102869017D01*
X158023348Y-102802135D01*
X158074725Y-102757618D01*
X158132734Y-102730568D01*
X158319139Y-102600047D01*
X158480047Y-102439139D01*
X158610568Y-102252734D01*
X158706739Y-102046496D01*
X158765635Y-101826692D01*
X158785468Y-101600000D01*
X158765635Y-101373308D01*
X158706739Y-101153504D01*
X158610568Y-100947266D01*
X158480047Y-100760861D01*
X158480045Y-100760858D01*
X158319141Y-100599954D01*
X158132734Y-100469432D01*
X158132728Y-100469429D01*
X158074725Y-100442382D01*
X158022285Y-100396210D01*
X158003133Y-100329017D01*
X158023348Y-100262135D01*
X158074725Y-100217618D01*
X158075319Y-100217341D01*
X158132734Y-100190568D01*
X158319139Y-100060047D01*
X158480047Y-99899139D01*
X158610568Y-99712734D01*
X158706739Y-99506496D01*
X158765635Y-99286692D01*
X158785468Y-99060000D01*
X158765635Y-98833308D01*
X158706739Y-98613504D01*
X158610568Y-98407266D01*
X158480047Y-98220861D01*
X158480045Y-98220858D01*
X158319141Y-98059954D01*
X158132734Y-97929432D01*
X158132732Y-97929431D01*
X157926497Y-97833261D01*
X157926488Y-97833258D01*
X157706697Y-97774366D01*
X157706693Y-97774365D01*
X157706692Y-97774365D01*
X157706691Y-97774364D01*
X157706686Y-97774364D01*
X157480002Y-97754532D01*
X157479998Y-97754532D01*
X157253313Y-97774364D01*
X157253302Y-97774366D01*
X157033511Y-97833258D01*
X157033502Y-97833262D01*
X156866905Y-97910948D01*
X156797827Y-97921440D01*
X156734043Y-97892920D01*
X156695804Y-97834444D01*
X156690500Y-97798566D01*
X156690500Y-84947737D01*
X156692224Y-84932123D01*
X156691938Y-84932096D01*
X156692672Y-84924333D01*
X156690500Y-84855203D01*
X156690500Y-84825651D01*
X156690500Y-84825650D01*
X156689629Y-84818759D01*
X156689172Y-84812945D01*
X156687709Y-84766372D01*
X156682122Y-84747144D01*
X156678174Y-84728084D01*
X156675664Y-84708208D01*
X156658507Y-84664875D01*
X156656619Y-84659359D01*
X156643619Y-84614612D01*
X156641716Y-84611395D01*
X156633418Y-84597363D01*
X156624860Y-84579894D01*
X156617486Y-84561268D01*
X156617483Y-84561264D01*
X156617483Y-84561263D01*
X156590098Y-84523571D01*
X156586890Y-84518687D01*
X156563172Y-84478582D01*
X156563163Y-84478571D01*
X156549005Y-84464413D01*
X156536370Y-84449620D01*
X156524593Y-84433412D01*
X156488693Y-84403713D01*
X156484381Y-84399790D01*
X156378822Y-84294231D01*
X156345337Y-84232908D01*
X156346727Y-84174459D01*
X156400063Y-83975408D01*
X156420659Y-83740000D01*
X156400063Y-83504592D01*
X156338903Y-83276337D01*
X156239035Y-83062171D01*
X156239034Y-83062169D01*
X156103494Y-82868597D01*
X155936403Y-82701506D01*
X155880187Y-82662144D01*
X155779401Y-82591573D01*
X155735778Y-82536999D01*
X155728584Y-82467500D01*
X155760106Y-82405145D01*
X155779398Y-82388428D01*
X155936401Y-82278495D01*
X156103495Y-82111401D01*
X156239035Y-81917830D01*
X156338903Y-81703663D01*
X156400063Y-81475408D01*
X156420659Y-81240000D01*
X156400063Y-81004592D01*
X156338903Y-80776337D01*
X156239035Y-80562171D01*
X156239034Y-80562169D01*
X156103494Y-80368597D01*
X155936403Y-80201506D01*
X155880187Y-80162144D01*
X155779401Y-80091573D01*
X155735778Y-80036999D01*
X155728584Y-79967500D01*
X155760106Y-79905145D01*
X155779398Y-79888428D01*
X155936401Y-79778495D01*
X156103495Y-79611401D01*
X156239035Y-79417830D01*
X156338903Y-79203663D01*
X156400063Y-78975408D01*
X156420659Y-78740000D01*
X156400063Y-78504592D01*
X156338903Y-78276337D01*
X156239035Y-78062171D01*
X156239034Y-78062169D01*
X156103494Y-77868597D01*
X155936403Y-77701506D01*
X155880187Y-77662144D01*
X155779401Y-77591573D01*
X155735778Y-77536999D01*
X155728584Y-77467500D01*
X155760106Y-77405145D01*
X155779398Y-77388428D01*
X155936401Y-77278495D01*
X156103495Y-77111401D01*
X156239035Y-76917830D01*
X156338903Y-76703663D01*
X156400063Y-76475408D01*
X156420659Y-76240000D01*
X156400063Y-76004592D01*
X156338903Y-75776337D01*
X156239035Y-75562171D01*
X156239034Y-75562169D01*
X156103494Y-75368597D01*
X155955932Y-75221035D01*
X155922447Y-75159712D01*
X155927431Y-75090020D01*
X155969303Y-75034087D01*
X155978516Y-75027815D01*
X156133345Y-74932315D01*
X156257315Y-74808345D01*
X156349356Y-74659124D01*
X156349358Y-74659119D01*
X156404505Y-74492697D01*
X156404506Y-74492690D01*
X156411728Y-74422000D01*
X165665977Y-74422000D01*
X165673884Y-74547692D01*
X165674006Y-74551561D01*
X165674006Y-74581648D01*
X165677776Y-74611495D01*
X165678142Y-74615372D01*
X165686047Y-74741024D01*
X165686049Y-74741041D01*
X165709645Y-74864738D01*
X165710254Y-74868584D01*
X165714023Y-74898415D01*
X165714024Y-74898419D01*
X165721503Y-74927551D01*
X165722349Y-74931336D01*
X165745948Y-75055043D01*
X165745950Y-75055050D01*
X165784859Y-75174800D01*
X165785945Y-75178539D01*
X165793426Y-75207673D01*
X165804502Y-75235652D01*
X165805820Y-75239314D01*
X165844731Y-75359067D01*
X165898350Y-75473013D01*
X165899889Y-75476569D01*
X165910965Y-75504543D01*
X165910970Y-75504556D01*
X165925454Y-75530901D01*
X165927223Y-75534372D01*
X165980839Y-75648311D01*
X165980842Y-75648317D01*
X166048312Y-75754633D01*
X166050295Y-75757985D01*
X166064784Y-75784341D01*
X166064789Y-75784349D01*
X166082471Y-75808687D01*
X166084660Y-75811908D01*
X166121862Y-75870528D01*
X166152129Y-75918221D01*
X166232401Y-76015253D01*
X166234773Y-76018311D01*
X166234776Y-76018316D01*
X166234779Y-76018319D01*
X166252460Y-76042655D01*
X166252463Y-76042660D01*
X166273051Y-76064584D01*
X166275627Y-76067505D01*
X166355890Y-76164526D01*
X166355899Y-76164536D01*
X166447673Y-76250716D01*
X166450413Y-76253455D01*
X166460903Y-76264626D01*
X166471030Y-76275411D01*
X166494215Y-76294591D01*
X166497136Y-76297166D01*
X166588921Y-76383357D01*
X166588931Y-76383365D01*
X166690794Y-76457373D01*
X166693872Y-76459761D01*
X166705080Y-76469032D01*
X166717050Y-76478935D01*
X166717052Y-76478936D01*
X166717053Y-76478937D01*
X166742460Y-76495061D01*
X166745665Y-76497239D01*
X166847541Y-76571256D01*
X166957919Y-76631937D01*
X166961220Y-76633889D01*
X166986636Y-76650019D01*
X167013872Y-76662835D01*
X167017296Y-76664580D01*
X167127669Y-76725258D01*
X167127674Y-76725260D01*
X167127676Y-76725261D01*
X167127677Y-76725262D01*
X167244747Y-76771613D01*
X167248321Y-76773159D01*
X167275539Y-76785967D01*
X167304177Y-76795272D01*
X167307808Y-76796580D01*
X167424890Y-76842936D01*
X167546896Y-76874262D01*
X167550577Y-76875331D01*
X167579203Y-76884633D01*
X167579205Y-76884633D01*
X167579207Y-76884634D01*
X167586695Y-76886062D01*
X167608767Y-76890272D01*
X167612517Y-76891110D01*
X167734517Y-76922435D01*
X167734530Y-76922436D01*
X167734532Y-76922437D01*
X167743302Y-76923544D01*
X167859475Y-76938220D01*
X167863257Y-76938819D01*
X167892839Y-76944463D01*
X167922876Y-76946352D01*
X167926732Y-76946717D01*
X167983501Y-76953888D01*
X168051655Y-76962499D01*
X168051661Y-76962499D01*
X168051665Y-76962500D01*
X168051667Y-76962500D01*
X168177591Y-76962500D01*
X168181463Y-76962621D01*
X168207041Y-76964230D01*
X168211498Y-76964511D01*
X168211500Y-76964511D01*
X168211502Y-76964511D01*
X168215958Y-76964230D01*
X168241536Y-76962621D01*
X168245409Y-76962500D01*
X168371333Y-76962500D01*
X168371335Y-76962500D01*
X168371340Y-76962499D01*
X168371344Y-76962499D01*
X168419369Y-76956431D01*
X168496267Y-76946717D01*
X168500123Y-76946352D01*
X168530161Y-76944463D01*
X168559757Y-76938817D01*
X168563509Y-76938222D01*
X168688483Y-76922435D01*
X168810515Y-76891102D01*
X168814188Y-76890281D01*
X168843797Y-76884633D01*
X168872445Y-76875324D01*
X168876088Y-76874265D01*
X168998110Y-76842936D01*
X169115204Y-76796575D01*
X169118819Y-76795273D01*
X169147461Y-76785967D01*
X169174705Y-76773146D01*
X169178222Y-76771624D01*
X169295331Y-76725258D01*
X169405728Y-76664566D01*
X169409113Y-76662842D01*
X169436364Y-76650019D01*
X169461816Y-76633866D01*
X169465060Y-76631948D01*
X169575459Y-76571256D01*
X169677346Y-76497230D01*
X169680539Y-76495061D01*
X169705950Y-76478935D01*
X169729162Y-76459731D01*
X169732163Y-76457403D01*
X169834077Y-76383359D01*
X169925889Y-76297141D01*
X169928763Y-76294608D01*
X169951969Y-76275411D01*
X169972602Y-76253438D01*
X169975289Y-76250751D01*
X170067106Y-76164530D01*
X170147403Y-76067466D01*
X170149906Y-76064628D01*
X170170538Y-76042658D01*
X170188231Y-76018305D01*
X170190587Y-76015266D01*
X170270871Y-75918221D01*
X170270874Y-75918215D01*
X170270879Y-75918210D01*
X170302318Y-75868667D01*
X170338361Y-75811873D01*
X170340512Y-75808709D01*
X170358213Y-75784346D01*
X170372732Y-75757935D01*
X170374653Y-75754685D01*
X170442159Y-75648315D01*
X170495785Y-75534353D01*
X170497515Y-75530956D01*
X170512033Y-75504549D01*
X170523126Y-75476528D01*
X170524636Y-75473040D01*
X170578267Y-75359070D01*
X170617187Y-75239286D01*
X170618490Y-75235666D01*
X170629572Y-75207679D01*
X170637060Y-75178511D01*
X170638129Y-75174834D01*
X170677051Y-75055046D01*
X170700661Y-74931274D01*
X170701486Y-74927588D01*
X170708976Y-74898419D01*
X170712750Y-74868541D01*
X170713345Y-74864782D01*
X170736951Y-74741039D01*
X170736951Y-74741038D01*
X170736952Y-74741032D01*
X170741047Y-74675922D01*
X170744858Y-74615350D01*
X170745224Y-74611486D01*
X170748993Y-74581652D01*
X170748994Y-74581646D01*
X170749641Y-74540377D01*
X170749752Y-74537560D01*
X170757023Y-74422000D01*
X170749752Y-74306443D01*
X170749641Y-74303619D01*
X170748994Y-74262354D01*
X170745223Y-74232502D01*
X170744858Y-74228649D01*
X170741047Y-74168077D01*
X170736952Y-74102968D01*
X170736949Y-74102954D01*
X170713350Y-73979243D01*
X170712743Y-73975403D01*
X170708976Y-73945587D01*
X170708976Y-73945581D01*
X170708973Y-73945571D01*
X170706939Y-73937648D01*
X170701491Y-73916432D01*
X170700655Y-73912695D01*
X170677051Y-73788954D01*
X170638133Y-73669178D01*
X170637059Y-73665484D01*
X170629572Y-73636321D01*
X170624340Y-73623107D01*
X170618498Y-73608349D01*
X170617179Y-73604685D01*
X170579914Y-73490000D01*
X170578267Y-73484930D01*
X170524640Y-73370968D01*
X170523122Y-73367458D01*
X170512033Y-73339451D01*
X170497536Y-73313081D01*
X170495769Y-73309613D01*
X170442159Y-73195685D01*
X170374680Y-73089356D01*
X170372710Y-73086025D01*
X170358213Y-73059654D01*
X170346017Y-73042867D01*
X170340528Y-73035312D01*
X170338338Y-73032090D01*
X170273117Y-72929319D01*
X170270871Y-72925779D01*
X170190598Y-72828746D01*
X170188241Y-72825708D01*
X170170538Y-72801342D01*
X170149936Y-72779403D01*
X170147371Y-72776493D01*
X170067109Y-72679473D01*
X170067107Y-72679471D01*
X170058783Y-72671654D01*
X169975305Y-72593263D01*
X169972586Y-72590544D01*
X169951969Y-72568589D01*
X169951965Y-72568586D01*
X169928775Y-72549400D01*
X169925855Y-72546825D01*
X169834089Y-72460651D01*
X169834073Y-72460638D01*
X169732206Y-72386626D01*
X169729129Y-72384240D01*
X169723293Y-72379412D01*
X169705950Y-72365065D01*
X169694167Y-72357587D01*
X169680539Y-72348938D01*
X169677320Y-72346749D01*
X169575470Y-72272751D01*
X169575458Y-72272743D01*
X169465108Y-72212077D01*
X169461756Y-72210095D01*
X169436366Y-72193982D01*
X169436364Y-72193981D01*
X169409143Y-72181171D01*
X169405674Y-72179403D01*
X169295337Y-72118745D01*
X169295335Y-72118744D01*
X169295331Y-72118742D01*
X169254618Y-72102622D01*
X169178257Y-72072388D01*
X169174684Y-72070842D01*
X169147461Y-72058033D01*
X169138533Y-72055132D01*
X169118862Y-72048740D01*
X169115199Y-72047421D01*
X168998110Y-72001063D01*
X168876143Y-71969748D01*
X168872402Y-71968661D01*
X168843801Y-71959368D01*
X168843803Y-71959368D01*
X168814240Y-71953728D01*
X168810459Y-71952883D01*
X168742447Y-71935420D01*
X168688485Y-71921565D01*
X168688475Y-71921563D01*
X168563570Y-71905784D01*
X168559724Y-71905175D01*
X168530179Y-71899539D01*
X168530163Y-71899537D01*
X168530161Y-71899537D01*
X168525978Y-71899273D01*
X168500132Y-71897647D01*
X168496256Y-71897280D01*
X168371346Y-71881500D01*
X168371335Y-71881500D01*
X168245409Y-71881500D01*
X168241536Y-71881378D01*
X168215958Y-71879769D01*
X168211502Y-71879489D01*
X168211498Y-71879489D01*
X168207041Y-71879769D01*
X168181463Y-71881378D01*
X168177591Y-71881500D01*
X168051653Y-71881500D01*
X167926744Y-71897280D01*
X167922868Y-71897647D01*
X167895086Y-71899395D01*
X167892839Y-71899537D01*
X167892837Y-71899537D01*
X167892821Y-71899539D01*
X167863278Y-71905175D01*
X167859431Y-71905784D01*
X167734520Y-71921564D01*
X167682524Y-71934914D01*
X167612537Y-71952884D01*
X167608746Y-71953731D01*
X167579205Y-71959366D01*
X167565120Y-71963942D01*
X167550589Y-71968664D01*
X167546860Y-71969747D01*
X167424887Y-72001064D01*
X167307809Y-72047417D01*
X167304148Y-72048735D01*
X167275544Y-72058030D01*
X167275535Y-72058034D01*
X167248317Y-72070841D01*
X167244746Y-72072386D01*
X167127667Y-72118742D01*
X167127664Y-72118744D01*
X167017325Y-72179403D01*
X167013857Y-72181170D01*
X166986639Y-72193979D01*
X166986635Y-72193981D01*
X166961244Y-72210094D01*
X166957894Y-72212075D01*
X166847558Y-72272733D01*
X166847540Y-72272744D01*
X166745670Y-72346755D01*
X166742451Y-72348943D01*
X166717056Y-72365060D01*
X166717051Y-72365064D01*
X166693873Y-72384236D01*
X166690798Y-72386621D01*
X166588923Y-72460641D01*
X166588919Y-72460644D01*
X166497139Y-72546829D01*
X166494220Y-72549403D01*
X166471033Y-72568586D01*
X166471029Y-72568590D01*
X166450429Y-72590527D01*
X166447676Y-72593280D01*
X166355893Y-72679470D01*
X166355891Y-72679472D01*
X166275636Y-72776483D01*
X166273062Y-72779403D01*
X166252468Y-72801334D01*
X166252454Y-72801352D01*
X166234776Y-72825683D01*
X166232389Y-72828760D01*
X166152139Y-72925765D01*
X166152125Y-72925784D01*
X166084658Y-73032092D01*
X166082471Y-73035310D01*
X166064787Y-73059652D01*
X166050297Y-73086009D01*
X166048315Y-73089360D01*
X165980846Y-73195675D01*
X165980838Y-73195688D01*
X165927228Y-73309616D01*
X165925461Y-73313085D01*
X165910966Y-73339452D01*
X165899892Y-73367422D01*
X165898345Y-73370996D01*
X165844734Y-73484927D01*
X165805819Y-73604689D01*
X165804501Y-73608351D01*
X165793429Y-73636317D01*
X165793426Y-73636323D01*
X165785944Y-73665464D01*
X165784858Y-73669202D01*
X165745950Y-73788949D01*
X165745949Y-73788953D01*
X165722351Y-73912652D01*
X165721502Y-73916450D01*
X165714026Y-73945571D01*
X165714023Y-73945587D01*
X165710253Y-73975416D01*
X165709644Y-73979259D01*
X165686050Y-74102954D01*
X165686047Y-74102975D01*
X165678142Y-74228626D01*
X165677776Y-74232502D01*
X165674006Y-74262347D01*
X165674006Y-74292437D01*
X165673884Y-74296309D01*
X165665977Y-74422000D01*
X156411728Y-74422000D01*
X156414999Y-74389986D01*
X156415000Y-74389973D01*
X156415000Y-73990000D01*
X155343969Y-73990000D01*
X155376519Y-73939351D01*
X155415000Y-73808295D01*
X155415000Y-73671705D01*
X155376519Y-73540649D01*
X155343969Y-73490000D01*
X156414999Y-73490000D01*
X156414999Y-73090028D01*
X156414998Y-73090013D01*
X156404505Y-72987302D01*
X156349358Y-72820880D01*
X156349356Y-72820875D01*
X156257315Y-72671654D01*
X156133345Y-72547684D01*
X155984124Y-72455643D01*
X155984119Y-72455641D01*
X155817697Y-72400494D01*
X155817690Y-72400493D01*
X155714986Y-72390000D01*
X155190000Y-72390000D01*
X155190000Y-73331981D01*
X155075199Y-73279554D01*
X154973975Y-73265000D01*
X154906025Y-73265000D01*
X154804801Y-73279554D01*
X154690000Y-73331981D01*
X154690000Y-72390000D01*
X154165028Y-72390000D01*
X154165012Y-72390001D01*
X154062302Y-72400494D01*
X153895880Y-72455641D01*
X153895875Y-72455643D01*
X153746654Y-72547684D01*
X153622684Y-72671654D01*
X153530643Y-72820875D01*
X153530641Y-72820880D01*
X153475494Y-72987302D01*
X153475493Y-72987309D01*
X153465000Y-73090013D01*
X153465000Y-73490000D01*
X154536031Y-73490000D01*
X154503481Y-73540649D01*
X154465000Y-73671705D01*
X154465000Y-73808295D01*
X154503481Y-73939351D01*
X154536031Y-73990000D01*
X153465001Y-73990000D01*
X153465001Y-74389986D01*
X153475494Y-74492697D01*
X153530641Y-74659119D01*
X153530643Y-74659124D01*
X153622684Y-74808345D01*
X153746654Y-74932315D01*
X153901484Y-75027815D01*
X153948208Y-75079763D01*
X153959431Y-75148726D01*
X153931587Y-75212808D01*
X153924069Y-75221035D01*
X153776501Y-75368603D01*
X153776501Y-75368604D01*
X153640967Y-75562165D01*
X153640965Y-75562169D01*
X153541098Y-75776335D01*
X153541094Y-75776344D01*
X153479938Y-76004586D01*
X153479936Y-76004596D01*
X153459341Y-76239999D01*
X153459341Y-76240000D01*
X153479936Y-76475403D01*
X153479938Y-76475413D01*
X153541094Y-76703655D01*
X153541096Y-76703659D01*
X153541097Y-76703663D01*
X153572783Y-76771613D01*
X153640964Y-76917828D01*
X153640965Y-76917830D01*
X153776505Y-77111402D01*
X153943597Y-77278494D01*
X154100595Y-77388425D01*
X154144220Y-77443002D01*
X154151414Y-77512500D01*
X154119891Y-77574855D01*
X154100595Y-77591575D01*
X153943597Y-77701505D01*
X153776506Y-77868597D01*
X153776501Y-77868604D01*
X153640967Y-78062165D01*
X153640965Y-78062169D01*
X153541098Y-78276335D01*
X153541094Y-78276344D01*
X153479938Y-78504586D01*
X153479936Y-78504596D01*
X153459341Y-78739999D01*
X153459341Y-78740000D01*
X153479936Y-78975403D01*
X153479938Y-78975413D01*
X153541094Y-79203655D01*
X153541096Y-79203659D01*
X153541097Y-79203663D01*
X153591031Y-79310746D01*
X153640964Y-79417828D01*
X153640965Y-79417830D01*
X153776505Y-79611402D01*
X153943597Y-79778494D01*
X154100595Y-79888425D01*
X154144220Y-79943002D01*
X154151414Y-80012500D01*
X154119891Y-80074855D01*
X154100595Y-80091575D01*
X153943597Y-80201505D01*
X153776506Y-80368597D01*
X153776501Y-80368604D01*
X153640967Y-80562165D01*
X153640965Y-80562169D01*
X153541098Y-80776335D01*
X153541094Y-80776344D01*
X153479938Y-81004586D01*
X153479936Y-81004596D01*
X153459341Y-81239999D01*
X153459341Y-81240000D01*
X153479936Y-81475403D01*
X153479938Y-81475413D01*
X153541094Y-81703655D01*
X153541096Y-81703659D01*
X153541097Y-81703663D01*
X153591031Y-81810746D01*
X153640964Y-81917828D01*
X153640965Y-81917830D01*
X153776505Y-82111402D01*
X153943597Y-82278494D01*
X154100595Y-82388425D01*
X154144220Y-82443002D01*
X154151414Y-82512500D01*
X154119891Y-82574855D01*
X154100595Y-82591575D01*
X153943597Y-82701505D01*
X153776506Y-82868597D01*
X153776501Y-82868604D01*
X153640967Y-83062165D01*
X153640965Y-83062169D01*
X153541098Y-83276335D01*
X153541094Y-83276344D01*
X153479938Y-83504586D01*
X153479936Y-83504596D01*
X153459341Y-83739999D01*
X153459341Y-83740000D01*
X153479936Y-83975403D01*
X153479938Y-83975413D01*
X153541094Y-84203655D01*
X153541096Y-84203659D01*
X153541097Y-84203663D01*
X153557204Y-84238204D01*
X153640964Y-84417828D01*
X153640965Y-84417830D01*
X153776505Y-84611402D01*
X153943597Y-84778494D01*
X154137169Y-84914034D01*
X154137171Y-84914035D01*
X154351337Y-85013903D01*
X154579592Y-85075063D01*
X154756034Y-85090500D01*
X155123966Y-85090500D01*
X155300408Y-85075063D01*
X155300409Y-85075062D01*
X155304692Y-85074688D01*
X155373192Y-85088454D01*
X155423375Y-85137069D01*
X155439500Y-85198216D01*
X155439500Y-97685863D01*
X155419815Y-97752902D01*
X155367011Y-97798657D01*
X155297853Y-97808601D01*
X155283407Y-97805638D01*
X155166697Y-97774366D01*
X155166693Y-97774365D01*
X155166692Y-97774365D01*
X155166691Y-97774364D01*
X155166686Y-97774364D01*
X154940002Y-97754532D01*
X154939998Y-97754532D01*
X154713313Y-97774364D01*
X154713302Y-97774366D01*
X154493511Y-97833258D01*
X154493502Y-97833261D01*
X154287267Y-97929431D01*
X154287265Y-97929432D01*
X154100858Y-98059954D01*
X153939954Y-98220858D01*
X153809432Y-98407265D01*
X153809431Y-98407267D01*
X153782382Y-98465275D01*
X153736209Y-98517714D01*
X153669016Y-98536866D01*
X153602135Y-98516650D01*
X153557618Y-98465275D01*
X153530686Y-98407520D01*
X153530568Y-98407266D01*
X153400047Y-98220861D01*
X153400045Y-98220858D01*
X153239141Y-98059954D01*
X153052734Y-97929432D01*
X153052732Y-97929431D01*
X152846497Y-97833261D01*
X152846488Y-97833258D01*
X152626697Y-97774366D01*
X152626693Y-97774365D01*
X152626692Y-97774365D01*
X152626691Y-97774364D01*
X152626686Y-97774364D01*
X152400002Y-97754532D01*
X152399998Y-97754532D01*
X152173313Y-97774364D01*
X152173302Y-97774366D01*
X151953511Y-97833258D01*
X151953502Y-97833261D01*
X151747267Y-97929431D01*
X151747265Y-97929432D01*
X151560858Y-98059954D01*
X151399954Y-98220858D01*
X151269432Y-98407265D01*
X151269431Y-98407267D01*
X151242382Y-98465275D01*
X151196209Y-98517714D01*
X151129016Y-98536866D01*
X151062135Y-98516650D01*
X151017618Y-98465275D01*
X150990686Y-98407520D01*
X150990568Y-98407266D01*
X150860047Y-98220861D01*
X150860045Y-98220858D01*
X150699141Y-98059954D01*
X150512734Y-97929432D01*
X150512732Y-97929431D01*
X150306497Y-97833261D01*
X150306488Y-97833258D01*
X150086697Y-97774366D01*
X150086693Y-97774365D01*
X150086692Y-97774365D01*
X150086691Y-97774364D01*
X150086686Y-97774364D01*
X149860002Y-97754532D01*
X149859998Y-97754532D01*
X149633313Y-97774364D01*
X149633302Y-97774366D01*
X149413511Y-97833258D01*
X149413502Y-97833261D01*
X149207267Y-97929431D01*
X149207265Y-97929432D01*
X149020858Y-98059954D01*
X148859954Y-98220858D01*
X148729432Y-98407265D01*
X148729431Y-98407267D01*
X148702382Y-98465275D01*
X148656209Y-98517714D01*
X148589016Y-98536866D01*
X148522135Y-98516650D01*
X148477618Y-98465275D01*
X148450686Y-98407520D01*
X148450568Y-98407266D01*
X148320047Y-98220861D01*
X148320045Y-98220858D01*
X148159141Y-98059954D01*
X147972734Y-97929432D01*
X147972732Y-97929431D01*
X147766497Y-97833261D01*
X147766488Y-97833258D01*
X147546697Y-97774366D01*
X147546693Y-97774365D01*
X147546692Y-97774365D01*
X147546691Y-97774364D01*
X147546686Y-97774364D01*
X147320002Y-97754532D01*
X147319998Y-97754532D01*
X147093313Y-97774364D01*
X147093302Y-97774366D01*
X146873511Y-97833258D01*
X146873502Y-97833261D01*
X146667267Y-97929431D01*
X146667265Y-97929432D01*
X146480858Y-98059954D01*
X146319954Y-98220858D01*
X146189432Y-98407265D01*
X146189431Y-98407267D01*
X146162382Y-98465275D01*
X146116209Y-98517714D01*
X146049016Y-98536866D01*
X145982135Y-98516650D01*
X145937618Y-98465275D01*
X145910686Y-98407520D01*
X145910568Y-98407266D01*
X145780047Y-98220861D01*
X145780045Y-98220858D01*
X145619141Y-98059954D01*
X145432734Y-97929432D01*
X145432732Y-97929431D01*
X145226497Y-97833261D01*
X145226488Y-97833258D01*
X145006697Y-97774366D01*
X145006693Y-97774365D01*
X145006692Y-97774365D01*
X145006691Y-97774364D01*
X145006686Y-97774364D01*
X144780002Y-97754532D01*
X144779998Y-97754532D01*
X144553313Y-97774364D01*
X144553302Y-97774366D01*
X144333511Y-97833258D01*
X144333502Y-97833261D01*
X144127267Y-97929431D01*
X144127265Y-97929432D01*
X143940858Y-98059954D01*
X143779954Y-98220858D01*
X143649432Y-98407265D01*
X143649431Y-98407267D01*
X143622382Y-98465275D01*
X143576209Y-98517714D01*
X143509016Y-98536866D01*
X143442135Y-98516650D01*
X143397618Y-98465275D01*
X143370686Y-98407520D01*
X143370568Y-98407266D01*
X143240047Y-98220861D01*
X143240045Y-98220858D01*
X143079141Y-98059954D01*
X142892734Y-97929432D01*
X142892732Y-97929431D01*
X142686497Y-97833261D01*
X142686488Y-97833258D01*
X142466697Y-97774366D01*
X142466693Y-97774365D01*
X142466692Y-97774365D01*
X142466691Y-97774364D01*
X142466686Y-97774364D01*
X142240002Y-97754532D01*
X142239998Y-97754532D01*
X142013313Y-97774364D01*
X142013302Y-97774366D01*
X141793511Y-97833258D01*
X141793502Y-97833261D01*
X141587267Y-97929431D01*
X141587265Y-97929432D01*
X141400858Y-98059954D01*
X141239954Y-98220858D01*
X141109432Y-98407265D01*
X141109431Y-98407267D01*
X141082382Y-98465275D01*
X141036209Y-98517714D01*
X140969016Y-98536866D01*
X140902135Y-98516650D01*
X140857618Y-98465275D01*
X140830686Y-98407520D01*
X140830568Y-98407266D01*
X140700047Y-98220861D01*
X140700045Y-98220858D01*
X140539141Y-98059954D01*
X140352734Y-97929432D01*
X140352732Y-97929431D01*
X140146497Y-97833261D01*
X140146488Y-97833258D01*
X139926697Y-97774366D01*
X139926693Y-97774365D01*
X139926692Y-97774365D01*
X139926691Y-97774364D01*
X139926686Y-97774364D01*
X139700002Y-97754532D01*
X139699998Y-97754532D01*
X139473313Y-97774364D01*
X139473302Y-97774366D01*
X139253511Y-97833258D01*
X139253502Y-97833261D01*
X139047267Y-97929431D01*
X139047265Y-97929432D01*
X138860858Y-98059954D01*
X138699954Y-98220858D01*
X138569432Y-98407265D01*
X138569431Y-98407267D01*
X138542382Y-98465275D01*
X138496209Y-98517714D01*
X138429016Y-98536866D01*
X138362135Y-98516650D01*
X138317618Y-98465275D01*
X138290686Y-98407520D01*
X138290568Y-98407266D01*
X138160047Y-98220861D01*
X138160045Y-98220858D01*
X137999141Y-98059954D01*
X137812734Y-97929432D01*
X137812732Y-97929431D01*
X137606497Y-97833261D01*
X137606488Y-97833258D01*
X137386697Y-97774366D01*
X137386693Y-97774365D01*
X137386692Y-97774365D01*
X137386691Y-97774364D01*
X137386686Y-97774364D01*
X137160002Y-97754532D01*
X137159998Y-97754532D01*
X136933313Y-97774364D01*
X136933302Y-97774366D01*
X136713511Y-97833258D01*
X136713502Y-97833261D01*
X136507267Y-97929431D01*
X136507265Y-97929432D01*
X136320858Y-98059954D01*
X136159954Y-98220858D01*
X136029432Y-98407265D01*
X136029431Y-98407267D01*
X136002382Y-98465275D01*
X135956209Y-98517714D01*
X135889016Y-98536866D01*
X135822135Y-98516650D01*
X135777618Y-98465275D01*
X135750686Y-98407520D01*
X135750568Y-98407266D01*
X135620047Y-98220861D01*
X135620045Y-98220858D01*
X135459141Y-98059954D01*
X135272734Y-97929432D01*
X135272732Y-97929431D01*
X135066497Y-97833261D01*
X135066488Y-97833258D01*
X134846697Y-97774366D01*
X134846693Y-97774365D01*
X134846692Y-97774365D01*
X134846691Y-97774364D01*
X134846686Y-97774364D01*
X134620002Y-97754532D01*
X134619998Y-97754532D01*
X134393313Y-97774364D01*
X134393302Y-97774366D01*
X134173511Y-97833258D01*
X134173502Y-97833261D01*
X133967267Y-97929431D01*
X133967265Y-97929432D01*
X133780858Y-98059954D01*
X133619954Y-98220858D01*
X133489432Y-98407265D01*
X133489431Y-98407267D01*
X133462382Y-98465275D01*
X133416209Y-98517714D01*
X133349016Y-98536866D01*
X133282135Y-98516650D01*
X133237618Y-98465275D01*
X133210686Y-98407520D01*
X133210568Y-98407266D01*
X133080047Y-98220861D01*
X133080045Y-98220858D01*
X132919141Y-98059954D01*
X132732734Y-97929432D01*
X132732732Y-97929431D01*
X132526497Y-97833261D01*
X132526488Y-97833258D01*
X132306697Y-97774366D01*
X132306693Y-97774365D01*
X132306692Y-97774365D01*
X132306691Y-97774364D01*
X132306686Y-97774364D01*
X132080002Y-97754532D01*
X132079998Y-97754532D01*
X131853313Y-97774364D01*
X131853302Y-97774366D01*
X131633511Y-97833258D01*
X131633502Y-97833261D01*
X131427267Y-97929431D01*
X131427265Y-97929432D01*
X131240858Y-98059954D01*
X131079954Y-98220858D01*
X130949432Y-98407265D01*
X130949431Y-98407267D01*
X130922382Y-98465275D01*
X130876209Y-98517714D01*
X130809016Y-98536866D01*
X130742135Y-98516650D01*
X130697618Y-98465275D01*
X130670686Y-98407520D01*
X130670568Y-98407266D01*
X130540047Y-98220861D01*
X130540045Y-98220858D01*
X130379141Y-98059954D01*
X130192734Y-97929432D01*
X130192732Y-97929431D01*
X129986497Y-97833261D01*
X129986488Y-97833258D01*
X129766697Y-97774366D01*
X129766693Y-97774365D01*
X129766692Y-97774365D01*
X129766691Y-97774364D01*
X129766686Y-97774364D01*
X129540002Y-97754532D01*
X129539998Y-97754532D01*
X129313313Y-97774364D01*
X129313302Y-97774366D01*
X129093511Y-97833258D01*
X129093502Y-97833261D01*
X128887267Y-97929431D01*
X128887265Y-97929432D01*
X128700858Y-98059954D01*
X128539954Y-98220858D01*
X128409433Y-98407264D01*
X128382106Y-98465867D01*
X128335933Y-98518306D01*
X128268739Y-98537457D01*
X128201858Y-98517241D01*
X128157342Y-98465865D01*
X128130135Y-98407520D01*
X128130131Y-98407512D01*
X128079026Y-98334526D01*
X128079025Y-98334526D01*
X127525929Y-98887622D01*
X127523116Y-98874085D01*
X127453558Y-98739844D01*
X127350362Y-98629348D01*
X127221181Y-98550791D01*
X127169996Y-98536449D01*
X127725472Y-97980974D01*
X127725471Y-97980973D01*
X127652483Y-97929866D01*
X127652481Y-97929865D01*
X127446326Y-97833734D01*
X127446317Y-97833730D01*
X127226610Y-97774860D01*
X127226599Y-97774858D01*
X127000002Y-97755034D01*
X126999998Y-97755034D01*
X126773400Y-97774858D01*
X126773389Y-97774860D01*
X126553682Y-97833730D01*
X126553673Y-97833734D01*
X126347513Y-97929868D01*
X126274527Y-97980972D01*
X126274526Y-97980973D01*
X126828432Y-98534878D01*
X126711542Y-98585651D01*
X126594261Y-98681066D01*
X126507072Y-98804585D01*
X126476645Y-98890198D01*
X125920973Y-98334526D01*
X125920972Y-98334527D01*
X125869869Y-98407511D01*
X125842657Y-98465867D01*
X125796484Y-98518306D01*
X125729290Y-98537457D01*
X125662409Y-98517241D01*
X125617893Y-98465865D01*
X125590682Y-98407512D01*
X125590568Y-98407266D01*
X125460047Y-98220861D01*
X125460045Y-98220858D01*
X125299141Y-98059954D01*
X125112734Y-97929432D01*
X125112732Y-97929431D01*
X124906497Y-97833261D01*
X124906488Y-97833258D01*
X124686697Y-97774366D01*
X124686693Y-97774365D01*
X124686692Y-97774365D01*
X124686691Y-97774364D01*
X124686686Y-97774364D01*
X124460002Y-97754532D01*
X124459998Y-97754532D01*
X124233313Y-97774364D01*
X124233302Y-97774366D01*
X124013511Y-97833258D01*
X124013502Y-97833261D01*
X123807267Y-97929431D01*
X123807265Y-97929432D01*
X123620858Y-98059954D01*
X123459954Y-98220858D01*
X123329432Y-98407265D01*
X123329431Y-98407267D01*
X123233261Y-98613502D01*
X123233258Y-98613511D01*
X123174366Y-98833302D01*
X123174364Y-98833313D01*
X123154532Y-99059998D01*
X123154532Y-99060001D01*
X80518500Y-99060001D01*
X80518500Y-96495889D01*
X101599416Y-96495889D01*
X101599459Y-96520001D01*
X101599500Y-96520099D01*
X101599616Y-96520382D01*
X101599618Y-96520384D01*
X101599808Y-96520462D01*
X101600000Y-96520541D01*
X101600002Y-96520539D01*
X101624616Y-96520524D01*
X101624616Y-96520528D01*
X101624760Y-96520500D01*
X134341240Y-96520500D01*
X134341383Y-96520528D01*
X134341384Y-96520524D01*
X134365997Y-96520539D01*
X134366000Y-96520541D01*
X134366383Y-96520383D01*
X134366500Y-96520099D01*
X134366541Y-96520000D01*
X134366540Y-96519997D01*
X134366583Y-96495889D01*
X134366500Y-96495467D01*
X134366500Y-89178759D01*
X134366528Y-89178616D01*
X134366524Y-89178616D01*
X134366539Y-89154002D01*
X134366541Y-89154000D01*
X134366462Y-89153808D01*
X134366384Y-89153618D01*
X134366382Y-89153616D01*
X134366099Y-89153500D01*
X134366000Y-89153459D01*
X134341446Y-89153459D01*
X134341240Y-89153500D01*
X101624760Y-89153500D01*
X101624554Y-89153459D01*
X101600000Y-89153459D01*
X101599901Y-89153500D01*
X101599617Y-89153616D01*
X101599615Y-89153618D01*
X101599459Y-89153999D01*
X101599476Y-89178616D01*
X101599471Y-89178616D01*
X101599500Y-89178759D01*
X101599500Y-96495467D01*
X101599416Y-96495889D01*
X80518500Y-96495889D01*
X80518500Y-83740000D01*
X92499341Y-83740000D01*
X92519936Y-83975403D01*
X92519938Y-83975413D01*
X92581094Y-84203655D01*
X92581096Y-84203659D01*
X92581097Y-84203663D01*
X92597204Y-84238204D01*
X92680964Y-84417828D01*
X92680965Y-84417830D01*
X92816505Y-84611402D01*
X92983597Y-84778494D01*
X93177169Y-84914034D01*
X93177171Y-84914035D01*
X93391337Y-85013903D01*
X93619592Y-85075063D01*
X93796034Y-85090500D01*
X94163966Y-85090500D01*
X94340408Y-85075063D01*
X94568663Y-85013903D01*
X94782829Y-84914035D01*
X94976401Y-84778495D01*
X95143495Y-84611401D01*
X95279035Y-84417830D01*
X95378903Y-84203663D01*
X95440063Y-83975408D01*
X95460659Y-83740000D01*
X102659341Y-83740000D01*
X102679936Y-83975403D01*
X102679938Y-83975413D01*
X102741094Y-84203655D01*
X102741096Y-84203659D01*
X102741097Y-84203663D01*
X102757204Y-84238204D01*
X102840964Y-84417828D01*
X102840965Y-84417830D01*
X102976505Y-84611402D01*
X103143597Y-84778494D01*
X103337169Y-84914034D01*
X103337171Y-84914035D01*
X103551337Y-85013903D01*
X103779592Y-85075063D01*
X103956034Y-85090500D01*
X104323966Y-85090500D01*
X104500408Y-85075063D01*
X104728663Y-85013903D01*
X104942829Y-84914035D01*
X105136401Y-84778495D01*
X105303495Y-84611401D01*
X105439035Y-84417830D01*
X105538903Y-84203663D01*
X105600063Y-83975408D01*
X105620659Y-83740000D01*
X112819341Y-83740000D01*
X112839936Y-83975403D01*
X112839938Y-83975413D01*
X112901094Y-84203655D01*
X112901096Y-84203659D01*
X112901097Y-84203663D01*
X112917204Y-84238204D01*
X113000964Y-84417828D01*
X113000965Y-84417830D01*
X113136505Y-84611402D01*
X113303597Y-84778494D01*
X113497169Y-84914034D01*
X113497171Y-84914035D01*
X113711337Y-85013903D01*
X113939592Y-85075063D01*
X114116034Y-85090500D01*
X114483966Y-85090500D01*
X114660408Y-85075063D01*
X114888663Y-85013903D01*
X115102829Y-84914035D01*
X115296401Y-84778495D01*
X115463495Y-84611401D01*
X115598652Y-84418377D01*
X115653229Y-84374752D01*
X115700227Y-84365500D01*
X123059773Y-84365500D01*
X123126812Y-84385185D01*
X123161348Y-84418377D01*
X123296505Y-84611402D01*
X123463597Y-84778494D01*
X123657169Y-84914034D01*
X123657171Y-84914035D01*
X123871337Y-85013903D01*
X124099592Y-85075063D01*
X124276034Y-85090500D01*
X124643966Y-85090500D01*
X124820408Y-85075063D01*
X125048663Y-85013903D01*
X125262829Y-84914035D01*
X125456401Y-84778495D01*
X125623495Y-84611401D01*
X125758652Y-84418377D01*
X125813229Y-84374752D01*
X125860227Y-84365500D01*
X133219773Y-84365500D01*
X133286812Y-84385185D01*
X133321348Y-84418377D01*
X133456505Y-84611402D01*
X133623597Y-84778494D01*
X133817169Y-84914034D01*
X133817171Y-84914035D01*
X134031337Y-85013903D01*
X134259592Y-85075063D01*
X134436034Y-85090500D01*
X134803966Y-85090500D01*
X134980408Y-85075063D01*
X135208663Y-85013903D01*
X135422829Y-84914035D01*
X135616401Y-84778495D01*
X135783495Y-84611401D01*
X135919035Y-84417830D01*
X136018903Y-84203663D01*
X136080063Y-83975408D01*
X136100659Y-83740000D01*
X143299341Y-83740000D01*
X143319936Y-83975403D01*
X143319938Y-83975413D01*
X143381094Y-84203655D01*
X143381096Y-84203659D01*
X143381097Y-84203663D01*
X143397204Y-84238204D01*
X143480964Y-84417828D01*
X143480965Y-84417830D01*
X143616505Y-84611402D01*
X143783597Y-84778494D01*
X143977169Y-84914034D01*
X143977171Y-84914035D01*
X144191337Y-85013903D01*
X144419592Y-85075063D01*
X144596034Y-85090500D01*
X144963966Y-85090500D01*
X145140408Y-85075063D01*
X145368663Y-85013903D01*
X145582829Y-84914035D01*
X145776401Y-84778495D01*
X145943495Y-84611401D01*
X146079035Y-84417830D01*
X146178903Y-84203663D01*
X146240063Y-83975408D01*
X146260659Y-83740000D01*
X146240063Y-83504592D01*
X146178903Y-83276337D01*
X146079035Y-83062171D01*
X146079034Y-83062169D01*
X145943494Y-82868597D01*
X145776403Y-82701506D01*
X145720187Y-82662144D01*
X145619401Y-82591573D01*
X145575778Y-82536999D01*
X145568584Y-82467500D01*
X145600106Y-82405145D01*
X145619398Y-82388428D01*
X145776401Y-82278495D01*
X145943495Y-82111401D01*
X146079035Y-81917830D01*
X146178903Y-81703663D01*
X146240063Y-81475408D01*
X146260659Y-81240000D01*
X146240063Y-81004592D01*
X146178903Y-80776337D01*
X146079035Y-80562171D01*
X146079034Y-80562169D01*
X145943494Y-80368597D01*
X145776403Y-80201506D01*
X145720187Y-80162144D01*
X145619401Y-80091573D01*
X145575778Y-80036999D01*
X145568584Y-79967500D01*
X145600106Y-79905145D01*
X145619398Y-79888428D01*
X145776401Y-79778495D01*
X145943495Y-79611401D01*
X146079035Y-79417830D01*
X146178903Y-79203663D01*
X146240063Y-78975408D01*
X146260659Y-78740000D01*
X146240063Y-78504592D01*
X146178903Y-78276337D01*
X146079035Y-78062171D01*
X146079034Y-78062169D01*
X145943494Y-77868597D01*
X145776403Y-77701506D01*
X145720187Y-77662144D01*
X145619401Y-77591573D01*
X145575778Y-77536999D01*
X145568584Y-77467500D01*
X145600106Y-77405145D01*
X145619398Y-77388428D01*
X145776401Y-77278495D01*
X145943495Y-77111401D01*
X146079035Y-76917830D01*
X146178903Y-76703663D01*
X146240063Y-76475408D01*
X146260659Y-76240000D01*
X146240063Y-76004592D01*
X146178903Y-75776337D01*
X146079035Y-75562171D01*
X146079034Y-75562169D01*
X145943494Y-75368597D01*
X145795932Y-75221035D01*
X145762447Y-75159712D01*
X145767431Y-75090020D01*
X145809303Y-75034087D01*
X145818516Y-75027815D01*
X145973345Y-74932315D01*
X146097315Y-74808345D01*
X146189356Y-74659124D01*
X146189358Y-74659119D01*
X146244505Y-74492697D01*
X146244506Y-74492690D01*
X146254999Y-74389986D01*
X146255000Y-74389973D01*
X146255000Y-73990000D01*
X145183969Y-73990000D01*
X145216519Y-73939351D01*
X145255000Y-73808295D01*
X145255000Y-73671705D01*
X145216519Y-73540649D01*
X145183969Y-73490000D01*
X146254999Y-73490000D01*
X146254999Y-73090028D01*
X146254998Y-73090013D01*
X146244505Y-72987302D01*
X146189358Y-72820880D01*
X146189356Y-72820875D01*
X146097315Y-72671654D01*
X145973345Y-72547684D01*
X145824124Y-72455643D01*
X145824119Y-72455641D01*
X145657697Y-72400494D01*
X145657690Y-72400493D01*
X145554986Y-72390000D01*
X145030000Y-72390000D01*
X145030000Y-73331981D01*
X144915199Y-73279554D01*
X144813975Y-73265000D01*
X144746025Y-73265000D01*
X144644801Y-73279554D01*
X144530000Y-73331981D01*
X144530000Y-72390000D01*
X144005028Y-72390000D01*
X144005012Y-72390001D01*
X143902302Y-72400494D01*
X143735880Y-72455641D01*
X143735875Y-72455643D01*
X143586654Y-72547684D01*
X143462684Y-72671654D01*
X143370643Y-72820875D01*
X143370641Y-72820880D01*
X143315494Y-72987302D01*
X143315493Y-72987309D01*
X143305000Y-73090013D01*
X143305000Y-73490000D01*
X144376031Y-73490000D01*
X144343481Y-73540649D01*
X144305000Y-73671705D01*
X144305000Y-73808295D01*
X144343481Y-73939351D01*
X144376031Y-73990000D01*
X143305001Y-73990000D01*
X143305001Y-74389986D01*
X143315494Y-74492697D01*
X143370641Y-74659119D01*
X143370643Y-74659124D01*
X143462684Y-74808345D01*
X143586654Y-74932315D01*
X143741484Y-75027815D01*
X143788208Y-75079763D01*
X143799431Y-75148726D01*
X143771587Y-75212808D01*
X143764069Y-75221035D01*
X143616501Y-75368603D01*
X143616501Y-75368604D01*
X143480967Y-75562165D01*
X143480965Y-75562169D01*
X143381098Y-75776335D01*
X143381094Y-75776344D01*
X143319938Y-76004586D01*
X143319936Y-76004596D01*
X143299341Y-76239999D01*
X143299341Y-76240000D01*
X143319936Y-76475403D01*
X143319938Y-76475413D01*
X143381094Y-76703655D01*
X143381096Y-76703659D01*
X143381097Y-76703663D01*
X143412783Y-76771613D01*
X143480964Y-76917828D01*
X143480965Y-76917830D01*
X143616505Y-77111402D01*
X143783597Y-77278494D01*
X143940595Y-77388425D01*
X143984220Y-77443002D01*
X143991414Y-77512500D01*
X143959891Y-77574855D01*
X143940595Y-77591575D01*
X143783597Y-77701505D01*
X143616506Y-77868597D01*
X143616501Y-77868604D01*
X143480967Y-78062165D01*
X143480965Y-78062169D01*
X143381098Y-78276335D01*
X143381094Y-78276344D01*
X143319938Y-78504586D01*
X143319936Y-78504596D01*
X143299341Y-78739999D01*
X143299341Y-78740000D01*
X143319936Y-78975403D01*
X143319938Y-78975413D01*
X143381094Y-79203655D01*
X143381096Y-79203659D01*
X143381097Y-79203663D01*
X143431031Y-79310746D01*
X143480964Y-79417828D01*
X143480965Y-79417830D01*
X143616505Y-79611402D01*
X143783597Y-79778494D01*
X143940595Y-79888425D01*
X143984220Y-79943002D01*
X143991414Y-80012500D01*
X143959891Y-80074855D01*
X143940595Y-80091575D01*
X143783597Y-80201505D01*
X143616506Y-80368597D01*
X143616501Y-80368604D01*
X143480967Y-80562165D01*
X143480965Y-80562169D01*
X143381098Y-80776335D01*
X143381094Y-80776344D01*
X143319938Y-81004586D01*
X143319936Y-81004596D01*
X143299341Y-81239999D01*
X143299341Y-81240000D01*
X143319936Y-81475403D01*
X143319938Y-81475413D01*
X143381094Y-81703655D01*
X143381096Y-81703659D01*
X143381097Y-81703663D01*
X143431031Y-81810746D01*
X143480964Y-81917828D01*
X143480965Y-81917830D01*
X143616505Y-82111402D01*
X143783597Y-82278494D01*
X143940595Y-82388425D01*
X143984220Y-82443002D01*
X143991414Y-82512500D01*
X143959891Y-82574855D01*
X143940595Y-82591575D01*
X143783597Y-82701505D01*
X143616506Y-82868597D01*
X143616501Y-82868604D01*
X143480967Y-83062165D01*
X143480965Y-83062169D01*
X143381098Y-83276335D01*
X143381094Y-83276344D01*
X143319938Y-83504586D01*
X143319936Y-83504596D01*
X143299341Y-83739999D01*
X143299341Y-83740000D01*
X136100659Y-83740000D01*
X136080063Y-83504592D01*
X136018903Y-83276337D01*
X135919035Y-83062171D01*
X135919034Y-83062169D01*
X135783494Y-82868597D01*
X135616403Y-82701506D01*
X135560187Y-82662144D01*
X135459401Y-82591573D01*
X135415778Y-82536999D01*
X135408584Y-82467500D01*
X135440106Y-82405145D01*
X135459398Y-82388428D01*
X135616401Y-82278495D01*
X135783495Y-82111401D01*
X135919035Y-81917830D01*
X136018903Y-81703663D01*
X136080063Y-81475408D01*
X136100659Y-81240000D01*
X136080063Y-81004592D01*
X136018903Y-80776337D01*
X135919035Y-80562171D01*
X135919034Y-80562169D01*
X135783494Y-80368597D01*
X135616403Y-80201506D01*
X135560187Y-80162144D01*
X135459401Y-80091573D01*
X135415778Y-80036999D01*
X135408584Y-79967500D01*
X135440106Y-79905145D01*
X135459398Y-79888428D01*
X135616401Y-79778495D01*
X135783495Y-79611401D01*
X135919035Y-79417830D01*
X136018903Y-79203663D01*
X136080063Y-78975408D01*
X136100659Y-78740000D01*
X136080063Y-78504592D01*
X136018903Y-78276337D01*
X135919035Y-78062171D01*
X135919034Y-78062169D01*
X135783494Y-77868597D01*
X135616403Y-77701506D01*
X135560187Y-77662144D01*
X135459401Y-77591573D01*
X135415778Y-77536999D01*
X135408584Y-77467500D01*
X135440106Y-77405145D01*
X135459398Y-77388428D01*
X135616401Y-77278495D01*
X135783495Y-77111401D01*
X135919035Y-76917830D01*
X136018903Y-76703663D01*
X136080063Y-76475408D01*
X136100659Y-76240000D01*
X136080063Y-76004592D01*
X136018903Y-75776337D01*
X135919035Y-75562171D01*
X135919034Y-75562169D01*
X135783494Y-75368597D01*
X135635932Y-75221035D01*
X135602447Y-75159712D01*
X135607431Y-75090020D01*
X135649303Y-75034087D01*
X135658516Y-75027815D01*
X135813345Y-74932315D01*
X135937315Y-74808345D01*
X136029356Y-74659124D01*
X136029358Y-74659119D01*
X136084505Y-74492697D01*
X136084506Y-74492690D01*
X136094999Y-74389986D01*
X136095000Y-74389973D01*
X136095000Y-73990000D01*
X135023969Y-73990000D01*
X135056519Y-73939351D01*
X135095000Y-73808295D01*
X135095000Y-73671705D01*
X135056519Y-73540649D01*
X135023969Y-73490000D01*
X136094999Y-73490000D01*
X136094999Y-73090028D01*
X136094998Y-73090013D01*
X136084505Y-72987302D01*
X136029358Y-72820880D01*
X136029356Y-72820875D01*
X135937315Y-72671654D01*
X135813345Y-72547684D01*
X135664124Y-72455643D01*
X135664119Y-72455641D01*
X135497697Y-72400494D01*
X135497690Y-72400493D01*
X135394986Y-72390000D01*
X134870000Y-72390000D01*
X134870000Y-73331981D01*
X134755199Y-73279554D01*
X134653975Y-73265000D01*
X134586025Y-73265000D01*
X134484801Y-73279554D01*
X134370000Y-73331981D01*
X134370000Y-72390000D01*
X133845028Y-72390000D01*
X133845012Y-72390001D01*
X133742302Y-72400494D01*
X133575880Y-72455641D01*
X133575875Y-72455643D01*
X133426654Y-72547684D01*
X133302684Y-72671654D01*
X133210643Y-72820875D01*
X133210641Y-72820880D01*
X133155494Y-72987302D01*
X133155493Y-72987309D01*
X133145000Y-73090013D01*
X133145000Y-73490000D01*
X134216031Y-73490000D01*
X134183481Y-73540649D01*
X134145000Y-73671705D01*
X134145000Y-73808295D01*
X134183481Y-73939351D01*
X134216031Y-73990000D01*
X133145001Y-73990000D01*
X133145001Y-74389986D01*
X133155494Y-74492697D01*
X133210641Y-74659119D01*
X133210643Y-74659124D01*
X133302684Y-74808345D01*
X133426654Y-74932315D01*
X133581484Y-75027815D01*
X133628208Y-75079763D01*
X133639431Y-75148726D01*
X133611587Y-75212808D01*
X133604069Y-75221035D01*
X133456501Y-75368603D01*
X133456501Y-75368604D01*
X133320967Y-75562165D01*
X133320965Y-75562169D01*
X133221098Y-75776335D01*
X133221094Y-75776344D01*
X133159938Y-76004586D01*
X133159936Y-76004596D01*
X133139341Y-76239999D01*
X133139341Y-76240000D01*
X133159936Y-76475403D01*
X133159938Y-76475413D01*
X133221094Y-76703655D01*
X133221096Y-76703659D01*
X133221097Y-76703663D01*
X133252783Y-76771613D01*
X133320964Y-76917828D01*
X133320965Y-76917830D01*
X133456505Y-77111402D01*
X133623597Y-77278494D01*
X133780595Y-77388425D01*
X133824220Y-77443002D01*
X133831414Y-77512500D01*
X133799891Y-77574855D01*
X133780595Y-77591575D01*
X133623597Y-77701505D01*
X133456506Y-77868597D01*
X133456501Y-77868603D01*
X133321348Y-78061623D01*
X133266771Y-78105248D01*
X133219773Y-78114500D01*
X125860227Y-78114500D01*
X125793188Y-78094815D01*
X125758652Y-78061623D01*
X125623494Y-77868597D01*
X125456403Y-77701506D01*
X125400187Y-77662144D01*
X125299401Y-77591573D01*
X125255778Y-77536999D01*
X125248584Y-77467500D01*
X125280106Y-77405145D01*
X125299398Y-77388428D01*
X125456401Y-77278495D01*
X125623495Y-77111401D01*
X125759035Y-76917830D01*
X125858903Y-76703663D01*
X125920063Y-76475408D01*
X125940659Y-76240000D01*
X125920063Y-76004592D01*
X125858903Y-75776337D01*
X125759035Y-75562171D01*
X125759034Y-75562169D01*
X125623494Y-75368597D01*
X125475932Y-75221035D01*
X125442447Y-75159712D01*
X125447431Y-75090020D01*
X125489303Y-75034087D01*
X125498516Y-75027815D01*
X125653345Y-74932315D01*
X125777315Y-74808345D01*
X125869356Y-74659124D01*
X125869358Y-74659119D01*
X125924505Y-74492697D01*
X125924506Y-74492690D01*
X125934999Y-74389986D01*
X125935000Y-74389973D01*
X125935000Y-73990000D01*
X124863969Y-73990000D01*
X124896519Y-73939351D01*
X124935000Y-73808295D01*
X124935000Y-73671705D01*
X124896519Y-73540649D01*
X124863969Y-73490000D01*
X125934999Y-73490000D01*
X125934999Y-73090028D01*
X125934998Y-73090013D01*
X125924505Y-72987302D01*
X125869358Y-72820880D01*
X125869356Y-72820875D01*
X125777315Y-72671654D01*
X125653345Y-72547684D01*
X125504124Y-72455643D01*
X125504119Y-72455641D01*
X125337697Y-72400494D01*
X125337690Y-72400493D01*
X125234986Y-72390000D01*
X124710000Y-72390000D01*
X124710000Y-73331981D01*
X124595199Y-73279554D01*
X124493975Y-73265000D01*
X124426025Y-73265000D01*
X124324801Y-73279554D01*
X124210000Y-73331981D01*
X124210000Y-72390000D01*
X123685028Y-72390000D01*
X123685012Y-72390001D01*
X123582302Y-72400494D01*
X123415880Y-72455641D01*
X123415875Y-72455643D01*
X123266654Y-72547684D01*
X123142684Y-72671654D01*
X123050643Y-72820875D01*
X123050641Y-72820880D01*
X122995494Y-72987302D01*
X122995493Y-72987309D01*
X122985000Y-73090013D01*
X122985000Y-73490000D01*
X124056031Y-73490000D01*
X124023481Y-73540649D01*
X123985000Y-73671705D01*
X123985000Y-73808295D01*
X124023481Y-73939351D01*
X124056031Y-73990000D01*
X122985001Y-73990000D01*
X122985001Y-74389986D01*
X122995494Y-74492697D01*
X123050641Y-74659119D01*
X123050643Y-74659124D01*
X123142684Y-74808345D01*
X123266654Y-74932315D01*
X123421484Y-75027815D01*
X123468208Y-75079763D01*
X123479431Y-75148726D01*
X123451587Y-75212808D01*
X123444069Y-75221035D01*
X123296501Y-75368603D01*
X123296501Y-75368604D01*
X123160967Y-75562165D01*
X123160965Y-75562169D01*
X123061098Y-75776335D01*
X123061094Y-75776344D01*
X122999938Y-76004586D01*
X122999936Y-76004596D01*
X122979341Y-76239999D01*
X122979341Y-76240000D01*
X122999936Y-76475403D01*
X122999938Y-76475413D01*
X123061094Y-76703655D01*
X123061096Y-76703659D01*
X123061097Y-76703663D01*
X123092783Y-76771613D01*
X123160964Y-76917828D01*
X123160965Y-76917830D01*
X123296505Y-77111402D01*
X123463597Y-77278494D01*
X123620595Y-77388425D01*
X123664220Y-77443002D01*
X123671414Y-77512500D01*
X123639891Y-77574855D01*
X123620595Y-77591575D01*
X123463597Y-77701505D01*
X123296506Y-77868597D01*
X123296501Y-77868604D01*
X123160967Y-78062165D01*
X123160965Y-78062169D01*
X123061098Y-78276335D01*
X123061094Y-78276344D01*
X122999938Y-78504586D01*
X122999936Y-78504596D01*
X122979341Y-78739999D01*
X122979341Y-78740000D01*
X122999936Y-78975403D01*
X122999938Y-78975413D01*
X123061094Y-79203655D01*
X123061096Y-79203659D01*
X123061097Y-79203663D01*
X123111031Y-79310746D01*
X123160964Y-79417828D01*
X123160965Y-79417830D01*
X123296505Y-79611402D01*
X123463597Y-79778494D01*
X123620595Y-79888425D01*
X123664220Y-79943002D01*
X123671414Y-80012500D01*
X123639891Y-80074855D01*
X123620595Y-80091575D01*
X123463597Y-80201505D01*
X123296506Y-80368597D01*
X123296501Y-80368604D01*
X123160967Y-80562165D01*
X123160965Y-80562169D01*
X123061098Y-80776335D01*
X123061094Y-80776344D01*
X122999938Y-81004586D01*
X122999936Y-81004596D01*
X122979341Y-81239999D01*
X122979341Y-81240000D01*
X122999936Y-81475403D01*
X122999938Y-81475413D01*
X123061094Y-81703655D01*
X123061096Y-81703659D01*
X123061097Y-81703663D01*
X123111031Y-81810746D01*
X123160964Y-81917828D01*
X123160965Y-81917830D01*
X123296505Y-82111402D01*
X123463597Y-82278494D01*
X123620595Y-82388425D01*
X123664220Y-82443002D01*
X123671414Y-82512500D01*
X123639891Y-82574855D01*
X123620595Y-82591575D01*
X123463597Y-82701505D01*
X123296506Y-82868597D01*
X123296501Y-82868603D01*
X123161348Y-83061623D01*
X123106771Y-83105248D01*
X123059773Y-83114500D01*
X115700227Y-83114500D01*
X115633188Y-83094815D01*
X115598652Y-83061623D01*
X115463494Y-82868597D01*
X115296403Y-82701506D01*
X115240187Y-82662144D01*
X115139401Y-82591573D01*
X115095778Y-82536999D01*
X115088584Y-82467500D01*
X115120106Y-82405145D01*
X115139398Y-82388428D01*
X115296401Y-82278495D01*
X115463495Y-82111401D01*
X115599035Y-81917830D01*
X115698903Y-81703663D01*
X115760063Y-81475408D01*
X115780659Y-81240000D01*
X115760063Y-81004592D01*
X115698903Y-80776337D01*
X115599035Y-80562171D01*
X115599034Y-80562169D01*
X115463494Y-80368597D01*
X115296403Y-80201506D01*
X115240187Y-80162144D01*
X115139401Y-80091573D01*
X115095778Y-80036999D01*
X115088584Y-79967500D01*
X115120106Y-79905145D01*
X115139398Y-79888428D01*
X115296401Y-79778495D01*
X115463495Y-79611401D01*
X115599035Y-79417830D01*
X115698903Y-79203663D01*
X115760063Y-78975408D01*
X115780659Y-78740000D01*
X115760063Y-78504592D01*
X115698903Y-78276337D01*
X115599035Y-78062171D01*
X115599034Y-78062169D01*
X115463494Y-77868597D01*
X115296403Y-77701506D01*
X115240187Y-77662144D01*
X115139401Y-77591573D01*
X115095778Y-77536999D01*
X115088584Y-77467500D01*
X115120106Y-77405145D01*
X115139398Y-77388428D01*
X115296401Y-77278495D01*
X115463495Y-77111401D01*
X115599035Y-76917830D01*
X115698903Y-76703663D01*
X115760063Y-76475408D01*
X115780659Y-76240000D01*
X115760063Y-76004592D01*
X115698903Y-75776337D01*
X115599035Y-75562171D01*
X115599034Y-75562169D01*
X115463494Y-75368597D01*
X115315932Y-75221035D01*
X115282447Y-75159712D01*
X115287431Y-75090020D01*
X115329303Y-75034087D01*
X115338516Y-75027815D01*
X115493345Y-74932315D01*
X115617315Y-74808345D01*
X115709356Y-74659124D01*
X115709358Y-74659119D01*
X115764505Y-74492697D01*
X115764506Y-74492690D01*
X115774999Y-74389986D01*
X115775000Y-74389973D01*
X115775000Y-73990000D01*
X114703969Y-73990000D01*
X114736519Y-73939351D01*
X114775000Y-73808295D01*
X114775000Y-73671705D01*
X114736519Y-73540649D01*
X114703969Y-73490000D01*
X115774999Y-73490000D01*
X115774999Y-73090028D01*
X115774998Y-73090013D01*
X115764505Y-72987302D01*
X115709358Y-72820880D01*
X115709356Y-72820875D01*
X115617315Y-72671654D01*
X115493345Y-72547684D01*
X115344124Y-72455643D01*
X115344119Y-72455641D01*
X115177697Y-72400494D01*
X115177690Y-72400493D01*
X115074986Y-72390000D01*
X114550000Y-72390000D01*
X114550000Y-73331981D01*
X114435199Y-73279554D01*
X114333975Y-73265000D01*
X114266025Y-73265000D01*
X114164801Y-73279554D01*
X114050000Y-73331981D01*
X114050000Y-72390000D01*
X113525028Y-72390000D01*
X113525012Y-72390001D01*
X113422302Y-72400494D01*
X113255880Y-72455641D01*
X113255875Y-72455643D01*
X113106654Y-72547684D01*
X112982684Y-72671654D01*
X112890643Y-72820875D01*
X112890641Y-72820880D01*
X112835494Y-72987302D01*
X112835493Y-72987309D01*
X112825000Y-73090013D01*
X112825000Y-73490000D01*
X113896031Y-73490000D01*
X113863481Y-73540649D01*
X113825000Y-73671705D01*
X113825000Y-73808295D01*
X113863481Y-73939351D01*
X113896031Y-73990000D01*
X112825001Y-73990000D01*
X112825001Y-74389986D01*
X112835494Y-74492697D01*
X112890641Y-74659119D01*
X112890643Y-74659124D01*
X112982684Y-74808345D01*
X113106654Y-74932315D01*
X113261484Y-75027815D01*
X113308208Y-75079763D01*
X113319431Y-75148726D01*
X113291587Y-75212808D01*
X113284069Y-75221035D01*
X113136501Y-75368603D01*
X113136501Y-75368604D01*
X113000967Y-75562165D01*
X113000965Y-75562169D01*
X112901098Y-75776335D01*
X112901094Y-75776344D01*
X112839938Y-76004586D01*
X112839936Y-76004596D01*
X112819341Y-76239999D01*
X112819341Y-76240000D01*
X112839936Y-76475403D01*
X112839938Y-76475413D01*
X112901094Y-76703655D01*
X112901096Y-76703659D01*
X112901097Y-76703663D01*
X112932783Y-76771613D01*
X113000964Y-76917828D01*
X113000965Y-76917830D01*
X113136505Y-77111402D01*
X113303597Y-77278494D01*
X113460595Y-77388425D01*
X113504220Y-77443002D01*
X113511414Y-77512500D01*
X113479891Y-77574855D01*
X113460595Y-77591575D01*
X113303597Y-77701505D01*
X113136506Y-77868597D01*
X113136501Y-77868604D01*
X113000967Y-78062165D01*
X113000965Y-78062169D01*
X112901098Y-78276335D01*
X112901094Y-78276344D01*
X112839938Y-78504586D01*
X112839936Y-78504596D01*
X112819341Y-78739999D01*
X112819341Y-78740000D01*
X112839936Y-78975403D01*
X112839938Y-78975413D01*
X112901094Y-79203655D01*
X112901096Y-79203659D01*
X112901097Y-79203663D01*
X112951031Y-79310746D01*
X113000964Y-79417828D01*
X113000965Y-79417830D01*
X113136505Y-79611402D01*
X113303597Y-79778494D01*
X113460595Y-79888425D01*
X113504220Y-79943002D01*
X113511414Y-80012500D01*
X113479891Y-80074855D01*
X113460595Y-80091575D01*
X113303597Y-80201505D01*
X113136506Y-80368597D01*
X113136501Y-80368604D01*
X113000967Y-80562165D01*
X113000965Y-80562169D01*
X112901098Y-80776335D01*
X112901094Y-80776344D01*
X112839938Y-81004586D01*
X112839936Y-81004596D01*
X112819341Y-81239999D01*
X112819341Y-81240000D01*
X112839936Y-81475403D01*
X112839938Y-81475413D01*
X112901094Y-81703655D01*
X112901096Y-81703659D01*
X112901097Y-81703663D01*
X112951031Y-81810746D01*
X113000964Y-81917828D01*
X113000965Y-81917830D01*
X113136505Y-82111402D01*
X113303597Y-82278494D01*
X113460595Y-82388425D01*
X113504220Y-82443002D01*
X113511414Y-82512500D01*
X113479891Y-82574855D01*
X113460595Y-82591575D01*
X113303597Y-82701505D01*
X113136506Y-82868597D01*
X113136501Y-82868604D01*
X113000967Y-83062165D01*
X113000965Y-83062169D01*
X112901098Y-83276335D01*
X112901094Y-83276344D01*
X112839938Y-83504586D01*
X112839936Y-83504596D01*
X112819341Y-83739999D01*
X112819341Y-83740000D01*
X105620659Y-83740000D01*
X105600063Y-83504592D01*
X105538903Y-83276337D01*
X105439035Y-83062171D01*
X105439034Y-83062169D01*
X105303494Y-82868597D01*
X105136403Y-82701506D01*
X105080187Y-82662144D01*
X104979401Y-82591573D01*
X104935778Y-82536999D01*
X104928584Y-82467500D01*
X104960106Y-82405145D01*
X104979398Y-82388428D01*
X105136401Y-82278495D01*
X105303495Y-82111401D01*
X105439035Y-81917830D01*
X105538903Y-81703663D01*
X105600063Y-81475408D01*
X105620659Y-81240000D01*
X105600063Y-81004592D01*
X105538903Y-80776337D01*
X105439035Y-80562171D01*
X105439034Y-80562169D01*
X105303494Y-80368597D01*
X105136403Y-80201506D01*
X105080187Y-80162144D01*
X104979401Y-80091573D01*
X104935778Y-80036999D01*
X104928584Y-79967500D01*
X104960106Y-79905145D01*
X104979398Y-79888428D01*
X105136401Y-79778495D01*
X105303495Y-79611401D01*
X105439035Y-79417830D01*
X105538903Y-79203663D01*
X105600063Y-78975408D01*
X105620659Y-78740000D01*
X105600063Y-78504592D01*
X105538903Y-78276337D01*
X105439035Y-78062171D01*
X105439034Y-78062169D01*
X105303494Y-77868597D01*
X105136403Y-77701506D01*
X105080187Y-77662144D01*
X104979401Y-77591573D01*
X104935778Y-77536999D01*
X104928584Y-77467500D01*
X104960106Y-77405145D01*
X104979398Y-77388428D01*
X105136401Y-77278495D01*
X105303495Y-77111401D01*
X105439035Y-76917830D01*
X105538903Y-76703663D01*
X105600063Y-76475408D01*
X105620659Y-76240000D01*
X105600063Y-76004592D01*
X105538903Y-75776337D01*
X105439035Y-75562171D01*
X105439034Y-75562169D01*
X105303494Y-75368597D01*
X105155932Y-75221035D01*
X105122447Y-75159712D01*
X105127431Y-75090020D01*
X105169303Y-75034087D01*
X105178516Y-75027815D01*
X105333345Y-74932315D01*
X105457315Y-74808345D01*
X105549356Y-74659124D01*
X105549358Y-74659119D01*
X105604505Y-74492697D01*
X105604506Y-74492690D01*
X105614999Y-74389986D01*
X105615000Y-74389973D01*
X105615000Y-73990000D01*
X104543969Y-73990000D01*
X104576519Y-73939351D01*
X104615000Y-73808295D01*
X104615000Y-73671705D01*
X104576519Y-73540649D01*
X104543969Y-73490000D01*
X105614999Y-73490000D01*
X105614999Y-73090028D01*
X105614998Y-73090013D01*
X105604505Y-72987302D01*
X105549358Y-72820880D01*
X105549356Y-72820875D01*
X105457315Y-72671654D01*
X105333345Y-72547684D01*
X105184124Y-72455643D01*
X105184119Y-72455641D01*
X105017697Y-72400494D01*
X105017690Y-72400493D01*
X104914986Y-72390000D01*
X104390000Y-72390000D01*
X104390000Y-73331981D01*
X104275199Y-73279554D01*
X104173975Y-73265000D01*
X104106025Y-73265000D01*
X104004801Y-73279554D01*
X103890000Y-73331981D01*
X103890000Y-72390000D01*
X103365028Y-72390000D01*
X103365012Y-72390001D01*
X103262302Y-72400494D01*
X103095880Y-72455641D01*
X103095875Y-72455643D01*
X102946654Y-72547684D01*
X102822684Y-72671654D01*
X102730643Y-72820875D01*
X102730641Y-72820880D01*
X102675494Y-72987302D01*
X102675493Y-72987309D01*
X102665000Y-73090013D01*
X102665000Y-73490000D01*
X103736031Y-73490000D01*
X103703481Y-73540649D01*
X103665000Y-73671705D01*
X103665000Y-73808295D01*
X103703481Y-73939351D01*
X103736031Y-73990000D01*
X102665001Y-73990000D01*
X102665001Y-74389986D01*
X102675494Y-74492697D01*
X102730641Y-74659119D01*
X102730643Y-74659124D01*
X102822684Y-74808345D01*
X102946654Y-74932315D01*
X103101484Y-75027815D01*
X103148208Y-75079763D01*
X103159431Y-75148726D01*
X103131587Y-75212808D01*
X103124069Y-75221035D01*
X102976501Y-75368603D01*
X102976501Y-75368604D01*
X102840967Y-75562165D01*
X102840965Y-75562169D01*
X102741098Y-75776335D01*
X102741094Y-75776344D01*
X102679938Y-76004586D01*
X102679936Y-76004596D01*
X102659341Y-76239999D01*
X102659341Y-76240000D01*
X102679936Y-76475403D01*
X102679938Y-76475413D01*
X102741094Y-76703655D01*
X102741096Y-76703659D01*
X102741097Y-76703663D01*
X102772783Y-76771613D01*
X102840964Y-76917828D01*
X102840965Y-76917830D01*
X102976505Y-77111402D01*
X103143597Y-77278494D01*
X103300595Y-77388425D01*
X103344220Y-77443002D01*
X103351414Y-77512500D01*
X103319891Y-77574855D01*
X103300595Y-77591575D01*
X103143597Y-77701505D01*
X102976506Y-77868597D01*
X102976501Y-77868604D01*
X102840967Y-78062165D01*
X102840965Y-78062169D01*
X102741098Y-78276335D01*
X102741094Y-78276344D01*
X102679938Y-78504586D01*
X102679936Y-78504596D01*
X102659341Y-78739999D01*
X102659341Y-78740000D01*
X102679936Y-78975403D01*
X102679938Y-78975413D01*
X102741094Y-79203655D01*
X102741096Y-79203659D01*
X102741097Y-79203663D01*
X102791031Y-79310746D01*
X102840964Y-79417828D01*
X102840965Y-79417830D01*
X102976505Y-79611402D01*
X103143597Y-79778494D01*
X103300595Y-79888425D01*
X103344220Y-79943002D01*
X103351414Y-80012500D01*
X103319891Y-80074855D01*
X103300595Y-80091575D01*
X103143597Y-80201505D01*
X102976506Y-80368597D01*
X102976501Y-80368604D01*
X102840967Y-80562165D01*
X102840965Y-80562169D01*
X102741098Y-80776335D01*
X102741094Y-80776344D01*
X102679938Y-81004586D01*
X102679936Y-81004596D01*
X102659341Y-81239999D01*
X102659341Y-81240000D01*
X102679936Y-81475403D01*
X102679938Y-81475413D01*
X102741094Y-81703655D01*
X102741096Y-81703659D01*
X102741097Y-81703663D01*
X102791031Y-81810746D01*
X102840964Y-81917828D01*
X102840965Y-81917830D01*
X102976505Y-82111402D01*
X103143597Y-82278494D01*
X103300595Y-82388425D01*
X103344220Y-82443002D01*
X103351414Y-82512500D01*
X103319891Y-82574855D01*
X103300595Y-82591575D01*
X103143597Y-82701505D01*
X102976506Y-82868597D01*
X102976501Y-82868604D01*
X102840967Y-83062165D01*
X102840965Y-83062169D01*
X102741098Y-83276335D01*
X102741094Y-83276344D01*
X102679938Y-83504586D01*
X102679936Y-83504596D01*
X102659341Y-83739999D01*
X102659341Y-83740000D01*
X95460659Y-83740000D01*
X95440063Y-83504592D01*
X95378903Y-83276337D01*
X95279035Y-83062171D01*
X95279034Y-83062169D01*
X95143494Y-82868597D01*
X94976403Y-82701506D01*
X94920187Y-82662144D01*
X94819401Y-82591573D01*
X94775778Y-82536999D01*
X94768584Y-82467500D01*
X94800106Y-82405145D01*
X94819398Y-82388428D01*
X94976401Y-82278495D01*
X95143495Y-82111401D01*
X95279035Y-81917830D01*
X95378903Y-81703663D01*
X95440063Y-81475408D01*
X95460659Y-81240000D01*
X95440063Y-81004592D01*
X95378903Y-80776337D01*
X95279035Y-80562171D01*
X95279034Y-80562169D01*
X95143494Y-80368597D01*
X94976403Y-80201506D01*
X94920187Y-80162144D01*
X94819401Y-80091573D01*
X94775778Y-80036999D01*
X94768584Y-79967500D01*
X94800106Y-79905145D01*
X94819398Y-79888428D01*
X94976401Y-79778495D01*
X95143495Y-79611401D01*
X95279035Y-79417830D01*
X95378903Y-79203663D01*
X95440063Y-78975408D01*
X95460659Y-78740000D01*
X95440063Y-78504592D01*
X95378903Y-78276337D01*
X95279035Y-78062171D01*
X95279034Y-78062169D01*
X95143494Y-77868597D01*
X94976403Y-77701506D01*
X94920187Y-77662144D01*
X94819401Y-77591573D01*
X94775778Y-77536999D01*
X94768584Y-77467500D01*
X94800106Y-77405145D01*
X94819398Y-77388428D01*
X94976401Y-77278495D01*
X95143495Y-77111401D01*
X95279035Y-76917830D01*
X95378903Y-76703663D01*
X95440063Y-76475408D01*
X95460659Y-76240000D01*
X95440063Y-76004592D01*
X95378903Y-75776337D01*
X95279035Y-75562171D01*
X95279034Y-75562169D01*
X95143494Y-75368597D01*
X94995932Y-75221035D01*
X94962447Y-75159712D01*
X94967431Y-75090020D01*
X95009303Y-75034087D01*
X95018516Y-75027815D01*
X95173345Y-74932315D01*
X95297315Y-74808345D01*
X95389356Y-74659124D01*
X95389358Y-74659119D01*
X95444505Y-74492697D01*
X95444506Y-74492690D01*
X95454999Y-74389986D01*
X95455000Y-74389973D01*
X95455000Y-73990000D01*
X94383969Y-73990000D01*
X94416519Y-73939351D01*
X94455000Y-73808295D01*
X94455000Y-73671705D01*
X94416519Y-73540649D01*
X94383969Y-73490000D01*
X95454999Y-73490000D01*
X95454999Y-73090028D01*
X95454998Y-73090013D01*
X95444505Y-72987302D01*
X95389358Y-72820880D01*
X95389356Y-72820875D01*
X95297315Y-72671654D01*
X95173345Y-72547684D01*
X95024124Y-72455643D01*
X95024119Y-72455641D01*
X94857697Y-72400494D01*
X94857690Y-72400493D01*
X94754986Y-72390000D01*
X94230000Y-72390000D01*
X94230000Y-73331981D01*
X94115199Y-73279554D01*
X94013975Y-73265000D01*
X93946025Y-73265000D01*
X93844801Y-73279554D01*
X93730000Y-73331981D01*
X93730000Y-72390000D01*
X93205028Y-72390000D01*
X93205012Y-72390001D01*
X93102302Y-72400494D01*
X92935880Y-72455641D01*
X92935875Y-72455643D01*
X92786654Y-72547684D01*
X92662684Y-72671654D01*
X92570643Y-72820875D01*
X92570641Y-72820880D01*
X92515494Y-72987302D01*
X92515493Y-72987309D01*
X92505000Y-73090013D01*
X92505000Y-73490000D01*
X93576031Y-73490000D01*
X93543481Y-73540649D01*
X93505000Y-73671705D01*
X93505000Y-73808295D01*
X93543481Y-73939351D01*
X93576031Y-73990000D01*
X92505001Y-73990000D01*
X92505001Y-74389986D01*
X92515494Y-74492697D01*
X92570641Y-74659119D01*
X92570643Y-74659124D01*
X92662684Y-74808345D01*
X92786654Y-74932315D01*
X92941484Y-75027815D01*
X92988208Y-75079763D01*
X92999431Y-75148726D01*
X92971587Y-75212808D01*
X92964069Y-75221035D01*
X92816501Y-75368603D01*
X92816501Y-75368604D01*
X92680967Y-75562165D01*
X92680965Y-75562169D01*
X92581098Y-75776335D01*
X92581094Y-75776344D01*
X92519938Y-76004586D01*
X92519936Y-76004596D01*
X92499341Y-76239999D01*
X92499341Y-76240000D01*
X92519936Y-76475403D01*
X92519938Y-76475413D01*
X92581094Y-76703655D01*
X92581096Y-76703659D01*
X92581097Y-76703663D01*
X92612783Y-76771613D01*
X92680964Y-76917828D01*
X92680965Y-76917830D01*
X92816505Y-77111402D01*
X92983597Y-77278494D01*
X93140595Y-77388425D01*
X93184220Y-77443002D01*
X93191414Y-77512500D01*
X93159891Y-77574855D01*
X93140595Y-77591575D01*
X92983597Y-77701505D01*
X92816506Y-77868597D01*
X92816501Y-77868604D01*
X92680967Y-78062165D01*
X92680965Y-78062169D01*
X92581098Y-78276335D01*
X92581094Y-78276344D01*
X92519938Y-78504586D01*
X92519936Y-78504596D01*
X92499341Y-78739999D01*
X92499341Y-78740000D01*
X92519936Y-78975403D01*
X92519938Y-78975413D01*
X92581094Y-79203655D01*
X92581096Y-79203659D01*
X92581097Y-79203663D01*
X92631031Y-79310746D01*
X92680964Y-79417828D01*
X92680965Y-79417830D01*
X92816505Y-79611402D01*
X92983597Y-79778494D01*
X93140595Y-79888425D01*
X93184220Y-79943002D01*
X93191414Y-80012500D01*
X93159891Y-80074855D01*
X93140595Y-80091575D01*
X92983597Y-80201505D01*
X92816506Y-80368597D01*
X92816501Y-80368604D01*
X92680967Y-80562165D01*
X92680965Y-80562169D01*
X92581098Y-80776335D01*
X92581094Y-80776344D01*
X92519938Y-81004586D01*
X92519936Y-81004596D01*
X92499341Y-81239999D01*
X92499341Y-81240000D01*
X92519936Y-81475403D01*
X92519938Y-81475413D01*
X92581094Y-81703655D01*
X92581096Y-81703659D01*
X92581097Y-81703663D01*
X92631031Y-81810746D01*
X92680964Y-81917828D01*
X92680965Y-81917830D01*
X92816505Y-82111402D01*
X92983597Y-82278494D01*
X93140595Y-82388425D01*
X93184220Y-82443002D01*
X93191414Y-82512500D01*
X93159891Y-82574855D01*
X93140595Y-82591575D01*
X92983597Y-82701505D01*
X92816506Y-82868597D01*
X92816501Y-82868604D01*
X92680967Y-83062165D01*
X92680965Y-83062169D01*
X92581098Y-83276335D01*
X92581094Y-83276344D01*
X92519938Y-83504586D01*
X92519936Y-83504596D01*
X92499341Y-83739999D01*
X92499341Y-83740000D01*
X80518500Y-83740000D01*
X80518500Y-74422000D01*
X81528477Y-74422000D01*
X81536384Y-74547692D01*
X81536506Y-74551561D01*
X81536506Y-74581648D01*
X81540276Y-74611495D01*
X81540642Y-74615372D01*
X81548547Y-74741024D01*
X81548549Y-74741041D01*
X81572145Y-74864738D01*
X81572754Y-74868584D01*
X81576523Y-74898415D01*
X81576524Y-74898419D01*
X81584003Y-74927551D01*
X81584849Y-74931336D01*
X81608448Y-75055043D01*
X81608450Y-75055050D01*
X81647359Y-75174800D01*
X81648445Y-75178539D01*
X81655926Y-75207673D01*
X81667002Y-75235652D01*
X81668320Y-75239314D01*
X81707231Y-75359067D01*
X81760850Y-75473013D01*
X81762389Y-75476569D01*
X81773465Y-75504543D01*
X81773470Y-75504556D01*
X81787954Y-75530901D01*
X81789723Y-75534372D01*
X81843339Y-75648311D01*
X81843342Y-75648317D01*
X81910812Y-75754633D01*
X81912795Y-75757985D01*
X81927284Y-75784341D01*
X81927289Y-75784349D01*
X81944971Y-75808687D01*
X81947160Y-75811908D01*
X81984362Y-75870528D01*
X82014629Y-75918221D01*
X82094901Y-76015253D01*
X82097273Y-76018311D01*
X82097276Y-76018316D01*
X82097279Y-76018319D01*
X82114960Y-76042655D01*
X82114963Y-76042660D01*
X82135551Y-76064584D01*
X82138127Y-76067505D01*
X82218390Y-76164526D01*
X82218399Y-76164536D01*
X82310173Y-76250716D01*
X82312913Y-76253455D01*
X82323403Y-76264626D01*
X82333530Y-76275411D01*
X82356715Y-76294591D01*
X82359636Y-76297166D01*
X82451421Y-76383357D01*
X82451431Y-76383365D01*
X82553294Y-76457373D01*
X82556372Y-76459761D01*
X82567580Y-76469032D01*
X82579550Y-76478935D01*
X82579552Y-76478936D01*
X82579553Y-76478937D01*
X82604960Y-76495061D01*
X82608165Y-76497239D01*
X82710041Y-76571256D01*
X82820419Y-76631937D01*
X82823720Y-76633889D01*
X82849136Y-76650019D01*
X82876372Y-76662835D01*
X82879796Y-76664580D01*
X82990169Y-76725258D01*
X82990174Y-76725260D01*
X82990176Y-76725261D01*
X82990177Y-76725262D01*
X83107247Y-76771613D01*
X83110821Y-76773159D01*
X83138039Y-76785967D01*
X83166677Y-76795272D01*
X83170308Y-76796580D01*
X83287390Y-76842936D01*
X83409396Y-76874262D01*
X83413077Y-76875331D01*
X83441703Y-76884633D01*
X83441705Y-76884633D01*
X83441707Y-76884634D01*
X83449195Y-76886062D01*
X83471267Y-76890272D01*
X83475017Y-76891110D01*
X83597017Y-76922435D01*
X83597030Y-76922436D01*
X83597032Y-76922437D01*
X83605802Y-76923544D01*
X83721975Y-76938220D01*
X83725757Y-76938819D01*
X83755339Y-76944463D01*
X83785376Y-76946352D01*
X83789232Y-76946717D01*
X83846001Y-76953888D01*
X83914155Y-76962499D01*
X83914161Y-76962499D01*
X83914165Y-76962500D01*
X83914167Y-76962500D01*
X84040091Y-76962500D01*
X84043963Y-76962621D01*
X84069541Y-76964230D01*
X84073998Y-76964511D01*
X84074000Y-76964511D01*
X84074002Y-76964511D01*
X84078458Y-76964230D01*
X84104036Y-76962621D01*
X84107909Y-76962500D01*
X84233833Y-76962500D01*
X84233835Y-76962500D01*
X84233840Y-76962499D01*
X84233844Y-76962499D01*
X84281869Y-76956431D01*
X84358767Y-76946717D01*
X84362623Y-76946352D01*
X84392661Y-76944463D01*
X84422257Y-76938817D01*
X84426009Y-76938222D01*
X84550983Y-76922435D01*
X84673015Y-76891102D01*
X84676688Y-76890281D01*
X84706297Y-76884633D01*
X84734945Y-76875324D01*
X84738588Y-76874265D01*
X84860610Y-76842936D01*
X84977704Y-76796575D01*
X84981319Y-76795273D01*
X85009961Y-76785967D01*
X85037205Y-76773146D01*
X85040722Y-76771624D01*
X85157831Y-76725258D01*
X85268228Y-76664566D01*
X85271613Y-76662842D01*
X85298864Y-76650019D01*
X85324316Y-76633866D01*
X85327560Y-76631948D01*
X85437959Y-76571256D01*
X85539846Y-76497230D01*
X85543039Y-76495061D01*
X85568450Y-76478935D01*
X85591662Y-76459731D01*
X85594663Y-76457403D01*
X85696577Y-76383359D01*
X85788389Y-76297141D01*
X85791263Y-76294608D01*
X85814469Y-76275411D01*
X85835102Y-76253438D01*
X85837789Y-76250751D01*
X85929606Y-76164530D01*
X86009903Y-76067466D01*
X86012406Y-76064628D01*
X86033038Y-76042658D01*
X86050731Y-76018305D01*
X86053087Y-76015266D01*
X86133371Y-75918221D01*
X86133374Y-75918215D01*
X86133379Y-75918210D01*
X86164818Y-75868667D01*
X86200861Y-75811873D01*
X86203012Y-75808709D01*
X86220713Y-75784346D01*
X86235232Y-75757935D01*
X86237153Y-75754685D01*
X86304659Y-75648315D01*
X86358285Y-75534353D01*
X86360015Y-75530956D01*
X86374533Y-75504549D01*
X86385626Y-75476528D01*
X86387136Y-75473040D01*
X86440767Y-75359070D01*
X86479687Y-75239286D01*
X86480990Y-75235666D01*
X86492072Y-75207679D01*
X86499560Y-75178511D01*
X86500629Y-75174834D01*
X86539551Y-75055046D01*
X86563161Y-74931274D01*
X86563986Y-74927588D01*
X86571476Y-74898419D01*
X86575250Y-74868541D01*
X86575845Y-74864782D01*
X86599451Y-74741039D01*
X86599451Y-74741038D01*
X86599452Y-74741032D01*
X86603547Y-74675922D01*
X86607358Y-74615350D01*
X86607724Y-74611486D01*
X86611493Y-74581652D01*
X86611494Y-74581646D01*
X86612141Y-74540377D01*
X86612252Y-74537560D01*
X86619523Y-74422000D01*
X86612252Y-74306443D01*
X86612141Y-74303619D01*
X86611494Y-74262354D01*
X86607723Y-74232502D01*
X86607358Y-74228649D01*
X86603547Y-74168077D01*
X86599452Y-74102968D01*
X86599449Y-74102954D01*
X86575850Y-73979243D01*
X86575243Y-73975403D01*
X86571476Y-73945587D01*
X86571476Y-73945581D01*
X86571473Y-73945571D01*
X86569439Y-73937648D01*
X86563991Y-73916432D01*
X86563155Y-73912695D01*
X86539551Y-73788954D01*
X86500633Y-73669178D01*
X86499559Y-73665484D01*
X86492072Y-73636321D01*
X86486840Y-73623107D01*
X86480998Y-73608349D01*
X86479679Y-73604685D01*
X86442414Y-73490000D01*
X86440767Y-73484930D01*
X86387140Y-73370968D01*
X86385622Y-73367458D01*
X86374533Y-73339451D01*
X86360036Y-73313081D01*
X86358269Y-73309613D01*
X86304659Y-73195685D01*
X86237180Y-73089356D01*
X86235210Y-73086025D01*
X86220713Y-73059654D01*
X86208517Y-73042867D01*
X86203028Y-73035312D01*
X86200838Y-73032090D01*
X86135617Y-72929319D01*
X86133371Y-72925779D01*
X86053098Y-72828746D01*
X86050741Y-72825708D01*
X86033038Y-72801342D01*
X86012436Y-72779403D01*
X86009871Y-72776493D01*
X85929609Y-72679473D01*
X85929607Y-72679471D01*
X85921283Y-72671654D01*
X85837805Y-72593263D01*
X85835086Y-72590544D01*
X85814469Y-72568589D01*
X85814465Y-72568586D01*
X85791275Y-72549400D01*
X85788355Y-72546825D01*
X85696589Y-72460651D01*
X85696573Y-72460638D01*
X85594706Y-72386626D01*
X85591629Y-72384240D01*
X85585793Y-72379412D01*
X85568450Y-72365065D01*
X85556667Y-72357587D01*
X85543039Y-72348938D01*
X85539820Y-72346749D01*
X85437970Y-72272751D01*
X85437958Y-72272743D01*
X85327608Y-72212077D01*
X85324256Y-72210095D01*
X85298866Y-72193982D01*
X85298864Y-72193981D01*
X85271643Y-72181171D01*
X85268174Y-72179403D01*
X85157837Y-72118745D01*
X85157835Y-72118744D01*
X85157831Y-72118742D01*
X85117118Y-72102622D01*
X85040757Y-72072388D01*
X85037184Y-72070842D01*
X85009961Y-72058033D01*
X85001033Y-72055132D01*
X84981362Y-72048740D01*
X84977699Y-72047421D01*
X84860610Y-72001063D01*
X84738643Y-71969748D01*
X84734902Y-71968661D01*
X84706301Y-71959368D01*
X84706303Y-71959368D01*
X84676740Y-71953728D01*
X84672959Y-71952883D01*
X84604947Y-71935420D01*
X84550985Y-71921565D01*
X84550975Y-71921563D01*
X84426070Y-71905784D01*
X84422224Y-71905175D01*
X84392679Y-71899539D01*
X84392663Y-71899537D01*
X84392661Y-71899537D01*
X84388478Y-71899273D01*
X84362632Y-71897647D01*
X84358756Y-71897280D01*
X84233846Y-71881500D01*
X84233835Y-71881500D01*
X84107909Y-71881500D01*
X84104036Y-71881378D01*
X84078458Y-71879769D01*
X84074002Y-71879489D01*
X84073998Y-71879489D01*
X84069541Y-71879769D01*
X84043963Y-71881378D01*
X84040091Y-71881500D01*
X83914153Y-71881500D01*
X83789244Y-71897280D01*
X83785368Y-71897647D01*
X83757586Y-71899395D01*
X83755339Y-71899537D01*
X83755337Y-71899537D01*
X83755321Y-71899539D01*
X83725778Y-71905175D01*
X83721931Y-71905784D01*
X83597020Y-71921564D01*
X83545024Y-71934914D01*
X83475037Y-71952884D01*
X83471246Y-71953731D01*
X83441705Y-71959366D01*
X83427620Y-71963942D01*
X83413089Y-71968664D01*
X83409360Y-71969747D01*
X83287387Y-72001064D01*
X83170309Y-72047417D01*
X83166648Y-72048735D01*
X83138044Y-72058030D01*
X83138035Y-72058034D01*
X83110817Y-72070841D01*
X83107246Y-72072386D01*
X82990167Y-72118742D01*
X82990164Y-72118744D01*
X82879825Y-72179403D01*
X82876357Y-72181170D01*
X82849139Y-72193979D01*
X82849135Y-72193981D01*
X82823744Y-72210094D01*
X82820394Y-72212075D01*
X82710058Y-72272733D01*
X82710040Y-72272744D01*
X82608170Y-72346755D01*
X82604951Y-72348943D01*
X82579556Y-72365060D01*
X82579551Y-72365064D01*
X82556373Y-72384236D01*
X82553298Y-72386621D01*
X82451423Y-72460641D01*
X82451419Y-72460644D01*
X82359639Y-72546829D01*
X82356720Y-72549403D01*
X82333533Y-72568586D01*
X82333529Y-72568590D01*
X82312929Y-72590527D01*
X82310176Y-72593280D01*
X82218393Y-72679470D01*
X82218391Y-72679472D01*
X82138136Y-72776483D01*
X82135562Y-72779403D01*
X82114968Y-72801334D01*
X82114954Y-72801352D01*
X82097276Y-72825683D01*
X82094889Y-72828760D01*
X82014639Y-72925765D01*
X82014625Y-72925784D01*
X81947158Y-73032092D01*
X81944971Y-73035310D01*
X81927287Y-73059652D01*
X81912797Y-73086009D01*
X81910815Y-73089360D01*
X81843346Y-73195675D01*
X81843338Y-73195688D01*
X81789728Y-73309616D01*
X81787961Y-73313085D01*
X81773466Y-73339452D01*
X81762392Y-73367422D01*
X81760845Y-73370996D01*
X81707234Y-73484927D01*
X81668319Y-73604689D01*
X81667001Y-73608351D01*
X81655929Y-73636317D01*
X81655926Y-73636323D01*
X81648444Y-73665464D01*
X81647358Y-73669202D01*
X81608450Y-73788949D01*
X81608449Y-73788953D01*
X81584851Y-73912652D01*
X81584002Y-73916450D01*
X81576526Y-73945571D01*
X81576523Y-73945587D01*
X81572753Y-73975416D01*
X81572144Y-73979259D01*
X81548550Y-74102954D01*
X81548547Y-74102975D01*
X81540642Y-74228626D01*
X81540276Y-74232502D01*
X81536506Y-74262347D01*
X81536506Y-74292437D01*
X81536384Y-74296309D01*
X81528477Y-74422000D01*
X80518500Y-74422000D01*
X80518500Y-69974500D01*
X80538185Y-69907461D01*
X80590989Y-69861706D01*
X80642500Y-69850500D01*
X172341500Y-69850500D01*
X172408539Y-69870185D01*
G37*
%TD.AperFunction*%
%TD*%
M02*
