%TF.GenerationSoftware,KiCad,Pcbnew,7.0.8*%
%TF.CreationDate,2024-03-05T19:06:49-05:00*%
%TF.ProjectId,UpdatedPCB2024,55706461-7465-4645-9043-42323032342e,rev?*%
%TF.SameCoordinates,Original*%
%TF.FileFunction,Copper,L1,Top*%
%TF.FilePolarity,Positive*%
%FSLAX46Y46*%
G04 Gerber Fmt 4.6, Leading zero omitted, Abs format (unit mm)*
G04 Created by KiCad (PCBNEW 7.0.8) date 2024-03-05 19:06:49*
%MOMM*%
%LPD*%
G01*
G04 APERTURE LIST*
G04 Aperture macros list*
%AMRoundRect*
0 Rectangle with rounded corners*
0 $1 Rounding radius*
0 $2 $3 $4 $5 $6 $7 $8 $9 X,Y pos of 4 corners*
0 Add a 4 corners polygon primitive as box body*
4,1,4,$2,$3,$4,$5,$6,$7,$8,$9,$2,$3,0*
0 Add four circle primitives for the rounded corners*
1,1,$1+$1,$2,$3*
1,1,$1+$1,$4,$5*
1,1,$1+$1,$6,$7*
1,1,$1+$1,$8,$9*
0 Add four rect primitives between the rounded corners*
20,1,$1+$1,$2,$3,$4,$5,0*
20,1,$1+$1,$4,$5,$6,$7,0*
20,1,$1+$1,$6,$7,$8,$9,0*
20,1,$1+$1,$8,$9,$2,$3,0*%
G04 Aperture macros list end*
%TA.AperFunction,ComponentPad*%
%ADD10O,1.700000X1.950000*%
%TD*%
%TA.AperFunction,ComponentPad*%
%ADD11RoundRect,0.250000X0.600000X0.725000X-0.600000X0.725000X-0.600000X-0.725000X0.600000X-0.725000X0*%
%TD*%
%TA.AperFunction,ComponentPad*%
%ADD12RoundRect,0.250000X-0.725000X0.600000X-0.725000X-0.600000X0.725000X-0.600000X0.725000X0.600000X0*%
%TD*%
%TA.AperFunction,ComponentPad*%
%ADD13O,1.950000X1.700000*%
%TD*%
%TA.AperFunction,ComponentPad*%
%ADD14R,1.800000X1.800000*%
%TD*%
%TA.AperFunction,ComponentPad*%
%ADD15C,1.800000*%
%TD*%
%TA.AperFunction,SMDPad,CuDef*%
%ADD16R,1.422400X0.558800*%
%TD*%
%TA.AperFunction,SMDPad,CuDef*%
%ADD17R,0.965200X0.863600*%
%TD*%
%TA.AperFunction,SMDPad,CuDef*%
%ADD18R,2.540000X9.530000*%
%TD*%
%TA.AperFunction,SMDPad,CuDef*%
%ADD19R,3.657600X1.905000*%
%TD*%
%TA.AperFunction,SMDPad,CuDef*%
%ADD20RoundRect,0.237500X-0.250000X-0.237500X0.250000X-0.237500X0.250000X0.237500X-0.250000X0.237500X0*%
%TD*%
%TA.AperFunction,ComponentPad*%
%ADD21C,3.000000*%
%TD*%
%TA.AperFunction,SMDPad,CuDef*%
%ADD22RoundRect,0.250000X1.950000X1.000000X-1.950000X1.000000X-1.950000X-1.000000X1.950000X-1.000000X0*%
%TD*%
%TA.AperFunction,SMDPad,CuDef*%
%ADD23R,1.305598X1.449997*%
%TD*%
%TA.AperFunction,SMDPad,CuDef*%
%ADD24R,0.558800X1.422400*%
%TD*%
%TA.AperFunction,ComponentPad*%
%ADD25R,3.000000X3.000000*%
%TD*%
%TA.AperFunction,ComponentPad*%
%ADD26C,1.600000*%
%TD*%
%TA.AperFunction,SMDPad,CuDef*%
%ADD27R,1.447800X0.558800*%
%TD*%
%TA.AperFunction,SMDPad,CuDef*%
%ADD28R,2.260600X2.489200*%
%TD*%
%TA.AperFunction,ComponentPad*%
%ADD29R,1.700000X1.700000*%
%TD*%
%TA.AperFunction,ComponentPad*%
%ADD30O,1.700000X1.700000*%
%TD*%
%TA.AperFunction,ComponentPad*%
%ADD31C,1.700000*%
%TD*%
%TA.AperFunction,SMDPad,CuDef*%
%ADD32R,1.422400X0.355600*%
%TD*%
%TA.AperFunction,SMDPad,CuDef*%
%ADD33R,2.997200X3.098800*%
%TD*%
%TA.AperFunction,ViaPad*%
%ADD34C,0.500000*%
%TD*%
%TA.AperFunction,ViaPad*%
%ADD35C,0.800000*%
%TD*%
%TA.AperFunction,Conductor*%
%ADD36C,0.600000*%
%TD*%
%TA.AperFunction,Conductor*%
%ADD37C,0.250000*%
%TD*%
%TA.AperFunction,Conductor*%
%ADD38C,0.750000*%
%TD*%
G04 APERTURE END LIST*
D10*
%TO.P,J8,6,Pin_6*%
%TO.N,/AOUT1*%
X147520000Y-132080000D03*
%TO.P,J8,5,Pin_5*%
%TO.N,/AOUT2*%
X150020000Y-132080000D03*
%TO.P,J8,4,Pin_4*%
%TO.N,+3V3*%
X152520000Y-132080000D03*
%TO.P,J8,3,Pin_3*%
%TO.N,/AEQ1*%
X155020000Y-132080000D03*
%TO.P,J8,2,Pin_2*%
%TO.N,/AEQ2*%
X157520000Y-132080000D03*
D11*
%TO.P,J8,1,Pin_1*%
%TO.N,GND*%
X160020000Y-132080000D03*
%TD*%
D12*
%TO.P,J2,1,Pin_1*%
%TO.N,GND*%
X93980000Y-73740000D03*
D13*
%TO.P,J2,2,Pin_2*%
%TO.N,/SDA0*%
X93980000Y-76240000D03*
%TO.P,J2,3,Pin_3*%
%TO.N,/SCL0*%
X93980000Y-78740000D03*
%TO.P,J2,4,Pin_4*%
%TO.N,/LCS2*%
X93980000Y-81240000D03*
%TO.P,J2,5,Pin_5*%
%TO.N,+3V3*%
X93980000Y-83740000D03*
%TD*%
D14*
%TO.P,D3,1,K*%
%TO.N,Net-(D3-K)*%
X104771000Y-129540000D03*
D15*
%TO.P,D3,2,A*%
%TO.N,/LED2*%
X107311000Y-129540000D03*
%TD*%
D16*
%TO.P,Q2,1,D*%
%TO.N,Net-(Q1-S)*%
X116858000Y-104710001D03*
%TO.P,Q2,2,S*%
%TO.N,GND*%
X116858000Y-102809999D03*
%TO.P,Q2,3,G*%
%TO.N,Net-(Q2-G)*%
X114572000Y-103760000D03*
%TD*%
D17*
%TO.P,C2,1*%
%TO.N,Net-(U3-SS)*%
X101600000Y-107100100D03*
%TO.P,C2,2*%
%TO.N,GND*%
X101600000Y-105499900D03*
%TD*%
D18*
%TO.P,L1,1,1*%
%TO.N,Net-(U3-FB)*%
X105265000Y-119000000D03*
%TO.P,L1,2,2*%
%TO.N,Net-(Q1-S)*%
X113175000Y-119000000D03*
%TD*%
D19*
%TO.P,C1,1*%
%TO.N,+BATT*%
X97256600Y-96140000D03*
%TO.P,C1,2*%
%TO.N,GND*%
X88900000Y-96140000D03*
%TD*%
D12*
%TO.P,J1,1,Pin_1*%
%TO.N,GND*%
X124460000Y-73740000D03*
D13*
%TO.P,J1,2,Pin_2*%
%TO.N,/SDA0*%
X124460000Y-76240000D03*
%TO.P,J1,3,Pin_3*%
%TO.N,/SCL0*%
X124460000Y-78740000D03*
%TO.P,J1,4,Pin_4*%
%TO.N,/LCS1*%
X124460000Y-81240000D03*
%TO.P,J1,5,Pin_5*%
%TO.N,+3V3*%
X124460000Y-83740000D03*
%TD*%
D20*
%TO.P,R2,1*%
%TO.N,GND*%
X96238500Y-134620000D03*
%TO.P,R2,2*%
%TO.N,Net-(D2-K)*%
X98063500Y-134620000D03*
%TD*%
D14*
%TO.P,D1,1,K*%
%TO.N,Net-(D1-K)*%
X89531000Y-129540000D03*
D15*
%TO.P,D1,2,A*%
%TO.N,/LED0*%
X92071000Y-129540000D03*
%TD*%
D21*
%TO.P,SW1,1,A*%
%TO.N,unconnected-(SW1-A-Pad1)*%
X99060000Y-114300000D03*
%TO.P,SW1,2,B*%
%TO.N,Net-(J10-Pin_2)*%
X99060000Y-119000000D03*
%TO.P,SW1,3,C*%
%TO.N,+BATT*%
X99060000Y-123700000D03*
%TD*%
D22*
%TO.P,C5,1*%
%TO.N,+BATT*%
X96300000Y-106300000D03*
%TO.P,C5,2*%
%TO.N,GND*%
X88900000Y-106300000D03*
%TD*%
D23*
%TO.P,C4,1*%
%TO.N,+3V3*%
X102402799Y-101220000D03*
%TO.P,C4,2*%
%TO.N,GND*%
X100797201Y-101220000D03*
%TD*%
D20*
%TO.P,R1,1*%
%TO.N,GND*%
X88618500Y-134620000D03*
%TO.P,R1,2*%
%TO.N,Net-(D1-K)*%
X90443500Y-134620000D03*
%TD*%
D24*
%TO.P,Q1,1,D*%
%TO.N,+BATT*%
X114764999Y-109983000D03*
%TO.P,Q1,2,S*%
%TO.N,Net-(Q1-S)*%
X116665001Y-109983000D03*
%TO.P,Q1,3,G*%
%TO.N,Net-(Q1-G)*%
X115715000Y-107697000D03*
%TD*%
D25*
%TO.P,J10,1,Pin_1*%
%TO.N,GND*%
X91440000Y-121540000D03*
D21*
%TO.P,J10,2,Pin_2*%
%TO.N,Net-(J10-Pin_2)*%
X91440000Y-116460000D03*
%TD*%
D26*
%TO.P,U1,Vin,Vin*%
%TO.N,+BATT*%
X124460000Y-99060000D03*
%TO.P,U1,VBat,VBat*%
%TO.N,unconnected-(U1-PadVBat)*%
X157480000Y-111760000D03*
%TO.P,U1,Prg,Prg*%
%TO.N,unconnected-(U1-PadPrg)*%
X157480000Y-104140000D03*
%TO.P,U1,On/Off,On/Off*%
%TO.N,unconnected-(U1-PadOn{slash}Off)*%
X157480000Y-101600000D03*
%TO.P,U1,G3,GND*%
%TO.N,GND*%
X127000000Y-99060000D03*
%TO.P,U1,G2,GND*%
%TO.N,unconnected-(U1-GND-PadG2)*%
X157480000Y-106680000D03*
%TO.P,U1,G1,GND*%
%TO.N,GND*%
X124460000Y-114300000D03*
%TO.P,U1,34*%
%TO.N,N/C*%
X127000000Y-101600000D03*
%TO.P,U1,33*%
X149860000Y-101600000D03*
%TO.P,U1,32*%
X152400000Y-101600000D03*
%TO.P,U1,31*%
X149860000Y-104140000D03*
%TO.P,U1,30*%
X152400000Y-104140000D03*
%TO.P,U1,29*%
X149860000Y-106680000D03*
%TO.P,U1,28*%
X152400000Y-106680000D03*
%TO.P,U1,27*%
X149860000Y-109220000D03*
%TO.P,U1,26*%
X152400000Y-109220000D03*
%TO.P,U1,25*%
X149860000Y-111760000D03*
%TO.P,U1,24*%
X152400000Y-111760000D03*
%TO.P,U1,23,IO23*%
%TO.N,/LCS2*%
X132080000Y-99060000D03*
%TO.P,U1,22,IO22*%
%TO.N,/LCS4*%
X134620000Y-99060000D03*
%TO.P,U1,21,IO21*%
%TO.N,/LCS3*%
X137160000Y-99060000D03*
%TO.P,U1,20,IO20*%
%TO.N,/LCS1*%
X139700000Y-99060000D03*
%TO.P,U1,19,IO19*%
%TO.N,/SCL0*%
X142240000Y-99060000D03*
%TO.P,U1,18,IO18*%
%TO.N,/SDA0*%
X144780000Y-99060000D03*
%TO.P,U1,17,IO17*%
%TO.N,unconnected-(U1-IO17-Pad17)*%
X147320000Y-99060000D03*
%TO.P,U1,16,IO16*%
%TO.N,/LCS5*%
X149860000Y-99060000D03*
%TO.P,U1,15,IO15*%
%TO.N,/LCS7*%
X152400000Y-99060000D03*
%TO.P,U1,14,IO14*%
%TO.N,/LCS6*%
X154940000Y-99060000D03*
%TO.P,U1,13,IO13*%
%TO.N,unconnected-(U1-IO13-Pad13)*%
X157480000Y-99060000D03*
%TO.P,U1,12,IO12*%
%TO.N,/AEQ2*%
X157480000Y-114300000D03*
%TO.P,U1,11,IO11*%
%TO.N,/BEQ2*%
X154940000Y-114300000D03*
%TO.P,U1,10,IO10*%
%TO.N,/AEQ1*%
X152400000Y-114300000D03*
%TO.P,U1,9,IO9*%
%TO.N,/BEQ1*%
X149860000Y-114300000D03*
%TO.P,U1,8,IO8*%
%TO.N,/AIN1*%
X147320000Y-114300000D03*
%TO.P,U1,7,IO7*%
%TO.N,/AIN2*%
X144780000Y-114300000D03*
%TO.P,U1,6,IO6*%
%TO.N,/BIN2*%
X142240000Y-114300000D03*
%TO.P,U1,5,IO5*%
%TO.N,/BIN1*%
X139700000Y-114300000D03*
%TO.P,U1,4,IO4*%
%TO.N,/LED3*%
X137160000Y-114300000D03*
%TO.P,U1,3V*%
%TO.N,N/C*%
X129540000Y-99060000D03*
%TO.P,U1,3.3V,3.3V*%
%TO.N,unconnected-(U1-Pad3.3V)*%
X157480000Y-109220000D03*
%TO.P,U1,3,IO3*%
%TO.N,/LED2*%
X134620000Y-114300000D03*
%TO.P,U1,2,IO2*%
%TO.N,/LED1*%
X132080000Y-114300000D03*
%TO.P,U1,1,IO1*%
%TO.N,/LED0*%
X129540000Y-114300000D03*
%TO.P,U1,0,IO0*%
%TO.N,unconnected-(U1-IO0-Pad0)*%
X127000000Y-114300000D03*
%TD*%
D12*
%TO.P,J7,1,Pin_1*%
%TO.N,GND*%
X154940000Y-73740000D03*
D13*
%TO.P,J7,2,Pin_2*%
%TO.N,/SDA0*%
X154940000Y-76240000D03*
%TO.P,J7,3,Pin_3*%
%TO.N,/SCL0*%
X154940000Y-78740000D03*
%TO.P,J7,4,Pin_4*%
%TO.N,/LCS7*%
X154940000Y-81240000D03*
%TO.P,J7,5,Pin_5*%
%TO.N,+3V3*%
X154940000Y-83740000D03*
%TD*%
D27*
%TO.P,C3,1*%
%TO.N,Net-(U3-BST)*%
X119380000Y-107658900D03*
%TO.P,C3,2*%
%TO.N,Net-(Q1-S)*%
X119380000Y-110021100D03*
%TD*%
D12*
%TO.P,J6,1,Pin_1*%
%TO.N,GND*%
X144780000Y-73740000D03*
D13*
%TO.P,J6,2,Pin_2*%
%TO.N,/SDA0*%
X144780000Y-76240000D03*
%TO.P,J6,3,Pin_3*%
%TO.N,/SCL0*%
X144780000Y-78740000D03*
%TO.P,J6,4,Pin_4*%
%TO.N,/LCS6*%
X144780000Y-81240000D03*
%TO.P,J6,5,Pin_5*%
%TO.N,+3V3*%
X144780000Y-83740000D03*
%TD*%
D12*
%TO.P,J3,1,Pin_1*%
%TO.N,GND*%
X104140000Y-73740000D03*
D13*
%TO.P,J3,2,Pin_2*%
%TO.N,/SDA0*%
X104140000Y-76240000D03*
%TO.P,J3,3,Pin_3*%
%TO.N,/SCL0*%
X104140000Y-78740000D03*
%TO.P,J3,4,Pin_4*%
%TO.N,/LCS3*%
X104140000Y-81240000D03*
%TO.P,J3,5,Pin_5*%
%TO.N,+3V3*%
X104140000Y-83740000D03*
%TD*%
D10*
%TO.P,J9,6,Pin_6*%
%TO.N,/BOUT2*%
X147520000Y-124460000D03*
%TO.P,J9,5,Pin_5*%
%TO.N,/BOUT1*%
X150020000Y-124460000D03*
%TO.P,J9,4,Pin_4*%
%TO.N,+3V3*%
X152520000Y-124460000D03*
%TO.P,J9,3,Pin_3*%
%TO.N,/BEQ1*%
X155020000Y-124460000D03*
%TO.P,J9,2,Pin_2*%
%TO.N,/BEQ2*%
X157520000Y-124460000D03*
D11*
%TO.P,J9,1,Pin_1*%
%TO.N,GND*%
X160020000Y-124460000D03*
%TD*%
D28*
%TO.P,C6,1*%
%TO.N,Net-(U3-FB)*%
X105555000Y-109728000D03*
%TO.P,C6,2*%
%TO.N,GND*%
X111092200Y-109728000D03*
%TD*%
D14*
%TO.P,D2,1,K*%
%TO.N,Net-(D2-K)*%
X96520000Y-129540000D03*
D15*
%TO.P,D2,2,A*%
%TO.N,/LED1*%
X99060000Y-129540000D03*
%TD*%
D20*
%TO.P,R4,1*%
%TO.N,GND*%
X111478500Y-134620000D03*
%TO.P,R4,2*%
%TO.N,Net-(D4-K)*%
X113303500Y-134620000D03*
%TD*%
D29*
%TO.P,U2,16,GND1*%
%TO.N,GND*%
X123190000Y-121920000D03*
D30*
%TO.P,U2,15,VMM*%
%TO.N,unconnected-(U2-VMM-Pad15)*%
X125730000Y-121920000D03*
%TO.P,U2,14,BIN1*%
%TO.N,/BIN1*%
X128270000Y-121920000D03*
%TO.P,U2,13,BIN2*%
%TO.N,/BIN2*%
X130810000Y-121920000D03*
D31*
%TO.P,U2,12,AIN2*%
%TO.N,/AIN2*%
X133350000Y-121920000D03*
D30*
%TO.P,U2,11,AIN1*%
%TO.N,/AIN1*%
X135890000Y-121920000D03*
%TO.P,U2,10,~{SLP}*%
%TO.N,unconnected-(U2-~{SLP}-Pad10)*%
X138430000Y-121920000D03*
%TO.P,U2,9,~{FLT}*%
%TO.N,unconnected-(U2-~{FLT}-Pad9)*%
X140970000Y-121920000D03*
%TO.P,U2,8,BISEN*%
%TO.N,unconnected-(U2-BISEN-Pad8)*%
X140970000Y-132080000D03*
%TO.P,U2,7,AISEN*%
%TO.N,unconnected-(U2-AISEN-Pad7)*%
X138430000Y-132080000D03*
%TO.P,U2,6,AOUT1*%
%TO.N,/AOUT1*%
X135890000Y-132080000D03*
%TO.P,U2,5,AOUT2*%
%TO.N,/AOUT2*%
X133350000Y-132080000D03*
%TO.P,U2,4,BOUT2*%
%TO.N,/BOUT2*%
X130810000Y-132080000D03*
%TO.P,U2,3,BOUT1*%
%TO.N,/BOUT1*%
X128270000Y-132080000D03*
%TO.P,U2,2,VIN*%
%TO.N,+BATT*%
X125730000Y-132080000D03*
D29*
%TO.P,U2,1,GND0*%
%TO.N,GND*%
X123190000Y-132080000D03*
%TD*%
D20*
%TO.P,R3,1*%
%TO.N,GND*%
X103858500Y-134620000D03*
%TO.P,R3,2*%
%TO.N,Net-(D3-K)*%
X105683500Y-134620000D03*
%TD*%
D14*
%TO.P,D4,1,K*%
%TO.N,Net-(D4-K)*%
X112663000Y-129540000D03*
D15*
%TO.P,D4,2,A*%
%TO.N,/LED3*%
X115203000Y-129540000D03*
%TD*%
D12*
%TO.P,J4,1,Pin_1*%
%TO.N,GND*%
X114300000Y-73740000D03*
D13*
%TO.P,J4,2,Pin_2*%
%TO.N,/SDA0*%
X114300000Y-76240000D03*
%TO.P,J4,3,Pin_3*%
%TO.N,/SCL0*%
X114300000Y-78740000D03*
%TO.P,J4,4,Pin_4*%
%TO.N,/LCS4*%
X114300000Y-81240000D03*
%TO.P,J4,5,Pin_5*%
%TO.N,+3V3*%
X114300000Y-83740000D03*
%TD*%
D12*
%TO.P,J5,1,Pin_1*%
%TO.N,GND*%
X134620000Y-73740000D03*
D13*
%TO.P,J5,2,Pin_2*%
%TO.N,/SDA0*%
X134620000Y-76240000D03*
%TO.P,J5,3,Pin_3*%
%TO.N,/SCL0*%
X134620000Y-78740000D03*
%TO.P,J5,4,Pin_4*%
%TO.N,/LCS5*%
X134620000Y-81240000D03*
%TO.P,J5,5,Pin_5*%
%TO.N,+3V3*%
X134620000Y-83740000D03*
%TD*%
D32*
%TO.P,U3,1,VCC*%
%TO.N,+3V3*%
X105250200Y-101809999D03*
%TO.P,U3,2,VIN*%
%TO.N,+BATT*%
X105250200Y-102460000D03*
%TO.P,U3,3,EN*%
%TO.N,unconnected-(U3-EN-Pad3)*%
X105250200Y-103110001D03*
%TO.P,U3,4,FB*%
%TO.N,Net-(U3-FB)*%
X105250200Y-103760000D03*
%TO.P,U3,5,SGND*%
%TO.N,GND*%
X105250200Y-104409999D03*
%TO.P,U3,6,SS*%
%TO.N,Net-(U3-SS)*%
X105250200Y-105060000D03*
%TO.P,U3,7*%
%TO.N,N/C*%
X105250200Y-105709999D03*
%TO.P,U3,8*%
X110939800Y-105710001D03*
%TO.P,U3,9*%
X110939800Y-105060000D03*
%TO.P,U3,10,SW*%
%TO.N,Net-(Q1-S)*%
X110939800Y-104410001D03*
%TO.P,U3,11,HG*%
%TO.N,Net-(Q1-G)*%
X110939800Y-103760000D03*
%TO.P,U3,12,BST*%
%TO.N,Net-(U3-BST)*%
X110939800Y-103110001D03*
%TO.P,U3,13,LG*%
%TO.N,Net-(Q2-G)*%
X110939800Y-102460000D03*
%TO.P,U3,14,PGND*%
%TO.N,GND*%
X110939800Y-101810001D03*
D33*
%TO.P,U3,15*%
%TO.N,N/C*%
X108095000Y-103760000D03*
%TD*%
D34*
%TO.N,+BATT*%
X119380000Y-114300000D03*
D35*
%TO.N,GND*%
X108712000Y-116078000D03*
X88900000Y-112268000D03*
X88138000Y-125222000D03*
X88138000Y-133350000D03*
X92456000Y-135382000D03*
X100838000Y-135382000D03*
X108458000Y-135636000D03*
X119888000Y-135382000D03*
X87630000Y-102616000D03*
X87884000Y-89662000D03*
X87884000Y-82550000D03*
X102870000Y-104648000D03*
X99568000Y-103124000D03*
X114046000Y-101600000D03*
X149352000Y-73660000D03*
X139446000Y-73660000D03*
X128778000Y-73660000D03*
X119126000Y-73660000D03*
X98552000Y-73660000D03*
X108712000Y-73660000D03*
X119888000Y-99822000D03*
%TD*%
D36*
%TO.N,+BATT*%
X97604664Y-96140000D02*
X97256600Y-96140000D01*
X98483700Y-104116300D02*
X98483700Y-97019036D01*
X98483700Y-97019036D02*
X97604664Y-96140000D01*
X96300000Y-106300000D02*
X98483700Y-104116300D01*
X102381997Y-102460000D02*
X104304093Y-102460000D01*
X98541997Y-106300000D02*
X102381997Y-102460000D01*
X96300000Y-106300000D02*
X98541997Y-106300000D01*
X101060000Y-111060000D02*
X96300000Y-106300000D01*
X101060000Y-121700000D02*
X101060000Y-111060000D01*
X99060000Y-123700000D02*
X101060000Y-121700000D01*
X115044399Y-114300000D02*
X115044399Y-110262400D01*
X115044399Y-110262400D02*
X114764999Y-109983000D01*
X124460000Y-109220000D02*
X124460000Y-99060000D01*
X119380000Y-114300000D02*
X124460000Y-109220000D01*
X119380000Y-114300000D02*
X115044399Y-114300000D01*
X115044399Y-123969601D02*
X115044399Y-114300000D01*
X114256059Y-124757941D02*
X115044399Y-123969601D01*
X100117941Y-124757941D02*
X114256059Y-124757941D01*
X99060000Y-123700000D02*
X100117941Y-124757941D01*
D37*
%TO.N,GND*%
X112144300Y-110780100D02*
X112144300Y-112645700D01*
X112144300Y-112645700D02*
X108712000Y-116078000D01*
X111092200Y-109728000D02*
X112144300Y-110780100D01*
%TO.N,Net-(U3-FB)*%
X104502900Y-110780100D02*
X104502900Y-118237900D01*
X105555000Y-109728000D02*
X104502900Y-110780100D01*
X104502900Y-118237900D02*
X105265000Y-119000000D01*
X101965880Y-103760000D02*
X105250200Y-103760000D01*
X100792400Y-104933480D02*
X101965880Y-103760000D01*
X101801780Y-108675900D02*
X100792400Y-107666520D01*
X104502900Y-108675900D02*
X101801780Y-108675900D01*
X105555000Y-109728000D02*
X104502900Y-108675900D01*
X100792400Y-107666520D02*
X100792400Y-104933480D01*
%TO.N,/LCS6*%
X157734000Y-96266000D02*
X154940000Y-99060000D01*
X157734000Y-81534000D02*
X157734000Y-96266000D01*
X156265000Y-80065000D02*
X157734000Y-81534000D01*
X145955000Y-80065000D02*
X156265000Y-80065000D01*
X144780000Y-81240000D02*
X145955000Y-80065000D01*
%TO.N,/LCS7*%
X152400000Y-89408000D02*
X152400000Y-99060000D01*
X157168000Y-84640000D02*
X152400000Y-89408000D01*
X157168000Y-82496742D02*
X157168000Y-84640000D01*
X155911258Y-81240000D02*
X157168000Y-82496742D01*
X154940000Y-81240000D02*
X155911258Y-81240000D01*
%TO.N,/LCS5*%
X149860000Y-91186000D02*
X149860000Y-99060000D01*
X156718000Y-84328000D02*
X149860000Y-91186000D01*
X156718000Y-83058000D02*
X156718000Y-84328000D01*
X156210000Y-82550000D02*
X156718000Y-83058000D01*
X135930000Y-82550000D02*
X156210000Y-82550000D01*
X134620000Y-81240000D02*
X135930000Y-82550000D01*
%TO.N,/BOUT1*%
X149098000Y-122682000D02*
X146304000Y-122682000D01*
X145288000Y-123698000D02*
X136652000Y-123698000D01*
X149606000Y-124046000D02*
X149606000Y-123190000D01*
X150020000Y-124460000D02*
X149606000Y-124046000D01*
X149606000Y-123190000D02*
X149098000Y-122682000D01*
X146304000Y-122682000D02*
X145288000Y-123698000D01*
X136652000Y-123698000D02*
X128270000Y-132080000D01*
%TO.N,/AOUT2*%
X147988000Y-130048000D02*
X150020000Y-132080000D01*
X135382000Y-130048000D02*
X147988000Y-130048000D01*
X133350000Y-132080000D02*
X135382000Y-130048000D01*
%TO.N,GND*%
X88900000Y-112268000D02*
X88900000Y-119000000D01*
X88306000Y-125054000D02*
X88306000Y-124674000D01*
X88138000Y-125222000D02*
X88306000Y-125054000D01*
X88306000Y-125390000D02*
X88138000Y-125222000D01*
X88306000Y-133182000D02*
X88306000Y-125390000D01*
X88138000Y-133350000D02*
X88306000Y-133182000D01*
X88306000Y-133518000D02*
X88138000Y-133350000D01*
X92494000Y-135420000D02*
X95438500Y-135420000D01*
X92456000Y-135382000D02*
X92494000Y-135420000D01*
X92418000Y-135420000D02*
X92456000Y-135382000D01*
X100876000Y-135420000D02*
X103058500Y-135420000D01*
X100838000Y-135382000D02*
X100876000Y-135420000D01*
X100800000Y-135420000D02*
X100838000Y-135382000D01*
X108674000Y-135420000D02*
X110678500Y-135420000D01*
X108458000Y-135636000D02*
X108674000Y-135420000D01*
X108242000Y-135420000D02*
X108458000Y-135636000D01*
X119888000Y-135382000D02*
X119850000Y-135420000D01*
%TO.N,/AOUT1*%
X145996000Y-133604000D02*
X147520000Y-132080000D01*
X135890000Y-133350000D02*
X136144000Y-133604000D01*
X135890000Y-132080000D02*
X135890000Y-133350000D01*
X136144000Y-133604000D02*
X145996000Y-133604000D01*
%TO.N,/AIN1*%
X138166396Y-119643604D02*
X135890000Y-121920000D01*
X140198396Y-119643604D02*
X138166396Y-119643604D01*
X144272000Y-117348000D02*
X142494000Y-117348000D01*
X142494000Y-117348000D02*
X140198396Y-119643604D01*
X147320000Y-114300000D02*
X144272000Y-117348000D01*
%TO.N,/AIN2*%
X136076396Y-119193604D02*
X133350000Y-121920000D01*
X139886396Y-119193604D02*
X136076396Y-119193604D01*
X144780000Y-114300000D02*
X139886396Y-119193604D01*
%TO.N,/BIN2*%
X133986396Y-118743604D02*
X130810000Y-121920000D01*
X137796396Y-118743604D02*
X133986396Y-118743604D01*
X142240000Y-114300000D02*
X137796396Y-118743604D01*
%TO.N,GND*%
X87650000Y-102596000D02*
X87650000Y-97289422D01*
X87630000Y-102616000D02*
X87650000Y-102596000D01*
X87650000Y-102636000D02*
X87630000Y-102616000D01*
X87847900Y-89698100D02*
X87847900Y-95188478D01*
X87884000Y-89662000D02*
X87847900Y-89698100D01*
X87847900Y-89625900D02*
X87884000Y-89662000D01*
X87847900Y-82586100D02*
X87847900Y-89625900D01*
X87884000Y-82550000D02*
X87847900Y-82586100D01*
X87847900Y-82513900D02*
X87884000Y-82550000D01*
X102870000Y-104648000D02*
X102689901Y-104409999D01*
X100797201Y-101894799D02*
X99568000Y-103124000D01*
X100797201Y-101220000D02*
X100797201Y-101894799D01*
X113835999Y-101810001D02*
X110939800Y-101810001D01*
X114046000Y-101600000D02*
X113835999Y-101810001D01*
X114256001Y-101810001D02*
X114046000Y-101600000D01*
X149432000Y-73740000D02*
X154940000Y-73740000D01*
X149352000Y-73660000D02*
X149432000Y-73740000D01*
X149272000Y-73740000D02*
X149352000Y-73660000D01*
X139526000Y-73740000D02*
X144700000Y-73740000D01*
X139446000Y-73660000D02*
X139526000Y-73740000D01*
X139366000Y-73740000D02*
X139446000Y-73660000D01*
X128858000Y-73740000D02*
X134620000Y-73740000D01*
X128778000Y-73660000D02*
X128858000Y-73740000D01*
X128698000Y-73740000D02*
X128778000Y-73660000D01*
X119206000Y-73740000D02*
X124460000Y-73740000D01*
X119126000Y-73660000D02*
X119206000Y-73740000D01*
X119046000Y-73740000D02*
X119126000Y-73660000D01*
X98632000Y-73740000D02*
X104140000Y-73740000D01*
X98552000Y-73660000D02*
X98632000Y-73740000D01*
X98472000Y-73740000D02*
X98552000Y-73660000D01*
X108792000Y-73740000D02*
X114300000Y-73740000D01*
X108712000Y-73660000D02*
X108792000Y-73740000D01*
X108632000Y-73740000D02*
X108712000Y-73660000D01*
X119888000Y-99779999D02*
X121732999Y-97935000D01*
X119888000Y-99822000D02*
X119888000Y-99779999D01*
X119845999Y-99822000D02*
X119888000Y-99822000D01*
%TO.N,+3V3*%
X102402799Y-97499576D02*
X99060000Y-94156777D01*
X102402799Y-101220000D02*
X102402799Y-97499576D01*
X99060000Y-94156777D02*
X99060000Y-83740000D01*
%TO.N,GND*%
X123190000Y-121920000D02*
X123190000Y-132080000D01*
X87847900Y-95188478D02*
X88799422Y-96140000D01*
X88799422Y-96140000D02*
X88900000Y-96140000D01*
X93980000Y-73740000D02*
X87847900Y-79872100D01*
X87847900Y-79872100D02*
X87847900Y-82513900D01*
X125875000Y-97935000D02*
X127000000Y-99060000D01*
X121732999Y-97935000D02*
X125875000Y-97935000D01*
X116858000Y-102809999D02*
X119845999Y-99822000D01*
%TO.N,Net-(Q1-S)*%
X114350979Y-108946800D02*
X115628801Y-108946800D01*
X113175000Y-110122779D02*
X114350979Y-108946800D01*
X113175000Y-119000000D02*
X113175000Y-110122779D01*
%TO.N,GND*%
X115858002Y-101810001D02*
X114256001Y-101810001D01*
X116858000Y-102809999D02*
X115858002Y-101810001D01*
%TO.N,Net-(U3-BST)*%
X112471781Y-103110001D02*
X110939800Y-103110001D01*
X115417820Y-104364400D02*
X113726180Y-104364400D01*
X115676619Y-104105601D02*
X115417820Y-104364400D01*
X113726180Y-104364400D02*
X112471781Y-103110001D01*
X119380000Y-105781781D02*
X117703820Y-104105601D01*
X117703820Y-104105601D02*
X115676619Y-104105601D01*
X119380000Y-107658900D02*
X119380000Y-105781781D01*
%TO.N,Net-(Q2-G)*%
X113272000Y-102460000D02*
X110939800Y-102460000D01*
X114572000Y-103760000D02*
X113272000Y-102460000D01*
%TO.N,Net-(Q1-S)*%
X116858000Y-109790001D02*
X116665001Y-109983000D01*
X116858000Y-104710001D02*
X116858000Y-109790001D01*
X116665001Y-109983000D02*
X119341900Y-109983000D01*
X119341900Y-109983000D02*
X119380000Y-110021100D01*
X114620900Y-108946800D02*
X115628801Y-108946800D01*
X111976000Y-104735001D02*
X111976000Y-106301900D01*
X115628801Y-108946800D02*
X116665001Y-109983000D01*
X111651000Y-104410001D02*
X111976000Y-104735001D01*
X110939800Y-104410001D02*
X111651000Y-104410001D01*
X111976000Y-106301900D02*
X114620900Y-108946800D01*
%TO.N,Net-(Q1-G)*%
X111778000Y-103760000D02*
X110939800Y-103760000D01*
X115715000Y-107697000D02*
X111778000Y-103760000D01*
%TO.N,GND*%
X102689901Y-104409999D02*
X101600000Y-105499900D01*
X105250200Y-104409999D02*
X102870000Y-104648000D01*
%TO.N,Net-(U3-SS)*%
X104539000Y-105060000D02*
X105250200Y-105060000D01*
X102498900Y-107100100D02*
X104539000Y-105060000D01*
X101600000Y-107100100D02*
X102498900Y-107100100D01*
%TO.N,GND*%
X88900000Y-106300000D02*
X88900000Y-112268000D01*
X88900000Y-119000000D02*
X91440000Y-121540000D01*
X87650000Y-97289422D02*
X88799422Y-96140000D01*
X87650000Y-105050000D02*
X87650000Y-102636000D01*
X88900000Y-106300000D02*
X87650000Y-105050000D01*
D38*
%TO.N,Net-(J10-Pin_2)*%
X96520000Y-116460000D02*
X99060000Y-119000000D01*
X91440000Y-116460000D02*
X96520000Y-116460000D01*
D37*
%TO.N,GND*%
X88306000Y-124674000D02*
X91440000Y-121540000D01*
X88306000Y-134307500D02*
X88306000Y-133518000D01*
X88618500Y-134620000D02*
X88306000Y-134307500D01*
%TO.N,/LED0*%
X95511000Y-126100000D02*
X92071000Y-129540000D01*
X121997208Y-118030000D02*
X113927208Y-126100000D01*
X113927208Y-126100000D02*
X95511000Y-126100000D01*
X125810000Y-118030000D02*
X121997208Y-118030000D01*
X129540000Y-114300000D02*
X125810000Y-118030000D01*
%TO.N,/LED1*%
X102050000Y-126550000D02*
X99060000Y-129540000D01*
X122183604Y-118480000D02*
X114113604Y-126550000D01*
X114113604Y-126550000D02*
X102050000Y-126550000D01*
X127900000Y-118480000D02*
X122183604Y-118480000D01*
X132080000Y-114300000D02*
X127900000Y-118480000D01*
%TO.N,/LED2*%
X114300000Y-127000000D02*
X109851000Y-127000000D01*
X122370000Y-118930000D02*
X114300000Y-127000000D01*
X129190000Y-118930000D02*
X122370000Y-118930000D01*
X133820000Y-114300000D02*
X129190000Y-118930000D01*
X109851000Y-127000000D02*
X107311000Y-129540000D01*
X134620000Y-114300000D02*
X133820000Y-114300000D01*
%TO.N,/LED3*%
X115203000Y-127747380D02*
X115203000Y-129540000D01*
X129540000Y-119380000D02*
X123570380Y-119380000D01*
X131076396Y-117843604D02*
X129540000Y-119380000D01*
X123570380Y-119380000D02*
X115203000Y-127747380D01*
X133616396Y-117843604D02*
X131076396Y-117843604D01*
X137160000Y-114300000D02*
X133616396Y-117843604D01*
%TO.N,/BIN1*%
X131896396Y-118293604D02*
X128270000Y-121920000D01*
X135706396Y-118293604D02*
X131896396Y-118293604D01*
X139700000Y-114300000D02*
X135706396Y-118293604D01*
%TO.N,/SCL0*%
X142240000Y-93797639D02*
X142240000Y-99060000D01*
X127182361Y-78740000D02*
X142240000Y-93797639D01*
X124460000Y-78740000D02*
X127182361Y-78740000D01*
%TO.N,GND*%
X110678500Y-135420000D02*
X111478500Y-134620000D01*
X104658500Y-135420000D02*
X108242000Y-135420000D01*
X103858500Y-134620000D02*
X104658500Y-135420000D01*
X103058500Y-135420000D02*
X103858500Y-134620000D01*
X96238500Y-134620000D02*
X97038500Y-135420000D01*
X97038500Y-135420000D02*
X100800000Y-135420000D01*
X89418500Y-135420000D02*
X92418000Y-135420000D01*
X88618500Y-134620000D02*
X89418500Y-135420000D01*
X95438500Y-135420000D02*
X96238500Y-134620000D01*
%TO.N,Net-(D1-K)*%
X90443500Y-130452500D02*
X89531000Y-129540000D01*
X90443500Y-134620000D02*
X90443500Y-130452500D01*
%TO.N,Net-(D2-K)*%
X98063500Y-131083500D02*
X96520000Y-129540000D01*
X98063500Y-134620000D02*
X98063500Y-131083500D01*
%TO.N,Net-(D3-K)*%
X105683500Y-130452500D02*
X104771000Y-129540000D01*
X105683500Y-134620000D02*
X105683500Y-130452500D01*
%TO.N,GND*%
X112278500Y-135420000D02*
X111478500Y-134620000D01*
X119850000Y-135420000D02*
X112278500Y-135420000D01*
X123190000Y-132080000D02*
X119888000Y-135382000D01*
%TO.N,Net-(D4-K)*%
X112663000Y-129540000D02*
X112663000Y-133979500D01*
X112663000Y-133979500D02*
X113303500Y-134620000D01*
%TO.N,/BOUT2*%
X138430000Y-124460000D02*
X147520000Y-124460000D01*
X130810000Y-132080000D02*
X138430000Y-124460000D01*
%TO.N,GND*%
X160020000Y-124460000D02*
X160020000Y-132080000D01*
%TO.N,/AEQ2*%
X158695000Y-130905000D02*
X158695000Y-115515000D01*
X158695000Y-115515000D02*
X157480000Y-114300000D01*
X157520000Y-132080000D02*
X158695000Y-130905000D01*
%TO.N,/AEQ1*%
X156195000Y-118095000D02*
X152400000Y-114300000D01*
X156195000Y-130905000D02*
X156195000Y-118095000D01*
X155020000Y-132080000D02*
X156195000Y-130905000D01*
%TO.N,/BEQ1*%
X155020000Y-119460000D02*
X149860000Y-114300000D01*
X155020000Y-124460000D02*
X155020000Y-119460000D01*
%TO.N,/BEQ2*%
X157520000Y-116880000D02*
X154940000Y-114300000D01*
X157520000Y-124460000D02*
X157520000Y-116880000D01*
%TO.N,+3V3*%
X99060000Y-83740000D02*
X104140000Y-83740000D01*
X93980000Y-83740000D02*
X99060000Y-83740000D01*
X104140000Y-83740000D02*
X114300000Y-83740000D01*
X104660201Y-101220000D02*
X105250200Y-101809999D01*
X102402799Y-101220000D02*
X104660201Y-101220000D01*
%TO.N,/SDA0*%
X144780000Y-95701243D02*
X125318757Y-76240000D01*
X125318757Y-76240000D02*
X124460000Y-76240000D01*
X144780000Y-99060000D02*
X144780000Y-95701243D01*
%TO.N,/LCS1*%
X139700000Y-91894035D02*
X139700000Y-99060000D01*
X129045965Y-81240000D02*
X139700000Y-91894035D01*
X124460000Y-81240000D02*
X129045965Y-81240000D01*
%TO.N,/LCS3*%
X137160000Y-89990431D02*
X137160000Y-99060000D01*
X116840000Y-82547208D02*
X122167792Y-87875000D01*
X116840000Y-81280000D02*
X116840000Y-82547208D01*
X115625000Y-80065000D02*
X116840000Y-81280000D01*
X105315000Y-80065000D02*
X115625000Y-80065000D01*
X135044569Y-87875000D02*
X137160000Y-89990431D01*
X104140000Y-81240000D02*
X105315000Y-80065000D01*
X122167792Y-87875000D02*
X135044569Y-87875000D01*
%TO.N,/LCS4*%
X135195000Y-98485000D02*
X134620000Y-99060000D01*
X135195000Y-88661827D02*
X135195000Y-98485000D01*
X134858173Y-88325000D02*
X135195000Y-88661827D01*
X121981396Y-88325000D02*
X134858173Y-88325000D01*
X114896396Y-81240000D02*
X121981396Y-88325000D01*
X114300000Y-81240000D02*
X114896396Y-81240000D01*
%TO.N,/LCS2*%
X132256777Y-99060000D02*
X132080000Y-99060000D01*
X134745000Y-96571777D02*
X132256777Y-99060000D01*
X134745000Y-88848223D02*
X134745000Y-96571777D01*
X134671777Y-88775000D02*
X134745000Y-88848223D01*
X121795000Y-88775000D02*
X134671777Y-88775000D01*
X115435000Y-82415000D02*
X121795000Y-88775000D01*
X95155000Y-82415000D02*
X115435000Y-82415000D01*
X93980000Y-81240000D02*
X95155000Y-82415000D01*
%TO.N,/SCL0*%
X144780000Y-78740000D02*
X154940000Y-78740000D01*
X134620000Y-78740000D02*
X144780000Y-78740000D01*
%TO.N,+3V3*%
X144780000Y-83740000D02*
X154940000Y-83740000D01*
X134620000Y-83740000D02*
X144780000Y-83740000D01*
%TO.N,/SDA0*%
X144780000Y-76240000D02*
X154940000Y-76240000D01*
X134620000Y-76240000D02*
X144780000Y-76240000D01*
X124460000Y-76240000D02*
X134620000Y-76240000D01*
%TO.N,/SCL0*%
X114300000Y-78740000D02*
X124460000Y-78740000D01*
X104140000Y-78740000D02*
X114300000Y-78740000D01*
X93980000Y-78740000D02*
X104140000Y-78740000D01*
%TO.N,/SDA0*%
X114300000Y-76240000D02*
X124460000Y-76240000D01*
X104140000Y-76240000D02*
X114300000Y-76240000D01*
X93980000Y-76240000D02*
X104140000Y-76240000D01*
%TO.N,GND*%
X144860000Y-73740000D02*
X149272000Y-73740000D01*
X144780000Y-73660000D02*
X144860000Y-73740000D01*
X144700000Y-73740000D02*
X144780000Y-73660000D01*
X134620000Y-73740000D02*
X139366000Y-73740000D01*
X124460000Y-73740000D02*
X128698000Y-73740000D01*
X114300000Y-73740000D02*
X119046000Y-73740000D01*
X104140000Y-73740000D02*
X108632000Y-73740000D01*
X93980000Y-73740000D02*
X98472000Y-73740000D01*
%TD*%
M02*
