%TF.GenerationSoftware,KiCad,Pcbnew,7.0.8*%
%TF.CreationDate,2024-03-05T19:06:49-05:00*%
%TF.ProjectId,UpdatedPCB2024,55706461-7465-4645-9043-42323032342e,rev?*%
%TF.SameCoordinates,Original*%
%TF.FileFunction,Soldermask,Bot*%
%TF.FilePolarity,Negative*%
%FSLAX46Y46*%
G04 Gerber Fmt 4.6, Leading zero omitted, Abs format (unit mm)*
G04 Created by KiCad (PCBNEW 7.0.8) date 2024-03-05 19:06:49*
%MOMM*%
%LPD*%
G01*
G04 APERTURE LIST*
G04 Aperture macros list*
%AMRoundRect*
0 Rectangle with rounded corners*
0 $1 Rounding radius*
0 $2 $3 $4 $5 $6 $7 $8 $9 X,Y pos of 4 corners*
0 Add a 4 corners polygon primitive as box body*
4,1,4,$2,$3,$4,$5,$6,$7,$8,$9,$2,$3,0*
0 Add four circle primitives for the rounded corners*
1,1,$1+$1,$2,$3*
1,1,$1+$1,$4,$5*
1,1,$1+$1,$6,$7*
1,1,$1+$1,$8,$9*
0 Add four rect primitives between the rounded corners*
20,1,$1+$1,$2,$3,$4,$5,0*
20,1,$1+$1,$4,$5,$6,$7,0*
20,1,$1+$1,$6,$7,$8,$9,0*
20,1,$1+$1,$8,$9,$2,$3,0*%
G04 Aperture macros list end*
%ADD10O,1.700000X1.950000*%
%ADD11RoundRect,0.250000X0.600000X0.725000X-0.600000X0.725000X-0.600000X-0.725000X0.600000X-0.725000X0*%
%ADD12RoundRect,0.250000X-0.725000X0.600000X-0.725000X-0.600000X0.725000X-0.600000X0.725000X0.600000X0*%
%ADD13O,1.950000X1.700000*%
%ADD14R,1.800000X1.800000*%
%ADD15C,1.800000*%
%ADD16C,3.000000*%
%ADD17R,3.000000X3.000000*%
%ADD18C,1.600000*%
%ADD19R,1.700000X1.700000*%
%ADD20O,1.700000X1.700000*%
%ADD21C,1.700000*%
G04 APERTURE END LIST*
D10*
%TO.C,J8*%
X147520000Y-132080000D03*
X150020000Y-132080000D03*
X152520000Y-132080000D03*
X155020000Y-132080000D03*
X157520000Y-132080000D03*
D11*
X160020000Y-132080000D03*
%TD*%
D12*
%TO.C,J2*%
X93980000Y-73740000D03*
D13*
X93980000Y-76240000D03*
X93980000Y-78740000D03*
X93980000Y-81240000D03*
X93980000Y-83740000D03*
%TD*%
D14*
%TO.C,D3*%
X104771000Y-129540000D03*
D15*
X107311000Y-129540000D03*
%TD*%
D12*
%TO.C,J1*%
X124460000Y-73740000D03*
D13*
X124460000Y-76240000D03*
X124460000Y-78740000D03*
X124460000Y-81240000D03*
X124460000Y-83740000D03*
%TD*%
D14*
%TO.C,D1*%
X89531000Y-129540000D03*
D15*
X92071000Y-129540000D03*
%TD*%
D16*
%TO.C,SW1*%
X99060000Y-114300000D03*
X99060000Y-119000000D03*
X99060000Y-123700000D03*
%TD*%
D17*
%TO.C,J10*%
X91440000Y-121540000D03*
D16*
X91440000Y-116460000D03*
%TD*%
D18*
%TO.C,U1*%
X124460000Y-99060000D03*
X157480000Y-111760000D03*
X157480000Y-104140000D03*
X157480000Y-101600000D03*
X127000000Y-99060000D03*
X157480000Y-106680000D03*
X124460000Y-114300000D03*
X127000000Y-101600000D03*
X149860000Y-101600000D03*
X152400000Y-101600000D03*
X149860000Y-104140000D03*
X152400000Y-104140000D03*
X149860000Y-106680000D03*
X152400000Y-106680000D03*
X149860000Y-109220000D03*
X152400000Y-109220000D03*
X149860000Y-111760000D03*
X152400000Y-111760000D03*
X132080000Y-99060000D03*
X134620000Y-99060000D03*
X137160000Y-99060000D03*
X139700000Y-99060000D03*
X142240000Y-99060000D03*
X144780000Y-99060000D03*
X147320000Y-99060000D03*
X149860000Y-99060000D03*
X152400000Y-99060000D03*
X154940000Y-99060000D03*
X157480000Y-99060000D03*
X157480000Y-114300000D03*
X154940000Y-114300000D03*
X152400000Y-114300000D03*
X149860000Y-114300000D03*
X147320000Y-114300000D03*
X144780000Y-114300000D03*
X142240000Y-114300000D03*
X139700000Y-114300000D03*
X137160000Y-114300000D03*
X129540000Y-99060000D03*
X157480000Y-109220000D03*
X134620000Y-114300000D03*
X132080000Y-114300000D03*
X129540000Y-114300000D03*
X127000000Y-114300000D03*
%TD*%
D12*
%TO.C,J7*%
X154940000Y-73740000D03*
D13*
X154940000Y-76240000D03*
X154940000Y-78740000D03*
X154940000Y-81240000D03*
X154940000Y-83740000D03*
%TD*%
D12*
%TO.C,J6*%
X144780000Y-73740000D03*
D13*
X144780000Y-76240000D03*
X144780000Y-78740000D03*
X144780000Y-81240000D03*
X144780000Y-83740000D03*
%TD*%
D12*
%TO.C,J3*%
X104140000Y-73740000D03*
D13*
X104140000Y-76240000D03*
X104140000Y-78740000D03*
X104140000Y-81240000D03*
X104140000Y-83740000D03*
%TD*%
D10*
%TO.C,J9*%
X147520000Y-124460000D03*
X150020000Y-124460000D03*
X152520000Y-124460000D03*
X155020000Y-124460000D03*
X157520000Y-124460000D03*
D11*
X160020000Y-124460000D03*
%TD*%
D14*
%TO.C,D2*%
X96520000Y-129540000D03*
D15*
X99060000Y-129540000D03*
%TD*%
D19*
%TO.C,U2*%
X123190000Y-121920000D03*
D20*
X125730000Y-121920000D03*
X128270000Y-121920000D03*
X130810000Y-121920000D03*
D21*
X133350000Y-121920000D03*
D20*
X135890000Y-121920000D03*
X138430000Y-121920000D03*
X140970000Y-121920000D03*
X140970000Y-132080000D03*
X138430000Y-132080000D03*
X135890000Y-132080000D03*
X133350000Y-132080000D03*
X130810000Y-132080000D03*
X128270000Y-132080000D03*
X125730000Y-132080000D03*
D19*
X123190000Y-132080000D03*
%TD*%
D14*
%TO.C,D4*%
X112663000Y-129540000D03*
D15*
X115203000Y-129540000D03*
%TD*%
D12*
%TO.C,J4*%
X114300000Y-73740000D03*
D13*
X114300000Y-76240000D03*
X114300000Y-78740000D03*
X114300000Y-81240000D03*
X114300000Y-83740000D03*
%TD*%
D12*
%TO.C,J5*%
X134620000Y-73740000D03*
D13*
X134620000Y-76240000D03*
X134620000Y-78740000D03*
X134620000Y-81240000D03*
X134620000Y-83740000D03*
%TD*%
M02*
