M48
; DRILL file {KiCad 7.0.8} date Tue Mar  5 19:04:57 2024
; FORMAT={-:-/ absolute / inch / decimal}
; #@! TF.CreationDate,2024-03-05T19:04:57-05:00
; #@! TF.GenerationSoftware,Kicad,Pcbnew,7.0.8
; #@! TF.FileFunction,Plated,1,2,PTH
FMAT,2
INCH
; #@! TA.AperFunction,Plated,PTH,ViaDrill
T1C0.0118
; #@! TA.AperFunction,Plated,PTH,ViaDrill
T2C0.0157
; #@! TA.AperFunction,Plated,PTH,ComponentDrill
T3C0.0354
; #@! TA.AperFunction,Plated,PTH,ComponentDrill
T4C0.0374
; #@! TA.AperFunction,Plated,PTH,ComponentDrill
T5C0.0402
; #@! TA.AperFunction,Plated,PTH,ComponentDrill
T6C0.0433
; #@! TA.AperFunction,Plated,PTH,ComponentDrill
T7C0.0598
; #@! TA.AperFunction,Plated,PTH,ComponentDrill
T8C0.0709
%
G90
G05
T1
X4.7Y-4.5
T2
X3.45Y-4.04
X3.46Y-3.25
X3.46Y-3.53
X3.47Y-4.93
X3.47Y-5.25
X3.5Y-4.42
X3.64Y-5.33
X3.88Y-2.9
X3.92Y-4.06
X3.97Y-5.33
X4.05Y-4.12
X4.27Y-5.34
X4.28Y-2.9
X4.28Y-4.57
X4.49Y-4.0
X4.69Y-2.9
X4.72Y-3.93
X4.72Y-5.33
X5.07Y-2.9
X5.49Y-2.9
X5.88Y-2.9
T3
X3.5248Y-5.1
X3.6248Y-5.1
X3.8Y-5.1
X3.9Y-5.1
X4.1248Y-5.1
X4.2248Y-5.1
X4.4356Y-5.1
X4.5356Y-5.1
T4
X3.7Y-2.9031
X3.7Y-3.0016
X3.7Y-3.1
X3.7Y-3.1984
X3.7Y-3.2969
X4.1Y-2.9031
X4.1Y-3.0016
X4.1Y-3.1
X4.1Y-3.1984
X4.1Y-3.2969
X4.5Y-2.9031
X4.5Y-3.0016
X4.5Y-3.1
X4.5Y-3.1984
X4.5Y-3.2969
X4.9Y-2.9031
X4.9Y-3.0016
X4.9Y-3.1
X4.9Y-3.1984
X4.9Y-3.2969
X5.3Y-2.9031
X5.3Y-3.0016
X5.3Y-3.1
X5.3Y-3.1984
X5.3Y-3.2969
X5.7Y-2.9031
X5.7Y-3.0016
X5.7Y-3.1
X5.7Y-3.1984
X5.7Y-3.2969
X5.8079Y-4.9
X5.8079Y-5.2
X5.9063Y-4.9
X5.9063Y-5.2
X6.0047Y-4.9
X6.0047Y-5.2
X6.1Y-2.9031
X6.1Y-3.0016
X6.1Y-3.1
X6.1Y-3.1984
X6.1Y-3.2969
X6.1031Y-4.9
X6.1031Y-5.2
X6.2016Y-4.9
X6.2016Y-5.2
X6.3Y-4.9
X6.3Y-5.2
T5
X4.85Y-4.8
X4.85Y-5.2
X4.95Y-4.8
X4.95Y-5.2
X5.05Y-4.8
X5.05Y-5.2
X5.15Y-4.8
X5.15Y-5.2
X5.25Y-4.8
X5.25Y-5.2
X5.35Y-4.8
X5.35Y-5.2
X5.45Y-4.8
X5.45Y-5.2
X5.55Y-4.8
X5.55Y-5.2
T6
X4.9Y-3.9
X4.9Y-4.5
X5.0Y-3.9
X5.0Y-4.0
X5.0Y-4.5
X5.1Y-3.9
X5.1Y-4.5
X5.2Y-3.9
X5.2Y-4.5
X5.3Y-3.9
X5.3Y-4.5
X5.4Y-3.9
X5.4Y-4.5
X5.5Y-3.9
X5.5Y-4.5
X5.6Y-3.9
X5.6Y-4.5
X5.7Y-3.9
X5.7Y-4.5
X5.8Y-3.9
X5.8Y-4.5
X5.9Y-3.9
X5.9Y-4.0
X5.9Y-4.1
X5.9Y-4.2
X5.9Y-4.3
X5.9Y-4.4
X5.9Y-4.5
X6.0Y-3.9
X6.0Y-4.0
X6.0Y-4.1
X6.0Y-4.2
X6.0Y-4.3
X6.0Y-4.4
X6.0Y-4.5
X6.1Y-3.9
X6.1Y-4.5
X6.2Y-3.9
X6.2Y-4.0
X6.2Y-4.1
X6.2Y-4.2
X6.2Y-4.3
X6.2Y-4.4
X6.2Y-4.5
T7
X3.6Y-4.585
X3.6Y-4.785
T8
X3.9Y-4.5
X3.9Y-4.685
X3.9Y-4.8701
T0
M30
