%TF.GenerationSoftware,KiCad,Pcbnew,7.0.8*%
%TF.CreationDate,2024-03-05T19:06:49-05:00*%
%TF.ProjectId,UpdatedPCB2024,55706461-7465-4645-9043-42323032342e,rev?*%
%TF.SameCoordinates,Original*%
%TF.FileFunction,Legend,Top*%
%TF.FilePolarity,Positive*%
%FSLAX46Y46*%
G04 Gerber Fmt 4.6, Leading zero omitted, Abs format (unit mm)*
G04 Created by KiCad (PCBNEW 7.0.8) date 2024-03-05 19:06:49*
%MOMM*%
%LPD*%
G01*
G04 APERTURE LIST*
%ADD10C,0.150000*%
%ADD11C,0.100000*%
%ADD12C,0.120000*%
%ADD13C,0.152400*%
G04 APERTURE END LIST*
D10*
X153436666Y-135084819D02*
X153436666Y-135799104D01*
X153436666Y-135799104D02*
X153389047Y-135941961D01*
X153389047Y-135941961D02*
X153293809Y-136037200D01*
X153293809Y-136037200D02*
X153150952Y-136084819D01*
X153150952Y-136084819D02*
X153055714Y-136084819D01*
X154055714Y-135513390D02*
X153960476Y-135465771D01*
X153960476Y-135465771D02*
X153912857Y-135418152D01*
X153912857Y-135418152D02*
X153865238Y-135322914D01*
X153865238Y-135322914D02*
X153865238Y-135275295D01*
X153865238Y-135275295D02*
X153912857Y-135180057D01*
X153912857Y-135180057D02*
X153960476Y-135132438D01*
X153960476Y-135132438D02*
X154055714Y-135084819D01*
X154055714Y-135084819D02*
X154246190Y-135084819D01*
X154246190Y-135084819D02*
X154341428Y-135132438D01*
X154341428Y-135132438D02*
X154389047Y-135180057D01*
X154389047Y-135180057D02*
X154436666Y-135275295D01*
X154436666Y-135275295D02*
X154436666Y-135322914D01*
X154436666Y-135322914D02*
X154389047Y-135418152D01*
X154389047Y-135418152D02*
X154341428Y-135465771D01*
X154341428Y-135465771D02*
X154246190Y-135513390D01*
X154246190Y-135513390D02*
X154055714Y-135513390D01*
X154055714Y-135513390D02*
X153960476Y-135561009D01*
X153960476Y-135561009D02*
X153912857Y-135608628D01*
X153912857Y-135608628D02*
X153865238Y-135703866D01*
X153865238Y-135703866D02*
X153865238Y-135894342D01*
X153865238Y-135894342D02*
X153912857Y-135989580D01*
X153912857Y-135989580D02*
X153960476Y-136037200D01*
X153960476Y-136037200D02*
X154055714Y-136084819D01*
X154055714Y-136084819D02*
X154246190Y-136084819D01*
X154246190Y-136084819D02*
X154341428Y-136037200D01*
X154341428Y-136037200D02*
X154389047Y-135989580D01*
X154389047Y-135989580D02*
X154436666Y-135894342D01*
X154436666Y-135894342D02*
X154436666Y-135703866D01*
X154436666Y-135703866D02*
X154389047Y-135608628D01*
X154389047Y-135608628D02*
X154341428Y-135561009D01*
X154341428Y-135561009D02*
X154246190Y-135513390D01*
X96984819Y-79073333D02*
X97699104Y-79073333D01*
X97699104Y-79073333D02*
X97841961Y-79120952D01*
X97841961Y-79120952D02*
X97937200Y-79216190D01*
X97937200Y-79216190D02*
X97984819Y-79359047D01*
X97984819Y-79359047D02*
X97984819Y-79454285D01*
X97080057Y-78644761D02*
X97032438Y-78597142D01*
X97032438Y-78597142D02*
X96984819Y-78501904D01*
X96984819Y-78501904D02*
X96984819Y-78263809D01*
X96984819Y-78263809D02*
X97032438Y-78168571D01*
X97032438Y-78168571D02*
X97080057Y-78120952D01*
X97080057Y-78120952D02*
X97175295Y-78073333D01*
X97175295Y-78073333D02*
X97270533Y-78073333D01*
X97270533Y-78073333D02*
X97413390Y-78120952D01*
X97413390Y-78120952D02*
X97984819Y-78692380D01*
X97984819Y-78692380D02*
X97984819Y-78073333D01*
X105302905Y-126034819D02*
X105302905Y-125034819D01*
X105302905Y-125034819D02*
X105541000Y-125034819D01*
X105541000Y-125034819D02*
X105683857Y-125082438D01*
X105683857Y-125082438D02*
X105779095Y-125177676D01*
X105779095Y-125177676D02*
X105826714Y-125272914D01*
X105826714Y-125272914D02*
X105874333Y-125463390D01*
X105874333Y-125463390D02*
X105874333Y-125606247D01*
X105874333Y-125606247D02*
X105826714Y-125796723D01*
X105826714Y-125796723D02*
X105779095Y-125891961D01*
X105779095Y-125891961D02*
X105683857Y-125987200D01*
X105683857Y-125987200D02*
X105541000Y-126034819D01*
X105541000Y-126034819D02*
X105302905Y-126034819D01*
X106207667Y-125034819D02*
X106826714Y-125034819D01*
X106826714Y-125034819D02*
X106493381Y-125415771D01*
X106493381Y-125415771D02*
X106636238Y-125415771D01*
X106636238Y-125415771D02*
X106731476Y-125463390D01*
X106731476Y-125463390D02*
X106779095Y-125511009D01*
X106779095Y-125511009D02*
X106826714Y-125606247D01*
X106826714Y-125606247D02*
X106826714Y-125844342D01*
X106826714Y-125844342D02*
X106779095Y-125939580D01*
X106779095Y-125939580D02*
X106731476Y-125987200D01*
X106731476Y-125987200D02*
X106636238Y-126034819D01*
X106636238Y-126034819D02*
X106350524Y-126034819D01*
X106350524Y-126034819D02*
X106255286Y-125987200D01*
X106255286Y-125987200D02*
X106207667Y-125939580D01*
X116265057Y-103855238D02*
X116217438Y-103950476D01*
X116217438Y-103950476D02*
X116122200Y-104045714D01*
X116122200Y-104045714D02*
X115979342Y-104188571D01*
X115979342Y-104188571D02*
X115931723Y-104283809D01*
X115931723Y-104283809D02*
X115931723Y-104379047D01*
X116169819Y-104331428D02*
X116122200Y-104426666D01*
X116122200Y-104426666D02*
X116026961Y-104521904D01*
X116026961Y-104521904D02*
X115836485Y-104569523D01*
X115836485Y-104569523D02*
X115503152Y-104569523D01*
X115503152Y-104569523D02*
X115312676Y-104521904D01*
X115312676Y-104521904D02*
X115217438Y-104426666D01*
X115217438Y-104426666D02*
X115169819Y-104331428D01*
X115169819Y-104331428D02*
X115169819Y-104140952D01*
X115169819Y-104140952D02*
X115217438Y-104045714D01*
X115217438Y-104045714D02*
X115312676Y-103950476D01*
X115312676Y-103950476D02*
X115503152Y-103902857D01*
X115503152Y-103902857D02*
X115836485Y-103902857D01*
X115836485Y-103902857D02*
X116026961Y-103950476D01*
X116026961Y-103950476D02*
X116122200Y-104045714D01*
X116122200Y-104045714D02*
X116169819Y-104140952D01*
X116169819Y-104140952D02*
X116169819Y-104331428D01*
X115265057Y-103521904D02*
X115217438Y-103474285D01*
X115217438Y-103474285D02*
X115169819Y-103379047D01*
X115169819Y-103379047D02*
X115169819Y-103140952D01*
X115169819Y-103140952D02*
X115217438Y-103045714D01*
X115217438Y-103045714D02*
X115265057Y-102998095D01*
X115265057Y-102998095D02*
X115360295Y-102950476D01*
X115360295Y-102950476D02*
X115455533Y-102950476D01*
X115455533Y-102950476D02*
X115598390Y-102998095D01*
X115598390Y-102998095D02*
X116169819Y-103569523D01*
X116169819Y-103569523D02*
X116169819Y-102950476D01*
X101959580Y-106466666D02*
X102007200Y-106514285D01*
X102007200Y-106514285D02*
X102054819Y-106657142D01*
X102054819Y-106657142D02*
X102054819Y-106752380D01*
X102054819Y-106752380D02*
X102007200Y-106895237D01*
X102007200Y-106895237D02*
X101911961Y-106990475D01*
X101911961Y-106990475D02*
X101816723Y-107038094D01*
X101816723Y-107038094D02*
X101626247Y-107085713D01*
X101626247Y-107085713D02*
X101483390Y-107085713D01*
X101483390Y-107085713D02*
X101292914Y-107038094D01*
X101292914Y-107038094D02*
X101197676Y-106990475D01*
X101197676Y-106990475D02*
X101102438Y-106895237D01*
X101102438Y-106895237D02*
X101054819Y-106752380D01*
X101054819Y-106752380D02*
X101054819Y-106657142D01*
X101054819Y-106657142D02*
X101102438Y-106514285D01*
X101102438Y-106514285D02*
X101150057Y-106466666D01*
X101150057Y-106085713D02*
X101102438Y-106038094D01*
X101102438Y-106038094D02*
X101054819Y-105942856D01*
X101054819Y-105942856D02*
X101054819Y-105704761D01*
X101054819Y-105704761D02*
X101102438Y-105609523D01*
X101102438Y-105609523D02*
X101150057Y-105561904D01*
X101150057Y-105561904D02*
X101245295Y-105514285D01*
X101245295Y-105514285D02*
X101340533Y-105514285D01*
X101340533Y-105514285D02*
X101483390Y-105561904D01*
X101483390Y-105561904D02*
X102054819Y-106133332D01*
X102054819Y-106133332D02*
X102054819Y-105514285D01*
D11*
X109053333Y-113877419D02*
X108577143Y-113877419D01*
X108577143Y-113877419D02*
X108577143Y-112877419D01*
X109910476Y-113877419D02*
X109339048Y-113877419D01*
X109624762Y-113877419D02*
X109624762Y-112877419D01*
X109624762Y-112877419D02*
X109529524Y-113020276D01*
X109529524Y-113020276D02*
X109434286Y-113115514D01*
X109434286Y-113115514D02*
X109339048Y-113163133D01*
D10*
X93244966Y-85860419D02*
X93292585Y-85812800D01*
X93292585Y-85812800D02*
X93435442Y-85765180D01*
X93435442Y-85765180D02*
X93530680Y-85765180D01*
X93530680Y-85765180D02*
X93673537Y-85812800D01*
X93673537Y-85812800D02*
X93768775Y-85908038D01*
X93768775Y-85908038D02*
X93816394Y-86003276D01*
X93816394Y-86003276D02*
X93864013Y-86193752D01*
X93864013Y-86193752D02*
X93864013Y-86336609D01*
X93864013Y-86336609D02*
X93816394Y-86527085D01*
X93816394Y-86527085D02*
X93768775Y-86622323D01*
X93768775Y-86622323D02*
X93673537Y-86717561D01*
X93673537Y-86717561D02*
X93530680Y-86765180D01*
X93530680Y-86765180D02*
X93435442Y-86765180D01*
X93435442Y-86765180D02*
X93292585Y-86717561D01*
X93292585Y-86717561D02*
X93244966Y-86669942D01*
X92292585Y-85765180D02*
X92864013Y-85765180D01*
X92578299Y-85765180D02*
X92578299Y-86765180D01*
X92578299Y-86765180D02*
X92673537Y-86622323D01*
X92673537Y-86622323D02*
X92768775Y-86527085D01*
X92768775Y-86527085D02*
X92864013Y-86479466D01*
X127464819Y-79073333D02*
X128179104Y-79073333D01*
X128179104Y-79073333D02*
X128321961Y-79120952D01*
X128321961Y-79120952D02*
X128417200Y-79216190D01*
X128417200Y-79216190D02*
X128464819Y-79359047D01*
X128464819Y-79359047D02*
X128464819Y-79454285D01*
X128464819Y-78073333D02*
X128464819Y-78644761D01*
X128464819Y-78359047D02*
X127464819Y-78359047D01*
X127464819Y-78359047D02*
X127607676Y-78454285D01*
X127607676Y-78454285D02*
X127702914Y-78549523D01*
X127702914Y-78549523D02*
X127750533Y-78644761D01*
X96984333Y-133644819D02*
X96651000Y-133168628D01*
X96412905Y-133644819D02*
X96412905Y-132644819D01*
X96412905Y-132644819D02*
X96793857Y-132644819D01*
X96793857Y-132644819D02*
X96889095Y-132692438D01*
X96889095Y-132692438D02*
X96936714Y-132740057D01*
X96936714Y-132740057D02*
X96984333Y-132835295D01*
X96984333Y-132835295D02*
X96984333Y-132978152D01*
X96984333Y-132978152D02*
X96936714Y-133073390D01*
X96936714Y-133073390D02*
X96889095Y-133121009D01*
X96889095Y-133121009D02*
X96793857Y-133168628D01*
X96793857Y-133168628D02*
X96412905Y-133168628D01*
X97365286Y-132740057D02*
X97412905Y-132692438D01*
X97412905Y-132692438D02*
X97508143Y-132644819D01*
X97508143Y-132644819D02*
X97746238Y-132644819D01*
X97746238Y-132644819D02*
X97841476Y-132692438D01*
X97841476Y-132692438D02*
X97889095Y-132740057D01*
X97889095Y-132740057D02*
X97936714Y-132835295D01*
X97936714Y-132835295D02*
X97936714Y-132930533D01*
X97936714Y-132930533D02*
X97889095Y-133073390D01*
X97889095Y-133073390D02*
X97317667Y-133644819D01*
X97317667Y-133644819D02*
X97936714Y-133644819D01*
X90062905Y-126034819D02*
X90062905Y-125034819D01*
X90062905Y-125034819D02*
X90301000Y-125034819D01*
X90301000Y-125034819D02*
X90443857Y-125082438D01*
X90443857Y-125082438D02*
X90539095Y-125177676D01*
X90539095Y-125177676D02*
X90586714Y-125272914D01*
X90586714Y-125272914D02*
X90634333Y-125463390D01*
X90634333Y-125463390D02*
X90634333Y-125606247D01*
X90634333Y-125606247D02*
X90586714Y-125796723D01*
X90586714Y-125796723D02*
X90539095Y-125891961D01*
X90539095Y-125891961D02*
X90443857Y-125987200D01*
X90443857Y-125987200D02*
X90301000Y-126034819D01*
X90301000Y-126034819D02*
X90062905Y-126034819D01*
X91586714Y-126034819D02*
X91015286Y-126034819D01*
X91301000Y-126034819D02*
X91301000Y-125034819D01*
X91301000Y-125034819D02*
X91205762Y-125177676D01*
X91205762Y-125177676D02*
X91110524Y-125272914D01*
X91110524Y-125272914D02*
X91015286Y-125320533D01*
X97726667Y-111787200D02*
X97869524Y-111834819D01*
X97869524Y-111834819D02*
X98107619Y-111834819D01*
X98107619Y-111834819D02*
X98202857Y-111787200D01*
X98202857Y-111787200D02*
X98250476Y-111739580D01*
X98250476Y-111739580D02*
X98298095Y-111644342D01*
X98298095Y-111644342D02*
X98298095Y-111549104D01*
X98298095Y-111549104D02*
X98250476Y-111453866D01*
X98250476Y-111453866D02*
X98202857Y-111406247D01*
X98202857Y-111406247D02*
X98107619Y-111358628D01*
X98107619Y-111358628D02*
X97917143Y-111311009D01*
X97917143Y-111311009D02*
X97821905Y-111263390D01*
X97821905Y-111263390D02*
X97774286Y-111215771D01*
X97774286Y-111215771D02*
X97726667Y-111120533D01*
X97726667Y-111120533D02*
X97726667Y-111025295D01*
X97726667Y-111025295D02*
X97774286Y-110930057D01*
X97774286Y-110930057D02*
X97821905Y-110882438D01*
X97821905Y-110882438D02*
X97917143Y-110834819D01*
X97917143Y-110834819D02*
X98155238Y-110834819D01*
X98155238Y-110834819D02*
X98298095Y-110882438D01*
X98631429Y-110834819D02*
X98869524Y-111834819D01*
X98869524Y-111834819D02*
X99060000Y-111120533D01*
X99060000Y-111120533D02*
X99250476Y-111834819D01*
X99250476Y-111834819D02*
X99488572Y-110834819D01*
X100393333Y-111834819D02*
X99821905Y-111834819D01*
X100107619Y-111834819D02*
X100107619Y-110834819D01*
X100107619Y-110834819D02*
X100012381Y-110977676D01*
X100012381Y-110977676D02*
X99917143Y-111072914D01*
X99917143Y-111072914D02*
X99821905Y-111120533D01*
X92433333Y-111959580D02*
X92385714Y-112007200D01*
X92385714Y-112007200D02*
X92242857Y-112054819D01*
X92242857Y-112054819D02*
X92147619Y-112054819D01*
X92147619Y-112054819D02*
X92004762Y-112007200D01*
X92004762Y-112007200D02*
X91909524Y-111911961D01*
X91909524Y-111911961D02*
X91861905Y-111816723D01*
X91861905Y-111816723D02*
X91814286Y-111626247D01*
X91814286Y-111626247D02*
X91814286Y-111483390D01*
X91814286Y-111483390D02*
X91861905Y-111292914D01*
X91861905Y-111292914D02*
X91909524Y-111197676D01*
X91909524Y-111197676D02*
X92004762Y-111102438D01*
X92004762Y-111102438D02*
X92147619Y-111054819D01*
X92147619Y-111054819D02*
X92242857Y-111054819D01*
X92242857Y-111054819D02*
X92385714Y-111102438D01*
X92385714Y-111102438D02*
X92433333Y-111150057D01*
X93338095Y-111054819D02*
X92861905Y-111054819D01*
X92861905Y-111054819D02*
X92814286Y-111531009D01*
X92814286Y-111531009D02*
X92861905Y-111483390D01*
X92861905Y-111483390D02*
X92957143Y-111435771D01*
X92957143Y-111435771D02*
X93195238Y-111435771D01*
X93195238Y-111435771D02*
X93290476Y-111483390D01*
X93290476Y-111483390D02*
X93338095Y-111531009D01*
X93338095Y-111531009D02*
X93385714Y-111626247D01*
X93385714Y-111626247D02*
X93385714Y-111864342D01*
X93385714Y-111864342D02*
X93338095Y-111959580D01*
X93338095Y-111959580D02*
X93290476Y-112007200D01*
X93290476Y-112007200D02*
X93195238Y-112054819D01*
X93195238Y-112054819D02*
X92957143Y-112054819D01*
X92957143Y-112054819D02*
X92861905Y-112007200D01*
X92861905Y-112007200D02*
X92814286Y-111959580D01*
X101766666Y-100860419D02*
X101814285Y-100812800D01*
X101814285Y-100812800D02*
X101957142Y-100765180D01*
X101957142Y-100765180D02*
X102052380Y-100765180D01*
X102052380Y-100765180D02*
X102195237Y-100812800D01*
X102195237Y-100812800D02*
X102290475Y-100908038D01*
X102290475Y-100908038D02*
X102338094Y-101003276D01*
X102338094Y-101003276D02*
X102385713Y-101193752D01*
X102385713Y-101193752D02*
X102385713Y-101336609D01*
X102385713Y-101336609D02*
X102338094Y-101527085D01*
X102338094Y-101527085D02*
X102290475Y-101622323D01*
X102290475Y-101622323D02*
X102195237Y-101717561D01*
X102195237Y-101717561D02*
X102052380Y-101765180D01*
X102052380Y-101765180D02*
X101957142Y-101765180D01*
X101957142Y-101765180D02*
X101814285Y-101717561D01*
X101814285Y-101717561D02*
X101766666Y-101669942D01*
X100909523Y-101431847D02*
X100909523Y-100765180D01*
X101147618Y-101812800D02*
X101385713Y-101098514D01*
X101385713Y-101098514D02*
X100766666Y-101098514D01*
X89364333Y-133644819D02*
X89031000Y-133168628D01*
X88792905Y-133644819D02*
X88792905Y-132644819D01*
X88792905Y-132644819D02*
X89173857Y-132644819D01*
X89173857Y-132644819D02*
X89269095Y-132692438D01*
X89269095Y-132692438D02*
X89316714Y-132740057D01*
X89316714Y-132740057D02*
X89364333Y-132835295D01*
X89364333Y-132835295D02*
X89364333Y-132978152D01*
X89364333Y-132978152D02*
X89316714Y-133073390D01*
X89316714Y-133073390D02*
X89269095Y-133121009D01*
X89269095Y-133121009D02*
X89173857Y-133168628D01*
X89173857Y-133168628D02*
X88792905Y-133168628D01*
X90316714Y-133644819D02*
X89745286Y-133644819D01*
X90031000Y-133644819D02*
X90031000Y-132644819D01*
X90031000Y-132644819D02*
X89935762Y-132787676D01*
X89935762Y-132787676D02*
X89840524Y-132882914D01*
X89840524Y-132882914D02*
X89745286Y-132930533D01*
X115619761Y-109390057D02*
X115524523Y-109342438D01*
X115524523Y-109342438D02*
X115429285Y-109247200D01*
X115429285Y-109247200D02*
X115286428Y-109104342D01*
X115286428Y-109104342D02*
X115191190Y-109056723D01*
X115191190Y-109056723D02*
X115095952Y-109056723D01*
X115143571Y-109294819D02*
X115048333Y-109247200D01*
X115048333Y-109247200D02*
X114953095Y-109151961D01*
X114953095Y-109151961D02*
X114905476Y-108961485D01*
X114905476Y-108961485D02*
X114905476Y-108628152D01*
X114905476Y-108628152D02*
X114953095Y-108437676D01*
X114953095Y-108437676D02*
X115048333Y-108342438D01*
X115048333Y-108342438D02*
X115143571Y-108294819D01*
X115143571Y-108294819D02*
X115334047Y-108294819D01*
X115334047Y-108294819D02*
X115429285Y-108342438D01*
X115429285Y-108342438D02*
X115524523Y-108437676D01*
X115524523Y-108437676D02*
X115572142Y-108628152D01*
X115572142Y-108628152D02*
X115572142Y-108961485D01*
X115572142Y-108961485D02*
X115524523Y-109151961D01*
X115524523Y-109151961D02*
X115429285Y-109247200D01*
X115429285Y-109247200D02*
X115334047Y-109294819D01*
X115334047Y-109294819D02*
X115143571Y-109294819D01*
X116524523Y-109294819D02*
X115953095Y-109294819D01*
X116238809Y-109294819D02*
X116238809Y-108294819D01*
X116238809Y-108294819D02*
X116143571Y-108437676D01*
X116143571Y-108437676D02*
X116048333Y-108532914D01*
X116048333Y-108532914D02*
X115953095Y-108580533D01*
X85814819Y-119809523D02*
X86529104Y-119809523D01*
X86529104Y-119809523D02*
X86671961Y-119857142D01*
X86671961Y-119857142D02*
X86767200Y-119952380D01*
X86767200Y-119952380D02*
X86814819Y-120095237D01*
X86814819Y-120095237D02*
X86814819Y-120190475D01*
X86814819Y-118809523D02*
X86814819Y-119380951D01*
X86814819Y-119095237D02*
X85814819Y-119095237D01*
X85814819Y-119095237D02*
X85957676Y-119190475D01*
X85957676Y-119190475D02*
X86052914Y-119285713D01*
X86052914Y-119285713D02*
X86100533Y-119380951D01*
X85814819Y-118190475D02*
X85814819Y-118095237D01*
X85814819Y-118095237D02*
X85862438Y-117999999D01*
X85862438Y-117999999D02*
X85910057Y-117952380D01*
X85910057Y-117952380D02*
X86005295Y-117904761D01*
X86005295Y-117904761D02*
X86195771Y-117857142D01*
X86195771Y-117857142D02*
X86433866Y-117857142D01*
X86433866Y-117857142D02*
X86624342Y-117904761D01*
X86624342Y-117904761D02*
X86719580Y-117952380D01*
X86719580Y-117952380D02*
X86767200Y-117999999D01*
X86767200Y-117999999D02*
X86814819Y-118095237D01*
X86814819Y-118095237D02*
X86814819Y-118190475D01*
X86814819Y-118190475D02*
X86767200Y-118285713D01*
X86767200Y-118285713D02*
X86719580Y-118333332D01*
X86719580Y-118333332D02*
X86624342Y-118380951D01*
X86624342Y-118380951D02*
X86433866Y-118428570D01*
X86433866Y-118428570D02*
X86195771Y-118428570D01*
X86195771Y-118428570D02*
X86005295Y-118380951D01*
X86005295Y-118380951D02*
X85910057Y-118333332D01*
X85910057Y-118333332D02*
X85862438Y-118285713D01*
X85862438Y-118285713D02*
X85814819Y-118190475D01*
X140208095Y-86054819D02*
X140208095Y-86864342D01*
X140208095Y-86864342D02*
X140255714Y-86959580D01*
X140255714Y-86959580D02*
X140303333Y-87007200D01*
X140303333Y-87007200D02*
X140398571Y-87054819D01*
X140398571Y-87054819D02*
X140589047Y-87054819D01*
X140589047Y-87054819D02*
X140684285Y-87007200D01*
X140684285Y-87007200D02*
X140731904Y-86959580D01*
X140731904Y-86959580D02*
X140779523Y-86864342D01*
X140779523Y-86864342D02*
X140779523Y-86054819D01*
X141779523Y-87054819D02*
X141208095Y-87054819D01*
X141493809Y-87054819D02*
X141493809Y-86054819D01*
X141493809Y-86054819D02*
X141398571Y-86197676D01*
X141398571Y-86197676D02*
X141303333Y-86292914D01*
X141303333Y-86292914D02*
X141208095Y-86340533D01*
X143064033Y-108080000D02*
X142364033Y-108080000D01*
X142364033Y-108080000D02*
X142364033Y-107913333D01*
X142364033Y-107913333D02*
X142397366Y-107813333D01*
X142397366Y-107813333D02*
X142464033Y-107746667D01*
X142464033Y-107746667D02*
X142530700Y-107713333D01*
X142530700Y-107713333D02*
X142664033Y-107680000D01*
X142664033Y-107680000D02*
X142764033Y-107680000D01*
X142764033Y-107680000D02*
X142897366Y-107713333D01*
X142897366Y-107713333D02*
X142964033Y-107746667D01*
X142964033Y-107746667D02*
X143030700Y-107813333D01*
X143030700Y-107813333D02*
X143064033Y-107913333D01*
X143064033Y-107913333D02*
X143064033Y-108080000D01*
X142364033Y-107480000D02*
X143064033Y-107246667D01*
X143064033Y-107246667D02*
X142364033Y-107013333D01*
X143064033Y-106446667D02*
X143064033Y-106780000D01*
X143064033Y-106780000D02*
X142364033Y-106780000D01*
X142364033Y-105913333D02*
X142364033Y-106046666D01*
X142364033Y-106046666D02*
X142397366Y-106113333D01*
X142397366Y-106113333D02*
X142430700Y-106146666D01*
X142430700Y-106146666D02*
X142530700Y-106213333D01*
X142530700Y-106213333D02*
X142664033Y-106246666D01*
X142664033Y-106246666D02*
X142930700Y-106246666D01*
X142930700Y-106246666D02*
X142997366Y-106213333D01*
X142997366Y-106213333D02*
X143030700Y-106180000D01*
X143030700Y-106180000D02*
X143064033Y-106113333D01*
X143064033Y-106113333D02*
X143064033Y-105980000D01*
X143064033Y-105980000D02*
X143030700Y-105913333D01*
X143030700Y-105913333D02*
X142997366Y-105880000D01*
X142997366Y-105880000D02*
X142930700Y-105846666D01*
X142930700Y-105846666D02*
X142764033Y-105846666D01*
X142764033Y-105846666D02*
X142697366Y-105880000D01*
X142697366Y-105880000D02*
X142664033Y-105913333D01*
X142664033Y-105913333D02*
X142630700Y-105980000D01*
X142630700Y-105980000D02*
X142630700Y-106113333D01*
X142630700Y-106113333D02*
X142664033Y-106180000D01*
X142664033Y-106180000D02*
X142697366Y-106213333D01*
X142697366Y-106213333D02*
X142764033Y-106246666D01*
X142864033Y-105579999D02*
X142864033Y-105246666D01*
X143064033Y-105646666D02*
X142364033Y-105413333D01*
X142364033Y-105413333D02*
X143064033Y-105179999D01*
X141540033Y-109763333D02*
X140840033Y-109763333D01*
X140840033Y-109763333D02*
X141340033Y-109530000D01*
X141340033Y-109530000D02*
X140840033Y-109296666D01*
X140840033Y-109296666D02*
X141540033Y-109296666D01*
X141540033Y-108963333D02*
X140840033Y-108963333D01*
X141540033Y-108630000D02*
X140840033Y-108630000D01*
X140840033Y-108630000D02*
X141340033Y-108396667D01*
X141340033Y-108396667D02*
X140840033Y-108163333D01*
X140840033Y-108163333D02*
X141540033Y-108163333D01*
X140840033Y-107896667D02*
X141540033Y-107430000D01*
X140840033Y-107430000D02*
X141540033Y-107896667D01*
X141540033Y-106763333D02*
X141206700Y-106996666D01*
X141540033Y-107163333D02*
X140840033Y-107163333D01*
X140840033Y-107163333D02*
X140840033Y-106896666D01*
X140840033Y-106896666D02*
X140873366Y-106830000D01*
X140873366Y-106830000D02*
X140906700Y-106796666D01*
X140906700Y-106796666D02*
X140973366Y-106763333D01*
X140973366Y-106763333D02*
X141073366Y-106763333D01*
X141073366Y-106763333D02*
X141140033Y-106796666D01*
X141140033Y-106796666D02*
X141173366Y-106830000D01*
X141173366Y-106830000D02*
X141206700Y-106896666D01*
X141206700Y-106896666D02*
X141206700Y-107163333D01*
X140840033Y-106563333D02*
X140840033Y-106163333D01*
X141540033Y-106363333D02*
X140840033Y-106363333D01*
X141540033Y-105563333D02*
X141540033Y-105963333D01*
X141540033Y-105763333D02*
X140840033Y-105763333D01*
X140840033Y-105763333D02*
X140940033Y-105830000D01*
X140940033Y-105830000D02*
X141006700Y-105896667D01*
X141006700Y-105896667D02*
X141040033Y-105963333D01*
X140840033Y-105130000D02*
X140840033Y-105063333D01*
X140840033Y-105063333D02*
X140873366Y-104996666D01*
X140873366Y-104996666D02*
X140906700Y-104963333D01*
X140906700Y-104963333D02*
X140973366Y-104930000D01*
X140973366Y-104930000D02*
X141106700Y-104896666D01*
X141106700Y-104896666D02*
X141273366Y-104896666D01*
X141273366Y-104896666D02*
X141406700Y-104930000D01*
X141406700Y-104930000D02*
X141473366Y-104963333D01*
X141473366Y-104963333D02*
X141506700Y-104996666D01*
X141506700Y-104996666D02*
X141540033Y-105063333D01*
X141540033Y-105063333D02*
X141540033Y-105130000D01*
X141540033Y-105130000D02*
X141506700Y-105196666D01*
X141506700Y-105196666D02*
X141473366Y-105230000D01*
X141473366Y-105230000D02*
X141406700Y-105263333D01*
X141406700Y-105263333D02*
X141273366Y-105296666D01*
X141273366Y-105296666D02*
X141106700Y-105296666D01*
X141106700Y-105296666D02*
X140973366Y-105263333D01*
X140973366Y-105263333D02*
X140906700Y-105230000D01*
X140906700Y-105230000D02*
X140873366Y-105196666D01*
X140873366Y-105196666D02*
X140840033Y-105130000D01*
X140840033Y-104296666D02*
X140840033Y-104429999D01*
X140840033Y-104429999D02*
X140873366Y-104496666D01*
X140873366Y-104496666D02*
X140906700Y-104529999D01*
X140906700Y-104529999D02*
X141006700Y-104596666D01*
X141006700Y-104596666D02*
X141140033Y-104629999D01*
X141140033Y-104629999D02*
X141406700Y-104629999D01*
X141406700Y-104629999D02*
X141473366Y-104596666D01*
X141473366Y-104596666D02*
X141506700Y-104563333D01*
X141506700Y-104563333D02*
X141540033Y-104496666D01*
X141540033Y-104496666D02*
X141540033Y-104363333D01*
X141540033Y-104363333D02*
X141506700Y-104296666D01*
X141506700Y-104296666D02*
X141473366Y-104263333D01*
X141473366Y-104263333D02*
X141406700Y-104229999D01*
X141406700Y-104229999D02*
X141240033Y-104229999D01*
X141240033Y-104229999D02*
X141173366Y-104263333D01*
X141173366Y-104263333D02*
X141140033Y-104296666D01*
X141140033Y-104296666D02*
X141106700Y-104363333D01*
X141106700Y-104363333D02*
X141106700Y-104496666D01*
X141106700Y-104496666D02*
X141140033Y-104563333D01*
X141140033Y-104563333D02*
X141173366Y-104596666D01*
X141173366Y-104596666D02*
X141240033Y-104629999D01*
X140906700Y-103963332D02*
X140873366Y-103929999D01*
X140873366Y-103929999D02*
X140840033Y-103863332D01*
X140840033Y-103863332D02*
X140840033Y-103696666D01*
X140840033Y-103696666D02*
X140873366Y-103629999D01*
X140873366Y-103629999D02*
X140906700Y-103596666D01*
X140906700Y-103596666D02*
X140973366Y-103563332D01*
X140973366Y-103563332D02*
X141040033Y-103563332D01*
X141040033Y-103563332D02*
X141140033Y-103596666D01*
X141140033Y-103596666D02*
X141540033Y-103996666D01*
X141540033Y-103996666D02*
X141540033Y-103563332D01*
X157944819Y-79073333D02*
X158659104Y-79073333D01*
X158659104Y-79073333D02*
X158801961Y-79120952D01*
X158801961Y-79120952D02*
X158897200Y-79216190D01*
X158897200Y-79216190D02*
X158944819Y-79359047D01*
X158944819Y-79359047D02*
X158944819Y-79454285D01*
X157944819Y-78692380D02*
X157944819Y-78025714D01*
X157944819Y-78025714D02*
X158944819Y-78454285D01*
X119020419Y-108673333D02*
X118972800Y-108625714D01*
X118972800Y-108625714D02*
X118925180Y-108482857D01*
X118925180Y-108482857D02*
X118925180Y-108387619D01*
X118925180Y-108387619D02*
X118972800Y-108244762D01*
X118972800Y-108244762D02*
X119068038Y-108149524D01*
X119068038Y-108149524D02*
X119163276Y-108101905D01*
X119163276Y-108101905D02*
X119353752Y-108054286D01*
X119353752Y-108054286D02*
X119496609Y-108054286D01*
X119496609Y-108054286D02*
X119687085Y-108101905D01*
X119687085Y-108101905D02*
X119782323Y-108149524D01*
X119782323Y-108149524D02*
X119877561Y-108244762D01*
X119877561Y-108244762D02*
X119925180Y-108387619D01*
X119925180Y-108387619D02*
X119925180Y-108482857D01*
X119925180Y-108482857D02*
X119877561Y-108625714D01*
X119877561Y-108625714D02*
X119829942Y-108673333D01*
X119925180Y-109006667D02*
X119925180Y-109625714D01*
X119925180Y-109625714D02*
X119544228Y-109292381D01*
X119544228Y-109292381D02*
X119544228Y-109435238D01*
X119544228Y-109435238D02*
X119496609Y-109530476D01*
X119496609Y-109530476D02*
X119448990Y-109578095D01*
X119448990Y-109578095D02*
X119353752Y-109625714D01*
X119353752Y-109625714D02*
X119115657Y-109625714D01*
X119115657Y-109625714D02*
X119020419Y-109578095D01*
X119020419Y-109578095D02*
X118972800Y-109530476D01*
X118972800Y-109530476D02*
X118925180Y-109435238D01*
X118925180Y-109435238D02*
X118925180Y-109149524D01*
X118925180Y-109149524D02*
X118972800Y-109054286D01*
X118972800Y-109054286D02*
X119020419Y-109006667D01*
X147784819Y-79073333D02*
X148499104Y-79073333D01*
X148499104Y-79073333D02*
X148641961Y-79120952D01*
X148641961Y-79120952D02*
X148737200Y-79216190D01*
X148737200Y-79216190D02*
X148784819Y-79359047D01*
X148784819Y-79359047D02*
X148784819Y-79454285D01*
X147784819Y-78168571D02*
X147784819Y-78359047D01*
X147784819Y-78359047D02*
X147832438Y-78454285D01*
X147832438Y-78454285D02*
X147880057Y-78501904D01*
X147880057Y-78501904D02*
X148022914Y-78597142D01*
X148022914Y-78597142D02*
X148213390Y-78644761D01*
X148213390Y-78644761D02*
X148594342Y-78644761D01*
X148594342Y-78644761D02*
X148689580Y-78597142D01*
X148689580Y-78597142D02*
X148737200Y-78549523D01*
X148737200Y-78549523D02*
X148784819Y-78454285D01*
X148784819Y-78454285D02*
X148784819Y-78263809D01*
X148784819Y-78263809D02*
X148737200Y-78168571D01*
X148737200Y-78168571D02*
X148689580Y-78120952D01*
X148689580Y-78120952D02*
X148594342Y-78073333D01*
X148594342Y-78073333D02*
X148356247Y-78073333D01*
X148356247Y-78073333D02*
X148261009Y-78120952D01*
X148261009Y-78120952D02*
X148213390Y-78168571D01*
X148213390Y-78168571D02*
X148165771Y-78263809D01*
X148165771Y-78263809D02*
X148165771Y-78454285D01*
X148165771Y-78454285D02*
X148213390Y-78549523D01*
X148213390Y-78549523D02*
X148261009Y-78597142D01*
X148261009Y-78597142D02*
X148356247Y-78644761D01*
X107144819Y-79073333D02*
X107859104Y-79073333D01*
X107859104Y-79073333D02*
X108001961Y-79120952D01*
X108001961Y-79120952D02*
X108097200Y-79216190D01*
X108097200Y-79216190D02*
X108144819Y-79359047D01*
X108144819Y-79359047D02*
X108144819Y-79454285D01*
X107144819Y-78692380D02*
X107144819Y-78073333D01*
X107144819Y-78073333D02*
X107525771Y-78406666D01*
X107525771Y-78406666D02*
X107525771Y-78263809D01*
X107525771Y-78263809D02*
X107573390Y-78168571D01*
X107573390Y-78168571D02*
X107621009Y-78120952D01*
X107621009Y-78120952D02*
X107716247Y-78073333D01*
X107716247Y-78073333D02*
X107954342Y-78073333D01*
X107954342Y-78073333D02*
X108049580Y-78120952D01*
X108049580Y-78120952D02*
X108097200Y-78168571D01*
X108097200Y-78168571D02*
X108144819Y-78263809D01*
X108144819Y-78263809D02*
X108144819Y-78549523D01*
X108144819Y-78549523D02*
X108097200Y-78644761D01*
X108097200Y-78644761D02*
X108049580Y-78692380D01*
X153436666Y-127464819D02*
X153436666Y-128179104D01*
X153436666Y-128179104D02*
X153389047Y-128321961D01*
X153389047Y-128321961D02*
X153293809Y-128417200D01*
X153293809Y-128417200D02*
X153150952Y-128464819D01*
X153150952Y-128464819D02*
X153055714Y-128464819D01*
X153960476Y-128464819D02*
X154150952Y-128464819D01*
X154150952Y-128464819D02*
X154246190Y-128417200D01*
X154246190Y-128417200D02*
X154293809Y-128369580D01*
X154293809Y-128369580D02*
X154389047Y-128226723D01*
X154389047Y-128226723D02*
X154436666Y-128036247D01*
X154436666Y-128036247D02*
X154436666Y-127655295D01*
X154436666Y-127655295D02*
X154389047Y-127560057D01*
X154389047Y-127560057D02*
X154341428Y-127512438D01*
X154341428Y-127512438D02*
X154246190Y-127464819D01*
X154246190Y-127464819D02*
X154055714Y-127464819D01*
X154055714Y-127464819D02*
X153960476Y-127512438D01*
X153960476Y-127512438D02*
X153912857Y-127560057D01*
X153912857Y-127560057D02*
X153865238Y-127655295D01*
X153865238Y-127655295D02*
X153865238Y-127893390D01*
X153865238Y-127893390D02*
X153912857Y-127988628D01*
X153912857Y-127988628D02*
X153960476Y-128036247D01*
X153960476Y-128036247D02*
X154055714Y-128083866D01*
X154055714Y-128083866D02*
X154246190Y-128083866D01*
X154246190Y-128083866D02*
X154341428Y-128036247D01*
X154341428Y-128036247D02*
X154389047Y-127988628D01*
X154389047Y-127988628D02*
X154436666Y-127893390D01*
X108156933Y-110087580D02*
X108109314Y-110135200D01*
X108109314Y-110135200D02*
X107966457Y-110182819D01*
X107966457Y-110182819D02*
X107871219Y-110182819D01*
X107871219Y-110182819D02*
X107728362Y-110135200D01*
X107728362Y-110135200D02*
X107633124Y-110039961D01*
X107633124Y-110039961D02*
X107585505Y-109944723D01*
X107585505Y-109944723D02*
X107537886Y-109754247D01*
X107537886Y-109754247D02*
X107537886Y-109611390D01*
X107537886Y-109611390D02*
X107585505Y-109420914D01*
X107585505Y-109420914D02*
X107633124Y-109325676D01*
X107633124Y-109325676D02*
X107728362Y-109230438D01*
X107728362Y-109230438D02*
X107871219Y-109182819D01*
X107871219Y-109182819D02*
X107966457Y-109182819D01*
X107966457Y-109182819D02*
X108109314Y-109230438D01*
X108109314Y-109230438D02*
X108156933Y-109278057D01*
X109014076Y-109182819D02*
X108823600Y-109182819D01*
X108823600Y-109182819D02*
X108728362Y-109230438D01*
X108728362Y-109230438D02*
X108680743Y-109278057D01*
X108680743Y-109278057D02*
X108585505Y-109420914D01*
X108585505Y-109420914D02*
X108537886Y-109611390D01*
X108537886Y-109611390D02*
X108537886Y-109992342D01*
X108537886Y-109992342D02*
X108585505Y-110087580D01*
X108585505Y-110087580D02*
X108633124Y-110135200D01*
X108633124Y-110135200D02*
X108728362Y-110182819D01*
X108728362Y-110182819D02*
X108918838Y-110182819D01*
X108918838Y-110182819D02*
X109014076Y-110135200D01*
X109014076Y-110135200D02*
X109061695Y-110087580D01*
X109061695Y-110087580D02*
X109109314Y-109992342D01*
X109109314Y-109992342D02*
X109109314Y-109754247D01*
X109109314Y-109754247D02*
X109061695Y-109659009D01*
X109061695Y-109659009D02*
X109014076Y-109611390D01*
X109014076Y-109611390D02*
X108918838Y-109563771D01*
X108918838Y-109563771D02*
X108728362Y-109563771D01*
X108728362Y-109563771D02*
X108633124Y-109611390D01*
X108633124Y-109611390D02*
X108585505Y-109659009D01*
X108585505Y-109659009D02*
X108537886Y-109754247D01*
X97051905Y-126034819D02*
X97051905Y-125034819D01*
X97051905Y-125034819D02*
X97290000Y-125034819D01*
X97290000Y-125034819D02*
X97432857Y-125082438D01*
X97432857Y-125082438D02*
X97528095Y-125177676D01*
X97528095Y-125177676D02*
X97575714Y-125272914D01*
X97575714Y-125272914D02*
X97623333Y-125463390D01*
X97623333Y-125463390D02*
X97623333Y-125606247D01*
X97623333Y-125606247D02*
X97575714Y-125796723D01*
X97575714Y-125796723D02*
X97528095Y-125891961D01*
X97528095Y-125891961D02*
X97432857Y-125987200D01*
X97432857Y-125987200D02*
X97290000Y-126034819D01*
X97290000Y-126034819D02*
X97051905Y-126034819D01*
X98004286Y-125130057D02*
X98051905Y-125082438D01*
X98051905Y-125082438D02*
X98147143Y-125034819D01*
X98147143Y-125034819D02*
X98385238Y-125034819D01*
X98385238Y-125034819D02*
X98480476Y-125082438D01*
X98480476Y-125082438D02*
X98528095Y-125130057D01*
X98528095Y-125130057D02*
X98575714Y-125225295D01*
X98575714Y-125225295D02*
X98575714Y-125320533D01*
X98575714Y-125320533D02*
X98528095Y-125463390D01*
X98528095Y-125463390D02*
X97956667Y-126034819D01*
X97956667Y-126034819D02*
X98575714Y-126034819D01*
X112224333Y-133644819D02*
X111891000Y-133168628D01*
X111652905Y-133644819D02*
X111652905Y-132644819D01*
X111652905Y-132644819D02*
X112033857Y-132644819D01*
X112033857Y-132644819D02*
X112129095Y-132692438D01*
X112129095Y-132692438D02*
X112176714Y-132740057D01*
X112176714Y-132740057D02*
X112224333Y-132835295D01*
X112224333Y-132835295D02*
X112224333Y-132978152D01*
X112224333Y-132978152D02*
X112176714Y-133073390D01*
X112176714Y-133073390D02*
X112129095Y-133121009D01*
X112129095Y-133121009D02*
X112033857Y-133168628D01*
X112033857Y-133168628D02*
X111652905Y-133168628D01*
X113081476Y-132978152D02*
X113081476Y-133644819D01*
X112843381Y-132597200D02*
X112605286Y-133311485D01*
X112605286Y-133311485D02*
X113224333Y-133311485D01*
X132841904Y-127545180D02*
X132841904Y-126735657D01*
X132841904Y-126735657D02*
X132794285Y-126640419D01*
X132794285Y-126640419D02*
X132746666Y-126592800D01*
X132746666Y-126592800D02*
X132651428Y-126545180D01*
X132651428Y-126545180D02*
X132460952Y-126545180D01*
X132460952Y-126545180D02*
X132365714Y-126592800D01*
X132365714Y-126592800D02*
X132318095Y-126640419D01*
X132318095Y-126640419D02*
X132270476Y-126735657D01*
X132270476Y-126735657D02*
X132270476Y-127545180D01*
X131841904Y-127449942D02*
X131794285Y-127497561D01*
X131794285Y-127497561D02*
X131699047Y-127545180D01*
X131699047Y-127545180D02*
X131460952Y-127545180D01*
X131460952Y-127545180D02*
X131365714Y-127497561D01*
X131365714Y-127497561D02*
X131318095Y-127449942D01*
X131318095Y-127449942D02*
X131270476Y-127354704D01*
X131270476Y-127354704D02*
X131270476Y-127259466D01*
X131270476Y-127259466D02*
X131318095Y-127116609D01*
X131318095Y-127116609D02*
X131889523Y-126545180D01*
X131889523Y-126545180D02*
X131270476Y-126545180D01*
X104604333Y-133644819D02*
X104271000Y-133168628D01*
X104032905Y-133644819D02*
X104032905Y-132644819D01*
X104032905Y-132644819D02*
X104413857Y-132644819D01*
X104413857Y-132644819D02*
X104509095Y-132692438D01*
X104509095Y-132692438D02*
X104556714Y-132740057D01*
X104556714Y-132740057D02*
X104604333Y-132835295D01*
X104604333Y-132835295D02*
X104604333Y-132978152D01*
X104604333Y-132978152D02*
X104556714Y-133073390D01*
X104556714Y-133073390D02*
X104509095Y-133121009D01*
X104509095Y-133121009D02*
X104413857Y-133168628D01*
X104413857Y-133168628D02*
X104032905Y-133168628D01*
X104937667Y-132644819D02*
X105556714Y-132644819D01*
X105556714Y-132644819D02*
X105223381Y-133025771D01*
X105223381Y-133025771D02*
X105366238Y-133025771D01*
X105366238Y-133025771D02*
X105461476Y-133073390D01*
X105461476Y-133073390D02*
X105509095Y-133121009D01*
X105509095Y-133121009D02*
X105556714Y-133216247D01*
X105556714Y-133216247D02*
X105556714Y-133454342D01*
X105556714Y-133454342D02*
X105509095Y-133549580D01*
X105509095Y-133549580D02*
X105461476Y-133597200D01*
X105461476Y-133597200D02*
X105366238Y-133644819D01*
X105366238Y-133644819D02*
X105080524Y-133644819D01*
X105080524Y-133644819D02*
X104985286Y-133597200D01*
X104985286Y-133597200D02*
X104937667Y-133549580D01*
X113194905Y-126034819D02*
X113194905Y-125034819D01*
X113194905Y-125034819D02*
X113433000Y-125034819D01*
X113433000Y-125034819D02*
X113575857Y-125082438D01*
X113575857Y-125082438D02*
X113671095Y-125177676D01*
X113671095Y-125177676D02*
X113718714Y-125272914D01*
X113718714Y-125272914D02*
X113766333Y-125463390D01*
X113766333Y-125463390D02*
X113766333Y-125606247D01*
X113766333Y-125606247D02*
X113718714Y-125796723D01*
X113718714Y-125796723D02*
X113671095Y-125891961D01*
X113671095Y-125891961D02*
X113575857Y-125987200D01*
X113575857Y-125987200D02*
X113433000Y-126034819D01*
X113433000Y-126034819D02*
X113194905Y-126034819D01*
X114623476Y-125368152D02*
X114623476Y-126034819D01*
X114385381Y-124987200D02*
X114147286Y-125701485D01*
X114147286Y-125701485D02*
X114766333Y-125701485D01*
X117304819Y-79073333D02*
X118019104Y-79073333D01*
X118019104Y-79073333D02*
X118161961Y-79120952D01*
X118161961Y-79120952D02*
X118257200Y-79216190D01*
X118257200Y-79216190D02*
X118304819Y-79359047D01*
X118304819Y-79359047D02*
X118304819Y-79454285D01*
X117638152Y-78168571D02*
X118304819Y-78168571D01*
X117257200Y-78406666D02*
X117971485Y-78644761D01*
X117971485Y-78644761D02*
X117971485Y-78025714D01*
X137624819Y-79073333D02*
X138339104Y-79073333D01*
X138339104Y-79073333D02*
X138481961Y-79120952D01*
X138481961Y-79120952D02*
X138577200Y-79216190D01*
X138577200Y-79216190D02*
X138624819Y-79359047D01*
X138624819Y-79359047D02*
X138624819Y-79454285D01*
X137624819Y-78120952D02*
X137624819Y-78597142D01*
X137624819Y-78597142D02*
X138101009Y-78644761D01*
X138101009Y-78644761D02*
X138053390Y-78597142D01*
X138053390Y-78597142D02*
X138005771Y-78501904D01*
X138005771Y-78501904D02*
X138005771Y-78263809D01*
X138005771Y-78263809D02*
X138053390Y-78168571D01*
X138053390Y-78168571D02*
X138101009Y-78120952D01*
X138101009Y-78120952D02*
X138196247Y-78073333D01*
X138196247Y-78073333D02*
X138434342Y-78073333D01*
X138434342Y-78073333D02*
X138529580Y-78120952D01*
X138529580Y-78120952D02*
X138577200Y-78168571D01*
X138577200Y-78168571D02*
X138624819Y-78263809D01*
X138624819Y-78263809D02*
X138624819Y-78501904D01*
X138624819Y-78501904D02*
X138577200Y-78597142D01*
X138577200Y-78597142D02*
X138529580Y-78644761D01*
X107333095Y-103214819D02*
X107333095Y-104024342D01*
X107333095Y-104024342D02*
X107380714Y-104119580D01*
X107380714Y-104119580D02*
X107428333Y-104167200D01*
X107428333Y-104167200D02*
X107523571Y-104214819D01*
X107523571Y-104214819D02*
X107714047Y-104214819D01*
X107714047Y-104214819D02*
X107809285Y-104167200D01*
X107809285Y-104167200D02*
X107856904Y-104119580D01*
X107856904Y-104119580D02*
X107904523Y-104024342D01*
X107904523Y-104024342D02*
X107904523Y-103214819D01*
X108285476Y-103214819D02*
X108904523Y-103214819D01*
X108904523Y-103214819D02*
X108571190Y-103595771D01*
X108571190Y-103595771D02*
X108714047Y-103595771D01*
X108714047Y-103595771D02*
X108809285Y-103643390D01*
X108809285Y-103643390D02*
X108856904Y-103691009D01*
X108856904Y-103691009D02*
X108904523Y-103786247D01*
X108904523Y-103786247D02*
X108904523Y-104024342D01*
X108904523Y-104024342D02*
X108856904Y-104119580D01*
X108856904Y-104119580D02*
X108809285Y-104167200D01*
X108809285Y-104167200D02*
X108714047Y-104214819D01*
X108714047Y-104214819D02*
X108428333Y-104214819D01*
X108428333Y-104214819D02*
X108333095Y-104167200D01*
X108333095Y-104167200D02*
X108285476Y-104119580D01*
D12*
%TO.C,J8*%
X144960000Y-128570000D02*
X144960000Y-134540000D01*
X144960000Y-134540000D02*
X162580000Y-134540000D01*
X144970000Y-132280000D02*
X145720000Y-132280000D01*
X144970000Y-133780000D02*
X144970000Y-134530000D01*
X144970000Y-134530000D02*
X146770000Y-134530000D01*
X145720000Y-129330000D02*
X153770000Y-129330000D01*
X145720000Y-132280000D02*
X145720000Y-129330000D01*
X146770000Y-133780000D02*
X144970000Y-133780000D01*
X146770000Y-134530000D02*
X146770000Y-133780000D01*
X148270000Y-133780000D02*
X148270000Y-134530000D01*
X148270000Y-134530000D02*
X159270000Y-134530000D01*
X159270000Y-133780000D02*
X148270000Y-133780000D01*
X159270000Y-134530000D02*
X159270000Y-133780000D01*
X160770000Y-133780000D02*
X160770000Y-134530000D01*
X160770000Y-134530000D02*
X162570000Y-134530000D01*
X161620000Y-134830000D02*
X162870000Y-134830000D01*
X161820000Y-129330000D02*
X153770000Y-129330000D01*
X161820000Y-132280000D02*
X161820000Y-129330000D01*
X162570000Y-132280000D02*
X161820000Y-132280000D01*
X162570000Y-133780000D02*
X160770000Y-133780000D01*
X162570000Y-134530000D02*
X162570000Y-133780000D01*
X162580000Y-128570000D02*
X144960000Y-128570000D01*
X162580000Y-134540000D02*
X162580000Y-128570000D01*
X162870000Y-134830000D02*
X162870000Y-133580000D01*
%TO.C,J2*%
X96730000Y-70890000D02*
X95480000Y-70890000D01*
X96440000Y-71180000D02*
X90470000Y-71180000D01*
X90470000Y-71180000D02*
X90470000Y-86300000D01*
X96430000Y-71190000D02*
X95680000Y-71190000D01*
X95680000Y-71190000D02*
X95680000Y-72990000D01*
X94180000Y-71190000D02*
X94180000Y-71940000D01*
X94180000Y-71940000D02*
X91230000Y-71940000D01*
X91230000Y-71940000D02*
X91230000Y-78740000D01*
X96730000Y-72140000D02*
X96730000Y-70890000D01*
X96430000Y-72990000D02*
X96430000Y-71190000D01*
X95680000Y-72990000D02*
X96430000Y-72990000D01*
X96430000Y-74490000D02*
X95680000Y-74490000D01*
X95680000Y-74490000D02*
X95680000Y-82990000D01*
X96430000Y-82990000D02*
X96430000Y-74490000D01*
X95680000Y-82990000D02*
X96430000Y-82990000D01*
X96430000Y-84490000D02*
X95680000Y-84490000D01*
X95680000Y-84490000D02*
X95680000Y-86290000D01*
X94180000Y-85540000D02*
X91230000Y-85540000D01*
X91230000Y-85540000D02*
X91230000Y-78740000D01*
X96430000Y-86290000D02*
X96430000Y-84490000D01*
X95680000Y-86290000D02*
X96430000Y-86290000D01*
X94180000Y-86290000D02*
X94180000Y-85540000D01*
X96440000Y-86300000D02*
X96440000Y-71180000D01*
X90470000Y-86300000D02*
X96440000Y-86300000D01*
%TO.C,D3*%
X103481000Y-127995000D02*
X103481000Y-131085000D01*
X109030999Y-129540462D02*
G75*
G03*
X103481001Y-127995170I-2989999J462D01*
G01*
X103481000Y-131084830D02*
G75*
G03*
X109031000Y-129539538I2560000J1544830D01*
G01*
X108541000Y-129540000D02*
G75*
G03*
X108541000Y-129540000I-2500000J0D01*
G01*
D13*
%TO.C,Q2*%
X114762500Y-105334800D02*
X116667500Y-105334800D01*
X114762500Y-104372140D02*
X114762500Y-105334800D01*
X116667500Y-104097861D02*
X116667500Y-103422139D01*
X114762500Y-102185200D02*
X114762500Y-103147860D01*
X116667500Y-102185200D02*
X114762500Y-102185200D01*
%TO.C,C1*%
X98361500Y-101423200D02*
X98361500Y-97425240D01*
X98361500Y-94854760D02*
X98361500Y-90856800D01*
X98361500Y-90856800D02*
X87795100Y-90856800D01*
X87795100Y-101423200D02*
X98361500Y-101423200D01*
X87795100Y-97425240D02*
X87795100Y-101423200D01*
X87795100Y-90856800D02*
X87795100Y-94854760D01*
D12*
%TO.C,J1*%
X127210000Y-70890000D02*
X125960000Y-70890000D01*
X126920000Y-71180000D02*
X120950000Y-71180000D01*
X120950000Y-71180000D02*
X120950000Y-86300000D01*
X126910000Y-71190000D02*
X126160000Y-71190000D01*
X126160000Y-71190000D02*
X126160000Y-72990000D01*
X124660000Y-71190000D02*
X124660000Y-71940000D01*
X124660000Y-71940000D02*
X121710000Y-71940000D01*
X121710000Y-71940000D02*
X121710000Y-78740000D01*
X127210000Y-72140000D02*
X127210000Y-70890000D01*
X126910000Y-72990000D02*
X126910000Y-71190000D01*
X126160000Y-72990000D02*
X126910000Y-72990000D01*
X126910000Y-74490000D02*
X126160000Y-74490000D01*
X126160000Y-74490000D02*
X126160000Y-82990000D01*
X126910000Y-82990000D02*
X126910000Y-74490000D01*
X126160000Y-82990000D02*
X126910000Y-82990000D01*
X126910000Y-84490000D02*
X126160000Y-84490000D01*
X126160000Y-84490000D02*
X126160000Y-86290000D01*
X124660000Y-85540000D02*
X121710000Y-85540000D01*
X121710000Y-85540000D02*
X121710000Y-78740000D01*
X126910000Y-86290000D02*
X126910000Y-84490000D01*
X126160000Y-86290000D02*
X126910000Y-86290000D01*
X124660000Y-86290000D02*
X124660000Y-85540000D01*
X126920000Y-86300000D02*
X126920000Y-71180000D01*
X120950000Y-86300000D02*
X126920000Y-86300000D01*
%TO.C,R2*%
X96896276Y-134097500D02*
X97405724Y-134097500D01*
X96896276Y-135142500D02*
X97405724Y-135142500D01*
%TO.C,D1*%
X88241000Y-127995000D02*
X88241000Y-131085000D01*
X93790999Y-129540462D02*
G75*
G03*
X88241001Y-127995170I-2989999J462D01*
G01*
X88241000Y-131084830D02*
G75*
G03*
X93791000Y-129539538I2560000J1544830D01*
G01*
X93301000Y-129540000D02*
G75*
G03*
X93301000Y-129540000I-2500000J0D01*
G01*
%TO.C,SW1*%
X95560000Y-112500000D02*
X95560000Y-125500000D01*
X95560000Y-112500000D02*
X102560000Y-112500000D01*
X95560000Y-125500000D02*
X102560000Y-125500000D01*
X102560000Y-125500000D02*
X102560000Y-112500000D01*
%TO.C,C5*%
X98200000Y-108810000D02*
X97200000Y-108810000D01*
X97700000Y-109310000D02*
X97700000Y-108310000D01*
X96960000Y-109595563D02*
X96960000Y-107810000D01*
X96960000Y-109595563D02*
X95895563Y-110660000D01*
X96960000Y-103004437D02*
X96960000Y-104790000D01*
X96960000Y-103004437D02*
X95895563Y-101940000D01*
X95895563Y-110660000D02*
X88240000Y-110660000D01*
X95895563Y-101940000D02*
X88240000Y-101940000D01*
X88240000Y-110660000D02*
X88240000Y-107810000D01*
X88240000Y-101940000D02*
X88240000Y-104790000D01*
%TO.C,R1*%
X89276276Y-134097500D02*
X89785724Y-134097500D01*
X89276276Y-135142500D02*
X89785724Y-135142500D01*
D13*
%TO.C,Q1*%
X114140200Y-107887500D02*
X114140200Y-109792500D01*
X115102860Y-107887500D02*
X114140200Y-107887500D01*
X115377139Y-109792500D02*
X116052861Y-109792500D01*
X117289800Y-107887500D02*
X116327140Y-107887500D01*
X117289800Y-109792500D02*
X117289800Y-107887500D01*
D12*
%TO.C,J10*%
X87630000Y-124080000D02*
X95250000Y-124080000D01*
X95250000Y-124080000D02*
X95250000Y-113920000D01*
X87630000Y-113920000D02*
X87630000Y-124080000D01*
X93980000Y-113920000D02*
X93980000Y-124080000D01*
X95250000Y-113920000D02*
X87630000Y-113920000D01*
%TO.C,U1*%
D11*
X139827000Y-107315000D02*
X139573000Y-107569000D01*
X139319000Y-107188000D01*
X139573000Y-106934000D01*
X139827000Y-107315000D01*
G36*
X139827000Y-107315000D02*
G01*
X139573000Y-107569000D01*
X139319000Y-107188000D01*
X139573000Y-106934000D01*
X139827000Y-107315000D01*
G37*
X139446000Y-106807000D02*
X139192000Y-107061000D01*
X138938000Y-106680000D01*
X139192000Y-106426000D01*
X139446000Y-106807000D01*
G36*
X139446000Y-106807000D02*
G01*
X139192000Y-107061000D01*
X138938000Y-106680000D01*
X139192000Y-106426000D01*
X139446000Y-106807000D01*
G37*
X139065000Y-107188000D02*
X138811000Y-107442000D01*
X138557000Y-107061000D01*
X138811000Y-106807000D01*
X139065000Y-107188000D01*
G36*
X139065000Y-107188000D02*
G01*
X138811000Y-107442000D01*
X138557000Y-107061000D01*
X138811000Y-106807000D01*
X139065000Y-107188000D01*
G37*
X139065000Y-106299000D02*
X138811000Y-106553000D01*
X138557000Y-106172000D01*
X138811000Y-105918000D01*
X139065000Y-106299000D01*
G36*
X139065000Y-106299000D02*
G01*
X138811000Y-106553000D01*
X138557000Y-106172000D01*
X138811000Y-105918000D01*
X139065000Y-106299000D01*
G37*
X138684000Y-106680000D02*
X138430000Y-106934000D01*
X138176000Y-106553000D01*
X138430000Y-106299000D01*
X138684000Y-106680000D01*
G36*
X138684000Y-106680000D02*
G01*
X138430000Y-106934000D01*
X138176000Y-106553000D01*
X138430000Y-106299000D01*
X138684000Y-106680000D01*
G37*
X138303000Y-106172000D02*
X138049000Y-106426000D01*
X137795000Y-106045000D01*
X138049000Y-105791000D01*
X138303000Y-106172000D01*
G36*
X138303000Y-106172000D02*
G01*
X138049000Y-106426000D01*
X137795000Y-106045000D01*
X138049000Y-105791000D01*
X138303000Y-106172000D01*
G37*
X137922000Y-106553000D02*
X137668000Y-106807000D01*
X137414000Y-106426000D01*
X137668000Y-106172000D01*
X137922000Y-106553000D01*
G36*
X137922000Y-106553000D02*
G01*
X137668000Y-106807000D01*
X137414000Y-106426000D01*
X137668000Y-106172000D01*
X137922000Y-106553000D01*
G37*
X137541000Y-106934000D02*
X137287000Y-107188000D01*
X137033000Y-106807000D01*
X137287000Y-106553000D01*
X137541000Y-106934000D01*
G36*
X137541000Y-106934000D02*
G01*
X137287000Y-107188000D01*
X137033000Y-106807000D01*
X137287000Y-106553000D01*
X137541000Y-106934000D01*
G37*
D10*
X158750000Y-115570000D02*
X123190000Y-115570000D01*
X158750000Y-97790000D02*
X158750000Y-115570000D01*
X155702000Y-107950000D02*
X151130000Y-107950000D01*
X155702000Y-105410000D02*
X155702000Y-107950000D01*
X151130000Y-107950000D02*
X151130000Y-105410000D01*
X151130000Y-105410000D02*
X155702000Y-105410000D01*
X148590000Y-104775000D02*
X146050000Y-104775000D01*
X148590000Y-101600000D02*
X148590000Y-104775000D01*
X146050000Y-104775000D02*
X146050000Y-101600000D01*
X146050000Y-101600000D02*
X148590000Y-101600000D01*
X145415000Y-111760000D02*
X145415000Y-101600000D01*
X145415000Y-111760000D02*
X135255000Y-111760000D01*
X145415000Y-101600000D02*
X135255000Y-101600000D01*
X135255000Y-101600000D02*
X135255000Y-111760000D01*
X128270000Y-110490000D02*
X128270000Y-102870000D01*
X128270000Y-110490000D02*
X123190000Y-110490000D01*
X128270000Y-102870000D02*
X123190000Y-102870000D01*
X123190000Y-115570000D02*
X123190000Y-97790000D01*
X123190000Y-110490000D02*
X121920000Y-110490000D01*
X123190000Y-97790000D02*
X158750000Y-97790000D01*
X121920000Y-110490000D02*
X121920000Y-102870000D01*
X121920000Y-102870000D02*
X123190000Y-102870000D01*
D12*
%TO.C,J7*%
X157690000Y-70890000D02*
X156440000Y-70890000D01*
X157400000Y-71180000D02*
X151430000Y-71180000D01*
X151430000Y-71180000D02*
X151430000Y-86300000D01*
X157390000Y-71190000D02*
X156640000Y-71190000D01*
X156640000Y-71190000D02*
X156640000Y-72990000D01*
X155140000Y-71190000D02*
X155140000Y-71940000D01*
X155140000Y-71940000D02*
X152190000Y-71940000D01*
X152190000Y-71940000D02*
X152190000Y-78740000D01*
X157690000Y-72140000D02*
X157690000Y-70890000D01*
X157390000Y-72990000D02*
X157390000Y-71190000D01*
X156640000Y-72990000D02*
X157390000Y-72990000D01*
X157390000Y-74490000D02*
X156640000Y-74490000D01*
X156640000Y-74490000D02*
X156640000Y-82990000D01*
X157390000Y-82990000D02*
X157390000Y-74490000D01*
X156640000Y-82990000D02*
X157390000Y-82990000D01*
X157390000Y-84490000D02*
X156640000Y-84490000D01*
X156640000Y-84490000D02*
X156640000Y-86290000D01*
X155140000Y-85540000D02*
X152190000Y-85540000D01*
X152190000Y-85540000D02*
X152190000Y-78740000D01*
X157390000Y-86290000D02*
X157390000Y-84490000D01*
X156640000Y-86290000D02*
X157390000Y-86290000D01*
X155140000Y-86290000D02*
X155140000Y-85540000D01*
X157400000Y-86300000D02*
X157400000Y-71180000D01*
X151430000Y-86300000D02*
X157400000Y-86300000D01*
D13*
%TO.C,C3*%
X118529100Y-108245850D02*
X118529100Y-109434150D01*
X120230900Y-109434150D02*
X120230900Y-108245850D01*
X119456200Y-106541300D02*
G75*
G03*
X119456200Y-106541300I-76200J0D01*
G01*
D12*
%TO.C,J6*%
X147530000Y-70890000D02*
X146280000Y-70890000D01*
X147240000Y-71180000D02*
X141270000Y-71180000D01*
X141270000Y-71180000D02*
X141270000Y-86300000D01*
X147230000Y-71190000D02*
X146480000Y-71190000D01*
X146480000Y-71190000D02*
X146480000Y-72990000D01*
X144980000Y-71190000D02*
X144980000Y-71940000D01*
X144980000Y-71940000D02*
X142030000Y-71940000D01*
X142030000Y-71940000D02*
X142030000Y-78740000D01*
X147530000Y-72140000D02*
X147530000Y-70890000D01*
X147230000Y-72990000D02*
X147230000Y-71190000D01*
X146480000Y-72990000D02*
X147230000Y-72990000D01*
X147230000Y-74490000D02*
X146480000Y-74490000D01*
X146480000Y-74490000D02*
X146480000Y-82990000D01*
X147230000Y-82990000D02*
X147230000Y-74490000D01*
X146480000Y-82990000D02*
X147230000Y-82990000D01*
X147230000Y-84490000D02*
X146480000Y-84490000D01*
X146480000Y-84490000D02*
X146480000Y-86290000D01*
X144980000Y-85540000D02*
X142030000Y-85540000D01*
X142030000Y-85540000D02*
X142030000Y-78740000D01*
X147230000Y-86290000D02*
X147230000Y-84490000D01*
X146480000Y-86290000D02*
X147230000Y-86290000D01*
X144980000Y-86290000D02*
X144980000Y-85540000D01*
X147240000Y-86300000D02*
X147240000Y-71180000D01*
X141270000Y-86300000D02*
X147240000Y-86300000D01*
%TO.C,J3*%
X106890000Y-70890000D02*
X105640000Y-70890000D01*
X106600000Y-71180000D02*
X100630000Y-71180000D01*
X100630000Y-71180000D02*
X100630000Y-86300000D01*
X106590000Y-71190000D02*
X105840000Y-71190000D01*
X105840000Y-71190000D02*
X105840000Y-72990000D01*
X104340000Y-71190000D02*
X104340000Y-71940000D01*
X104340000Y-71940000D02*
X101390000Y-71940000D01*
X101390000Y-71940000D02*
X101390000Y-78740000D01*
X106890000Y-72140000D02*
X106890000Y-70890000D01*
X106590000Y-72990000D02*
X106590000Y-71190000D01*
X105840000Y-72990000D02*
X106590000Y-72990000D01*
X106590000Y-74490000D02*
X105840000Y-74490000D01*
X105840000Y-74490000D02*
X105840000Y-82990000D01*
X106590000Y-82990000D02*
X106590000Y-74490000D01*
X105840000Y-82990000D02*
X106590000Y-82990000D01*
X106590000Y-84490000D02*
X105840000Y-84490000D01*
X105840000Y-84490000D02*
X105840000Y-86290000D01*
X104340000Y-85540000D02*
X101390000Y-85540000D01*
X101390000Y-85540000D02*
X101390000Y-78740000D01*
X106590000Y-86290000D02*
X106590000Y-84490000D01*
X105840000Y-86290000D02*
X106590000Y-86290000D01*
X104340000Y-86290000D02*
X104340000Y-85540000D01*
X106600000Y-86300000D02*
X106600000Y-71180000D01*
X100630000Y-86300000D02*
X106600000Y-86300000D01*
%TO.C,J9*%
X144960000Y-120950000D02*
X144960000Y-126920000D01*
X144960000Y-126920000D02*
X162580000Y-126920000D01*
X144970000Y-124660000D02*
X145720000Y-124660000D01*
X144970000Y-126160000D02*
X144970000Y-126910000D01*
X144970000Y-126910000D02*
X146770000Y-126910000D01*
X145720000Y-121710000D02*
X153770000Y-121710000D01*
X145720000Y-124660000D02*
X145720000Y-121710000D01*
X146770000Y-126160000D02*
X144970000Y-126160000D01*
X146770000Y-126910000D02*
X146770000Y-126160000D01*
X148270000Y-126160000D02*
X148270000Y-126910000D01*
X148270000Y-126910000D02*
X159270000Y-126910000D01*
X159270000Y-126160000D02*
X148270000Y-126160000D01*
X159270000Y-126910000D02*
X159270000Y-126160000D01*
X160770000Y-126160000D02*
X160770000Y-126910000D01*
X160770000Y-126910000D02*
X162570000Y-126910000D01*
X161620000Y-127210000D02*
X162870000Y-127210000D01*
X161820000Y-121710000D02*
X153770000Y-121710000D01*
X161820000Y-124660000D02*
X161820000Y-121710000D01*
X162570000Y-124660000D02*
X161820000Y-124660000D01*
X162570000Y-126160000D02*
X160770000Y-126160000D01*
X162570000Y-126910000D02*
X162570000Y-126160000D01*
X162580000Y-120950000D02*
X144960000Y-120950000D01*
X162580000Y-126920000D02*
X162580000Y-120950000D01*
X162870000Y-127210000D02*
X162870000Y-125960000D01*
D13*
%TO.C,C6*%
X102557800Y-109347000D02*
X102557800Y-110109000D01*
X102938800Y-109728000D02*
X102176800Y-109728000D01*
X104450100Y-107353100D02*
X104450100Y-108150660D01*
X104450100Y-111305340D02*
X104450100Y-112102900D01*
X104450100Y-112102900D02*
X112197100Y-112102900D01*
X112197100Y-107353100D02*
X104450100Y-107353100D01*
X112197100Y-108150660D02*
X112197100Y-107353100D01*
X112197100Y-112102900D02*
X112197100Y-111305340D01*
D12*
%TO.C,D2*%
X95230000Y-127995000D02*
X95230000Y-131085000D01*
X100779999Y-129540462D02*
G75*
G03*
X95230001Y-127995170I-2989999J462D01*
G01*
X95230000Y-131084830D02*
G75*
G03*
X100780000Y-129539538I2560000J1544830D01*
G01*
X100290000Y-129540000D02*
G75*
G03*
X100290000Y-129540000I-2500000J0D01*
G01*
%TO.C,R4*%
X112136276Y-134097500D02*
X112645724Y-134097500D01*
X112136276Y-135142500D02*
X112645724Y-135142500D01*
%TO.C,U2*%
X121920000Y-133350000D02*
X142240000Y-133350000D01*
X142240000Y-133350000D02*
X142240000Y-120650000D01*
X142240000Y-120650000D02*
X121920000Y-120650000D01*
X121920000Y-120650000D02*
X121920000Y-133350000D01*
%TO.C,R3*%
X104516276Y-134097500D02*
X105025724Y-134097500D01*
X104516276Y-135142500D02*
X105025724Y-135142500D01*
%TO.C,D4*%
X111373000Y-127995000D02*
X111373000Y-131085000D01*
X116922999Y-129540462D02*
G75*
G03*
X111373001Y-127995170I-2989999J462D01*
G01*
X111373000Y-131084830D02*
G75*
G03*
X116923000Y-129539538I2560000J1544830D01*
G01*
X116433000Y-129540000D02*
G75*
G03*
X116433000Y-129540000I-2500000J0D01*
G01*
%TO.C,J4*%
X117050000Y-70890000D02*
X115800000Y-70890000D01*
X116760000Y-71180000D02*
X110790000Y-71180000D01*
X110790000Y-71180000D02*
X110790000Y-86300000D01*
X116750000Y-71190000D02*
X116000000Y-71190000D01*
X116000000Y-71190000D02*
X116000000Y-72990000D01*
X114500000Y-71190000D02*
X114500000Y-71940000D01*
X114500000Y-71940000D02*
X111550000Y-71940000D01*
X111550000Y-71940000D02*
X111550000Y-78740000D01*
X117050000Y-72140000D02*
X117050000Y-70890000D01*
X116750000Y-72990000D02*
X116750000Y-71190000D01*
X116000000Y-72990000D02*
X116750000Y-72990000D01*
X116750000Y-74490000D02*
X116000000Y-74490000D01*
X116000000Y-74490000D02*
X116000000Y-82990000D01*
X116750000Y-82990000D02*
X116750000Y-74490000D01*
X116000000Y-82990000D02*
X116750000Y-82990000D01*
X116750000Y-84490000D02*
X116000000Y-84490000D01*
X116000000Y-84490000D02*
X116000000Y-86290000D01*
X114500000Y-85540000D02*
X111550000Y-85540000D01*
X111550000Y-85540000D02*
X111550000Y-78740000D01*
X116750000Y-86290000D02*
X116750000Y-84490000D01*
X116000000Y-86290000D02*
X116750000Y-86290000D01*
X114500000Y-86290000D02*
X114500000Y-85540000D01*
X116760000Y-86300000D02*
X116760000Y-71180000D01*
X110790000Y-86300000D02*
X116760000Y-86300000D01*
%TO.C,J5*%
X137370000Y-70890000D02*
X136120000Y-70890000D01*
X137080000Y-71180000D02*
X131110000Y-71180000D01*
X131110000Y-71180000D02*
X131110000Y-86300000D01*
X137070000Y-71190000D02*
X136320000Y-71190000D01*
X136320000Y-71190000D02*
X136320000Y-72990000D01*
X134820000Y-71190000D02*
X134820000Y-71940000D01*
X134820000Y-71940000D02*
X131870000Y-71940000D01*
X131870000Y-71940000D02*
X131870000Y-78740000D01*
X137370000Y-72140000D02*
X137370000Y-70890000D01*
X137070000Y-72990000D02*
X137070000Y-71190000D01*
X136320000Y-72990000D02*
X137070000Y-72990000D01*
X137070000Y-74490000D02*
X136320000Y-74490000D01*
X136320000Y-74490000D02*
X136320000Y-82990000D01*
X137070000Y-82990000D02*
X137070000Y-74490000D01*
X136320000Y-82990000D02*
X137070000Y-82990000D01*
X137070000Y-84490000D02*
X136320000Y-84490000D01*
X136320000Y-84490000D02*
X136320000Y-86290000D01*
X134820000Y-85540000D02*
X131870000Y-85540000D01*
X131870000Y-85540000D02*
X131870000Y-78740000D01*
X137070000Y-86290000D02*
X137070000Y-84490000D01*
X136320000Y-86290000D02*
X137070000Y-86290000D01*
X134820000Y-86290000D02*
X134820000Y-85540000D01*
X137080000Y-86300000D02*
X137080000Y-71180000D01*
X131110000Y-86300000D02*
X137080000Y-86300000D01*
D13*
%TO.C,U3*%
X105720100Y-101080300D02*
X105720100Y-101299459D01*
X105720100Y-106220539D02*
X105720100Y-106439700D01*
X105720100Y-106439700D02*
X110469900Y-106439700D01*
X110469900Y-101080300D02*
X105720100Y-101080300D01*
X110469900Y-101299461D02*
X110469900Y-101080300D01*
X110469900Y-106439700D02*
X110469900Y-106220541D01*
%TD*%
M02*
